<?xml version="1.0" standalone="no"?>
<!DOCTYPE svg PUBLIC "-//W3C//DTD SVG 1.1//EN" "http://www.w3.org/Graphics/SVG/1.1/DTD/svg11.dtd" >
<svg xmlns="http://www.w3.org/2000/svg" xmlns:xlink="http://www.w3.org/1999/xlink" version="1.1">
<metadata>
Created by FontForge 20170731 at Thu Nov 21 14:44:33 2019
 By Aleksey,,,
Copyright (c) 2013 Schick Toikka. All rights reserved. Saol Standard is a trademark of Schick Toikka. Unauthorised copying or modification of any of its data is illegal.
</metadata>
<defs>
<font id="SaolStandard-Thin" horiz-adv-x="607" >
  <font-face 
    font-family="Saol Standard Thin"
    font-weight="100"
    font-stretch="normal"
    units-per-em="1000"
    panose-1="0 0 2 0 0 0 0 0 0 0"
    ascent="750"
    descent="-250"
    x-height="490"
    cap-height="681"
    bbox="-230 -250 1185 1041"
    underline-thickness="50"
    underline-position="-200"
    unicode-range="U+0020-FB02"
  />
<missing-glyph horiz-adv-x="591" 
d="M50 -226v1002h491v-1002h-491zM296 294l221 467h-442zM65 -195l222 470l-222 470v-940zM526 -195v940l-222 -470zM75 -211h441l-220 468z" />
    <glyph glyph-name="fi" unicode="fi" horiz-adv-x="540" 
d="M41 0v11q36 0 45 6.5t9 35.5v370q0 26 4 54h-73v13h75q10 64 43 112q31 45 81.5 69.5t105.5 24.5q92 0 92 -29q0 -19 -21 -19q-12 0 -50.5 10.5t-75.5 10.5q-56 0 -97.5 -44t-41.5 -130v-5h172v-13h-172v-424q0 -28 13 -35t51 -7h14v-11h-20q-12 0 -35.5 2t-42.5 2
q-18 0 -39 -2t-31 -2h-6zM352 0v11q36 0 45 6.5t9 35.5v349q0 29 -8.5 35t-45.5 6v10h6q31 0 53.5 12.5t27.5 31.5h9v-444q0 -29 9 -35.5t46 -6.5v-11h-7q-10 0 -30.5 1.5t-38.5 1.5t-38.5 -1.5t-30.5 -1.5h-6z" />
    <glyph glyph-name="fl" unicode="fl" horiz-adv-x="531" 
d="M41 0v11q36 0 45 6.5t9 35.5v366q0 26 2 58h-71v13h72q22 211 186 211q77 0 117 -45q26 27 28 69h9v-672q0 -29 9 -35.5t46 -6.5v-11h-7q-10 0 -30.5 1.5t-38.5 1.5t-38.5 -1.5t-30.5 -1.5h-6v11q36 0 45 6.5t9 35.5v592q-36 45 -112 45q-77 0 -112 -48.5t-35 -129.5v-22
h172v-13h-172v-424q0 -28 13 -35t51 -7h14v-11h-20q-12 0 -35.5 2t-42.5 2q-18 0 -39 -2t-31 -2h-6z" />
    <glyph glyph-name="fb" unicode="fb" horiz-adv-x="818" 
d="M389 -10v654q-37 46 -105 46q-77 0 -112 -48.5t-35 -129.5v-22h172v-13h-172v-424q0 -28 13 -35t51 -7h14v-11h-20q-12 0 -35.5 2t-42.5 2q-18 0 -39 -2t-31 -2h-6v11q36 0 45 6.5t9 35.5v366q0 26 2 58h-71v13h72q22 211 186 211q36 0 66 -14t44 -31q26 27 28 69h9v-296
q77 69 159 69q75 0 127 -59.5t52 -193.5t-52 -193.5t-127 -59.5q-85 0 -162 72q-27 -30 -29 -74h-10zM591 4q130 0 130 241t-130 241q-79 0 -160 -72v-337q80 -73 160 -73z" />
    <glyph glyph-name="fj" unicode="fj" horiz-adv-x="526" 
d="M41 0v11q36 0 45 6.5t9 35.5v370q0 26 4 54h-73v13h75q10 64 43 112q31 45 81.5 69.5t105.5 24.5q92 0 92 -29q0 -19 -22 -19q-12 0 -50 10.5t-75 10.5q-56 0 -97.5 -44t-41.5 -130v-5h172v-13h-172v-424q0 -28 13 -35t51 -7h14v-11h-20q-12 0 -35.5 2t-42.5 2
q-18 0 -39 -2t-31 -2h-6zM287 -235q-22 0 -22 18q0 19 22 19q8 0 25.5 -0.5t24.5 -0.5q32 0 50 27t18 80v494q0 29 -8.5 35t-45.5 6v10h6q31 0 53.5 12.5t27.5 31.5h9v-462q0 -115 -33 -182q-21 -42 -54.5 -65t-72.5 -23z" />
    <glyph glyph-name="fh" unicode="fh" horiz-adv-x="823" 
d="M41 0v11q36 0 45 6.5t9 35.5v366q0 26 2 58h-71v13h72q22 211 186 211q41 0 71.5 -14t45.5 -31q26 27 28 69h9v-306l103 41q99 38 132 38q60 0 60 -67v-378q0 -29 9 -35.5t45 -6.5v-11h-7q-10 0 -30 1.5t-38 1.5t-38.5 -1.5t-30.5 -1.5h-7v11q37 0 46 6.5t9 35.5v378
q0 51 -35 51q-23 0 -94 -27l-124 -49v-353q0 -29 9 -35.5t46 -6.5v-11h-7q-10 0 -30.5 1.5t-38.5 1.5t-38.5 -1.5t-30.5 -1.5h-6v11q36 0 45 6.5t9 35.5v592q-38 45 -112 45q-77 0 -112 -48.5t-35 -129.5v-22h172v-13h-172v-424q0 -28 13 -35t51 -7h14v-11h-20
q-12 0 -35.5 2t-42.5 2q-18 0 -39 -2t-31 -2h-6z" />
    <glyph glyph-name="fk" unicode="fk" horiz-adv-x="807" 
d="M26 477v13h72q22 211 186 211q41 0 71.5 -14t45.5 -31q26 27 28 69h9v-531l91 92l-20 29h46l98 98q30 30 30 45q0 22 -43 22v10h11q13 0 31.5 -1.5t33.5 -1.5q16 0 35.5 1.5t31.5 1.5h11v-10q-36 0 -62.5 -15.5t-60.5 -50.5l-106 -108l171 -258q16 -25 27.5 -31t39.5 -6
v-11h-4q-8 0 -28 1.5t-39 1.5q-17 0 -35.5 -1.5t-25.5 -1.5h-19v11h7q38 0 38 14q0 7 -10 22l-151 229l-98 -100v-123q0 -29 9 -35.5t46 -6.5v-11h-7q-10 0 -30.5 1.5t-38.5 1.5t-38.5 -1.5t-30.5 -1.5h-6v11q36 0 45 6.5t9 35.5v592q-38 45 -112 45q-77 0 -112 -48.5
t-35 -129.5v-22h172v-13h-172v-424q0 -28 13 -35t51 -7h14v-11h-20q-12 0 -35.5 2t-42.5 2q-18 0 -39 -2t-31 -2h-6v11q36 0 45 6.5t9 35.5v366q0 26 2 58h-71z" />
    <glyph glyph-name=".notdef" horiz-adv-x="591" 
d="M50 -226v1002h491v-1002h-491zM296 294l221 467h-442zM65 -195l222 470l-222 470v-940zM526 -195v940l-222 -470zM75 -211h441l-220 468z" />
    <glyph glyph-name=".null" horiz-adv-x="0" 
 />
    <glyph glyph-name="nonmarkingreturn" horiz-adv-x="333" 
 />
    <glyph glyph-name="space" unicode=" " horiz-adv-x="196" 
 />
    <glyph glyph-name="exclam" unicode="!" horiz-adv-x="218" 
d="M102 189v50q0 77 -10.5 224t-10.5 190q0 35 28 35t28 -35q0 -43 -11 -190.5t-11 -223.5v-50h-13zM109 -5q-16 0 -27 11t-11 27t11 27t27 11t27 -11t11 -27t-11 -27t-27 -11z" />
    <glyph glyph-name="quotedbl" unicode="&#x22;" horiz-adv-x="267" 
d="M69 483q-1 79 -12.5 126t-11.5 51q0 14 8 22.5t20 8.5q14 0 22 -8.5t8 -22.5q0 -4 -11 -51t-12 -126h-11zM188 483q-1 79 -12.5 126t-11.5 51q0 14 8 22.5t20 8.5q14 0 22 -8.5t8 -22.5q0 -4 -11 -51t-12 -126h-11z" />
    <glyph glyph-name="numbersign" unicode="#" horiz-adv-x="599" 
d="M125 7l-15 5l57 198h-129v15h133l66 229h-127v15h131l58 202l15 -5l-56 -197h160l58 202l15 -5l-56 -197h126v-15h-131l-66 -229h126v-15h-131l-58 -203l-15 5l57 198h-160zM187 225h161l66 229h-161z" />
    <glyph glyph-name="dollar" unicode="$" horiz-adv-x="512" 
d="M255 -72v73q-83 1 -143 44.5t-60 94.5q0 25 21 25q16 0 21 -17q1 -2 3.5 -13.5t5.5 -20.5q30 -96 152 -100v318l-46 14q-63 20 -100 62t-37 105q0 70 47.5 119t135.5 49v72h14v-72q58 -2 112 -42.5t54 -91.5q0 -21 -20 -21q-12 0 -19 12q-2 4 -4.5 17t-5.5 22
q-28 88 -117 91v-295l44 -13q78 -23 114 -65t36 -107q0 -82 -54.5 -134.5t-139.5 -52.5v-73h-14zM255 377v291q-81 0 -122 -41.5t-41 -103.5q0 -54 31.5 -85t102.5 -52zM269 14q76 0 123.5 44t47.5 111q0 58 -38 93t-114 59l-19 6v-313z" />
    <glyph glyph-name="percent" unicode="%" horiz-adv-x="709" 
d="M168 -12l-13 7l369 657q-64 -56 -144 -56q-40 0 -78 23q22 -46 22 -102q0 -71 -33.5 -121t-96.5 -50q-62 0 -98.5 49.5t-36.5 121.5t36.5 121.5t98.5 49.5q46 0 80 -32q49 -47 106 -47q42 0 87 21t78 61l12 -7zM191 359q58 0 88 46t30 112t-30 112t-88 46q-88 0 -88 -158
t88 -158zM517 -8q-62 0 -98.5 49.5t-36.5 121.5t36.5 121.5t98.5 49.5q63 0 96.5 -50.5t33.5 -120.5q0 -71 -33.5 -121t-96.5 -50zM514 5q58 0 88 46t30 112t-30 112t-88 46q-88 0 -88 -158t88 -158z" />
    <glyph glyph-name="ampersand" unicode="&#x26;" horiz-adv-x="765" 
d="M264 -10q-78 0 -133 55.5t-55 147.5q0 89 52.5 144t121.5 75q-41 21 -63 55.5t-22 76.5q0 67 49 107t112 40q64 0 117.5 -37.5t53.5 -73.5q0 -23 -22 -23q-15 0 -23 22q-7 19 -15.5 33.5t-23 31t-37 25.5t-51.5 9q-55 0 -95 -33.5t-40 -83.5q0 -84 112 -132
q98 -42 135.5 -71.5t50.5 -90.5l8 -39q7 12 50 88q49 85 137 85q32 0 32 -20q0 -21 -30 -21q-10 0 -27.5 3.5t-29.5 3.5q-20 0 -36 -13t-35 -45q-25 -40 -57 -99l9 -41q21 -95 49.5 -127t70.5 -32q49 0 89 50l8 -7q-16 -19 -24.5 -27.5t-33 -20t-52.5 -11.5
q-45 0 -85.5 35.5t-59.5 122.5l-1 5q-13 -23 -14 -25q-43 -72 -87.5 -107t-104.5 -35zM264 3q56 0 98 34.5t86 106.5l18 31q-10 51 -18 79q-16 53 -45.5 78t-107.5 58q-6 2 -15.5 6.5t-14.5 6.5q-69 -17 -105.5 -72.5t-36.5 -136.5q0 -37 7 -69t22.5 -60.5t44 -45
t67.5 -16.5z" />
    <glyph glyph-name="quotesingle" unicode="'" horiz-adv-x="148" 
d="M69 483q-1 79 -12.5 126t-11.5 51q0 14 8 22.5t20 8.5q14 0 22 -8.5t8 -22.5q0 -4 -11 -51t-12 -126h-11z" />
    <glyph glyph-name="parenleft" unicode="(" horiz-adv-x="279" 
d="M259 -176q-84 70 -140.5 198.5t-56.5 253.5t56.5 253.5t140.5 198.5l8 -9q-79 -69 -118.5 -186.5t-39.5 -256.5q0 -138 39.5 -256.5t118.5 -186.5z" />
    <glyph glyph-name="parenright" unicode=")" horiz-adv-x="279" 
d="M20 -176l-8 9q79 68 118.5 186.5t39.5 256.5q0 139 -39.5 256.5t-118.5 186.5l8 9q84 -70 140.5 -198.5t56.5 -253.5t-56.5 -253.5t-140.5 -198.5z" />
    <glyph glyph-name="asterisk" unicode="*" horiz-adv-x="386" 
d="M193 402q-11 0 -18 6.5t-7 17.5q0 15 10 55.5t11 72.5q-29 -18 -60.5 -46.5t-37.5 -33.5q-7 -5 -15 -5q-11 0 -17.5 7.5t-6.5 16.5q0 14 12 21q14 8 54 20.5t67 26.5q-27 14 -67 26.5t-54 20.5q-12 7 -12 21q0 9 6.5 16.5t17.5 7.5q8 0 15 -5q6 -5 37.5 -33.5t60.5 -46.5
q-1 32 -11 72.5t-10 55.5q0 11 7 17.5t18 6.5t18 -6.5t7 -17.5q0 -15 -10 -55.5t-11 -72.5q29 18 60.5 46.5t37.5 33.5q7 5 15 5q11 0 17.5 -7.5t6.5 -16.5q0 -14 -12 -21q-14 -8 -53.5 -20.5t-66.5 -26.5q27 -14 66.5 -26.5t53.5 -20.5q12 -7 12 -21q0 -9 -6.5 -16.5
t-17.5 -7.5q-8 0 -15 5q-6 5 -37.5 33.5t-60.5 46.5q1 -32 11 -72.5t10 -55.5q0 -11 -7 -17.5t-18 -6.5z" />
    <glyph glyph-name="plus" unicode="+" horiz-adv-x="534" 
d="M259 103v212h-212v15h212v213h15v-213h213v-15h-213v-212h-15z" />
    <glyph glyph-name="comma" unicode="," horiz-adv-x="194" 
d="M62 -94l-2 11q27 8 46.5 35.5t19.5 61.5q-11 -18 -34 -18q-14 0 -24.5 11t-10.5 26q0 16 10.5 27t27.5 11q18 0 30.5 -14t12.5 -38q0 -46 -23.5 -75.5t-52.5 -37.5z" />
    <glyph glyph-name="hyphen" unicode="-" horiz-adv-x="296" 
d="M67 264v36h162v-36h-162z" />
    <glyph glyph-name="period" unicode="." horiz-adv-x="190" 
d="M95 -5q-16 0 -27 11t-11 27t11 27t27 11t27 -11t11 -27t-11 -27t-27 -11z" />
    <glyph glyph-name="slash" unicode="/" horiz-adv-x="360" 
d="M37 -174l-14 4l300 895l15 -5z" />
    <glyph glyph-name="zero" unicode="0" horiz-adv-x="592" 
d="M296 -10q-103 0 -173 100t-70 251t70 250.5t173 99.5t172.5 -99.5t69.5 -250.5t-69.5 -251t-172.5 -100zM296 3q95 0 143.5 87t48.5 251t-48.5 250.5t-143.5 86.5t-144 -86.5t-49 -250.5q0 -163 49 -250.5t144 -87.5z" />
    <glyph glyph-name="one" unicode="1" horiz-adv-x="288" 
d="M65 0v12h4q28 0 38.5 1.5t17.5 9t7 24.5v526q0 16 -14 16q-11 0 -37 -13l-23 -12l-5 10q44 22 76 55t36 57h10v-634q0 -27 8.5 -33.5t40.5 -6.5v-12h-7q-10 0 -28.5 1.5t-35.5 1.5t-35 -1.5t-27 -1.5h-26z" />
    <glyph glyph-name="two" unicode="2" horiz-adv-x="473" 
d="M409 -54l-9 2q2 31 -9 41.5t-37 10.5h-332v7l137 142q51 54 82.5 90.5t64 85t47.5 98t15 102.5q0 153 -120 153q-59 0 -97.5 -35t-54.5 -82q-9 -27 -27 -27q-21 0 -21 23q0 42 66 88t135 46q65 0 117 -42.5t52 -123.5q0 -21 -4 -42.5t-9 -39.5t-17.5 -40t-20.5 -37
t-26.5 -39t-28.5 -36.5t-33.5 -38t-33.5 -36t-37.5 -39t-36.5 -37.5l-95 -98h353z" />
    <glyph glyph-name="three" unicode="3" horiz-adv-x="515" 
d="M248 -10q-84 0 -152.5 55t-68.5 111q0 24 20 24q17 0 23 -23q44 -154 178 -154q82 0 128 53.5t46 152.5q0 164 -108 164q-20 0 -52 -16l-73 -38l-6 12l96 50q94 49 94 162q0 135 -112 135q-60 0 -97.5 -35.5t-54.5 -81.5q-10 -27 -28 -27q-20 0 -20 22q0 42 66 88.5
t134 46.5q64 0 111.5 -40t47.5 -102q0 -54 -35 -99t-74 -65q18 1 38 -3t42 -16.5t40 -32t29.5 -52t11.5 -73.5q0 -55 -22 -99t-56.5 -68.5t-72 -37.5t-73.5 -13z" />
    <glyph glyph-name="four" unicode="4" horiz-adv-x="502" 
d="M244 0v12h6q25 0 35 1.5t17 9t7 24.5v141h-303v9l308 485q3 0 9 -0.5t10 -0.5q3 0 9 0.5t9 0.5v-481h5q93 0 128 119l10 -2l-28 -130h-115v-136q0 -27 8.5 -33.5t40.5 -6.5v-12h-7q-10 0 -28 1.5t-35 1.5t-34.5 -1.5t-26.5 -1.5h-25zM24 201h285v449z" />
    <glyph glyph-name="five" unicode="5" horiz-adv-x="517" 
d="M247 -10q-77 0 -138.5 47t-61.5 86q0 24 23 24q17 0 25 -25q44 -119 152 -119q82 0 126.5 67.5t44.5 162.5q0 92 -36 150t-115 58q-116 0 -182 -104l-11 4l51 340h252q62 0 72 37l9 -2l-16 -77h-311l-41 -274q68 89 178 89q90 0 145 -58t55 -162q0 -111 -65.5 -177.5
t-155.5 -66.5z" />
    <glyph glyph-name="six" unicode="6" horiz-adv-x="534" 
d="M270 -10q-97 0 -157 82t-60 213q0 149 101.5 259.5t265.5 147.5l3 -12q-278 -71 -315 -316q33 41 81 65.5t99 24.5q81 0 136.5 -60t55.5 -156q0 -103 -60.5 -175.5t-149.5 -72.5zM270 3q76 0 118 62.5t42 170.5q0 97 -38 151t-106 54q-48 0 -95.5 -25.5t-83.5 -70.5
q-4 -27 -4 -55q0 -287 167 -287z" />
    <glyph glyph-name="seven" unicode="7" horiz-adv-x="456" 
d="M175 -4q-26 0 -26 28q0 245 260 615h-295q-30 0 -44 -12.5t-24 -46.5l-9 2l28 134l9 -1q-2 -21 11 -27.5t41 -6.5h322v-7q-64 -92 -103.5 -158.5t-75 -147t-51 -164t-15.5 -181.5q0 -12 -8 -19.5t-20 -7.5z" />
    <glyph glyph-name="eight" unicode="8" horiz-adv-x="525" 
d="M272 -10q-98 0 -160.5 55t-62.5 137q0 59 37 109.5t107 81.5q-114 50 -114 147q0 67 50.5 119t135.5 52q78 0 133.5 -44t55.5 -119q0 -102 -108 -171q130 -54 130 -175q0 -84 -56.5 -138t-147.5 -54zM335 362q76 56 76 165q0 67 -37 109t-109 42q-71 0 -113.5 -40
t-42.5 -98q0 -89 109 -133zM272 3q83 0 128 47t45 118q0 108 -131 158l-109 42q-52 -28 -81 -78t-29 -106q0 -72 43.5 -126.5t133.5 -54.5z" />
    <glyph glyph-name="nine" unicode="9" horiz-adv-x="534" 
d="M110 -10l-2 12q279 73 314 317q-32 -41 -80 -66t-99 -25q-82 0 -137.5 60t-55.5 156q0 103 61 175.5t149 72.5q97 0 157 -81.5t60 -212.5q0 -149 -101 -259.5t-266 -148.5zM244 241q102 0 180 97q3 30 3 54q0 287 -166 287q-77 0 -119 -62t-42 -171q0 -97 38 -151
t106 -54z" />
    <glyph glyph-name="colon" unicode=":" horiz-adv-x="190" 
d="M95 379q-16 0 -27 11t-11 27t11 27t27 11t27 -11t11 -27t-11 -27t-27 -11zM95 -5q-16 0 -27 11t-11 27t11 27t27 11t27 -11t11 -27t-11 -27t-27 -11z" />
    <glyph glyph-name="semicolon" unicode=";" horiz-adv-x="194" 
d="M98 379q-16 0 -27 11t-11 27t11 27t27 11t27 -11t11 -27t-11 -27t-27 -11zM62 -94l-2 11q27 8 46.5 35.5t19.5 61.5q-11 -18 -34 -18q-14 0 -24.5 11t-10.5 26q0 16 10.5 27t27.5 11q18 0 30.5 -14t12.5 -38q0 -46 -23.5 -75.5t-52.5 -37.5z" />
    <glyph glyph-name="less" unicode="&#x3c;" horiz-adv-x="476" 
d="M422 140l-377 176v15l377 175l6 -13l-364 -170l364 -169z" />
    <glyph glyph-name="equal" unicode="=" horiz-adv-x="494" 
d="M47 405v15h400v-15h-400zM47 227v15h400v-15h-400z" />
    <glyph glyph-name="greater" unicode="&#x3e;" horiz-adv-x="476" 
d="M54 140l-6 14l364 169l-364 170l6 13l377 -175v-15z" />
    <glyph glyph-name="question" unicode="?" horiz-adv-x="324" 
d="M111 189v203q67 12 106 51.5t39 87.5q0 52 -28.5 80.5t-77.5 28.5q-18 0 -37.5 -2.5t-25.5 -2.5q-12 0 -20.5 7t-8.5 18q0 28 38 28q76 0 124.5 -45.5t48.5 -116.5q0 -27 -6.5 -52.5t-21.5 -52t-45 -48.5t-71 -35v-149h-14zM116 -5q-16 0 -27 11t-11 27t11 27t27 11
t27 -11t11 -27t-11 -27t-27 -11z" />
    <glyph glyph-name="at" unicode="@" horiz-adv-x="833" 
d="M433 -144q-163 0 -272 113t-109 276q0 161 109.5 276t269.5 115q148 0 249 -91.5t101 -237.5q0 -65 -30 -134t-87 -117.5t-122 -48.5q-39 0 -61.5 20t-22.5 57q0 46 42 136l68 153l-182 -251q-43 -59 -73.5 -87.5t-61.5 -28.5q-51 0 -51 57q0 53 41.5 151t87.5 163
q77 110 158 110q23 0 43.5 -11.5t31.5 -24t26 -32.5q23 12 36 27.5t26 42.5l9 -3l-127 -302q-37 -87 -37 -117q0 -23 13.5 -34.5t35.5 -11.5q62 0 114.5 47t80 112.5t27.5 126.5q0 139 -96.5 227t-238.5 88q-156 0 -260 -110.5t-104 -266.5q0 -158 104 -266.5t262 -108.5
q111 0 199 53t129 154l12 -5q-41 -104 -133 -160t-207 -56zM268 26q31 0 107 103l205 280q-41 66 -91 66q-32 0 -62.5 -26t-70.5 -89q-40 -62 -74.5 -162.5t-34.5 -142.5q0 -29 21 -29z" />
    <glyph glyph-name="A" unicode="A" horiz-adv-x="633" 
d="M-17 0v12q42 2 62.5 20t42.5 73l201 515l-27 61q3 0 11.5 -0.5t13.5 -0.5q4 0 11.5 0.5t10.5 0.5l268 -631q10 -23 25.5 -30.5t42.5 -7.5v-12h-13q-3 0 -27.5 1.5t-40.5 1.5q-18 0 -42.5 -1.5t-26.5 -1.5h-14v12q52 0 52 25q0 7 -5 20l-53 124h-343l-29 -74
q-15 -36 -15 -57q0 -38 70 -38v-12h-12q-10 0 -38 1.5t-41 1.5q-5 0 -30 -1.5t-31 -1.5h-23zM138 195h331l-173 407z" />
    <glyph glyph-name="B" unicode="B" horiz-adv-x="585" 
d="M47 0v12q33 0 41 6.5t8 32.5v579q0 27 -8 33.5t-41 6.5v11h7q9 0 27 -0.5t35 -0.5q20 0 43 0.5t35 0.5h98q91 0 150.5 -44.5t59.5 -125.5q0 -70 -45 -114.5t-86 -49.5q25 -2 52.5 -12t55 -29.5t45.5 -53.5t18 -76q0 -82 -62.5 -129t-143.5 -47h-136q-13 0 -36.5 0.5
t-47.5 0.5q-17 0 -35 -0.5t-27 -0.5h-7zM139 351h172q80 0 111.5 40.5t31.5 116.5q0 79 -37.5 119t-127.5 40h-150v-316zM139 14h188q165 0 165 162q0 161 -157 161h-196v-323z" />
    <glyph glyph-name="C" unicode="C" 
d="M313 -8q-122 0 -199.5 100t-77.5 241q0 88 25 158.5t66.5 113t91 64.5t101.5 22q31 0 71.5 -9.5t51.5 -9.5q25 0 16 33l10 4l108 -215l-9 -5q-108 189 -248 189q-102 0 -174.5 -80.5t-72.5 -222.5q0 -144 75 -248.5t190 -104.5q136 0 225 146l10 -6q-40 -75 -109 -122.5
t-151 -47.5z" />
    <glyph glyph-name="D" unicode="D" horiz-adv-x="614" 
d="M47 0v12q33 0 41 6.5t8 32.5v579q0 27 -8 33.5t-41 6.5v11h7q9 0 27 -0.5t35 -0.5q20 0 43 0.5t35 0.5h71q154 0 233 -87t79 -254q0 -165 -79 -252.5t-233 -87.5h-71q-12 0 -35 0.5t-43 0.5q-17 0 -35 -0.5t-27 -0.5h-7zM139 14h113q151 0 213 74.5t62 251.5
q0 178 -62 252.5t-213 74.5h-113v-653z" />
    <glyph glyph-name="E" unicode="E" horiz-adv-x="606" 
d="M470 -34l-11 4q4 16 -1 23t-24 7h-232q-14 0 -39 0.5t-47 0.5q-17 0 -35 -0.5t-27 -0.5h-7v12q33 0 41 6.5t8 32.5v579q0 27 -8 33.5t-41 6.5v11h7q9 0 27 -0.5t35 -0.5q20 0 43 0.5t36 0.5h224q20 0 25.5 7.5t1.5 23.5l11 3l108 -219l-9 -5q-79 116 -98 137
q-35 39 -89 39h-230v-313h141q54 0 68 23.5t19 102.5h11v-270h-11q-5 80 -19.5 105t-67.5 25h-141v-326h244q33 0 52.5 9t38.5 37q33 47 94 148l9 -5z" />
    <glyph glyph-name="F" unicode="F" horiz-adv-x="558" 
d="M47 0v12q33 0 41 6.5t8 32.5v579q0 27 -8 33.5t-41 6.5v11h7q9 0 27 -0.5t35 -0.5q15 0 31 0.5t24 0.5h233q20 0 25.5 7.5t1.5 23.5l11 3l108 -219l-9 -5q-79 116 -98 137q-35 39 -89 39h-215v-327h144q54 0 68 23.5t19 103.5h11v-270h-11q-5 80 -19 104.5t-68 24.5h-144
v-274q0 -26 13.5 -33t52.5 -7h19v-12h-18q-13 0 -37 1.5t-47 1.5q-18 0 -38 -1.5t-30 -1.5h-7z" />
    <glyph glyph-name="G" unicode="G" horiz-adv-x="631" 
d="M331 -10q-131 0 -213 101.5t-82 247.5q0 159 82.5 255.5t200.5 96.5q34 0 75.5 -9.5t50.5 -9.5q28 0 16 33l11 4l108 -215l-10 -5q-61 108 -120.5 148.5t-129.5 40.5q-109 0 -171.5 -84t-62.5 -251q0 -161 65.5 -250t182.5 -89q107 0 179 81v165q0 27 -8 33.5t-40 6.5v11
h7q8 0 26.5 -1.5t36.5 -1.5q17 0 35 1.5t27 1.5h7v-11q-32 0 -40 -6.5t-8 -33.5v-261h-10q-2 49 -28 82q-79 -81 -187 -81z" />
    <glyph glyph-name="H" unicode="H" horiz-adv-x="665" 
d="M47 0v12q33 0 41 6.5t8 32.5v579q0 27 -8 33.5t-41 6.5v11h7q8 0 27 -1.5t37 -1.5t36 1.5t27 1.5h7v-11q-33 0 -41 -6.5t-8 -33.5v-276h387v276q0 27 -8 33.5t-41 6.5v11h7q8 0 27 -1.5t37 -1.5t36 1.5t27 1.5h7v-11q-33 0 -41 -6.5t-8 -33.5v-579q0 -26 8 -32.5t41 -6.5
v-12h-7q-9 0 -27 1.5t-36 1.5t-37 -1.5t-27 -1.5h-7v12q33 0 41 6.5t8 32.5v289h-387v-289q0 -26 8 -32.5t41 -6.5v-12h-7q-9 0 -27 1.5t-36 1.5t-37 -1.5t-27 -1.5h-7z" />
    <glyph glyph-name="I" unicode="I" horiz-adv-x="235" 
d="M47 0v12q33 0 41 6.5t8 32.5v579q0 27 -8 33.5t-41 6.5v11h7q8 0 27 -1.5t37 -1.5t36 1.5t27 1.5h7v-11q-33 0 -41 -6.5t-8 -33.5v-579q0 -26 8 -32.5t41 -6.5v-12h-7q-9 0 -27 1.5t-36 1.5t-37 -1.5t-27 -1.5h-7z" />
    <glyph glyph-name="J" unicode="J" horiz-adv-x="265" 
d="M-13 -83q-27 0 -27 21t25 21q5 0 32 -3.5t41 -3.5q76 0 76 132v546q0 27 -8 33.5t-40 6.5v11h6q9 0 27.5 -1.5t36.5 -1.5t36 1.5t27 1.5h7v-11q-32 0 -40.5 -6.5t-8.5 -33.5v-436q0 -149 -49 -213t-141 -64z" />
    <glyph glyph-name="K" unicode="K" horiz-adv-x="631" 
d="M47 0v12q33 0 41 6t8 33v579q0 27 -8 33.5t-41 6.5v11h7q8 0 27 -1.5t36 -1.5q18 0 37 1.5t27 1.5h7v-11q-33 0 -41 -6.5t-8 -33.5v-401l124 149l-23 35q26 -3 51 -1l170 203q15 17 15 30q0 25 -56 25v11h14q10 0 31.5 -1.5t32.5 -1.5q17 0 41 1.5t28 1.5h20v-11
q-64 0 -113 -61l-174 -207l234 -350q25 -40 94 -40v-12h-24q-9 0 -32 1.5t-40 1.5t-41.5 -1.5t-32.5 -1.5h-28v12h15q44 0 44 21q0 8 -11 26l-207 308l-132 -158v-158q0 -27 8 -33t41 -6v-12h-7q-8 0 -27 1.5t-37 1.5q-17 0 -36 -1.5t-27 -1.5h-7z" />
    <glyph glyph-name="L" unicode="L" horiz-adv-x="553" 
d="M437 -34l-11 4q4 16 -1 23t-24 7h-223q-9 0 -27 0.5t-35 0.5t-35 -0.5t-27 -0.5h-7v12q33 0 41 6.5t8 32.5v579q0 27 -8 33.5t-41 6.5v12h7q8 0 27 -1.5t36 -1.5q18 0 37 1.5t27 1.5h7v-12q-33 0 -41 -6.5t-8 -33.5v-616h209q34 0 53.5 9.5t42.5 42.5q39 54 95 153l9 -5z
" />
    <glyph glyph-name="M" unicode="M" horiz-adv-x="836" 
d="M24 0v12q23 0 38.5 7t24 16t12.5 26t5 30t1 35v505q-12 22 -24.5 30.5t-37.5 8.5h-3v11h1q9 0 20.5 -0.5t20.5 -0.5q10 0 27 0.5t24 0.5l294 -607l272 607q2 0 15 -1t25 -1q5 0 19 1t24 1h7v-11q-33 0 -41 -6.5t-8 -33.5v-579q0 -26 8.5 -32.5t40.5 -6.5v-12h-7
q-8 0 -27 1.5t-36 1.5q-18 0 -37 -1.5t-27 -1.5h-7v12q33 0 41 6.5t8 32.5v593l-262 -587l29 -57q-5 0 -12.5 0.5t-11.5 0.5q-6 0 -13.5 -0.5t-10.5 -0.5l-297 613v-487q0 -22 1 -35t5.5 -29.5t13 -26t24.5 -16.5t39 -7v-12h-28q-3 0 -23.5 1.5t-37.5 1.5q-18 0 -39 -1.5
t-23 -1.5h-27z" />
    <glyph glyph-name="N" unicode="N" horiz-adv-x="683" 
d="M25 0v12q23 0 38.5 7t23.5 16t12 26.5t5 30t1 34.5v516q-10 11 -15 15.5t-16 8.5t-27 4h-1v11h1q11 0 24.5 -0.5t19.5 -0.5q7 0 21 0.5t23 0.5l431 -597v472q0 22 -1 34.5t-5 30t-12.5 26.5t-24.5 16t-39 7v11h19q8 0 31.5 -1.5t39.5 -1.5t39.5 1.5t32.5 1.5h17v-11
q-28 0 -46 -9t-25.5 -27.5t-9.5 -34.5t-2 -43v-491l47 -65q-8 0 -15.5 0.5t-12.5 0.5t-12 -0.5t-14 -0.5l-454 628v-502q0 -36 3.5 -56.5t23 -39t57.5 -18.5v-12h-18q-9 0 -32 1.5t-39 1.5q-17 0 -40.5 -1.5t-31.5 -1.5h-17z" />
    <glyph glyph-name="O" unicode="O" horiz-adv-x="642" 
d="M321 -10q-125 0 -205 98.5t-80 252.5q0 153 80 251.5t205 98.5t205 -98.5t80 -251.5q0 -154 -80 -252.5t-205 -98.5zM321 4q115 0 175 86t60 251t-60 251t-175 86t-175 -86t-60 -251t60 -251t175 -86z" />
    <glyph glyph-name="P" unicode="P" horiz-adv-x="546" 
d="M47 0v12q33 0 41 6.5t8 32.5v579q0 27 -8 33.5t-41 6.5v11h7q9 0 27.5 -0.5t35.5 -0.5q20 0 43 0.5t35 0.5h123q90 0 149.5 -48.5t59.5 -134.5t-59 -135t-150 -49h-179v-261q0 -25 9.5 -33t45.5 -8h32v-12h-20q-13 0 -36.5 1.5t-46.5 1.5q-18 0 -38.5 -1.5t-30.5 -1.5h-7
zM139 328h178q86 0 123 41t37 129q0 86 -37 127.5t-123 41.5h-178v-339z" />
    <glyph glyph-name="Q" unicode="Q" horiz-adv-x="642" 
d="M443 -235q-42 0 -81 39l-53 54q-33 33 -64 33q-27 0 -107 -28l-6 12l167 116q-117 10 -190 107t-73 243q0 153 80 251.5t205 98.5t205 -98.5t80 -251.5q0 -154 -80 -252.5t-205 -98.5h-3l-148 -104q66 24 108 24q38 0 67 -31l46 -47q43 -46 74 -46q19 0 41.5 15.5
t64.5 60.5l8 -8q-47 -51 -76 -70t-60 -19zM321 4q115 0 175 86t60 251t-60 251t-175 86t-175 -86t-60 -251t60 -251t175 -86z" />
    <glyph glyph-name="R" unicode="R" horiz-adv-x="613" 
d="M47 0v12q33 0 41 6.5t8 32.5v579q0 27 -8 33.5t-41 6.5v11h7q9 0 27.5 -0.5t35.5 -0.5q22 0 47 0.5t39 0.5h112q98 0 157 -48.5t59 -134.5q0 -76 -52.5 -128.5t-157.5 -52.5h-3q18 -29 32.5 -40t32.5 -11l97 -163q34 -57 58 -73t64 -18v-12q-20 0 -40.5 1t-34.5 1
q-7 0 -19 -1t-17 -1l-188 317h-164v-266q0 -26 8 -32.5t41 -6.5v-12h-7q-9 0 -28 1.5t-36 1.5t-36 -1.5t-27 -1.5h-7zM139 331h179q87 0 125 38.5t38 130.5q0 85 -38.5 126t-130.5 41h-173v-336z" />
    <glyph glyph-name="S" unicode="S" horiz-adv-x="547" 
d="M131 -17l-101 223l10 5q110 -208 264 -208q78 0 127 44.5t49 108.5q0 55 -40.5 96t-128.5 73l-80 29q-165 61 -165 181q0 71 51.5 113.5t127.5 42.5q33 0 74 -9.5t47 -9.5q27 0 16 34l11 4l104 -197l-10 -5q-99 170 -242 170q-71 0 -113.5 -36t-42.5 -94
q0 -52 37.5 -86.5t123.5 -65.5l80 -29q90 -33 133.5 -77t43.5 -110q0 -86 -60 -138t-143 -52q-40 0 -90 15t-58 15q-24 0 -14 -33z" />
    <glyph glyph-name="T" unicode="T" horiz-adv-x="632" 
d="M246 0v12q33 0 41 6.5t8 32.5v616h-102q-35 0 -50.5 -6.5t-33.5 -32.5q-35 -51 -88 -161l-10 4l91 243l11 -2q-3 -17 4 -24t26 -7h100q2 0 26.5 -0.5t46.5 -0.5t46.5 0.5t26.5 0.5h102q34 0 28 31l11 2l91 -243l-10 -4q-53 110 -88 161q-18 26 -33 32.5t-51 6.5h-101
v-616q0 -26 8 -32.5t41 -6.5v-12h-7q-8 0 -27 1.5t-36 1.5q-18 0 -37 -1.5t-27 -1.5h-7z" />
    <glyph glyph-name="U" unicode="U" 
d="M307 -8q-105 0 -166.5 52t-61.5 165v421q0 27 -8 33.5t-40 6.5v11h6q9 0 27.5 -1.5t35.5 -1.5q18 0 37 1.5t27 1.5h7v-11q-33 0 -41 -6.5t-8 -33.5v-391q0 -120 44 -176t141 -56q96 0 148 53t52 149v346q0 22 -1 35t-5 30t-12 26.5t-24 16.5t-39 7h-1v11h19
q8 0 31.5 -1.5t39.5 -1.5q17 0 40.5 1.5t31.5 1.5h17v-11q-28 0 -46 -9t-25.5 -27.5t-9.5 -35t-2 -43.5v-346q0 -102 -56 -159.5t-158 -57.5z" />
    <glyph glyph-name="V" unicode="V" horiz-adv-x="614" 
d="M319 0l-260 632q-10 24 -25.5 31t-41.5 7h-1v11h14q4 0 28 -1.5t40 -1.5q19 0 42.5 1.5t25.5 1.5h15v-11q-54 0 -54 -23q0 -7 6 -22l223 -541l175 497q13 36 13 52q0 37 -65 37v11h11q7 0 34.5 -1.5t40.5 -1.5q11 0 35 1.5t32 1.5h23v-11q-47 -2 -69 -19t-42 -73
l-181 -513l27 -65q-4 0 -11.5 0.5t-11.5 0.5t-12.5 -0.5t-10.5 -0.5z" />
    <glyph glyph-name="W" unicode="W" horiz-adv-x="969" 
d="M301 0l-238 632q-9 24 -24.5 31t-42.5 7v11h13q4 0 27.5 -1.5t39.5 -1.5q19 0 43.5 1.5t26.5 1.5h15v-11h-3q-52 0 -52 -24q0 -8 5 -21l204 -539l160 519l-10 28q-6 17 -17 25.5t-20 10t-27 1.5h-2v11h12q4 0 28.5 -1.5t40.5 -1.5q19 0 42 1.5t25 1.5h15v-11h-3
q-52 0 -52 -25q0 -7 5 -20l190 -534l155 491q12 38 12 51q0 37 -65 37v11h11q6 0 35 -1.5t45 -1.5q8 0 30.5 1.5t31.5 1.5h23v-11q-47 -2 -70 -19.5t-40 -72.5l-161 -511l25 -67q-5 0 -12 0.5t-11 0.5t-11.5 -0.5t-10.5 -0.5l-206 585l-160 -520l24 -65q-4 0 -11 0.5
t-12 0.5q-4 0 -12 -0.5t-11 -0.5z" />
    <glyph glyph-name="X" unicode="X" horiz-adv-x="619" 
d="M8 0v12h1q22 0 36.5 4t31 20.5t23 25t30.5 42.5l166 229l-184 294q-14 24 -35 33.5t-57 9.5v11h32q5 0 26.5 -1.5t35.5 -1.5q18 0 40 1.5t28 1.5h32v-11q-60 0 -60 -21q0 -8 8 -22l162 -260l144 215q27 40 27 57q0 31 -60 31h-1v11h13q9 0 36 -1.5t38 -1.5q7 0 32 1.5
t35 1.5h15v-11h-1q-28 0 -48.5 -11.5t-34 -27.5t-38.5 -54l-149 -221l187 -302q27 -42 92 -42v-12h-32q-5 0 -26.5 1.5t-35.5 1.5q-17 0 -39 -1.5t-28 -1.5h-32v12q34 0 47 4.5t13 16.5q0 5 -9 23l-165 266l-161 -224q-27 -37 -27 -55q0 -31 60 -31h1v-12h-13q-9 0 -36 1.5
t-38 1.5q-7 0 -32 -1.5t-34 -1.5h-16z" />
    <glyph glyph-name="Y" unicode="Y" horiz-adv-x="583" 
d="M231 0v12q33 0 41 6.5t8 32.5v259l-207 315q-17 26 -33.5 35.5t-48.5 9.5v11h22q5 0 28 -1.5t40 -1.5t39 1.5t29 1.5h20v-11q-53 0 -53 -24q0 -10 9 -23l191 -294l155 253q23 37 23 55q0 33 -61 33h-1v11h11q9 0 34 -1.5t38 -1.5q10 0 34.5 1.5t33.5 1.5h19v-11h-1
q-41 0 -61.5 -18t-57.5 -76l-159 -261v-264q0 -26 8 -32.5t41 -6.5v-12h-7q-9 0 -27 1.5t-36 1.5t-37 -1.5t-27 -1.5h-7z" />
    <glyph glyph-name="Z" unicode="Z" horiz-adv-x="581" 
d="M453 -34l-11 4q4 16 -1.5 23t-24.5 7h-388v8l457 659h-242q-54 0 -90 -39q-24 -27 -102 -147l-9 6l113 228l11 -3q-4 -16 1.5 -23.5t24.5 -7.5h349v-8l-458 -659h282q32 0 51.5 8.5t39.5 36.5q40 57 94 149l10 -5z" />
    <glyph glyph-name="bracketleft" unicode="[" horiz-adv-x="265" 
d="M87 -174v901q40 -2 150 -2v-12q-47 0 -85.5 -1.5t-46.5 -1.5q0 -2 3.5 -31.5t6.5 -63t6.5 -83.5t5.5 -116.5t2 -138.5t-2 -138.5t-5.5 -116.5t-6.5 -84t-6.5 -63.5t-3.5 -31.5q8 0 46.5 -1.5t85.5 -1.5v-12q-110 0 -150 -2z" />
    <glyph glyph-name="backslash" unicode="\" horiz-adv-x="360" 
d="M324 -174l-301 894l15 5l300 -895z" />
    <glyph glyph-name="bracketright" unicode="]" horiz-adv-x="265" 
d="M178 -174q-40 2 -150 2v12q47 0 85.5 1.5t46.5 1.5q0 2 -3.5 31.5t-6.5 63.5t-6.5 84t-5.5 116.5t-2 138.5t2 138.5t5.5 116.5t6.5 83.5t6.5 63t3.5 31.5q-8 0 -46.5 1.5t-85.5 1.5v12q110 0 150 2v-901z" />
    <glyph glyph-name="asciicircum" unicode="^" horiz-adv-x="467" 
d="M63 315l-13 5l176 385h16l175 -385l-13 -5l-170 374z" />
    <glyph glyph-name="underscore" unicode="_" horiz-adv-x="446" 
d="M12 -91v15h422v-15h-422z" />
    <glyph glyph-name="grave" unicode="`" horiz-adv-x="228" 
d="M167 544q-33 48 -66.5 83.5t-42.5 49.5q-5 8 -5 16t6 14t14 6q11 0 19 -11q10 -13 31 -58t53 -94z" />
    <glyph glyph-name="a" unicode="a" horiz-adv-x="483" 
d="M180 -8q-57 0 -92.5 34t-35.5 92q0 110 145 169l148 60v71q0 41 -11 55t-52 14q-50 0 -88.5 -23.5t-81.5 -68.5q-9 -9 -19 -9q-19 0 -19 18q0 29 65 61.5t142 32.5q106 0 106 -79v-380q0 -32 22 -32q26 0 48 31l7 -6q-34 -40 -69 -40q-50 0 -50 69q-33 -28 -77.5 -48.5
t-87.5 -20.5zM187 5q35 0 79.5 20t78.5 50v259l-145 -59q-99 -40 -99 -152q0 -52 20.5 -85t65.5 -33z" />
    <glyph glyph-name="b" unicode="b" horiz-adv-x="507" 
d="M78 -10v640q0 29 -9 35t-45 6v10h6q31 0 53.5 12.5t27.5 31.5h9v-296q77 69 159 69q75 0 127 -59.5t52 -193.5t-52 -193.5t-127 -59.5q-85 0 -162 72q-27 -30 -29 -74h-10zM280 4q130 0 130 241t-130 241q-79 0 -160 -72v-337q80 -73 160 -73z" />
    <glyph glyph-name="c" unicode="c" horiz-adv-x="461" 
d="M252 -8q-89 0 -148.5 70t-59.5 174q0 114 57 188t145 74q68 0 118 -41.5t50 -80.5q0 -9 -6 -15t-15 -6q-10 0 -17 9q-4 6 -10 25q-19 53 -46 75.5t-74 22.5q-72 0 -113 -60.5t-41 -156.5q0 -118 47 -189.5t123 -71.5q105 0 148 117l9 -3q-45 -131 -167 -131z" />
    <glyph glyph-name="d" unicode="d" horiz-adv-x="521" 
d="M228 -8q-34 0 -64.5 13t-57 40.5t-42 78.5t-15.5 121t15.5 121t42 78.5t57 40.5t64.5 13q82 0 159 -69v201q0 29 -9 35t-45 6v10h6q31 0 53.5 12.5t27.5 31.5h9v-671q0 -29 9 -36t45 -7v-11h-6q-11 0 -31 1t-35 1q-6 0 -14.5 -1t-9.5 -1v61q-77 -69 -159 -69zM228 4
q79 0 159 73v337q-81 72 -159 72q-131 0 -131 -241t131 -241z" />
    <glyph glyph-name="e" unicode="e" horiz-adv-x="464" 
d="M248 -8q-84 0 -144 68.5t-60 176.5q0 117 59.5 189t142.5 72q67 0 121 -49.5t49 -133.5h-322q-2 -22 -2 -51q0 -109 45.5 -182t123.5 -73q103 0 145 117l9 -3q-22 -66 -66 -98.5t-101 -32.5zM95 327h274q-2 87 -37.5 123.5t-85.5 36.5q-68 0 -104.5 -47.5t-46.5 -112.5z
" />
    <glyph glyph-name="f" unicode="f" horiz-adv-x="288" 
d="M41 0v11q36 0 45 6.5t9 35.5v361q0 21 3 63h-72v13h75q10 60 38 105q33 52 84.5 77.5t95.5 25.5q22 0 22 -18q0 -19 -25 -22q-5 -1 -53 -4q-68 -4 -97 -41t-29 -116v-7h172v-13h-172v-424q0 -28 11.5 -35t49.5 -7h11v-11h-14q-12 0 -35.5 2t-42.5 2q-18 0 -39 -2t-31 -2
h-6z" />
    <glyph glyph-name="g" unicode="g" horiz-adv-x="516" 
d="M240 -234q-105 0 -164 33.5t-59 80.5q0 36 39 66t117 46q-119 17 -119 73q0 51 109 86q-43 21 -69.5 64t-26.5 101q0 78 50.5 130t125.5 52q74 0 123 -43q54 61 104 61q33 0 33 -22q0 -9 -6.5 -14.5t-15.5 -5.5q-8 0 -22.5 4.5t-24.5 4.5q-29 0 -60 -36q44 -55 44 -132
q0 -78 -50 -129.5t-125 -51.5q-35 0 -66 11q-93 -28 -93 -64q0 -42 118 -54l122 -12q158 -15 158 -110q0 -68 -71 -103.5t-171 -35.5zM243 145q66 0 97.5 46.5t31.5 123.5q0 78 -31.5 125t-97.5 47q-67 0 -98.5 -47t-31.5 -125q0 -77 31.5 -123.5t98.5 -46.5zM244 -223
q86 0 144 31t58 84q0 74 -135 87l-115 11q-135 -33 -135 -109q0 -45 50.5 -74.5t132.5 -29.5z" />
    <glyph glyph-name="h" unicode="h" horiz-adv-x="519" 
d="M38 0v11q36 0 45 6.5t9 35.5v577q0 29 -9 35t-45 6v10h6q31 0 53.5 12.5t27.5 31.5h9v-306l103 41q98 38 131 38q61 0 61 -67v-378q0 -29 9 -35.5t45 -6.5v-11h-7q-10 0 -30 1.5t-38 1.5t-38.5 -1.5t-30.5 -1.5h-7v11q37 0 46 6.5t9 35.5v378q0 51 -37 51q-25 0 -113 -35
l-103 -41v-353q0 -29 9 -35.5t46 -6.5v-11h-7q-10 0 -30.5 1.5t-38.5 1.5t-38.5 -1.5t-30.5 -1.5h-6z" />
    <glyph glyph-name="i" unicode="i" horiz-adv-x="236" 
d="M123 612q-16 0 -26.5 10.5t-10.5 26.5t10.5 26.5t26.5 10.5t26.5 -10.5t10.5 -26.5t-10.5 -26.5t-26.5 -10.5zM47 0v11q36 0 45 6.5t9 35.5v349q0 29 -8.5 35t-45.5 6v10h6q31 0 53.5 12.5t27.5 31.5h9v-444q0 -29 9 -35.5t46 -6.5v-11h-7q-10 0 -30.5 1.5t-38.5 1.5
t-38.5 -1.5t-30.5 -1.5h-6z" />
    <glyph glyph-name="j" unicode="j" horiz-adv-x="209" 
d="M109 612q-16 0 -26.5 10.5t-10.5 26.5t10.5 26.5t26.5 10.5t26.5 -10.5t10.5 -26.5t-10.5 -26.5t-26.5 -10.5zM-30 -235q-22 0 -22 18q0 19 22 19q8 0 25.5 -0.5t24.5 -0.5q32 0 50 27t18 80v494q0 29 -8.5 35t-45.5 6v10h6q31 0 53.5 12.5t27.5 31.5h9v-462
q0 -115 -33 -182q-21 -42 -54.5 -65t-72.5 -23z" />
    <glyph glyph-name="k" unicode="k" horiz-adv-x="503" 
d="M38 0v11q36 0 45 6.5t9 35.5v577q0 29 -9 35t-45 6v10h6q31 0 53.5 12.5t27.5 31.5h9v-531l91 92l-20 29h46l98 98q30 31 30 45q0 22 -43 22v10h11q13 0 31.5 -1.5t33.5 -1.5q16 0 35.5 1.5t31.5 1.5h11v-10q-36 0 -62.5 -15.5t-60.5 -50.5l-106 -108l171 -258
q16 -25 27.5 -31t39.5 -6v-11h-4q-8 0 -28 1.5t-39 1.5q-17 0 -35.5 -1.5t-25.5 -1.5h-19v11h7q38 0 38 14q0 7 -10 22l-151 229l-98 -100v-123q0 -29 9 -35.5t46 -6.5v-11h-7q-10 0 -30.5 1.5t-38.5 1.5t-38.5 -1.5t-30.5 -1.5h-6z" />
    <glyph glyph-name="l" unicode="l" horiz-adv-x="227" 
d="M38 0v11q36 0 45 6.5t9 35.5v577q0 29 -9 35t-45 6v10h6q31 0 53.5 12.5t27.5 31.5h9v-672q0 -29 9 -35.5t46 -6.5v-11h-7q-10 0 -30.5 1.5t-38.5 1.5t-38.5 -1.5t-30.5 -1.5h-6z" />
    <glyph glyph-name="m" unicode="m" horiz-adv-x="801" 
d="M47 0v11q36 0 45 6.5t9 35.5v348q0 29 -8.5 35t-45.5 6v10h6q31 0 53.5 12.5t27.5 31.5h9v-77l97 39q9 4 31 12.5t30.5 11.5t23 8t25 6.5t20.5 1.5q30 0 44 -18t13 -61l97 39q9 4 30.5 12.5t30 11.5t23 8t25 6.5t20.5 1.5q58 0 58 -67v-378q0 -29 9 -35.5t45 -6.5v-11h-7
q-10 0 -30.5 1.5t-38.5 1.5t-38 -1.5t-30 -1.5h-7v11q36 0 45.5 6.5t9.5 35.5v380q0 48 -33 48q-18 0 -112 -36l-97 -39v-353q0 -29 8.5 -35.5t45.5 -6.5v-11h-6q-10 0 -30.5 1.5t-38.5 1.5t-38.5 -1.5t-30.5 -1.5h-6v11q36 0 45 6.5t9 35.5v380q0 48 -33 48q-18 0 -112 -36
l-97 -39v-353q0 -29 9 -35.5t46 -6.5v-11h-7q-10 0 -30.5 1.5t-38.5 1.5t-38.5 -1.5t-30.5 -1.5h-6z" />
    <glyph glyph-name="n" unicode="n" horiz-adv-x="528" 
d="M47 0v11q36 0 45 6.5t9 35.5v348q0 29 -8.5 35t-45.5 6v10h6q31 0 53.5 12.5t27.5 31.5h9v-77l103 41q98 38 131 38q61 0 61 -67v-378q0 -29 9 -35.5t45 -6.5v-11h-7q-10 0 -30 1.5t-38 1.5t-38.5 -1.5t-30.5 -1.5h-7v11q37 0 46 6.5t9 35.5v378q0 51 -36 51
q-23 0 -103 -31l-114 -45v-353q0 -29 9 -35.5t46 -6.5v-11h-7q-10 0 -30.5 1.5t-38.5 1.5t-38.5 -1.5t-30.5 -1.5h-6z" />
    <glyph glyph-name="o" unicode="o" horiz-adv-x="495" 
d="M247 -8q-85 0 -144 73t-59 180t59 180t144 73q86 0 145 -73.5t59 -179.5t-59 -179.5t-145 -73.5zM247 4q77 0 116.5 61.5t39.5 179.5t-39.5 179.5t-116.5 61.5q-76 0 -115.5 -61.5t-39.5 -179.5t39.5 -179.5t115.5 -61.5z" />
    <glyph glyph-name="p" unicode="p" horiz-adv-x="521" 
d="M38 -226v10q36 0 45 6.5t9 35.5v575q0 29 -8.5 35t-45.5 6v10h6q31 0 53.5 12.5t27.5 31.5h9v-67q77 69 159 69q75 0 127 -59.5t52 -193.5t-52 -193.5t-127 -59.5q-85 0 -159 69v-235q0 -28 11 -35t49 -7h12v-10h-15q-12 0 -35 1.5t-42 1.5q-18 0 -39 -1.5t-31 -1.5h-6z
M294 4q130 0 130 241t-130 241q-79 0 -160 -72v-337q80 -73 160 -73z" />
    <glyph glyph-name="q" unicode="q" horiz-adv-x="507" 
d="M316 -226v10h12q37 0 48 7t11 35v235q-77 -69 -159 -69q-75 0 -127 59.5t-52 193.5t52 193.5t127 59.5q85 0 162 -72q28 31 30 74h9v-674q0 -29 9 -35.5t45 -6.5v-10h-6q-10 0 -30.5 1.5t-38.5 1.5q-19 0 -42.5 -1.5t-35.5 -1.5h-14zM228 4q79 0 159 73v337
q-81 72 -159 72q-131 0 -131 -241t131 -241z" />
    <glyph glyph-name="r" unicode="r" horiz-adv-x="335" 
d="M47 0v11q36 0 45 6.5t9 35.5v348q0 29 -8.5 35t-45.5 6v10h6q31 0 53.5 12.5t27.5 31.5h9v-110q36 55 79 86q36 26 77 26q33 0 33 -20t-26 -20q-12 0 -31.5 3t-27.5 3q-39 0 -104 -95v-316q0 -28 11 -35t48 -7h12v-11h-14q-12 0 -35.5 2t-42.5 2q-18 0 -38.5 -2t-30.5 -2
h-6z" />
    <glyph glyph-name="s" unicode="s" horiz-adv-x="444" 
d="M111 -11l-69 165l9 4q76 -155 194 -155q56 0 92 31.5t36 79.5q0 38 -25 64t-76 46l-99 38q-99 39 -99 124q0 48 31 80t88 32q26 0 57 -8.5t40 -8.5q23 0 17 19l9 3l65 -167l-8 -4q-66 155 -179 155q-50 0 -75.5 -25t-25.5 -60q0 -63 95 -100l99 -38q55 -21 81 -51.5
t26 -78.5q0 -63 -42.5 -102.5t-106.5 -39.5q-29 0 -64 9.5t-46 9.5q-21 0 -15 -19z" />
    <glyph glyph-name="t" unicode="t" horiz-adv-x="259" 
d="M155 -8q-62 0 -62 68v417h-70v13h70v81q13 0 23 15t10 34h9v-130h102v-13h-102v-422q0 -28 8 -38t24 -10q36 0 63 42l7 -6q-33 -51 -82 -51z" />
    <glyph glyph-name="u" unicode="u" horiz-adv-x="517" 
d="M155 -8q-32 0 -48 15.5t-16 51.5v342q0 29 -9 35t-46 6v10h11q29 0 51 13.5t26 30.5h9v-437q0 -26 8.5 -38t30.5 -12q27 0 111 34l99 41v317q0 29 -9 35t-46 6v10h11q29 0 51 13.5t26 30.5h9v-444q0 -29 9.5 -35.5t45.5 -6.5v-10h-7q-10 0 -31 1t-39 1q-6 0 -12.5 -1
t-7.5 -1v71l-99 -41q-90 -38 -128 -38z" />
    <glyph glyph-name="v" unicode="v" horiz-adv-x="462" 
d="M235 0l-168 438q-10 27 -22.5 34.5t-47.5 7.5v10h14q6 0 26.5 -1.5t39.5 -1.5t39 1.5t25 1.5h16v-10q-50 0 -50 -22q0 -10 5 -21l138 -358l120 332q8 21 8 35q0 19 -14 26.5t-49 7.5v10h11q10 0 31 -1.5t35 -1.5t35 1.5t27 1.5h19v-10q-41 -2 -58 -15.5t-29 -47.5
l-129 -356l24 -61q-5 0 -11.5 0.5t-10.5 0.5q-3 0 -10 -0.5t-14 -0.5z" />
    <glyph glyph-name="w" unicode="w" horiz-adv-x="751" 
d="M235 0l-168 438q-11 27 -23.5 34.5t-46.5 6.5v11h14q6 0 26.5 -1.5t39.5 -1.5t39 1.5t25 1.5h16v-10q-50 0 -50 -22q0 -8 4 -20l139 -359l117 321l-15 38q-10 27 -22.5 34.5t-47.5 7.5v10h15q6 0 26 -1.5t38 -1.5q17 0 38 1.5t27 1.5h16v-10q-50 0 -50 -22q0 -11 5 -22
l142 -357l121 333q7 23 7 34q0 19 -14 26.5t-49 7.5v10h11q10 0 31.5 -1.5t35.5 -1.5t35 1.5t26 1.5h19v-10q-41 -2 -58 -15.5t-29 -47.5l-129 -356l24 -61q-5 0 -11.5 0.5t-10.5 0.5t-11 -0.5t-13 -0.5l-150 382l-117 -321l24 -61q-6 0 -12 0.5t-10 0.5t-11 -0.5t-13 -0.5z
" />
    <glyph glyph-name="x" unicode="x" horiz-adv-x="479" 
d="M9 -1v11q34 0 53.5 12t46.5 53l113 166l-124 185q-21 31 -37 42.5t-45 11.5v10h18q6 0 27 -1.5t40 -1.5q16 0 35 1.5t25 1.5h16v-10q-49 0 -49 -19q0 -8 11 -24l109 -165l98 148q12 19 12 33t-11 20.5t-42 6.5v10h8q11 0 33 -1.5t37 -1.5q17 0 35 1.5t26 1.5h15v-10
q-35 0 -54.5 -12t-46.5 -53l-102 -154l132 -197q20 -30 36.5 -41.5t45.5 -11.5v-11h-18q-6 0 -27 1.5t-40 1.5q-17 0 -36 -1.5t-25 -1.5h-15v11q49 0 49 18q0 6 -11 24l-117 177l-108 -159q-12 -21 -12 -34q0 -14 11 -20.5t42 -6.5v-11h-8q-11 0 -33.5 2t-37.5 2
q-16 0 -34 -2t-26 -2h-15z" />
    <glyph glyph-name="y" unicode="y" horiz-adv-x="462" 
d="M31 -236q-33 0 -33 20q0 19 23 19q6 0 26.5 -2t28.5 -2q35 0 64 36t65 129l18 48l-156 426q-10 27 -22.5 34.5t-47.5 7.5v10h14q6 0 26.5 -1.5t39.5 -1.5t39 1.5t25 1.5h16v-10q-50 0 -50 -22q0 -10 5 -21l134 -363l124 337q8 21 8 35q0 19 -14 26.5t-49 7.5v10h11
q10 0 31 -1.5t35 -1.5t35 1.5t27 1.5h19v-10q-41 -2 -58 -15.5t-29 -47.5l-133 -361l21 -56q-6 0 -12 0.5t-10 0.5q-3 0 -9 -0.5t-10 -0.5l-16 -40q-42 -107 -81.5 -151.5t-104.5 -44.5z" />
    <glyph glyph-name="z" unicode="z" horiz-adv-x="444" 
d="M340 -20l-9 3q2 10 -5 13.5t-21 3.5h-263v8l303 471h-136q-36 0 -53.5 -6t-35.5 -26q-40 -45 -79 -104l-8 4l82 163l9 -3q-2 -10 5.5 -13.5t25.5 -3.5h238v-7l-303 -471h149q40 0 60 8t44 33q36 41 77 101l8 -5z" />
    <glyph glyph-name="braceleft" unicode="{" horiz-adv-x="280" 
d="M254 -174q-83 20 -111.5 50.5t-28.5 106.5q0 33 5 99.5t5 82.5q0 53 -16 76.5t-66 25.5v16q50 2 66 25.5t16 76.5q0 16 -5 82.5t-5 99.5q0 76 28.5 106.5t111.5 50.5l3 -11q-60 -15 -82.5 -36.5t-22.5 -65.5q0 -21 5 -100t5 -102q0 -58 -21 -92t-74 -42q53 -8 74 -42
t21 -92q0 -23 -5 -102t-5 -100q0 -44 22.5 -65.5t82.5 -36.5z" />
    <glyph glyph-name="bar" unicode="|" horiz-adv-x="218" 
d="M102 -217v987h15v-987h-15z" />
    <glyph glyph-name="braceright" unicode="}" horiz-adv-x="280" 
d="M26 -174l-3 11q60 15 82.5 36.5t22.5 65.5q0 21 -5 100t-5 102q0 58 21 92t74 42q-53 8 -74 42t-21 92q0 23 5 102t5 100q0 44 -22.5 65.5t-82.5 36.5l3 11q83 -20 111.5 -50.5t28.5 -106.5q0 -33 -5 -99.5t-5 -82.5q0 -53 16 -76.5t66 -25.5v-16q-50 -2 -66 -25.5
t-16 -76.5q0 -16 5 -82.5t5 -99.5q0 -76 -28.5 -106.5t-111.5 -50.5z" />
    <glyph glyph-name="asciitilde" unicode="~" horiz-adv-x="531" 
d="M379 280q-42 0 -114.5 30.5t-112.5 30.5q-56 0 -95 -56l-12 8q39 63 108 63q42 0 114 -30.5t112 -30.5q56 0 96 56l12 -8q-41 -63 -108 -63z" />
    <glyph glyph-name="exclamdown" unicode="&#xa1;" horiz-adv-x="218" 
d="M109 421q-16 0 -27 11t-11 27t11 27t27 11t27 -11t11 -27t-11 -27t-27 -11zM109 -197q-28 0 -28 35q0 43 10.5 190.5t10.5 224.5v50h13v-50q0 -77 11 -224t11 -191q0 -35 -28 -35z" />
    <glyph glyph-name="cent" unicode="&#xa2;" horiz-adv-x="489" 
d="M105 -145l-13 4l57 173q-92 70 -92 204q0 117 58.5 189.5t143.5 72.5q21 0 43 -5l47 140l13 -4l-47 -140q49 -15 80.5 -49t31.5 -63q0 -10 -6 -16t-15 -6q-11 0 -17 9q-3 7 -10 25q-23 69 -68 89l-140 -422q44 -47 103 -47q106 0 149 117l9 -3q-45 -131 -168 -131
q-57 0 -104 32zM161 68l138 414q-20 5 -40 5q-73 0 -113.5 -63t-40.5 -153q0 -131 56 -203z" />
    <glyph glyph-name="sterling" unicode="&#xa3;" horiz-adv-x="575" 
d="M113 -10q-36 0 -57.5 17.5t-21.5 47.5t24 50.5t67 20.5q40 0 113 -31q13 49 5.5 103t-29.5 106h-144v14h139q-61 137 -61 207q0 74 50 120t123 46q68 0 120 -42t52 -90q0 -11 -6 -18t-14 -7q-13 0 -19 10.5t-12 34.5q-12 49 -39.5 74t-81.5 25q-63 0 -97 -36t-34 -94
q0 -24 6.5 -55.5t12 -50.5t21 -65t19.5 -59h185v-14h-182q17 -60 17 -110q0 -56 -18 -105q5 -2 24 -10.5t26.5 -11.5t24.5 -10t27 -9.5t24 -6.5t26.5 -5.5t24.5 -1.5q43 0 64.5 25t21.5 68q0 57 -32 102l10 6q35 -52 35 -110q0 -61 -32.5 -96.5t-85.5 -35.5q-14 0 -30.5 3.5
t-27.5 7t-30 13t-26.5 13.5t-29 16.5t-26.5 15.5q-48 -72 -126 -72zM114 4q71 0 114 65q-71 40 -113 40q-31 0 -48.5 -15t-17.5 -39q0 -23 17.5 -37t47.5 -14z" />
    <glyph glyph-name="currency" unicode="&#xa4;" horiz-adv-x="669" 
d="M59 52l-11 11l112 111q-63 61 -63 165q0 107 64 166l-112 113l11 11l112 -113q64 56 162 56t162 -56l112 113l11 -11l-112 -113q64 -59 64 -166q0 -104 -63 -165l112 -111l-11 -11l-111 112q-63 -57 -164 -57t-164 57zM334 121q97 0 159.5 59t62.5 159t-62.5 159.5
t-159.5 59.5t-159.5 -59.5t-62.5 -159.5t62.5 -159t159.5 -59z" />
    <glyph glyph-name="yen" unicode="&#xa5;" horiz-adv-x="577" 
d="M224 0v12q33 0 40.5 6.5t7.5 34.5v100h-163v14h163v92h-163v14h163v48l-182 304q-16 26 -33.5 35.5t-49.5 9.5v11h22q5 0 28 -1.5t39 -1.5q17 0 39.5 1.5t28.5 1.5h21v-11q-30 0 -41.5 -5t-11.5 -18q0 -10 8 -24l167 -283l133 244q21 40 21 53q0 17 -13 25t-47 8h-1v11
h11q9 0 34 -1.5t37 -1.5q11 0 35 1.5t33 1.5h20v-11h-1q-43 -1 -66 -19.5t-52 -72.5l-137 -252v-53h163v-14h-163v-92h163v-14h-163v-100q0 -28 8 -34.5t41 -6.5v-12h-5q-10 0 -28.5 1.5t-36.5 1.5t-37 -1.5t-28 -1.5h-4z" />
    <glyph glyph-name="brokenbar" unicode="&#xa6;" horiz-adv-x="218" 
d="M102 343v427h15v-427h-15zM102 -217v439h15v-439h-15z" />
    <glyph glyph-name="section" unicode="&#xa7;" horiz-adv-x="494" 
d="M172 -155q-83 0 -83 30q0 21 27 21q10 0 45 -9.5t71 -9.5q43 0 75 29.5t32 70.5q0 36 -15.5 65.5t-53.5 75.5l-130 160q-48 59 -63 86.5t-15 60.5q0 79 69 127q14 61 70 98.5t122 37.5q82 0 82 -29q0 -22 -27 -22q-10 0 -45 10t-71 10q-42 0 -74.5 -30.5t-32.5 -70.5
q0 -35 15.5 -64.5t53.5 -76.5l130 -160q48 -59 63 -86t15 -61q0 -79 -69 -127q-13 -61 -69 -98.5t-122 -37.5zM365 -4q44 36 44 81q0 30 -16 57.5t-61 81.5l-140 169q-37 45 -50.5 77.5t-12.5 75.5q-44 -37 -44 -82q0 -30 16.5 -58.5t60.5 -80.5l141 -169q36 -43 49.5 -76
t12.5 -76z" />
    <glyph glyph-name="dieresis" unicode="&#xa8;" horiz-adv-x="375" 
d="M95 594q-15 0 -25.5 10t-10.5 26t10.5 26t25.5 10t25.5 -10t10.5 -26t-10.5 -26t-25.5 -10zM281 594q-15 0 -25.5 10t-10.5 26t10.5 26t25.5 10t25.5 -10t10.5 -26t-10.5 -26t-25.5 -10z" />
    <glyph glyph-name="copyright" unicode="&#xa9;" horiz-adv-x="796" 
d="M398 -9q-145 0 -245.5 97t-100.5 252t100.5 252t245.5 97t245.5 -97t100.5 -252t-100.5 -252t-245.5 -97zM398 6q140 0 235 92.5t95 241.5t-95 241.5t-235 92.5t-235 -93t-95 -241t95 -241t235 -93zM399 127q-78 0 -133 62.5t-55 149.5q0 101 57.5 154t120.5 53
q20 0 44 -5t29 -5q20 0 15 24l10 4l79 -132l-8 -6q-50 62 -88 85t-81 23q-56 0 -98 -44t-42 -119q0 -93 47.5 -154.5t126.5 -61.5q42 0 82 21.5t64 59.5l10 -6q-25 -42 -74.5 -72.5t-105.5 -30.5z" />
    <glyph glyph-name="ordfeminine" unicode="&#xaa;" horiz-adv-x="373" 
d="M144 361q-43 0 -67.5 23.5t-24.5 63.5q0 77 100 114l83 31v44q0 17 -1 24t-8 12.5t-22 5.5q-32 0 -55 -14t-54 -45q-8 -8 -17 -8q-15 0 -15 16q0 22 48.5 42t92.5 20q40 0 54 -16.5t14 -47.5v-216q0 -33 19 -33q12 0 19 14l7 -3q-12 -27 -41 -27q-18 0 -29 11t-12 28
q-49 -39 -91 -39zM151 373q38 0 84 40v168l-81 -31q-35 -14 -48 -37t-13 -57q0 -83 58 -83zM52 289v14h271v-14h-271z" />
    <glyph glyph-name="guillemotleft" unicode="&#xab;" horiz-adv-x="479" 
d="M258 72q-27 28 -76.5 71.5t-86.5 74.5t-43 35q9 7 43.5 36t85 73.5t77.5 72.5l8 -9q-29 -33 -85 -98.5t-64 -74.5q8 -8 33 -37.5t59.5 -70t56.5 -65.5zM400 72q-27 28 -76.5 71.5t-86.5 74.5t-43 35q9 7 43.5 36t85 73.5t77.5 72.5l8 -9q-29 -33 -85 -98.5t-64 -74.5
q8 -8 33 -37.5t59.5 -70t56.5 -65.5z" />
    <glyph glyph-name="logicalnot" unicode="&#xac;" horiz-adv-x="509" 
d="M447 106v211h-400v15h415v-226h-15z" />
    <glyph glyph-name="uni00AD" unicode="&#xad;" horiz-adv-x="296" 
d="M67 264v36h162v-36h-162z" />
    <glyph glyph-name="registered" unicode="&#xae;" horiz-adv-x="522" 
d="M261 306q-89 0 -149 58.5t-60 150.5q0 93 60 151t149 58t149 -58t60 -151q0 -92 -60 -150.5t-149 -58.5zM261 320q83 0 138.5 54.5t55.5 140.5q0 87 -55.5 141t-138.5 54t-138.5 -54t-55.5 -141q0 -86 55.5 -140.5t138.5 -54.5zM159 395v11q21 0 25.5 3.5t4.5 14.5v181
q0 8 -1.5 11t-8 5t-20.5 2v10h15q4 0 13 -0.5t16 -0.5q6 0 15.5 0.5t13.5 0.5h49q37 0 60 -17.5t23 -48.5q0 -26 -18 -45.5t-58 -19.5h-4q11 -18 29 -18h3l23 -48q10 -21 18 -25.5t29 -4.5v-11q-7 0 -19 0.5t-21 0.5q-4 0 -10 -0.5t-9 -0.5l-54 107h-57v-78q0 -11 5.5 -14.5
t25.5 -3.5v-11h-15q-4 0 -13.5 0.5t-15.5 0.5q-7 0 -16 -0.5t-13 -0.5h-15zM216 514h67q53 0 53 53q0 25 -11.5 39.5t-43.5 14.5h-65v-107z" />
    <glyph glyph-name="macron" unicode="&#xaf;" horiz-adv-x="350" 
d="M58 609v22h235v-22h-235z" />
    <glyph glyph-name="degree" unicode="&#xb0;" horiz-adv-x="317" 
d="M159 455q-49 0 -83 33t-34 85q0 53 34 85.5t83 32.5q48 0 82 -33t34 -85t-34 -85t-82 -33zM159 470q42 0 71.5 28.5t29.5 74.5t-29.5 75t-71.5 29t-71.5 -29t-29.5 -75t29.5 -74.5t71.5 -28.5z" />
    <glyph glyph-name="plusminus" unicode="&#xb1;" horiz-adv-x="494" 
d="M239 200v167h-192v15h192v163h15v-163h193v-15h-193v-167h-15zM47 109v15h400v-15h-400z" />
    <glyph glyph-name="uni00B2" unicode="&#xb2;" horiz-adv-x="288" 
d="M229 367l-8 2q2 15 -2 21.5t-21 6.5h-155v9l62 60q90 88 90 155q0 58 -43 58q-30 0 -52 -43q-11 -22 -24 -22q-16 0 -16 16q0 19 26 39t68 20q35 0 58.5 -17t23.5 -51q0 -26 -18.5 -54.5t-39 -49t-71.5 -65.5l-23 -21h159z" />
    <glyph glyph-name="uni00B3" unicode="&#xb3;" horiz-adv-x="285" 
d="M141 389q-41 0 -72.5 22.5t-31.5 53.5q0 20 18 20q17 0 22 -24q14 -62 67 -62q62 0 62 81q0 70 -39 70q-13 0 -27 -7l-27 -13l-4 10l42 20q34 16 34 63q0 56 -41 56q-30 0 -50 -40q-12 -25 -26 -25q-17 0 -17 17q0 18 27.5 38t67.5 20q34 0 56.5 -16.5t22.5 -43.5
q0 -24 -17 -42.5t-42 -26.5q33 0 57 -21.5t24 -56.5q0 -40 -31.5 -66.5t-74.5 -26.5z" />
    <glyph glyph-name="acute" unicode="&#xb4;" horiz-adv-x="228" 
d="M61 544l-9 6q32 49 53 94t31 58q8 11 19 11q8 0 14 -6t6 -14t-5 -16q-9 -14 -42.5 -49.5t-66.5 -83.5z" />
    <glyph glyph-name="uni00B5" unicode="&#xb5;" horiz-adv-x="517" 
d="M98 -236q-11 0 -19 9t-8 25q0 15 10 97.5t10 153.5v352q0 29 -9 35t-46 6v10h11q29 0 51 13.5t26 30.5h9v-437q0 -26 8.5 -38t30.5 -12q27 0 111 34l99 41v317q0 29 -9 35t-46 6v10h11q29 0 51 13.5t26 30.5h9v-444q0 -29 9.5 -35.5t45.5 -6.5v-10h-7q-10 0 -31 1t-39 1
q-6 0 -12.5 -1t-7.5 -1v71l-99 -41q-90 -38 -128 -38t-52 21q3 -70 12.5 -138t9.5 -77q0 -34 -27 -34z" />
    <glyph glyph-name="paragraph" unicode="&#xb6;" horiz-adv-x="542" 
d="M385 -226v226h-70q-116 0 -189.5 86t-73.5 255q0 170 73.5 255t189.5 85h175v-15h-90v-651h90v-15h-90v-226h-15zM305 15h80v651h-80v-651z" />
    <glyph glyph-name="periodcentered" unicode="&#xb7;" horiz-adv-x="230" 
d="M115 303q-16 0 -27 11t-11 27t11 27t27 11t27 -11t11 -27t-11 -27t-27 -11z" />
    <glyph glyph-name="cedilla" unicode="&#xb8;" horiz-adv-x="289" 
d="M54 -250l-2 10q63 9 106 43t43 71q0 42 -47 42q-30 0 -58 -14l-4 6l80 92h7l-36 -59q7 3 19 3q34 0 54.5 -16t20.5 -44q0 -50 -58.5 -88.5t-124.5 -45.5z" />
    <glyph glyph-name="uni00B9" unicode="&#xb9;" horiz-adv-x="286" 
d="M78 397v11h19q27 0 35.5 9.5t8.5 42.5v137q0 18 -14 18q-9 0 -48 -21l-5 10l18 10q57 31 76 85h9v-239q0 -31 7.5 -41.5t30.5 -10.5h9v-11q-12 0 -30.5 2t-35.5 2q-16 0 -34 -2t-32 -2h-14z" />
    <glyph glyph-name="ordmasculine" unicode="&#xba;" horiz-adv-x="376" 
d="M187 360q-56 0 -94.5 49.5t-38.5 114.5q0 69 37 117t96 48q61 0 99 -48t38 -117q0 -67 -38.5 -115.5t-98.5 -48.5zM187 372q94 0 94 152q0 154 -94 154q-44 0 -67.5 -35.5t-23.5 -118.5q0 -152 91 -152zM52 289v14h271v-14h-271z" />
    <glyph glyph-name="guillemotright" unicode="&#xbb;" horiz-adv-x="479" 
d="M79 72l-8 8q28 32 84 98t65 75q-7 8 -63 74t-86 99l8 9q27 -28 77.5 -72.5t85.5 -74t43 -35.5q-5 -4 -42 -35t-86.5 -74.5t-77.5 -71.5zM221 72l-8 8q28 32 84 98t65 75q-7 8 -63 74t-86 99l8 9q27 -28 77.5 -72.5t85.5 -74t43 -35.5q-5 -4 -42 -35t-86.5 -74.5
t-77.5 -71.5z" />
    <glyph glyph-name="onequarter" unicode="&#xbc;" horiz-adv-x="390" 
d="M128 397v11h19q27 0 35.5 9.5t8.5 42.5v137q0 18 -14 18q-9 0 -48 -21l-5 10l18 10q57 31 76 85h9v-239q0 -31 7.5 -41.5t30.5 -10.5h9v-11q-12 0 -30.5 2t-35.5 2t-35 -2t-31 -2h-14zM44 336v13h302v-13h-302zM160 0v11h7q24 0 32 9.5t8 42.5v14h-132v7l139 199
q1 0 6 -0.5t8 -0.5t7.5 0.5t7.5 0.5v-195h7q20 0 30.5 10t27.5 45l8 -2l-15 -64h-58v-14q0 -33 7 -42.5t31 -9.5h2v-11h-5q-6 0 -22.5 2t-31.5 2q-14 0 -30.5 -2t-22.5 -2h-11zM92 88h115v165z" />
    <glyph glyph-name="onehalf" unicode="&#xbd;" horiz-adv-x="390" 
d="M128 397v11h19q27 0 35.5 9.5t8.5 42.5v137q0 18 -14 18q-9 0 -48 -21l-5 10l18 10q57 31 76 85h9v-239q0 -31 7.5 -41.5t30.5 -10.5h9v-11q-12 0 -30.5 2t-35.5 2t-35 -2t-31 -2h-14zM44 336v13h302v-13h-302zM270 -30l-8 2q2 15 -2 21.5t-21 6.5h-155v9l62 60
q90 88 90 155q0 58 -43 58q-30 0 -52 -43q-11 -22 -24 -22q-16 0 -16 16q0 19 26 39t68 20q35 0 58.5 -17t23.5 -51q0 -26 -18.5 -54.5t-39 -49t-71.5 -65.5l-23 -21h159z" />
    <glyph glyph-name="threequarters" unicode="&#xbe;" horiz-adv-x="390" 
d="M197 389q-41 0 -72.5 22.5t-31.5 53.5q0 20 18 20q17 0 22 -24q14 -62 67 -62q62 0 62 81q0 70 -39 70q-13 0 -27 -7l-27 -13l-4 10l42 20q34 16 34 63q0 56 -41 56q-30 0 -50 -40q-12 -25 -26 -25q-17 0 -17 17q0 18 27.5 38t67.5 20q34 0 56.5 -16.5t22.5 -43.5
q0 -24 -17 -42.5t-42 -26.5q33 0 57 -21.5t24 -56.5q0 -40 -31.5 -66.5t-74.5 -26.5zM44 336v13h302v-13h-302zM160 0v11h7q24 0 32 9.5t8 42.5v14h-132v7l139 199q1 0 6 -0.5t8 -0.5t7.5 0.5t7.5 0.5v-195h7q20 0 30.5 10t27.5 45l8 -2l-15 -64h-58v-14q0 -33 7 -42.5
t31 -9.5h2v-11h-5q-6 0 -22.5 2t-31.5 2q-14 0 -30.5 -2t-22.5 -2h-11zM92 88h115v165z" />
    <glyph glyph-name="questiondown" unicode="&#xbf;" horiz-adv-x="324" 
d="M208 420q-16 0 -27 11t-11 27t11 27t27 11t27 -11t11 -27t-11 -27t-27 -11zM228 -198q-76 0 -124.5 45.5t-48.5 116.5q0 27 6.5 52.5t21.5 52.5t45 49t71 35v149h14v-203q-67 -12 -106 -52t-39 -88q0 -52 28.5 -80.5t77.5 -28.5q18 0 37.5 2.5t25.5 2.5q12 0 20.5 -7
t8.5 -18q0 -28 -38 -28z" />
    <glyph glyph-name="Agrave" unicode="&#xc0;" horiz-adv-x="633" 
d="M349 733q-33 48 -66.5 83.5t-42.5 49.5q-5 8 -5 16t6 14t14 6q11 0 19 -11q10 -13 31 -58t53 -94zM-17 0v12q42 2 62.5 20t42.5 73l201 515l-27 61q3 0 11.5 -0.5t13.5 -0.5q4 0 11.5 0.5t10.5 0.5l268 -631q10 -23 25.5 -30.5t42.5 -7.5v-12h-13q-3 0 -27.5 1.5
t-40.5 1.5q-18 0 -42.5 -1.5t-26.5 -1.5h-14v12q52 0 52 25q0 7 -5 20l-53 124h-343l-29 -74q-15 -36 -15 -57q0 -38 70 -38v-12h-12q-10 0 -38 1.5t-41 1.5q-5 0 -30 -1.5t-31 -1.5h-23zM138 195h331l-173 407z" />
    <glyph glyph-name="Aacute" unicode="&#xc1;" horiz-adv-x="633" 
d="M246 733l-9 6q32 49 53 94t31 58q8 11 19 11q8 0 14 -6t6 -14t-5 -16q-9 -14 -42.5 -49.5t-66.5 -83.5zM-17 0v12q42 2 62.5 20t42.5 73l201 515l-27 61q3 0 11.5 -0.5t13.5 -0.5q4 0 11.5 0.5t10.5 0.5l268 -631q10 -23 25.5 -30.5t42.5 -7.5v-12h-13q-3 0 -27.5 1.5
t-40.5 1.5q-18 0 -42.5 -1.5t-26.5 -1.5h-14v12q52 0 52 25q0 7 -5 20l-53 124h-343l-29 -74q-15 -36 -15 -57q0 -38 70 -38v-12h-12q-10 0 -38 1.5t-41 1.5q-5 0 -30 -1.5t-31 -1.5h-23zM138 195h331l-173 407z" />
    <glyph glyph-name="Acircumflex" unicode="&#xc2;" horiz-adv-x="633" 
d="M201 733l-9 7q38 57 80 134q2 3 5 9l4 8t3.5 5.5t4.5 5t5 2.5t6 1t6 -1t5 -2.5t4.5 -5t3.5 -5.5l4 -8t5 -9q42 -77 80 -134l-9 -7q-12 17 -26 34t-23 27.5t-26 29t-24 26.5q-7 -8 -24 -26.5t-26 -29t-23 -27.5t-26 -34zM-17 0v12q42 2 62.5 20t42.5 73l201 515l-27 61
q3 0 11.5 -0.5t13.5 -0.5q4 0 11.5 0.5t10.5 0.5l268 -631q10 -23 25.5 -30.5t42.5 -7.5v-12h-13q-3 0 -27.5 1.5t-40.5 1.5q-18 0 -42.5 -1.5t-26.5 -1.5h-14v12q52 0 52 25q0 7 -5 20l-53 124h-343l-29 -74q-15 -36 -15 -57q0 -38 70 -38v-12h-12q-10 0 -38 1.5t-41 1.5
q-5 0 -30 -1.5t-31 -1.5h-23zM138 195h331l-173 407z" />
    <glyph glyph-name="Atilde" unicode="&#xc3;" horiz-adv-x="633" 
d="M170 769l-10 6q0 1 5.5 9t6.5 10.5t6.5 10.5t8 10.5t8.5 9.5t10 10l10 7.5t11.5 6.5t12.5 3.5t14 1.5q20 0 55 -20t54 -20q29 0 61 56l10 -6q-1 -2 -6 -10.5t-7.5 -11.5t-7.5 -11t-9 -12t-10 -10.5t-11 -9.5t-12 -7t-14 -5.5t-15 -1.5q-20 0 -55.5 20t-54.5 20
q-29 0 -61 -56zM-17 0v12q42 2 62.5 20t42.5 73l201 515l-27 61q3 0 11.5 -0.5t13.5 -0.5q4 0 11.5 0.5t10.5 0.5l268 -631q10 -23 25.5 -30.5t42.5 -7.5v-12h-13q-3 0 -27.5 1.5t-40.5 1.5q-18 0 -42.5 -1.5t-26.5 -1.5h-14v12q52 0 52 25q0 7 -5 20l-53 124h-343l-29 -74
q-15 -36 -15 -57q0 -38 70 -38v-12h-12q-10 0 -38 1.5t-41 1.5q-5 0 -30 -1.5t-31 -1.5h-23zM138 195h331l-173 407z" />
    <glyph glyph-name="Adieresis" unicode="&#xc4;" horiz-adv-x="633" 
d="M202 773q-15 0 -25.5 10t-10.5 26t10.5 26t25.5 10t25.5 -10t10.5 -26t-10.5 -26t-25.5 -10zM388 773q-15 0 -25.5 10t-10.5 26t10.5 26t25.5 10t25.5 -10t10.5 -26t-10.5 -26t-25.5 -10zM-17 0v12q42 2 62.5 20t42.5 73l201 515l-27 61q3 0 11.5 -0.5t13.5 -0.5
q4 0 11.5 0.5t10.5 0.5l268 -631q10 -23 25.5 -30.5t42.5 -7.5v-12h-13q-3 0 -27.5 1.5t-40.5 1.5q-18 0 -42.5 -1.5t-26.5 -1.5h-14v12q52 0 52 25q0 7 -5 20l-53 124h-343l-29 -74q-15 -36 -15 -57q0 -38 70 -38v-12h-12q-10 0 -38 1.5t-41 1.5q-5 0 -30 -1.5t-31 -1.5
h-23zM138 195h331l-173 407z" />
    <glyph glyph-name="Aring" unicode="&#xc5;" horiz-adv-x="633" 
d="M297 745q-35 0 -59 24.5t-24 59.5t24.5 59.5t58.5 24.5t58 -24.5t24 -59.5t-24 -59.5t-58 -24.5zM297 759q28 0 47.5 20.5t19.5 49.5t-19.5 49t-47.5 20q-29 0 -48 -20t-19 -49q0 -30 19 -50t48 -20zM-17 0v12q42 2 62.5 20t42.5 73l201 515l-27 61q3 0 11.5 -0.5
t13.5 -0.5q4 0 11.5 0.5t10.5 0.5l268 -631q10 -23 25.5 -30.5t42.5 -7.5v-12h-13q-3 0 -27.5 1.5t-40.5 1.5q-18 0 -42.5 -1.5t-26.5 -1.5h-14v12q52 0 52 25q0 7 -5 20l-53 124h-343l-29 -74q-15 -36 -15 -57q0 -38 70 -38v-12h-12q-10 0 -38 1.5t-41 1.5q-5 0 -30 -1.5
t-31 -1.5h-23zM138 195h331l-173 407z" />
    <glyph glyph-name="AE" unicode="&#xc6;" horiz-adv-x="1008" 
d="M872 -34l-11 4q4 16 -1 23t-24 7h-232q-14 0 -39 0.5t-47 0.5q-17 0 -35 -0.5t-27 -0.5h-6v12q34 0 41 5t7 34v130h-338l-59 -79q-32 -44 -32 -62q0 -14 10 -21t44 -7h2v-12h-12q-11 0 -37 1.5t-39 1.5q-7 0 -32 -1.5t-34 -1.5h-24v12h3q65 0 133 90l397 516q15 20 15 34
q0 18 -39 18h-2v11h2q9 0 27 -0.5t35 -0.5q20 0 43 0.5t36 0.5h224q20 0 25.5 7.5t1.5 23.5l11 3l108 -219l-9 -5q-79 116 -98 137q-35 39 -89 39h-230v-313h141q54 0 68 23.5t19 102.5h11v-270h-11q-5 80 -19.5 105t-67.5 25h-141v-326h244q33 0 52.5 9t38.5 37
q41 59 94 148l9 -5zM172 194h326v426z" />
    <glyph glyph-name="Ccedilla" unicode="&#xc7;" 
d="M179 -250l-2 10q63 9 106 43t43 71q0 42 -47 42q-30 0 -58 -14l-4 6l73 85q-113 10 -183.5 108.5t-70.5 231.5q0 88 25 158.5t66.5 113t91 64.5t101.5 22q31 0 71.5 -9.5t51.5 -9.5q25 0 16 33l10 4l108 -215l-9 -5q-108 189 -248 189q-102 0 -174.5 -80.5t-72.5 -222.5
q0 -144 75 -248.5t190 -104.5q136 0 225 146l10 -6q-40 -75 -109 -122.5t-151 -47.5h-13l-32 -51q7 3 19 3q34 0 54.5 -16t20.5 -44q0 -50 -58.5 -88.5t-124.5 -45.5z" />
    <glyph glyph-name="Egrave" unicode="&#xc8;" horiz-adv-x="606" 
d="M346 733q-33 48 -66.5 83.5t-42.5 49.5q-5 8 -5 16t6 14t14 6q11 0 19 -11q10 -13 31 -58t53 -94zM470 -34l-11 4q4 16 -1 23t-24 7h-232q-14 0 -39 0.5t-47 0.5q-17 0 -35 -0.5t-27 -0.5h-7v12q33 0 41 6.5t8 32.5v579q0 27 -8 33.5t-41 6.5v11h7q9 0 27 -0.5t35 -0.5
q20 0 43 0.5t36 0.5h224q20 0 25.5 7.5t1.5 23.5l11 3l108 -219l-9 -5q-79 116 -98 137q-35 39 -89 39h-230v-313h141q54 0 68 23.5t19 102.5h11v-270h-11q-5 80 -19.5 105t-67.5 25h-141v-326h244q33 0 52.5 9t38.5 37q33 47 94 148l9 -5z" />
    <glyph glyph-name="Eacute" unicode="&#xc9;" horiz-adv-x="606" 
d="M243 733l-9 6q32 49 53 94t31 58q8 11 19 11q8 0 14 -6t6 -14t-5 -16q-9 -14 -42.5 -49.5t-66.5 -83.5zM470 -34l-11 4q4 16 -1 23t-24 7h-232q-14 0 -39 0.5t-47 0.5q-17 0 -35 -0.5t-27 -0.5h-7v12q33 0 41 6.5t8 32.5v579q0 27 -8 33.5t-41 6.5v11h7q9 0 27 -0.5
t35 -0.5q20 0 43 0.5t36 0.5h224q20 0 25.5 7.5t1.5 23.5l11 3l108 -219l-9 -5q-79 116 -98 137q-35 39 -89 39h-230v-313h141q54 0 68 23.5t19 102.5h11v-270h-11q-5 80 -19.5 105t-67.5 25h-141v-326h244q33 0 52.5 9t38.5 37q33 47 94 148l9 -5z" />
    <glyph glyph-name="Ecircumflex" unicode="&#xca;" horiz-adv-x="606" 
d="M198 733l-9 7q38 57 80 134q2 3 5 9l4 8t3.5 5.5t4.5 5t5 2.5t6 1t6 -1t5 -2.5t4.5 -5t3.5 -5.5l4 -8t5 -9q42 -77 80 -134l-9 -7q-12 17 -26 34t-23 27.5t-26 29t-24 26.5q-7 -8 -24 -26.5t-26 -29t-23 -27.5t-26 -34zM470 -34l-11 4q4 16 -1 23t-24 7h-232
q-14 0 -39 0.5t-47 0.5q-17 0 -35 -0.5t-27 -0.5h-7v12q33 0 41 6.5t8 32.5v579q0 27 -8 33.5t-41 6.5v11h7q9 0 27 -0.5t35 -0.5q20 0 43 0.5t36 0.5h224q20 0 25.5 7.5t1.5 23.5l11 3l108 -219l-9 -5q-79 116 -98 137q-35 39 -89 39h-230v-313h141q54 0 68 23.5t19 102.5
h11v-270h-11q-5 80 -19.5 105t-67.5 25h-141v-326h244q33 0 52.5 9t38.5 37q33 47 94 148l9 -5z" />
    <glyph glyph-name="Edieresis" unicode="&#xcb;" horiz-adv-x="606" 
d="M200 773q-15 0 -25.5 10t-10.5 26t10.5 26t25.5 10t25.5 -10t10.5 -26t-10.5 -26t-25.5 -10zM386 773q-15 0 -25.5 10t-10.5 26t10.5 26t25.5 10t25.5 -10t10.5 -26t-10.5 -26t-25.5 -10zM470 -34l-11 4q4 16 -1 23t-24 7h-232q-14 0 -39 0.5t-47 0.5q-17 0 -35 -0.5
t-27 -0.5h-7v12q33 0 41 6.5t8 32.5v579q0 27 -8 33.5t-41 6.5v11h7q9 0 27 -0.5t35 -0.5q20 0 43 0.5t36 0.5h224q20 0 25.5 7.5t1.5 23.5l11 3l108 -219l-9 -5q-79 116 -98 137q-35 39 -89 39h-230v-313h141q54 0 68 23.5t19 102.5h11v-270h-11q-5 80 -19.5 105t-67.5 25
h-141v-326h244q33 0 52.5 9t38.5 37q33 47 94 148l9 -5z" />
    <glyph glyph-name="Igrave" unicode="&#xcc;" horiz-adv-x="235" 
d="M172 733q-33 48 -66.5 83.5t-42.5 49.5q-5 8 -5 16t6 14t14 6q11 0 19 -11q10 -13 31 -58t53 -94zM47 0v12q33 0 41 6.5t8 32.5v579q0 27 -8 33.5t-41 6.5v11h7q8 0 27 -1.5t37 -1.5t36 1.5t27 1.5h7v-11q-33 0 -41 -6.5t-8 -33.5v-579q0 -26 8 -32.5t41 -6.5v-12h-7
q-9 0 -27 1.5t-36 1.5t-37 -1.5t-27 -1.5h-7z" />
    <glyph glyph-name="Iacute" unicode="&#xcd;" horiz-adv-x="235" 
d="M66 733l-9 6q32 49 53 94t31 58q8 11 19 11q8 0 14 -6t6 -14t-5 -16q-9 -14 -42.5 -49.5t-66.5 -83.5zM47 0v12q33 0 41 6.5t8 32.5v579q0 27 -8 33.5t-41 6.5v11h7q8 0 27 -1.5t37 -1.5t36 1.5t27 1.5h7v-11q-33 0 -41 -6.5t-8 -33.5v-579q0 -26 8 -32.5t41 -6.5v-12h-7
q-9 0 -27 1.5t-36 1.5t-37 -1.5t-27 -1.5h-7z" />
    <glyph glyph-name="Icircumflex" unicode="&#xce;" horiz-adv-x="235" 
d="M23 733l-9 7q38 57 80 134q2 3 5 9l4 8t3.5 5.5t4.5 5t5 2.5t6 1t6 -1t5 -2.5t4.5 -5t3.5 -5.5l4 -8t5 -9q42 -77 80 -134l-9 -7q-12 17 -26 34t-23 27.5t-26 29t-24 26.5q-7 -8 -24 -26.5t-26 -29t-23 -27.5t-26 -34zM47 0v12q33 0 41 6.5t8 32.5v579q0 27 -8 33.5
t-41 6.5v11h7q8 0 27 -1.5t37 -1.5t36 1.5t27 1.5h7v-11q-33 0 -41 -6.5t-8 -33.5v-579q0 -26 8 -32.5t41 -6.5v-12h-7q-9 0 -27 1.5t-36 1.5t-37 -1.5t-27 -1.5h-7z" />
    <glyph glyph-name="Idieresis" unicode="&#xcf;" horiz-adv-x="235" 
d="M25 773q-15 0 -25.5 10t-10.5 26t10.5 26t25.5 10t25.5 -10t10.5 -26t-10.5 -26t-25.5 -10zM211 773q-15 0 -25.5 10t-10.5 26t10.5 26t25.5 10t25.5 -10t10.5 -26t-10.5 -26t-25.5 -10zM47 0v12q33 0 41 6.5t8 32.5v579q0 27 -8 33.5t-41 6.5v11h7q8 0 27 -1.5t37 -1.5
t36 1.5t27 1.5h7v-11q-33 0 -41 -6.5t-8 -33.5v-579q0 -26 8 -32.5t41 -6.5v-12h-7q-9 0 -27 1.5t-36 1.5t-37 -1.5t-27 -1.5h-7z" />
    <glyph glyph-name="Eth" unicode="&#xd0;" horiz-adv-x="620" 
d="M62 0v12q33 0 41 6.5t8 32.5v290h-68v14h68v275q0 27 -8 33.5t-41 6.5v11h7q9 0 27 -0.5t35 -0.5q20 0 43 0.5t35 0.5h71q154 0 233 -87t79 -254q0 -165 -79 -252.5t-233 -87.5h-71q-12 0 -35 0.5t-43 0.5q-17 0 -35 -0.5t-27 -0.5h-7zM154 14h113q151 0 213 74.5
t62 251.5q0 178 -62 252.5t-213 74.5h-113v-312h140v-14h-140v-327z" />
    <glyph glyph-name="Ntilde" unicode="&#xd1;" horiz-adv-x="683" 
d="M221 769l-10 6q0 1 5.5 9t6.5 10.5t6.5 10.5t8 10.5t8.5 9.5t10 10l10 7.5t11.5 6.5t12.5 3.5t14 1.5q20 0 55 -20t54 -20q29 0 61 56l10 -6q-1 -2 -6 -10.5t-7.5 -11.5t-7.5 -11t-9 -12t-10 -10.5t-11 -9.5t-12 -7t-14 -5.5t-15 -1.5q-20 0 -55.5 20t-54.5 20
q-29 0 -61 -56zM25 0v12q23 0 38.5 7t23.5 16t12 26.5t5 30t1 34.5v516q-10 11 -15 15.5t-16 8.5t-27 4h-1v11h1q11 0 24.5 -0.5t19.5 -0.5q7 0 21 0.5t23 0.5l431 -597v472q0 22 -1 34.5t-5 30t-12.5 26.5t-24.5 16t-39 7v11h19q8 0 31.5 -1.5t39.5 -1.5t39.5 1.5t32.5 1.5
h17v-11q-28 0 -46 -9t-25.5 -27.5t-9.5 -34.5t-2 -43v-491l47 -65q-8 0 -15.5 0.5t-12.5 0.5t-12 -0.5t-14 -0.5l-454 628v-502q0 -36 3.5 -56.5t23 -39t57.5 -18.5v-12h-18q-9 0 -32 1.5t-39 1.5q-17 0 -40.5 -1.5t-31.5 -1.5h-17z" />
    <glyph glyph-name="Ograve" unicode="&#xd2;" horiz-adv-x="642" 
d="M373 733q-33 48 -66.5 83.5t-42.5 49.5q-5 8 -5 16t6 14t14 6q11 0 19 -11q10 -13 31 -58t53 -94zM321 -10q-125 0 -205 98.5t-80 252.5q0 153 80 251.5t205 98.5t205 -98.5t80 -251.5q0 -154 -80 -252.5t-205 -98.5zM321 4q115 0 175 86t60 251t-60 251t-175 86
t-175 -86t-60 -251t60 -251t175 -86z" />
    <glyph glyph-name="Oacute" unicode="&#xd3;" horiz-adv-x="642" 
d="M270 733l-9 6q32 49 53 94t31 58q8 11 19 11q8 0 14 -6t6 -14t-5 -16q-9 -14 -42.5 -49.5t-66.5 -83.5zM321 -10q-125 0 -205 98.5t-80 252.5q0 153 80 251.5t205 98.5t205 -98.5t80 -251.5q0 -154 -80 -252.5t-205 -98.5zM321 4q115 0 175 86t60 251t-60 251t-175 86
t-175 -86t-60 -251t60 -251t175 -86z" />
    <glyph glyph-name="Ocircumflex" unicode="&#xd4;" horiz-adv-x="642" 
d="M225 733l-9 7q38 57 80 134q2 3 5 9l4 8t3.5 5.5t4.5 5t5 2.5t6 1t6 -1t5 -2.5t4.5 -5t3.5 -5.5l4 -8t5 -9q42 -77 80 -134l-9 -7q-12 17 -26 34t-23 27.5t-26 29t-24 26.5q-7 -8 -24 -26.5t-26 -29t-23 -27.5t-26 -34zM321 -10q-125 0 -205 98.5t-80 252.5
q0 153 80 251.5t205 98.5t205 -98.5t80 -251.5q0 -154 -80 -252.5t-205 -98.5zM321 4q115 0 175 86t60 251t-60 251t-175 86t-175 -86t-60 -251t60 -251t175 -86z" />
    <glyph glyph-name="Otilde" unicode="&#xd5;" horiz-adv-x="642" 
d="M194 769l-10 6q0 1 5.5 9t6.5 10.5t6.5 10.5t8 10.5t8.5 9.5t10 10l10 7.5t11.5 6.5t12.5 3.5t14 1.5q20 0 55 -20t54 -20q29 0 61 56l10 -6q-1 -2 -6 -10.5t-7.5 -11.5t-7.5 -11t-9 -12t-10 -10.5t-11 -9.5t-12 -7t-14 -5.5t-15 -1.5q-20 0 -55.5 20t-54.5 20
q-29 0 -61 -56zM321 -10q-125 0 -205 98.5t-80 252.5q0 153 80 251.5t205 98.5t205 -98.5t80 -251.5q0 -154 -80 -252.5t-205 -98.5zM321 4q115 0 175 86t60 251t-60 251t-175 86t-175 -86t-60 -251t60 -251t175 -86z" />
    <glyph glyph-name="Odieresis" unicode="&#xd6;" horiz-adv-x="642" 
d="M226 773q-15 0 -25.5 10t-10.5 26t10.5 26t25.5 10t25.5 -10t10.5 -26t-10.5 -26t-25.5 -10zM412 773q-15 0 -25.5 10t-10.5 26t10.5 26t25.5 10t25.5 -10t10.5 -26t-10.5 -26t-25.5 -10zM321 -10q-125 0 -205 98.5t-80 252.5q0 153 80 251.5t205 98.5t205 -98.5
t80 -251.5q0 -154 -80 -252.5t-205 -98.5zM321 4q115 0 175 86t60 251t-60 251t-175 86t-175 -86t-60 -251t60 -251t175 -86z" />
    <glyph glyph-name="multiply" unicode="&#xd7;" horiz-adv-x="418" 
d="M45 149l-10 10l164 164l-164 163l10 10l164 -163l163 163l10 -10l-163 -163l163 -164l-10 -10l-163 163z" />
    <glyph glyph-name="Oslash" unicode="&#xd8;" horiz-adv-x="642" 
d="M89 -56l-12 7l66 109q-107 101 -107 281q0 149 78.5 249.5t206.5 100.5q99 0 169 -61l65 106l12 -7l-66 -108q50 -48 77.5 -121t27.5 -159q0 -150 -78.5 -250.5t-206.5 -100.5q-94 0 -168 61zM154 79l326 534q-59 65 -159 65q-122 0 -178.5 -90.5t-56.5 -246.5
q0 -177 68 -262zM321 4q82 0 136 44.5t76.5 118t22.5 174.5q0 174 -67 261l-325 -534q58 -64 157 -64z" />
    <glyph glyph-name="Ugrave" unicode="&#xd9;" 
d="M371 733q-33 48 -66.5 83.5t-42.5 49.5q-5 8 -5 16t6 14t14 6q11 0 19 -11q10 -13 31 -58t53 -94zM307 -8q-105 0 -166.5 52t-61.5 165v421q0 27 -8 33.5t-40 6.5v11h6q9 0 27.5 -1.5t35.5 -1.5q18 0 37 1.5t27 1.5h7v-11q-33 0 -41 -6.5t-8 -33.5v-391q0 -120 44 -176
t141 -56q96 0 148 53t52 149v346q0 22 -1 35t-5 30t-12 26.5t-24 16.5t-39 7h-1v11h19q8 0 31.5 -1.5t39.5 -1.5q17 0 40.5 1.5t31.5 1.5h17v-11q-28 0 -46 -9t-25.5 -27.5t-9.5 -35t-2 -43.5v-346q0 -102 -56 -159.5t-158 -57.5z" />
    <glyph glyph-name="Uacute" unicode="&#xda;" 
d="M267 733l-9 6q32 49 53 94t31 58q8 11 19 11q8 0 14 -6t6 -14t-5 -16q-9 -14 -42.5 -49.5t-66.5 -83.5zM307 -8q-105 0 -166.5 52t-61.5 165v421q0 27 -8 33.5t-40 6.5v11h6q9 0 27.5 -1.5t35.5 -1.5q18 0 37 1.5t27 1.5h7v-11q-33 0 -41 -6.5t-8 -33.5v-391
q0 -120 44 -176t141 -56q96 0 148 53t52 149v346q0 22 -1 35t-5 30t-12 26.5t-24 16.5t-39 7h-1v11h19q8 0 31.5 -1.5t39.5 -1.5q17 0 40.5 1.5t31.5 1.5h17v-11q-28 0 -46 -9t-25.5 -27.5t-9.5 -35t-2 -43.5v-346q0 -102 -56 -159.5t-158 -57.5z" />
    <glyph glyph-name="Ucircumflex" unicode="&#xdb;" 
d="M223 733l-9 7q38 57 80 134q2 3 5 9l4 8t3.5 5.5t4.5 5t5 2.5t6 1t6 -1t5 -2.5t4.5 -5t3.5 -5.5l4 -8t5 -9q42 -77 80 -134l-9 -7q-12 17 -26 34t-23 27.5t-26 29t-24 26.5q-7 -8 -24 -26.5t-26 -29t-23 -27.5t-26 -34zM307 -8q-105 0 -166.5 52t-61.5 165v421
q0 27 -8 33.5t-40 6.5v11h6q9 0 27.5 -1.5t35.5 -1.5q18 0 37 1.5t27 1.5h7v-11q-33 0 -41 -6.5t-8 -33.5v-391q0 -120 44 -176t141 -56q96 0 148 53t52 149v346q0 22 -1 35t-5 30t-12 26.5t-24 16.5t-39 7h-1v11h19q8 0 31.5 -1.5t39.5 -1.5q17 0 40.5 1.5t31.5 1.5h17v-11
q-28 0 -46 -9t-25.5 -27.5t-9.5 -35t-2 -43.5v-346q0 -102 -56 -159.5t-158 -57.5z" />
    <glyph glyph-name="Udieresis" unicode="&#xdc;" 
d="M224 773q-15 0 -25.5 10t-10.5 26t10.5 26t25.5 10t25.5 -10t10.5 -26t-10.5 -26t-25.5 -10zM410 773q-15 0 -25.5 10t-10.5 26t10.5 26t25.5 10t25.5 -10t10.5 -26t-10.5 -26t-25.5 -10zM307 -8q-105 0 -166.5 52t-61.5 165v421q0 27 -8 33.5t-40 6.5v11h6
q9 0 27.5 -1.5t35.5 -1.5q18 0 37 1.5t27 1.5h7v-11q-33 0 -41 -6.5t-8 -33.5v-391q0 -120 44 -176t141 -56q96 0 148 53t52 149v346q0 22 -1 35t-5 30t-12 26.5t-24 16.5t-39 7h-1v11h19q8 0 31.5 -1.5t39.5 -1.5q17 0 40.5 1.5t31.5 1.5h17v-11q-28 0 -46 -9t-25.5 -27.5
t-9.5 -35t-2 -43.5v-346q0 -102 -56 -159.5t-158 -57.5z" />
    <glyph glyph-name="Yacute" unicode="&#xdd;" horiz-adv-x="583" 
d="M252 733l-9 6q32 49 53 94t31 58q8 11 19 11q8 0 14 -6t6 -14t-5 -16q-9 -14 -42.5 -49.5t-66.5 -83.5zM231 0v12q33 0 41 6.5t8 32.5v259l-207 315q-17 26 -33.5 35.5t-48.5 9.5v11h22q5 0 28 -1.5t40 -1.5t39 1.5t29 1.5h20v-11q-53 0 -53 -24q0 -10 9 -23l191 -294
l155 253q23 37 23 55q0 33 -61 33h-1v11h11q9 0 34 -1.5t38 -1.5q10 0 34.5 1.5t33.5 1.5h19v-11h-1q-41 0 -61.5 -18t-57.5 -76l-159 -261v-264q0 -26 8 -32.5t41 -6.5v-12h-7q-9 0 -27 1.5t-36 1.5t-37 -1.5t-27 -1.5h-7z" />
    <glyph glyph-name="Thorn" unicode="&#xde;" horiz-adv-x="546" 
d="M46 0v12q33 0 41 6.5t8 32.5v579q0 27 -8 33.5t-41 6.5v11h7q8 0 27 -1.5t37 -1.5q17 0 36 1.5t27 1.5h7v-11q-33 0 -41 -6.5t-8 -33.5v-89h180q90 0 149.5 -48.5t59.5 -134.5t-59 -135t-150 -49h-180v-123q0 -26 8 -32.5t41 -6.5v-12h-7q-8 0 -27 1.5t-36 1.5
q-18 0 -37 -1.5t-27 -1.5h-7zM138 188h179q86 0 123 41t37 129q0 86 -37 127.5t-123 41.5h-179v-339z" />
    <glyph glyph-name="germandbls" unicode="&#xdf;" horiz-adv-x="546" 
d="M267 -11l-63 165l9 4q47 -89 86 -121.5t81 -32.5q49 0 81.5 37.5t32.5 93.5q0 78 -95 136l-60 35q-33 20 -47.5 37.5t-14.5 40.5q0 33 51 84q67 64 67 124q0 43 -27.5 69t-79.5 26q-84 0 -117.5 -49t-33.5 -146v-492q-3 0 -11 0.5t-13 0.5q-16 0 -35.5 -0.5t-30.5 -0.5
h-6v11q36 0 45.5 6.5t9.5 35.5v424h-70v13h70q5 96 51.5 152.5t141.5 56.5q56 0 100 -26.5t44 -78.5q0 -54 -69 -112q-47 -42 -56 -63q-3 -8 -3 -16q0 -18 13.5 -30.5t56.5 -38.5l55 -34q92 -57 92 -142q0 -74 -43.5 -120t-99.5 -46q-25 0 -54 9.5t-35 9.5q-18 0 -14 -18z
" />
    <glyph glyph-name="agrave" unicode="&#xe0;" horiz-adv-x="483" 
d="M302 544q-33 48 -66.5 83.5t-42.5 49.5q-5 8 -5 16t6 14t14 6q11 0 19 -11q10 -13 31 -58t53 -94zM180 -8q-57 0 -92.5 34t-35.5 92q0 110 145 169l148 60v71q0 41 -11 55t-52 14q-50 0 -88.5 -23.5t-81.5 -68.5q-9 -9 -19 -9q-19 0 -19 18q0 29 65 61.5t142 32.5
q106 0 106 -79v-380q0 -32 22 -32q26 0 48 31l7 -6q-34 -40 -69 -40q-50 0 -50 69q-33 -28 -77.5 -48.5t-87.5 -20.5zM187 5q35 0 79.5 20t78.5 50v259l-145 -59q-99 -40 -99 -152q0 -52 20.5 -85t65.5 -33z" />
    <glyph glyph-name="aacute" unicode="&#xe1;" horiz-adv-x="483" 
d="M199 544l-9 6q32 49 53 94t31 58q8 11 19 11q8 0 14 -6t6 -14t-5 -16q-9 -14 -42.5 -49.5t-66.5 -83.5zM180 -8q-57 0 -92.5 34t-35.5 92q0 110 145 169l148 60v71q0 41 -11 55t-52 14q-50 0 -88.5 -23.5t-81.5 -68.5q-9 -9 -19 -9q-19 0 -19 18q0 29 65 61.5t142 32.5
q106 0 106 -79v-380q0 -32 22 -32q26 0 48 31l7 -6q-34 -40 -69 -40q-50 0 -50 69q-33 -28 -77.5 -48.5t-87.5 -20.5zM187 5q35 0 79.5 20t78.5 50v259l-145 -59q-99 -40 -99 -152q0 -52 20.5 -85t65.5 -33z" />
    <glyph glyph-name="acircumflex" unicode="&#xe2;" horiz-adv-x="483" 
d="M154 544l-9 7q38 57 80 134q2 3 5 9l4 8t3.5 5.5t4.5 5t5 2.5t6 1t6 -1t5 -2.5t4.5 -5t3.5 -5.5l4 -8t5 -9q42 -77 80 -134l-9 -7q-12 17 -26 34t-23 27.5t-26 29t-24 26.5q-7 -8 -24 -26.5t-26 -29t-23 -27.5t-26 -34zM180 -8q-57 0 -92.5 34t-35.5 92q0 110 145 169
l148 60v71q0 41 -11 55t-52 14q-50 0 -88.5 -23.5t-81.5 -68.5q-9 -9 -19 -9q-19 0 -19 18q0 29 65 61.5t142 32.5q106 0 106 -79v-380q0 -32 22 -32q26 0 48 31l7 -6q-34 -40 -69 -40q-50 0 -50 69q-33 -28 -77.5 -48.5t-87.5 -20.5zM187 5q35 0 79.5 20t78.5 50v259
l-145 -59q-99 -40 -99 -152q0 -52 20.5 -85t65.5 -33z" />
    <glyph glyph-name="atilde" unicode="&#xe3;" horiz-adv-x="483" 
d="M123 580l-10 6q0 1 5.5 9t6.5 10.5t6.5 10.5t8 10.5t8.5 9.5t10 10l10 7.5t11.5 6.5t12.5 3.5t14 1.5q20 0 55 -20t54 -20q29 0 61 56l10 -6q-1 -2 -6 -10.5t-7.5 -11.5t-7.5 -11t-9 -12t-10 -10.5t-11 -9.5t-12 -7t-14 -5.5t-15 -1.5q-20 0 -55.5 20t-54.5 20
q-29 0 -61 -56zM180 -8q-57 0 -92.5 34t-35.5 92q0 110 145 169l148 60v71q0 41 -11 55t-52 14q-50 0 -88.5 -23.5t-81.5 -68.5q-9 -9 -19 -9q-19 0 -19 18q0 29 65 61.5t142 32.5q106 0 106 -79v-380q0 -32 22 -32q26 0 48 31l7 -6q-34 -40 -69 -40q-50 0 -50 69
q-33 -28 -77.5 -48.5t-87.5 -20.5zM187 5q35 0 79.5 20t78.5 50v259l-145 -59q-99 -40 -99 -152q0 -52 20.5 -85t65.5 -33z" />
    <glyph glyph-name="adieresis" unicode="&#xe4;" horiz-adv-x="483" 
d="M155 594q-15 0 -25.5 10t-10.5 26t10.5 26t25.5 10t25.5 -10t10.5 -26t-10.5 -26t-25.5 -10zM341 594q-15 0 -25.5 10t-10.5 26t10.5 26t25.5 10t25.5 -10t10.5 -26t-10.5 -26t-25.5 -10zM180 -8q-57 0 -92.5 34t-35.5 92q0 110 145 169l148 60v71q0 41 -11 55t-52 14
q-50 0 -88.5 -23.5t-81.5 -68.5q-9 -9 -19 -9q-19 0 -19 18q0 29 65 61.5t142 32.5q106 0 106 -79v-380q0 -32 22 -32q26 0 48 31l7 -6q-34 -40 -69 -40q-50 0 -50 69q-33 -28 -77.5 -48.5t-87.5 -20.5zM187 5q35 0 79.5 20t78.5 50v259l-145 -59q-99 -40 -99 -152
q0 -52 20.5 -85t65.5 -33z" />
    <glyph glyph-name="aring" unicode="&#xe5;" horiz-adv-x="483" 
d="M250 556q-35 0 -59 24.5t-24 59.5t24.5 59.5t58.5 24.5t58 -24.5t24 -59.5t-24 -59.5t-58 -24.5zM250 570q28 0 47.5 20.5t19.5 49.5t-19.5 49t-47.5 20q-29 0 -48 -20t-19 -49q0 -30 19 -50t48 -20zM180 -8q-57 0 -92.5 34t-35.5 92q0 110 145 169l148 60v71
q0 41 -11 55t-52 14q-50 0 -88.5 -23.5t-81.5 -68.5q-9 -9 -19 -9q-19 0 -19 18q0 29 65 61.5t142 32.5q106 0 106 -79v-380q0 -32 22 -32q26 0 48 31l7 -6q-34 -40 -69 -40q-50 0 -50 69q-33 -28 -77.5 -48.5t-87.5 -20.5zM187 5q35 0 79.5 20t78.5 50v259l-145 -59
q-99 -40 -99 -152q0 -52 20.5 -85t65.5 -33z" />
    <glyph glyph-name="ae" unicode="&#xe6;" horiz-adv-x="763" 
d="M205 -8q-63 0 -108 39t-45 120q0 88 63 133t153 45h80v87q0 41 -11.5 56t-52.5 15q-50 0 -88.5 -23.5t-81.5 -68.5q-9 -9 -19 -9q-19 0 -19 18q0 29 64.5 61.5t141.5 32.5q58 0 82 -21t26 -69q58 90 157 90q65 0 119 -49.5t49 -133.5h-322q-2 -26 -2 -51q0 -109 46 -182
t123 -73q102 0 145 117l9 -3q-43 -131 -168 -131q-50 0 -93 27.5t-71 73.5q-75 -101 -177 -101zM394 327h274q-2 87 -37.5 123.5t-85.5 36.5q-65 0 -103 -45.5t-48 -114.5zM203 5q99 0 172 99q-27 58 -27 163v49h-80q-90 0 -128.5 -41.5t-38.5 -123.5q0 -146 102 -146z" />
    <glyph glyph-name="ccedilla" unicode="&#xe7;" horiz-adv-x="461" 
d="M125 -250l-2 10q63 9 106 43t43 71q0 42 -47 42q-30 0 -58 -14l-4 6l72 85q-78 6 -134.5 72.5t-56.5 170.5q0 114 57 188t145 74q68 0 118 -41.5t50 -80.5q0 -9 -6 -15t-15 -6q-10 0 -17 9q-4 6 -10 25q-19 53 -46 75.5t-74 22.5q-72 0 -113 -60.5t-41 -156.5
q0 -118 47 -189.5t123 -71.5q105 0 148 117l9 -3q-45 -131 -169 -131h-5l-31 -51q8 3 19 3q34 0 54.5 -16t20.5 -44q0 -50 -58.5 -88.5t-124.5 -45.5z" />
    <glyph glyph-name="egrave" unicode="&#xe8;" horiz-adv-x="464" 
d="M303 544q-33 48 -66.5 83.5t-42.5 49.5q-5 8 -5 16t6 14t14 6q11 0 19 -11q10 -13 31 -58t53 -94zM248 -8q-84 0 -144 68.5t-60 176.5q0 117 59.5 189t142.5 72q67 0 121 -49.5t49 -133.5h-322q-2 -22 -2 -51q0 -109 45.5 -182t123.5 -73q103 0 145 117l9 -3
q-22 -66 -66 -98.5t-101 -32.5zM95 327h274q-2 87 -37.5 123.5t-85.5 36.5q-68 0 -104.5 -47.5t-46.5 -112.5z" />
    <glyph glyph-name="eacute" unicode="&#xe9;" horiz-adv-x="464" 
d="M200 544l-9 6q32 49 53 94t31 58q8 11 19 11q8 0 14 -6t6 -14t-5 -16q-9 -14 -42.5 -49.5t-66.5 -83.5zM248 -8q-84 0 -144 68.5t-60 176.5q0 117 59.5 189t142.5 72q67 0 121 -49.5t49 -133.5h-322q-2 -22 -2 -51q0 -109 45.5 -182t123.5 -73q103 0 145 117l9 -3
q-22 -66 -66 -98.5t-101 -32.5zM95 327h274q-2 87 -37.5 123.5t-85.5 36.5q-68 0 -104.5 -47.5t-46.5 -112.5z" />
    <glyph glyph-name="ecircumflex" unicode="&#xea;" horiz-adv-x="464" 
d="M155 544l-9 7q38 57 80 134q2 3 5 9l4 8t3.5 5.5t4.5 5t5 2.5t6 1t6 -1t5 -2.5t4.5 -5t3.5 -5.5l4 -8t5 -9q42 -77 80 -134l-9 -7q-12 17 -26 34t-23 27.5t-26 29t-24 26.5q-7 -8 -24 -26.5t-26 -29t-23 -27.5t-26 -34zM248 -8q-84 0 -144 68.5t-60 176.5q0 117 59.5 189
t142.5 72q67 0 121 -49.5t49 -133.5h-322q-2 -22 -2 -51q0 -109 45.5 -182t123.5 -73q103 0 145 117l9 -3q-22 -66 -66 -98.5t-101 -32.5zM95 327h274q-2 87 -37.5 123.5t-85.5 36.5q-68 0 -104.5 -47.5t-46.5 -112.5z" />
    <glyph glyph-name="edieresis" unicode="&#xeb;" horiz-adv-x="464" 
d="M157 594q-15 0 -25.5 10t-10.5 26t10.5 26t25.5 10t25.5 -10t10.5 -26t-10.5 -26t-25.5 -10zM343 594q-15 0 -25.5 10t-10.5 26t10.5 26t25.5 10t25.5 -10t10.5 -26t-10.5 -26t-25.5 -10zM248 -8q-84 0 -144 68.5t-60 176.5q0 117 59.5 189t142.5 72q67 0 121 -49.5
t49 -133.5h-322q-2 -22 -2 -51q0 -109 45.5 -182t123.5 -73q103 0 145 117l9 -3q-22 -66 -66 -98.5t-101 -32.5zM95 327h274q-2 87 -37.5 123.5t-85.5 36.5q-68 0 -104.5 -47.5t-46.5 -112.5z" />
    <glyph glyph-name="igrave" unicode="&#xec;" horiz-adv-x="236" 
d="M182 544q-33 48 -66.5 83.5t-42.5 49.5q-5 8 -5 16t6 14t14 6q11 0 19 -11q10 -13 31 -58t53 -94zM47 0v11q36 0 45 6.5t9 35.5v349q0 29 -8.5 35t-45.5 6v10h6q31 0 53.5 12.5t27.5 31.5h9v-444q0 -29 9 -35.5t46 -6.5v-11h-7q-10 0 -30.5 1.5t-38.5 1.5t-38.5 -1.5
t-30.5 -1.5h-6z" />
    <glyph glyph-name="iacute" unicode="&#xed;" horiz-adv-x="236" 
d="M77 544l-9 6q32 49 53 94t31 58q8 11 19 11q8 0 14 -6t6 -14t-5 -16q-9 -14 -42.5 -49.5t-66.5 -83.5zM47 0v11q36 0 45 6.5t9 35.5v349q0 29 -8.5 35t-45.5 6v10h6q31 0 53.5 12.5t27.5 31.5h9v-444q0 -29 9 -35.5t46 -6.5v-11h-7q-10 0 -30.5 1.5t-38.5 1.5t-38.5 -1.5
t-30.5 -1.5h-6z" />
    <glyph glyph-name="icircumflex" unicode="&#xee;" horiz-adv-x="236" 
d="M31 544l-9 7q38 57 80 134q2 3 5 9l4 8t3.5 5.5t4.5 5t5 2.5t6 1t6 -1t5 -2.5t4.5 -5t3.5 -5.5l4 -8t5 -9q42 -77 80 -134l-9 -7q-12 17 -26 34t-23 27.5t-26 29t-24 26.5q-7 -8 -24 -26.5t-26 -29t-23 -27.5t-26 -34zM47 0v11q36 0 45 6.5t9 35.5v349q0 29 -8.5 35
t-45.5 6v10h6q31 0 53.5 12.5t27.5 31.5h9v-444q0 -29 9 -35.5t46 -6.5v-11h-7q-10 0 -30.5 1.5t-38.5 1.5t-38.5 -1.5t-30.5 -1.5h-6z" />
    <glyph glyph-name="idieresis" unicode="&#xef;" horiz-adv-x="236" 
d="M36 594q-15 0 -25.5 10t-10.5 26t10.5 26t25.5 10t25.5 -10t10.5 -26t-10.5 -26t-25.5 -10zM222 594q-15 0 -25.5 10t-10.5 26t10.5 26t25.5 10t25.5 -10t10.5 -26t-10.5 -26t-25.5 -10zM47 0v11q36 0 45 6.5t9 35.5v349q0 29 -8.5 35t-45.5 6v10h6q31 0 53.5 12.5
t27.5 31.5h9v-444q0 -29 9 -35.5t46 -6.5v-11h-7q-10 0 -30.5 1.5t-38.5 1.5t-38.5 -1.5t-30.5 -1.5h-6z" />
    <glyph glyph-name="eth" unicode="&#xf0;" horiz-adv-x="497" 
d="M248 -8q-86 0 -145 73.5t-59 179.5q0 108 61 180.5t152 72.5q68 0 119 -46q-35 98 -107 156l-106 -71l-7 11l102 68q-64 49 -153 68l3 10q85 -16 163 -69l97 65l6 -11l-93 -62q81 -58 127 -144.5t46 -178.5q0 -137 -56 -219.5t-150 -82.5zM248 4q81 0 118 64.5t37 206.5
q0 71 -22 157q-49 54 -124 54q-164 0 -164 -241t155 -241z" />
    <glyph glyph-name="ntilde" unicode="&#xf1;" horiz-adv-x="528" 
d="M148 580l-10 6q0 1 5.5 9t6.5 10.5t6.5 10.5t8 10.5t8.5 9.5t10 10l10 7.5t11.5 6.5t12.5 3.5t14 1.5q20 0 55 -20t54 -20q29 0 61 56l10 -6q-1 -2 -6 -10.5t-7.5 -11.5t-7.5 -11t-9 -12t-10 -10.5t-11 -9.5t-12 -7t-14 -5.5t-15 -1.5q-20 0 -55.5 20t-54.5 20
q-29 0 -61 -56zM47 0v11q36 0 45 6.5t9 35.5v348q0 29 -8.5 35t-45.5 6v10h6q31 0 53.5 12.5t27.5 31.5h9v-77l103 41q98 38 131 38q61 0 61 -67v-378q0 -29 9 -35.5t45 -6.5v-11h-7q-10 0 -30 1.5t-38 1.5t-38.5 -1.5t-30.5 -1.5h-7v11q37 0 46 6.5t9 35.5v378q0 51 -36 51
q-23 0 -103 -31l-114 -45v-353q0 -29 9 -35.5t46 -6.5v-11h-7q-10 0 -30.5 1.5t-38.5 1.5t-38.5 -1.5t-30.5 -1.5h-6z" />
    <glyph glyph-name="ograve" unicode="&#xf2;" horiz-adv-x="495" 
d="M304 544q-33 48 -66.5 83.5t-42.5 49.5q-5 8 -5 16t6 14t14 6q11 0 19 -11q10 -13 31 -58t53 -94zM247 -8q-85 0 -144 73t-59 180t59 180t144 73q86 0 145 -73.5t59 -179.5t-59 -179.5t-145 -73.5zM247 4q77 0 116.5 61.5t39.5 179.5t-39.5 179.5t-116.5 61.5
q-76 0 -115.5 -61.5t-39.5 -179.5t39.5 -179.5t115.5 -61.5z" />
    <glyph glyph-name="oacute" unicode="&#xf3;" horiz-adv-x="495" 
d="M201 544l-9 6q32 49 53 94t31 58q8 11 19 11q8 0 14 -6t6 -14t-5 -16q-9 -14 -42.5 -49.5t-66.5 -83.5zM247 -8q-85 0 -144 73t-59 180t59 180t144 73q86 0 145 -73.5t59 -179.5t-59 -179.5t-145 -73.5zM247 4q77 0 116.5 61.5t39.5 179.5t-39.5 179.5t-116.5 61.5
q-76 0 -115.5 -61.5t-39.5 -179.5t39.5 -179.5t115.5 -61.5z" />
    <glyph glyph-name="ocircumflex" unicode="&#xf4;" horiz-adv-x="495" 
d="M156 544l-9 7q38 57 80 134q2 3 5 9l4 8t3.5 5.5t4.5 5t5 2.5t6 1t6 -1t5 -2.5t4.5 -5t3.5 -5.5l4 -8t5 -9q42 -77 80 -134l-9 -7q-12 17 -26 34t-23 27.5t-26 29t-24 26.5q-7 -8 -24 -26.5t-26 -29t-23 -27.5t-26 -34zM247 -8q-85 0 -144 73t-59 180t59 180t144 73
q86 0 145 -73.5t59 -179.5t-59 -179.5t-145 -73.5zM247 4q77 0 116.5 61.5t39.5 179.5t-39.5 179.5t-116.5 61.5q-76 0 -115.5 -61.5t-39.5 -179.5t39.5 -179.5t115.5 -61.5z" />
    <glyph glyph-name="otilde" unicode="&#xf5;" horiz-adv-x="495" 
d="M125 580l-10 6q0 1 5.5 9t6.5 10.5t6.5 10.5t8 10.5t8.5 9.5t10 10l10 7.5t11.5 6.5t12.5 3.5t14 1.5q20 0 55 -20t54 -20q29 0 61 56l10 -6q-1 -2 -6 -10.5t-7.5 -11.5t-7.5 -11t-9 -12t-10 -10.5t-11 -9.5t-12 -7t-14 -5.5t-15 -1.5q-20 0 -55.5 20t-54.5 20
q-29 0 -61 -56zM247 -8q-85 0 -144 73t-59 180t59 180t144 73q86 0 145 -73.5t59 -179.5t-59 -179.5t-145 -73.5zM247 4q77 0 116.5 61.5t39.5 179.5t-39.5 179.5t-116.5 61.5q-76 0 -115.5 -61.5t-39.5 -179.5t39.5 -179.5t115.5 -61.5z" />
    <glyph glyph-name="odieresis" unicode="&#xf6;" horiz-adv-x="495" 
d="M158 594q-15 0 -25.5 10t-10.5 26t10.5 26t25.5 10t25.5 -10t10.5 -26t-10.5 -26t-25.5 -10zM344 594q-15 0 -25.5 10t-10.5 26t10.5 26t25.5 10t25.5 -10t10.5 -26t-10.5 -26t-25.5 -10zM247 -8q-85 0 -144 73t-59 180t59 180t144 73q86 0 145 -73.5t59 -179.5
t-59 -179.5t-145 -73.5zM247 4q77 0 116.5 61.5t39.5 179.5t-39.5 179.5t-116.5 61.5q-76 0 -115.5 -61.5t-39.5 -179.5t39.5 -179.5t115.5 -61.5z" />
    <glyph glyph-name="divide" unicode="&#xf7;" horiz-adv-x="535" 
d="M268 426q-17 0 -28.5 11.5t-11.5 28.5t11.5 28.5t28.5 11.5t28.5 -11.5t11.5 -28.5t-11.5 -28.5t-28.5 -11.5zM47 314v15h441v-15h-441zM268 138q-17 0 -28.5 11.5t-11.5 28.5t11.5 28.5t28.5 11.5t28.5 -11.5t11.5 -28.5t-11.5 -28.5t-28.5 -11.5z" />
    <glyph glyph-name="oslash" unicode="&#xf8;" horiz-adv-x="495" 
d="M74 -53l-11 6l57 94q-76 74 -76 198q0 107 59 180t144 73q67 0 119 -46l56 91l11 -6l-57 -94q75 -73 75 -198q0 -106 -59 -179.5t-145 -73.5q-64 0 -118 46zM131 65l226 371q-39 50 -110 50q-76 0 -115.5 -61.5t-39.5 -179.5q0 -120 39 -180zM247 4q77 0 116.5 61.5
t39.5 179.5t-38 180l-226 -371q39 -50 108 -50z" />
    <glyph glyph-name="ugrave" unicode="&#xf9;" horiz-adv-x="517" 
d="M314 544q-33 48 -66.5 83.5t-42.5 49.5q-5 8 -5 16t6 14t14 6q11 0 19 -11q10 -13 31 -58t53 -94zM155 -8q-32 0 -48 15.5t-16 51.5v342q0 29 -9 35t-46 6v10h11q29 0 51 13.5t26 30.5h9v-437q0 -26 8.5 -38t30.5 -12q27 0 111 34l99 41v317q0 29 -9 35t-46 6v10h11
q29 0 51 13.5t26 30.5h9v-444q0 -29 9.5 -35.5t45.5 -6.5v-10h-7q-10 0 -31 1t-39 1q-6 0 -12.5 -1t-7.5 -1v71l-99 -41q-90 -38 -128 -38z" />
    <glyph glyph-name="uacute" unicode="&#xfa;" horiz-adv-x="517" 
d="M211 544l-9 6q32 49 53 94t31 58q8 11 19 11q8 0 14 -6t6 -14t-5 -16q-9 -14 -42.5 -49.5t-66.5 -83.5zM155 -8q-32 0 -48 15.5t-16 51.5v342q0 29 -9 35t-46 6v10h11q29 0 51 13.5t26 30.5h9v-437q0 -26 8.5 -38t30.5 -12q27 0 111 34l99 41v317q0 29 -9 35t-46 6v10h11
q29 0 51 13.5t26 30.5h9v-444q0 -29 9.5 -35.5t45.5 -6.5v-10h-7q-10 0 -31 1t-39 1q-6 0 -12.5 -1t-7.5 -1v71l-99 -41q-90 -38 -128 -38z" />
    <glyph glyph-name="ucircumflex" unicode="&#xfb;" horiz-adv-x="517" 
d="M166 544l-9 7q38 57 80 134q2 3 5 9l4 8t3.5 5.5t4.5 5t5 2.5t6 1t6 -1t5 -2.5t4.5 -5t3.5 -5.5l4 -8t5 -9q42 -77 80 -134l-9 -7q-12 17 -26 34t-23 27.5t-26 29t-24 26.5q-7 -8 -24 -26.5t-26 -29t-23 -27.5t-26 -34zM155 -8q-32 0 -48 15.5t-16 51.5v342q0 29 -9 35
t-46 6v10h11q29 0 51 13.5t26 30.5h9v-437q0 -26 8.5 -38t30.5 -12q27 0 111 34l99 41v317q0 29 -9 35t-46 6v10h11q29 0 51 13.5t26 30.5h9v-444q0 -29 9.5 -35.5t45.5 -6.5v-10h-7q-10 0 -31 1t-39 1q-6 0 -12.5 -1t-7.5 -1v71l-99 -41q-90 -38 -128 -38z" />
    <glyph glyph-name="udieresis" unicode="&#xfc;" horiz-adv-x="517" 
d="M168 594q-15 0 -25.5 10t-10.5 26t10.5 26t25.5 10t25.5 -10t10.5 -26t-10.5 -26t-25.5 -10zM354 594q-15 0 -25.5 10t-10.5 26t10.5 26t25.5 10t25.5 -10t10.5 -26t-10.5 -26t-25.5 -10zM155 -8q-32 0 -48 15.5t-16 51.5v342q0 29 -9 35t-46 6v10h11q29 0 51 13.5
t26 30.5h9v-437q0 -26 8.5 -38t30.5 -12q27 0 111 34l99 41v317q0 29 -9 35t-46 6v10h11q29 0 51 13.5t26 30.5h9v-444q0 -29 9.5 -35.5t45.5 -6.5v-10h-7q-10 0 -31 1t-39 1q-6 0 -12.5 -1t-7.5 -1v71l-99 -41q-90 -38 -128 -38z" />
    <glyph glyph-name="yacute" unicode="&#xfd;" horiz-adv-x="462" 
d="M182 544l-9 6q32 49 53 94t31 58q8 11 19 11q8 0 14 -6t6 -14t-5 -16q-9 -14 -42.5 -49.5t-66.5 -83.5zM31 -236q-33 0 -33 20q0 19 23 19q6 0 26.5 -2t28.5 -2q35 0 64 36t65 129l18 48l-156 426q-10 27 -22.5 34.5t-47.5 7.5v10h14q6 0 26.5 -1.5t39.5 -1.5t39 1.5
t25 1.5h16v-10q-50 0 -50 -22q0 -10 5 -21l134 -363l124 337q8 21 8 35q0 19 -14 26.5t-49 7.5v10h11q10 0 31 -1.5t35 -1.5t35 1.5t27 1.5h19v-10q-41 -2 -58 -15.5t-29 -47.5l-133 -361l21 -56q-6 0 -12 0.5t-10 0.5q-3 0 -9 -0.5t-10 -0.5l-16 -40q-42 -107 -81.5 -151.5
t-104.5 -44.5z" />
    <glyph glyph-name="thorn" unicode="&#xfe;" horiz-adv-x="520" 
d="M37 -226v10q36 0 45 6.5t9 35.5v804q0 29 -8.5 35t-45.5 6v10h6q31 0 53.5 12.5t27.5 31.5h9v-296q77 69 159 69q75 0 127 -59.5t52 -193.5t-52 -193.5t-127 -59.5q-85 0 -159 69v-235q0 -28 11 -35t49 -7h12v-10h-15q-12 0 -35 1.5t-42 1.5q-18 0 -39 -1.5t-31 -1.5h-6z
M293 4q130 0 130 241t-130 241q-79 0 -160 -72v-337q80 -73 160 -73z" />
    <glyph glyph-name="ydieresis" unicode="&#xff;" horiz-adv-x="462" 
d="M139 594q-15 0 -25.5 10t-10.5 26t10.5 26t25.5 10t25.5 -10t10.5 -26t-10.5 -26t-25.5 -10zM325 594q-15 0 -25.5 10t-10.5 26t10.5 26t25.5 10t25.5 -10t10.5 -26t-10.5 -26t-25.5 -10zM31 -236q-33 0 -33 20q0 19 23 19q6 0 26.5 -2t28.5 -2q35 0 64 36t65 129l18 48
l-156 426q-10 27 -22.5 34.5t-47.5 7.5v10h14q6 0 26.5 -1.5t39.5 -1.5t39 1.5t25 1.5h16v-10q-50 0 -50 -22q0 -10 5 -21l134 -363l124 337q8 21 8 35q0 19 -14 26.5t-49 7.5v10h11q10 0 31 -1.5t35 -1.5t35 1.5t27 1.5h19v-10q-41 -2 -58 -15.5t-29 -47.5l-133 -361
l21 -56q-6 0 -12 0.5t-10 0.5q-3 0 -9 -0.5t-10 -0.5l-16 -40q-42 -107 -81.5 -151.5t-104.5 -44.5z" />
    <glyph glyph-name="Amacron" unicode="&#x100;" horiz-adv-x="633" 
d="M180 798v22h235v-22h-235zM-17 0v12q42 2 62.5 20t42.5 73l201 515l-27 61q3 0 11.5 -0.5t13.5 -0.5q4 0 11.5 0.5t10.5 0.5l268 -631q10 -23 25.5 -30.5t42.5 -7.5v-12h-13q-3 0 -27.5 1.5t-40.5 1.5q-18 0 -42.5 -1.5t-26.5 -1.5h-14v12q52 0 52 25q0 7 -5 20l-53 124
h-343l-29 -74q-15 -36 -15 -57q0 -38 70 -38v-12h-12q-10 0 -38 1.5t-41 1.5q-5 0 -30 -1.5t-31 -1.5h-23zM138 195h331l-173 407z" />
    <glyph glyph-name="amacron" unicode="&#x101;" horiz-adv-x="483" 
d="M133 609v22h235v-22h-235zM180 -8q-57 0 -92.5 34t-35.5 92q0 110 145 169l148 60v71q0 41 -11 55t-52 14q-50 0 -88.5 -23.5t-81.5 -68.5q-9 -9 -19 -9q-19 0 -19 18q0 29 65 61.5t142 32.5q106 0 106 -79v-380q0 -32 22 -32q26 0 48 31l7 -6q-34 -40 -69 -40
q-50 0 -50 69q-33 -28 -77.5 -48.5t-87.5 -20.5zM187 5q35 0 79.5 20t78.5 50v259l-145 -59q-99 -40 -99 -152q0 -52 20.5 -85t65.5 -33z" />
    <glyph glyph-name="Abreve" unicode="&#x102;" horiz-adv-x="633" 
d="M296 764q-44 0 -77 31t-49 69l10 5q32 -65 116 -65q82 0 115 65l10 -5q-16 -38 -48.5 -69t-76.5 -31zM-17 0v12q42 2 62.5 20t42.5 73l201 515l-27 61q3 0 11.5 -0.5t13.5 -0.5q4 0 11.5 0.5t10.5 0.5l268 -631q10 -23 25.5 -30.5t42.5 -7.5v-12h-13q-3 0 -27.5 1.5
t-40.5 1.5q-18 0 -42.5 -1.5t-26.5 -1.5h-14v12q52 0 52 25q0 7 -5 20l-53 124h-343l-29 -74q-15 -36 -15 -57q0 -38 70 -38v-12h-12q-10 0 -38 1.5t-41 1.5q-5 0 -30 -1.5t-31 -1.5h-23zM138 195h331l-173 407z" />
    <glyph glyph-name="abreve" unicode="&#x103;" horiz-adv-x="483" 
d="M248 575q-44 0 -77 31t-49 69l10 5q32 -65 116 -65q82 0 115 65l10 -5q-16 -38 -48.5 -69t-76.5 -31zM180 -8q-57 0 -92.5 34t-35.5 92q0 110 145 169l148 60v71q0 41 -11 55t-52 14q-50 0 -88.5 -23.5t-81.5 -68.5q-9 -9 -19 -9q-19 0 -19 18q0 29 65 61.5t142 32.5
q106 0 106 -79v-380q0 -32 22 -32q26 0 48 31l7 -6q-34 -40 -69 -40q-50 0 -50 69q-33 -28 -77.5 -48.5t-87.5 -20.5zM187 5q35 0 79.5 20t78.5 50v259l-145 -59q-99 -40 -99 -152q0 -52 20.5 -85t65.5 -33z" />
    <glyph glyph-name="Aogonek" unicode="&#x104;" horiz-adv-x="633" 
d="M500 -173q-35 0 -57 17.5t-22 43.5q0 19 12 36.5t38 35t38 24.5t41 23l-75 174h-343l-29 -74q-15 -36 -15 -57q0 -38 70 -38v-12h-12q-10 0 -38 1.5t-41 1.5q-5 0 -30 -1.5t-31 -1.5h-23v12q42 2 62.5 20t42.5 73l201 515l-27 61q4 0 12 -0.5t13 -0.5q4 0 11.5 0.5
t10.5 0.5l268 -631q10 -23 25.5 -30.5t42.5 -7.5v-12h-13q-2 0 -27.5 1.5t-40.5 1.5q-20 -10 -33.5 -18.5t-32.5 -22.5t-29 -30t-10 -34q0 -22 16.5 -35.5t43.5 -13.5q51 0 85 39l7 -6q-18 -23 -48 -39t-63 -16zM138 195h331l-173 407z" />
    <glyph glyph-name="aogonek" unicode="&#x105;" horiz-adv-x="491" 
d="M370 -173q-36 0 -58.5 18t-22.5 43q0 52 102 104q-46 4 -46 69q-33 -28 -77.5 -48.5t-87.5 -20.5q-57 0 -92.5 34t-35.5 92q0 110 145 169l148 60v71q0 41 -11 55t-52 14q-50 0 -88.5 -23.5t-81.5 -68.5q-9 -9 -19 -9q-19 0 -19 18q0 29 65 61.5t142 32.5q106 0 106 -79
v-380q0 -32 21 -32q27 0 49 31l7 -6q-21 -26 -46 -37q-39 -17 -64.5 -42.5t-25.5 -53.5q0 -23 16.5 -36.5t46.5 -13.5q47 0 82 39l7 -6q-18 -23 -48 -39t-62 -16zM187 5q35 0 79.5 20t78.5 50v259l-145 -59q-99 -40 -99 -152q0 -52 20.5 -85t65.5 -33z" />
    <glyph glyph-name="Cacute" unicode="&#x106;" 
d="M264 736l-9 6q32 49 53 94t31 58q8 11 19 11q8 0 14 -6t6 -14t-5 -16q-9 -14 -42.5 -49.5t-66.5 -83.5zM313 -8q-122 0 -199.5 100t-77.5 241q0 88 25 158.5t66.5 113t91 64.5t101.5 22q31 0 71.5 -9.5t51.5 -9.5q25 0 16 33l10 4l108 -215l-9 -5q-108 189 -248 189
q-102 0 -174.5 -80.5t-72.5 -222.5q0 -144 75 -248.5t190 -104.5q136 0 225 146l10 -6q-40 -75 -109 -122.5t-151 -47.5z" />
    <glyph glyph-name="cacute" unicode="&#x107;" horiz-adv-x="461" 
d="M205 544l-9 6q32 49 53 94t31 58q8 11 19 11q8 0 14 -6t6 -14t-5 -16q-9 -14 -42.5 -49.5t-66.5 -83.5zM252 -8q-89 0 -148.5 70t-59.5 174q0 114 57 188t145 74q68 0 118 -41.5t50 -80.5q0 -9 -6 -15t-15 -6q-10 0 -17 9q-4 6 -10 25q-19 53 -46 75.5t-74 22.5
q-72 0 -113 -60.5t-41 -156.5q0 -118 47 -189.5t123 -71.5q105 0 148 117l9 -3q-45 -131 -167 -131z" />
    <glyph glyph-name="Ccircumflex" unicode="&#x108;" 
d="M219 736l-9 7q38 57 80 134q2 3 5 9l4 8t3.5 5.5t4.5 5t5 2.5t6 1t6 -1t5 -2.5t4.5 -5t3.5 -5.5l4 -8t5 -9q42 -77 80 -134l-9 -7q-12 17 -26 34t-23 27.5t-26 29t-24 26.5q-7 -8 -24 -26.5t-26 -29t-23 -27.5t-26 -34zM313 -8q-122 0 -199.5 100t-77.5 241
q0 88 25 158.5t66.5 113t91 64.5t101.5 22q31 0 71.5 -9.5t51.5 -9.5q25 0 16 33l10 4l108 -215l-9 -5q-108 189 -248 189q-102 0 -174.5 -80.5t-72.5 -222.5q0 -144 75 -248.5t190 -104.5q136 0 225 146l10 -6q-40 -75 -109 -122.5t-151 -47.5z" />
    <glyph glyph-name="ccircumflex" unicode="&#x109;" horiz-adv-x="461" 
d="M160 544l-9 7q38 57 80 134q2 3 5 9l4 8t3.5 5.5t4.5 5t5 2.5t6 1t6 -1t5 -2.5t4.5 -5t3.5 -5.5l4 -8t5 -9q42 -77 80 -134l-9 -7q-12 17 -26 34t-23 27.5t-26 29t-24 26.5q-7 -8 -24 -26.5t-26 -29t-23 -27.5t-26 -34zM252 -8q-89 0 -148.5 70t-59.5 174q0 114 57 188
t145 74q68 0 118 -41.5t50 -80.5q0 -9 -6 -15t-15 -6q-10 0 -17 9q-4 6 -10 25q-19 53 -46 75.5t-74 22.5q-72 0 -113 -60.5t-41 -156.5q0 -118 47 -189.5t123 -71.5q105 0 148 117l9 -3q-45 -131 -167 -131z" />
    <glyph glyph-name="Cdotaccent" unicode="&#x10a;" 
d="M311 775q-16 0 -26.5 10.5t-10.5 26.5t10.5 26.5t26.5 10.5t26.5 -10.5t10.5 -26.5t-10.5 -26.5t-26.5 -10.5zM313 -8q-122 0 -199.5 100t-77.5 241q0 88 25 158.5t66.5 113t91 64.5t101.5 22q31 0 71.5 -9.5t51.5 -9.5q25 0 16 33l10 4l108 -215l-9 -5
q-108 189 -248 189q-102 0 -174.5 -80.5t-72.5 -222.5q0 -144 75 -248.5t190 -104.5q136 0 225 146l10 -6q-40 -75 -109 -122.5t-151 -47.5z" />
    <glyph glyph-name="cdotaccent" unicode="&#x10b;" horiz-adv-x="461" 
d="M252 593q-16 0 -26.5 10.5t-10.5 26.5t10.5 26.5t26.5 10.5t26.5 -10.5t10.5 -26.5t-10.5 -26.5t-26.5 -10.5zM252 -8q-89 0 -148.5 70t-59.5 174q0 114 57 188t145 74q68 0 118 -41.5t50 -80.5q0 -9 -6 -15t-15 -6q-10 0 -17 9q-4 6 -10 25q-19 53 -46 75.5t-74 22.5
q-72 0 -113 -60.5t-41 -156.5q0 -118 47 -189.5t123 -71.5q105 0 148 117l9 -3q-45 -131 -167 -131z" />
    <glyph glyph-name="Ccaron" unicode="&#x10c;" 
d="M317 739q-3 0 -6 1t-5 2.5t-4.5 5t-3.5 5.5l-4 8t-5 9q-45 83 -80 135l9 7q24 -34 99 -118q75 84 99 118l9 -7q-35 -52 -80 -135q-2 -3 -5 -9l-4 -8t-3.5 -5.5t-4.5 -5t-5 -2.5t-6 -1zM313 -8q-122 0 -199.5 100t-77.5 241q0 88 25 158.5t66.5 113t91 64.5t101.5 22
q31 0 71.5 -9.5t51.5 -9.5q25 0 16 33l10 4l108 -215l-9 -5q-108 189 -248 189q-102 0 -174.5 -80.5t-72.5 -222.5q0 -144 75 -248.5t190 -104.5q136 0 225 146l10 -6q-40 -75 -109 -122.5t-151 -47.5z" />
    <glyph glyph-name="ccaron" unicode="&#x10d;" horiz-adv-x="461" 
d="M258 547q-3 0 -6 1t-5 2.5t-4.5 5t-3.5 5.5l-4 8t-5 9q-45 83 -80 135l9 7q24 -34 99 -118q75 84 99 118l9 -7q-35 -52 -80 -135q-2 -3 -5 -9l-4 -8t-3.5 -5.5t-4.5 -5t-5 -2.5t-6 -1zM252 -8q-89 0 -148.5 70t-59.5 174q0 114 57 188t145 74q68 0 118 -41.5t50 -80.5
q0 -9 -6 -15t-15 -6q-10 0 -17 9q-4 6 -10 25q-19 53 -46 75.5t-74 22.5q-72 0 -113 -60.5t-41 -156.5q0 -118 47 -189.5t123 -71.5q105 0 148 117l9 -3q-45 -131 -167 -131z" />
    <glyph glyph-name="Dcaron" unicode="&#x10e;" horiz-adv-x="614" 
d="M309 739q-3 0 -6 1t-5 2.5t-4.5 5t-3.5 5.5l-4 8t-5 9q-45 83 -80 135l9 7q24 -34 99 -118q75 84 99 118l9 -7q-35 -52 -80 -135q-2 -3 -5 -9l-4 -8t-3.5 -5.5t-4.5 -5t-5 -2.5t-6 -1zM47 0v12q33 0 41 6.5t8 32.5v579q0 27 -8 33.5t-41 6.5v11h7q9 0 27 -0.5t35 -0.5
q20 0 43 0.5t35 0.5h71q154 0 233 -87t79 -254q0 -165 -79 -252.5t-233 -87.5h-71q-12 0 -35 0.5t-43 0.5q-17 0 -35 -0.5t-27 -0.5h-7zM139 14h113q151 0 213 74.5t62 251.5q0 178 -62 252.5t-213 74.5h-113v-653z" />
    <glyph glyph-name="dcaron" unicode="&#x10f;" horiz-adv-x="532" 
d="M228 -8q-34 0 -64.5 13t-57 40.5t-42 78.5t-15.5 121t15.5 121t42 78.5t57 40.5t64.5 13q82 0 159 -69v201q0 29 -9 35t-45 6v10h6q31 0 53.5 12.5t27.5 31.5h9v-671q0 -29 9 -36t45 -7v-11h-6q-11 0 -31 1t-35 1q-6 0 -14.5 -1t-9.5 -1v61q-77 -69 -159 -69zM541 498
l-12 2q12 60 18.5 126.5t8.5 75.5q5 23 23 23q21 0 21 -21q0 -6 -4 -20q-4 -15 -14.5 -43.5t-20.5 -63t-20 -79.5zM228 4q79 0 159 73v337q-81 72 -159 72q-131 0 -131 -241t131 -241z" />
    <glyph glyph-name="Dcroat" unicode="&#x110;" horiz-adv-x="624" 
d="M57 0v12q33 0 41 6.5t8 32.5v290h-68v14h68v275q0 27 -8 33.5t-41 6.5v11h7q9 0 27 -0.5t35 -0.5q20 0 43 0.5t35 0.5h71q154 0 233 -87t79 -254q0 -165 -79 -252.5t-233 -87.5h-71q-12 0 -35 0.5t-43 0.5q-17 0 -35 -0.5t-27 -0.5h-7zM149 14h113q151 0 213 74.5
t62 251.5q0 178 -62 252.5t-213 74.5h-113v-312h140v-14h-140v-327z" />
    <glyph glyph-name="dcroat" unicode="&#x111;" horiz-adv-x="521" 
d="M228 -8q-34 0 -64.5 13t-57 40.5t-42 78.5t-15.5 121t15.5 121t42 78.5t57 40.5t64.5 13q82 0 159 -69v136h-106v12h106v53q0 29 -9 35t-45 6v10h6q31 0 53.5 12.5t27.5 31.5h9v-148h64v-12h-64v-511q0 -29 9 -36t45 -7v-11h-6q-11 0 -31 1t-35 1q-6 0 -14.5 -1t-9.5 -1
v61q-77 -69 -159 -69zM228 4q79 0 159 73v337q-81 72 -159 72q-131 0 -131 -241t131 -241z" />
    <glyph glyph-name="Emacron" unicode="&#x112;" horiz-adv-x="606" 
d="M178 798v22h235v-22h-235zM470 -34l-11 4q4 16 -1 23t-24 7h-232q-14 0 -39 0.5t-47 0.5q-17 0 -35 -0.5t-27 -0.5h-7v12q33 0 41 6.5t8 32.5v579q0 27 -8 33.5t-41 6.5v11h7q9 0 27 -0.5t35 -0.5q20 0 43 0.5t36 0.5h224q20 0 25.5 7.5t1.5 23.5l11 3l108 -219l-9 -5
q-79 116 -98 137q-35 39 -89 39h-230v-313h141q54 0 68 23.5t19 102.5h11v-270h-11q-5 80 -19.5 105t-67.5 25h-141v-326h244q33 0 52.5 9t38.5 37q33 47 94 148l9 -5z" />
    <glyph glyph-name="emacron" unicode="&#x113;" horiz-adv-x="464" 
d="M135 609v22h235v-22h-235zM248 -8q-84 0 -144 68.5t-60 176.5q0 117 59.5 189t142.5 72q67 0 121 -49.5t49 -133.5h-322q-2 -22 -2 -51q0 -109 45.5 -182t123.5 -73q103 0 145 117l9 -3q-22 -66 -66 -98.5t-101 -32.5zM95 327h274q-2 87 -37.5 123.5t-85.5 36.5
q-68 0 -104.5 -47.5t-46.5 -112.5z" />
    <glyph glyph-name="Ebreve" unicode="&#x114;" horiz-adv-x="606" 
d="M292 764q-44 0 -77 31t-49 69l10 5q32 -65 116 -65q82 0 115 65l10 -5q-16 -38 -48.5 -69t-76.5 -31zM470 -34l-11 4q4 16 -1 23t-24 7h-232q-14 0 -39 0.5t-47 0.5q-17 0 -35 -0.5t-27 -0.5h-7v12q33 0 41 6.5t8 32.5v579q0 27 -8 33.5t-41 6.5v11h7q9 0 27 -0.5
t35 -0.5q20 0 43 0.5t36 0.5h224q20 0 25.5 7.5t1.5 23.5l11 3l108 -219l-9 -5q-79 116 -98 137q-35 39 -89 39h-230v-313h141q54 0 68 23.5t19 102.5h11v-270h-11q-5 80 -19.5 105t-67.5 25h-141v-326h244q33 0 52.5 9t38.5 37q33 47 94 148l9 -5z" />
    <glyph glyph-name="ebreve" unicode="&#x115;" horiz-adv-x="464" 
d="M250 575q-44 0 -77 31t-49 69l10 5q32 -65 116 -65q82 0 115 65l10 -5q-16 -38 -48.5 -69t-76.5 -31zM248 -8q-84 0 -144 68.5t-60 176.5q0 117 59.5 189t142.5 72q67 0 121 -49.5t49 -133.5h-322q-2 -22 -2 -51q0 -109 45.5 -182t123.5 -73q103 0 145 117l9 -3
q-22 -66 -66 -98.5t-101 -32.5zM95 327h274q-2 87 -37.5 123.5t-85.5 36.5q-68 0 -104.5 -47.5t-46.5 -112.5z" />
    <glyph glyph-name="Edotaccent" unicode="&#x116;" horiz-adv-x="606" 
d="M290 772q-16 0 -26.5 10.5t-10.5 26.5t10.5 26.5t26.5 10.5t26.5 -10.5t10.5 -26.5t-10.5 -26.5t-26.5 -10.5zM470 -34l-11 4q4 16 -1 23t-24 7h-232q-14 0 -39 0.5t-47 0.5q-17 0 -35 -0.5t-27 -0.5h-7v12q33 0 41 6.5t8 32.5v579q0 27 -8 33.5t-41 6.5v11h7
q9 0 27 -0.5t35 -0.5q20 0 43 0.5t36 0.5h224q20 0 25.5 7.5t1.5 23.5l11 3l108 -219l-9 -5q-79 116 -98 137q-35 39 -89 39h-230v-313h141q54 0 68 23.5t19 102.5h11v-270h-11q-5 80 -19.5 105t-67.5 25h-141v-326h244q33 0 52.5 9t38.5 37q33 47 94 148l9 -5z" />
    <glyph glyph-name="edotaccent" unicode="&#x117;" horiz-adv-x="464" 
d="M247 593q-16 0 -26.5 10.5t-10.5 26.5t10.5 26.5t26.5 10.5t26.5 -10.5t10.5 -26.5t-10.5 -26.5t-26.5 -10.5zM248 -8q-84 0 -144 68.5t-60 176.5q0 117 59.5 189t142.5 72q67 0 121 -49.5t49 -133.5h-322q-2 -22 -2 -51q0 -109 45.5 -182t123.5 -73q103 0 145 117l9 -3
q-22 -66 -66 -98.5t-101 -32.5zM95 327h274q-2 87 -37.5 123.5t-85.5 36.5q-68 0 -104.5 -47.5t-46.5 -112.5z" />
    <glyph glyph-name="Eogonek" unicode="&#x118;" horiz-adv-x="606" 
d="M362 -173q-35 0 -57 17.5t-22 43.5q0 56 122 112h-203q-14 0 -39 0.5t-47 0.5q-17 0 -35 -0.5t-27 -0.5h-7v12q33 0 41 6.5t8 32.5v579q0 27 -8 33.5t-41 6.5v11h7q9 0 27 -0.5t35 -0.5q20 0 43 0.5t36 0.5h224q20 0 25.5 7.5t1.5 23.5l11 3l108 -219l-9 -5
q-79 116 -98 137q-35 39 -89 39h-230v-313h141q54 0 68 23.5t19 102.5h11v-270h-11q-5 80 -19.5 105t-67.5 25h-141v-326h244q33 0 52.5 9t38.5 37q33 47 94 148l9 -5l-107 -237l-11 4q8 30 -22 30h-13q-103 -49 -103 -102q0 -22 16.5 -35.5t43.5 -13.5q51 0 85 39l7 -6
q-18 -23 -48 -39t-63 -16z" />
    <glyph glyph-name="eogonek" unicode="&#x119;" horiz-adv-x="464" 
d="M253 -173q-36 0 -58.5 17.5t-22.5 43.5q0 53 111 107q-18 -3 -37 -3q-82 0 -142 67t-60 175q0 120 59 192t143 72q67 0 121 -49.5t49 -133.5h-322q-2 -22 -2 -51q0 -109 45.5 -182t122.5 -73q103 0 146 117l9 -3q-28 -83 -95 -117q-55 -30 -82 -53.5t-27 -53.5
q0 -23 16 -36.5t45 -13.5q49 0 84 39l7 -6q-18 -23 -48 -39t-62 -16zM95 327h274q-2 87 -37.5 123.5t-85.5 36.5q-66 0 -103 -47.5t-48 -112.5z" />
    <glyph glyph-name="Ecaron" unicode="&#x11a;" horiz-adv-x="606" 
d="M296 736q-3 0 -6 1t-5 2.5t-4.5 5t-3.5 5.5l-4 8t-5 9q-45 83 -80 135l9 7q24 -34 99 -118q75 84 99 118l9 -7q-35 -52 -80 -135q-2 -3 -5 -9l-4 -8t-3.5 -5.5t-4.5 -5t-5 -2.5t-6 -1zM470 -34l-11 4q4 16 -1 23t-24 7h-232q-14 0 -39 0.5t-47 0.5q-17 0 -35 -0.5
t-27 -0.5h-7v12q33 0 41 6.5t8 32.5v579q0 27 -8 33.5t-41 6.5v11h7q9 0 27 -0.5t35 -0.5q20 0 43 0.5t36 0.5h224q20 0 25.5 7.5t1.5 23.5l11 3l108 -219l-9 -5q-79 116 -98 137q-35 39 -89 39h-230v-313h141q54 0 68 23.5t19 102.5h11v-270h-11q-5 80 -19.5 105t-67.5 25
h-141v-326h244q33 0 52.5 9t38.5 37q33 47 94 148l9 -5z" />
    <glyph glyph-name="ecaron" unicode="&#x11b;" horiz-adv-x="464" 
d="M253 547q-3 0 -6 1t-5 2.5t-4.5 5t-3.5 5.5l-4 8t-5 9q-45 83 -80 135l9 7q24 -34 99 -118q75 84 99 118l9 -7q-35 -52 -80 -135q-2 -3 -5 -9l-4 -8t-3.5 -5.5t-4.5 -5t-5 -2.5t-6 -1zM248 -8q-84 0 -144 68.5t-60 176.5q0 117 59.5 189t142.5 72q67 0 121 -49.5
t49 -133.5h-322q-2 -22 -2 -51q0 -109 45.5 -182t123.5 -73q103 0 145 117l9 -3q-22 -66 -66 -98.5t-101 -32.5zM95 327h274q-2 87 -37.5 123.5t-85.5 36.5q-68 0 -104.5 -47.5t-46.5 -112.5z" />
    <glyph glyph-name="Gcircumflex" unicode="&#x11c;" horiz-adv-x="630" 
d="M229 736l-9 7q38 57 80 134q2 3 5 9l4 8t3.5 5.5t4.5 5t5 2.5t6 1t6 -1t5 -2.5t4.5 -5t3.5 -5.5l4 -8t5 -9q42 -77 80 -134l-9 -7q-12 17 -26 34t-23 27.5t-26 29t-24 26.5q-7 -8 -24 -26.5t-26 -29t-23 -27.5t-26 -34zM331 -10q-131 0 -213 101.5t-82 247.5
q0 159 82.5 255.5t200.5 96.5q34 0 75.5 -9.5t50.5 -9.5q28 0 16 33l11 4l108 -215l-10 -5q-61 108 -120.5 148.5t-129.5 40.5q-109 0 -171.5 -84t-62.5 -251q0 -161 65.5 -250t182.5 -89q107 0 179 81v165q0 27 -8 33.5t-40 6.5v11h7q8 0 26.5 -1.5t36.5 -1.5q17 0 35 1.5
t27 1.5h7v-11q-32 0 -40 -6.5t-8 -33.5v-261h-10q-2 49 -28 82q-79 -81 -187 -81z" />
    <glyph glyph-name="gcircumflex" unicode="&#x11d;" horiz-adv-x="516" 
d="M158 544l-9 7q38 57 80 134q2 3 5 9l4 8t3.5 5.5t4.5 5t5 2.5t6 1t6 -1t5 -2.5t4.5 -5t3.5 -5.5l4 -8t5 -9q42 -77 80 -134l-9 -7q-12 17 -26 34t-23 27.5t-26 29t-24 26.5q-7 -8 -24 -26.5t-26 -29t-23 -27.5t-26 -34zM240 -234q-105 0 -164 33.5t-59 80.5q0 36 39 66
t117 46q-119 17 -119 73q0 51 109 86q-43 21 -69.5 64t-26.5 101q0 78 50.5 130t125.5 52q74 0 123 -43q54 61 104 61q33 0 33 -22q0 -9 -6.5 -14.5t-15.5 -5.5q-8 0 -22.5 4.5t-24.5 4.5q-29 0 -60 -36q44 -55 44 -132q0 -78 -50 -129.5t-125 -51.5q-35 0 -66 11
q-93 -28 -93 -64q0 -42 118 -54l122 -12q158 -15 158 -110q0 -68 -71 -103.5t-171 -35.5zM243 145q66 0 97.5 46.5t31.5 123.5q0 78 -31.5 125t-97.5 47q-67 0 -98.5 -47t-31.5 -125q0 -77 31.5 -123.5t98.5 -46.5zM244 -223q86 0 144 31t58 84q0 74 -135 87l-115 11
q-135 -33 -135 -109q0 -45 50.5 -74.5t132.5 -29.5z" />
    <glyph glyph-name="Gbreve" unicode="&#x11e;" horiz-adv-x="630" 
d="M325 767q-44 0 -77 31t-49 69l10 5q33 -65 116 -65t115 65l10 -5q-16 -38 -48.5 -69t-76.5 -31zM331 -10q-131 0 -213 101.5t-82 247.5q0 159 82.5 255.5t200.5 96.5q34 0 75.5 -9.5t50.5 -9.5q28 0 16 33l11 4l108 -215l-10 -5q-61 108 -120.5 148.5t-129.5 40.5
q-109 0 -171.5 -84t-62.5 -251q0 -161 65.5 -250t182.5 -89q107 0 179 81v165q0 27 -8 33.5t-40 6.5v11h7q8 0 26.5 -1.5t36.5 -1.5q17 0 35 1.5t27 1.5h7v-11q-32 0 -40 -6.5t-8 -33.5v-261h-10q-2 49 -28 82q-79 -81 -187 -81z" />
    <glyph glyph-name="gbreve" unicode="&#x11f;" horiz-adv-x="516" 
d="M254 575q-44 0 -77 31t-49 69l10 5q32 -65 116 -65q82 0 115 65l10 -5q-16 -38 -48.5 -69t-76.5 -31zM240 -234q-105 0 -164 33.5t-59 80.5q0 36 39 66t117 46q-119 17 -119 73q0 51 109 86q-43 21 -69.5 64t-26.5 101q0 78 50.5 130t125.5 52q74 0 123 -43q54 61 104 61
q33 0 33 -22q0 -9 -6.5 -14.5t-15.5 -5.5q-8 0 -22.5 4.5t-24.5 4.5q-29 0 -60 -36q44 -55 44 -132q0 -78 -50 -129.5t-125 -51.5q-35 0 -66 11q-93 -28 -93 -64q0 -42 118 -54l122 -12q158 -15 158 -110q0 -68 -71 -103.5t-171 -35.5zM243 145q66 0 97.5 46.5t31.5 123.5
q0 78 -31.5 125t-97.5 47q-67 0 -98.5 -47t-31.5 -125q0 -77 31.5 -123.5t98.5 -46.5zM244 -223q86 0 144 31t58 84q0 74 -135 87l-115 11q-135 -33 -135 -109q0 -45 50.5 -74.5t132.5 -29.5z" />
    <glyph glyph-name="Gdotaccent" unicode="&#x120;" horiz-adv-x="630" 
d="M322 775q-16 0 -26.5 10.5t-10.5 26.5t10.5 26.5t26.5 10.5t26.5 -10.5t10.5 -26.5t-10.5 -26.5t-26.5 -10.5zM331 -10q-131 0 -213 101.5t-82 247.5q0 159 82.5 255.5t200.5 96.5q34 0 75.5 -9.5t50.5 -9.5q28 0 16 33l11 4l108 -215l-10 -5q-61 108 -120.5 148.5
t-129.5 40.5q-109 0 -171.5 -84t-62.5 -251q0 -161 65.5 -250t182.5 -89q107 0 179 81v165q0 27 -8 33.5t-40 6.5v11h7q8 0 26.5 -1.5t36.5 -1.5q17 0 35 1.5t27 1.5h7v-11q-32 0 -40 -6.5t-8 -33.5v-261h-10q-2 49 -28 82q-79 -81 -187 -81z" />
    <glyph glyph-name="gdotaccent" unicode="&#x121;" horiz-adv-x="516" 
d="M251 593q-16 0 -26.5 10.5t-10.5 26.5t10.5 26.5t26.5 10.5t26.5 -10.5t10.5 -26.5t-10.5 -26.5t-26.5 -10.5zM240 -234q-105 0 -164 33.5t-59 80.5q0 36 39 66t117 46q-119 17 -119 73q0 51 109 86q-43 21 -69.5 64t-26.5 101q0 78 50.5 130t125.5 52q74 0 123 -43
q54 61 104 61q33 0 33 -22q0 -9 -6.5 -14.5t-15.5 -5.5q-8 0 -22.5 4.5t-24.5 4.5q-29 0 -60 -36q44 -55 44 -132q0 -78 -50 -129.5t-125 -51.5q-35 0 -66 11q-93 -28 -93 -64q0 -42 118 -54l122 -12q158 -15 158 -110q0 -68 -71 -103.5t-171 -35.5zM243 145q66 0 97.5 46.5
t31.5 123.5q0 78 -31.5 125t-97.5 47q-67 0 -98.5 -47t-31.5 -125q0 -77 31.5 -123.5t98.5 -46.5zM244 -223q86 0 144 31t58 84q0 74 -135 87l-115 11q-135 -33 -135 -109q0 -45 50.5 -74.5t132.5 -29.5z" />
    <glyph glyph-name="uni0122" unicode="&#x122;" horiz-adv-x="630" 
d="M331 -10q-131 0 -213 101.5t-82 247.5q0 159 82.5 255.5t200.5 96.5q34 0 75.5 -9.5t50.5 -9.5q28 0 16 33l11 4l108 -215l-10 -5q-61 108 -120.5 148.5t-129.5 40.5q-109 0 -171.5 -84t-62.5 -251q0 -161 65.5 -250t182.5 -89q107 0 179 81v165q0 27 -8 33.5t-40 6.5v11
h7q8 0 26.5 -1.5t36.5 -1.5q17 0 35 1.5t27 1.5h7v-11q-32 0 -40 -6.5t-8 -33.5v-261h-10q-2 49 -28 82q-79 -81 -187 -81zM308 -222l-3 9q30 9 46 35t15 52q-8 -18 -31 -18q-15 0 -24.5 10t-9.5 24q0 15 10.5 25.5t26.5 10.5q17 0 28 -13t11 -34q0 -42 -21.5 -67.5
t-47.5 -33.5z" />
    <glyph glyph-name="uni0123" unicode="&#x123;" horiz-adv-x="516" 
d="M256 573q-17 0 -28.5 13t-11.5 34q0 42 21.5 67t48.5 34l3 -9q-30 -9 -46.5 -34.5t-15.5 -52.5q8 18 32 18q15 0 24.5 -10t9.5 -24q0 -15 -10.5 -25.5t-26.5 -10.5zM240 -234q-105 0 -164 33.5t-59 80.5q0 36 39 66t117 46q-119 17 -119 73q0 51 109 86q-43 21 -69.5 64
t-26.5 101q0 78 50.5 130t125.5 52q74 0 123 -43q54 61 104 61q33 0 33 -22q0 -9 -6.5 -14.5t-15.5 -5.5q-8 0 -22.5 4.5t-24.5 4.5q-29 0 -60 -36q44 -55 44 -132q0 -78 -50 -129.5t-125 -51.5q-35 0 -66 11q-93 -28 -93 -64q0 -42 118 -54l122 -12q158 -15 158 -110
q0 -68 -71 -103.5t-171 -35.5zM243 145q66 0 97.5 46.5t31.5 123.5q0 78 -31.5 125t-97.5 47q-67 0 -98.5 -47t-31.5 -125q0 -77 31.5 -123.5t98.5 -46.5zM244 -223q86 0 144 31t58 84q0 74 -135 87l-115 11q-135 -33 -135 -109q0 -45 50.5 -74.5t132.5 -29.5z" />
    <glyph glyph-name="Hcircumflex" unicode="&#x124;" horiz-adv-x="665" 
d="M240 733l-9 7q38 57 80 134q2 3 5 9l4 8t3.5 5.5t4.5 5t5 2.5t6 1t6 -1t5 -2.5t4.5 -5t3.5 -5.5l4 -8t5 -9q42 -77 80 -134l-9 -7q-12 17 -26 34t-23 27.5t-26 29t-24 26.5q-7 -8 -24 -26.5t-26 -29t-23 -27.5t-26 -34zM47 0v12q33 0 41 6.5t8 32.5v579q0 27 -8 33.5
t-41 6.5v11h7q8 0 27 -1.5t37 -1.5t36 1.5t27 1.5h7v-11q-33 0 -41 -6.5t-8 -33.5v-276h387v276q0 27 -8 33.5t-41 6.5v11h7q8 0 27 -1.5t37 -1.5t36 1.5t27 1.5h7v-11q-33 0 -41 -6.5t-8 -33.5v-579q0 -26 8 -32.5t41 -6.5v-12h-7q-9 0 -27 1.5t-36 1.5t-37 -1.5t-27 -1.5
h-7v12q33 0 41 6.5t8 32.5v289h-387v-289q0 -26 8 -32.5t41 -6.5v-12h-7q-9 0 -27 1.5t-36 1.5t-37 -1.5t-27 -1.5h-7z" />
    <glyph glyph-name="hcircumflex" unicode="&#x125;" horiz-adv-x="519" 
d="M6 740l-9 7q38 57 80 134q2 3 5 9l4 8t3.5 5.5t4.5 5t5 2.5t6 1t6 -1t5 -2.5t4.5 -5t3.5 -5.5l4 -8t5 -9q42 -77 80 -134l-9 -7q-12 17 -26 34t-23 27.5t-26 29t-24 26.5q-7 -8 -24 -26.5t-26 -29t-23 -27.5t-26 -34zM38 0v11q36 0 45 6.5t9 35.5v577q0 29 -9 35t-45 6
v10h6q31 0 53.5 12.5t27.5 31.5h9v-306l103 41q98 38 131 38q61 0 61 -67v-378q0 -29 9 -35.5t45 -6.5v-11h-7q-10 0 -30 1.5t-38 1.5t-38.5 -1.5t-30.5 -1.5h-7v11q37 0 46 6.5t9 35.5v378q0 51 -37 51q-25 0 -113 -35l-103 -41v-353q0 -29 9 -35.5t46 -6.5v-11h-7
q-10 0 -30.5 1.5t-38.5 1.5t-38.5 -1.5t-30.5 -1.5h-6z" />
    <glyph glyph-name="Hbar" unicode="&#x126;" horiz-adv-x="671" 
d="M51 0v12q33 0 41 6.5t8 32.5v419h-73v14h73v146q0 27 -8 33.5t-41 6.5v11h7q8 0 26.5 -1.5t36.5 -1.5t37 1.5t27 1.5h7v-11q-33 0 -41 -6.5t-8 -33.5v-146h387v146q0 27 -8 33.5t-41 6.5v11h7q8 0 27 -1.5t37 -1.5t36 1.5t27 1.5h7v-11q-33 0 -41 -6.5t-8 -33.5v-146h71
v-14h-71v-419q0 -26 8 -32.5t41 -6.5v-12h-7q-9 0 -27 1.5t-36 1.5t-37 -1.5t-27 -1.5h-7v12q33 0 41 6.5t8 32.5v257h-387v-257q0 -26 8 -32.5t41 -6.5v-12h-7q-8 0 -27 1.5t-37 1.5t-36.5 -1.5t-26.5 -1.5h-7zM143 322h387v148h-387v-148z" />
    <glyph glyph-name="hbar" unicode="&#x127;" horiz-adv-x="519" 
d="M38 0v11q36 0 45 6.5t9 35.5v512h-64v12h64v53q0 29 -9 35t-45 6v10h6q31 0 53.5 12.5t27.5 31.5h9v-148h108v-12h-108v-146l103 41q98 38 131 38q61 0 61 -67v-378q0 -29 9 -35.5t45 -6.5v-11h-7q-10 0 -30 1.5t-38 1.5t-38.5 -1.5t-30.5 -1.5h-7v11q37 0 46 6.5t9 35.5
v378q0 51 -37 51q-25 0 -113 -35l-103 -41v-353q0 -29 9 -35.5t46 -6.5v-11h-7q-10 0 -30.5 1.5t-38.5 1.5t-38.5 -1.5t-30.5 -1.5h-6z" />
    <glyph glyph-name="Itilde" unicode="&#x128;" horiz-adv-x="235" 
d="M-7 769l-10 6q0 1 5.5 9t6.5 10.5t6.5 10.5t8 10.5t8.5 9.5t10 10l10 7.5t11.5 6.5t12.5 3.5t14 1.5q20 0 55 -20t54 -20q29 0 61 56l10 -6q-1 -2 -6 -10.5t-7.5 -11.5t-7.5 -11t-9 -12t-10 -10.5t-11 -9.5t-12 -7t-14 -5.5t-15 -1.5q-20 0 -55.5 20t-54.5 20
q-29 0 -61 -56zM47 0v12q33 0 41 6.5t8 32.5v579q0 27 -8 33.5t-41 6.5v11h7q8 0 27 -1.5t37 -1.5t36 1.5t27 1.5h7v-11q-33 0 -41 -6.5t-8 -33.5v-579q0 -26 8 -32.5t41 -6.5v-12h-7q-9 0 -27 1.5t-36 1.5t-37 -1.5t-27 -1.5h-7z" />
    <glyph glyph-name="itilde" unicode="&#x129;" horiz-adv-x="236" 
d="M1 580l-10 6q0 1 5.5 9t6.5 10.5t6.5 10.5t8 10.5t8.5 9.5t10 10l10 7.5t11.5 6.5t12.5 3.5t14 1.5q20 0 55 -20t54 -20q29 0 61 56l10 -6q-1 -2 -6 -10.5t-7.5 -11.5t-7.5 -11t-9 -12t-10 -10.5t-11 -9.5t-12 -7t-14 -5.5t-15 -1.5q-20 0 -55.5 20t-54.5 20
q-29 0 -61 -56zM47 0v11q36 0 45 6.5t9 35.5v349q0 29 -8.5 35t-45.5 6v10h6q31 0 53.5 12.5t27.5 31.5h9v-444q0 -29 9 -35.5t46 -6.5v-11h-7q-10 0 -30.5 1.5t-38.5 1.5t-38.5 -1.5t-30.5 -1.5h-6z" />
    <glyph glyph-name="Imacron" unicode="&#x12a;" horiz-adv-x="235" 
d="M3 798v22h235v-22h-235zM47 0v12q33 0 41 6.5t8 32.5v579q0 27 -8 33.5t-41 6.5v11h7q8 0 27 -1.5t37 -1.5t36 1.5t27 1.5h7v-11q-33 0 -41 -6.5t-8 -33.5v-579q0 -26 8 -32.5t41 -6.5v-12h-7q-9 0 -27 1.5t-36 1.5t-37 -1.5t-27 -1.5h-7z" />
    <glyph glyph-name="imacron" unicode="&#x12b;" horiz-adv-x="236" 
d="M14 609v22h235v-22h-235zM47 0v11q36 0 45 6.5t9 35.5v349q0 29 -8.5 35t-45.5 6v10h6q31 0 53.5 12.5t27.5 31.5h9v-444q0 -29 9 -35.5t46 -6.5v-11h-7q-10 0 -30.5 1.5t-38.5 1.5t-38.5 -1.5t-30.5 -1.5h-6z" />
    <glyph glyph-name="Ibreve" unicode="&#x12c;" horiz-adv-x="235" 
d="M118 764q-44 0 -77 31t-49 69l10 5q32 -65 116 -65q82 0 115 65l10 -5q-16 -38 -48.5 -69t-76.5 -31zM47 0v12q33 0 41 6.5t8 32.5v579q0 27 -8 33.5t-41 6.5v11h7q8 0 27 -1.5t37 -1.5t36 1.5t27 1.5h7v-11q-33 0 -41 -6.5t-8 -33.5v-579q0 -26 8 -32.5t41 -6.5v-12h-7
q-9 0 -27 1.5t-36 1.5t-37 -1.5t-27 -1.5h-7z" />
    <glyph glyph-name="ibreve" unicode="&#x12d;" horiz-adv-x="236" 
d="M125 575q-44 0 -77 31t-49 69l10 5q33 -65 116 -65t115 65l10 -5q-16 -38 -48.5 -69t-76.5 -31zM46 0v11q36 0 45 6.5t9 35.5v349q0 29 -8.5 35t-45.5 6v10h6q31 0 53.5 12.5t27.5 31.5h9v-444q0 -29 9 -35.5t46 -6.5v-11h-7q-10 0 -30.5 1.5t-38.5 1.5t-38.5 -1.5
t-30.5 -1.5h-6z" />
    <glyph glyph-name="Iogonek" unicode="&#x12e;" horiz-adv-x="235" 
d="M87 -173q-35 0 -57.5 18t-22.5 43q0 24 26 50t45 36.5t54 28.5h-14q-18 0 -37 -1.5t-27 -1.5h-7v12q33 0 41 6.5t8 32.5v579q0 27 -8 33.5t-41 6.5v11h7q8 0 27 -1.5t37 -1.5t36 1.5t27 1.5h7v-11q-33 0 -41 -6.5t-8 -33.5v-579q0 -26 8 -32.5t41 -6.5v-12h-7
q-10 0 -32 2q-49 -25 -76.5 -49.5t-27.5 -53.5q0 -23 16.5 -36.5t44.5 -13.5q50 0 84 39l7 -6q-18 -23 -48 -39t-62 -16z" />
    <glyph glyph-name="iogonek" unicode="&#x12f;" horiz-adv-x="236" 
d="M123 612q-16 0 -26.5 10.5t-10.5 26.5t10.5 26.5t26.5 10.5t26.5 -10.5t10.5 -26.5t-10.5 -26.5t-26.5 -10.5zM92 -173q-36 0 -58.5 17.5t-22.5 43.5q0 23 22.5 47t44 36.5t57.5 31.5h-13q-18 0 -38.5 -1.5t-30.5 -1.5h-6v11q36 0 45 6.5t9 35.5v349q0 29 -8.5 35
t-45.5 6v10h6q31 0 53.5 12.5t27.5 31.5h9v-444q0 -29 9 -35.5t46 -6.5v-11h-7q-11 0 -39 2q-31 -17 -50.5 -29.5t-36 -32.5t-16.5 -41q0 -23 16.5 -36.5t45.5 -13.5q49 0 83 39l7 -6q-18 -23 -47.5 -39t-61.5 -16z" />
    <glyph glyph-name="Idotaccent" unicode="&#x130;" horiz-adv-x="235" 
d="M116 772q-16 0 -26.5 10.5t-10.5 26.5t10.5 26.5t26.5 10.5t26.5 -10.5t10.5 -26.5t-10.5 -26.5t-26.5 -10.5zM47 0v12q33 0 41 6.5t8 32.5v579q0 27 -8 33.5t-41 6.5v11h7q8 0 27 -1.5t37 -1.5t36 1.5t27 1.5h7v-11q-33 0 -41 -6.5t-8 -33.5v-579q0 -26 8 -32.5t41 -6.5
v-12h-7q-9 0 -27 1.5t-36 1.5t-37 -1.5t-27 -1.5h-7z" />
    <glyph glyph-name="dotlessi" unicode="&#x131;" horiz-adv-x="236" 
d="M47 0v11q36 0 45 6.5t9 35.5v349q0 29 -8.5 35t-45.5 6v10h6q31 0 53.5 12.5t27.5 31.5h9v-444q0 -29 9 -35.5t46 -6.5v-11h-7q-10 0 -30.5 1.5t-38.5 1.5t-38.5 -1.5t-30.5 -1.5h-6z" />
    <glyph glyph-name="IJ" unicode="&#x132;" horiz-adv-x="507" 
d="M47 0v12q33 0 41 6.5t8 32.5v579q0 27 -8 33.5t-41 6.5v11h7q8 0 27 -1.5t37 -1.5t36 1.5t27 1.5h7v-11q-33 0 -41 -6.5t-8 -33.5v-579q0 -26 8 -32.5t41 -6.5v-12h-7q-9 0 -27 1.5t-36 1.5t-37 -1.5t-27 -1.5h-7zM229 -83q-27 0 -27 21t25 21q5 0 32 -3.5t41 -3.5
q76 0 76 132v546q0 27 -8 33.5t-40 6.5v11h6q9 0 27.5 -1.5t36.5 -1.5t36 1.5t27 1.5h7v-11q-32 0 -40.5 -6.5t-8.5 -33.5v-436q0 -149 -49 -213t-141 -64z" />
    <glyph glyph-name="ij" unicode="&#x133;" horiz-adv-x="480" 
d="M123 612q-16 0 -26.5 10.5t-10.5 26.5t10.5 26.5t26.5 10.5t26.5 -10.5t10.5 -26.5t-10.5 -26.5t-26.5 -10.5zM359 612q-16 0 -26.5 10.5t-10.5 26.5t10.5 26.5t26.5 10.5t26.5 -10.5t10.5 -26.5t-10.5 -26.5t-26.5 -10.5zM47 0v11q36 0 45 6.5t9 35.5v349q0 29 -8.5 35
t-45.5 6v10h6q31 0 53.5 12.5t27.5 31.5h9v-444q0 -29 9 -35.5t46 -6.5v-11h-7q-10 0 -30.5 1.5t-38.5 1.5t-38.5 -1.5t-30.5 -1.5h-6zM220 -235q-22 0 -22 18q0 19 22 19q8 0 25.5 -0.5t24.5 -0.5q32 0 50 27t18 80v494q0 29 -8.5 35t-45.5 6v10h6q31 0 53.5 12.5
t27.5 31.5h9v-462q0 -115 -33 -182q-21 -42 -54.5 -65t-72.5 -23z" />
    <glyph glyph-name="Jcircumflex" unicode="&#x134;" horiz-adv-x="265" 
d="M78 732l-9 7q38 57 80 134q2 3 5 9l4 8t3.5 5.5t4.5 5t5 2.5t6 1t6 -1t5 -2.5t4.5 -5t3.5 -5.5l4 -8t5 -9q42 -77 80 -134l-9 -7q-12 17 -26 34t-23 27.5t-26 29t-24 26.5q-7 -8 -24 -26.5t-26 -29t-23 -27.5t-26 -34zM-13 -83q-27 0 -27 21t25 21q5 0 32 -3.5t41 -3.5
q76 0 76 132v546q0 27 -8 33.5t-40 6.5v11h6q9 0 27.5 -1.5t36.5 -1.5t36 1.5t27 1.5h7v-11q-32 0 -40.5 -6.5t-8.5 -33.5v-436q0 -149 -49 -213t-141 -64z" />
    <glyph glyph-name="jcircumflex" unicode="&#x135;" horiz-adv-x="209" 
d="M33 544l-9 7q38 57 80 134q2 3 5 9l4 8t3.5 5.5t4.5 5t5 2.5t6 1t6 -1t5 -2.5t4.5 -5t3.5 -5.5l4 -8t5 -9q42 -77 80 -134l-9 -7q-12 17 -26 34t-23 27.5t-26 29t-24 26.5q-7 -8 -24 -26.5t-26 -29t-23 -27.5t-26 -34zM-30 -236q-22 0 -22 18q0 20 22 20q8 0 25.5 -0.5
t24.5 -0.5q32 0 50 27t18 80v494q0 29 -8.5 35t-45.5 6v10h6q31 0 53.5 12.5t27.5 31.5h9v-462q0 -115 -33 -182q-44 -89 -127 -89z" />
    <glyph glyph-name="uni0136" unicode="&#x136;" horiz-adv-x="631" 
d="M47 0v12q33 0 41 6t8 33v579q0 27 -8 33.5t-41 6.5v11h7q8 0 27 -1.5t36 -1.5q18 0 37 1.5t27 1.5h7v-11q-33 0 -41 -6.5t-8 -33.5v-401l124 149l-23 35q26 -3 51 -1l170 203q15 17 15 30q0 25 -56 25v11h14q10 0 31.5 -1.5t32.5 -1.5q17 0 41 1.5t28 1.5h20v-11
q-64 0 -113 -61l-174 -207l234 -350q25 -40 94 -40v-12h-24q-9 0 -32 1.5t-40 1.5t-41.5 -1.5t-32.5 -1.5h-28v12h15q44 0 44 21q0 8 -11 26l-207 308l-132 -158v-158q0 -27 8 -33t41 -6v-12h-7q-8 0 -27 1.5t-37 1.5q-17 0 -36 -1.5t-27 -1.5h-7zM285 -222l-3 9q30 9 46 35
t15 52q-8 -18 -31 -18q-15 0 -24.5 10t-9.5 24q0 15 10.5 25.5t26.5 10.5q17 0 28 -13t11 -34q0 -42 -21.5 -67.5t-47.5 -33.5z" />
    <glyph glyph-name="uni0137" unicode="&#x137;" horiz-adv-x="503" 
d="M38 0v11q36 0 45 6.5t9 35.5v577q0 29 -9 35t-45 6v10h6q31 0 53.5 12.5t27.5 31.5h9v-531l91 92l-20 29h46l98 98q30 31 30 45q0 22 -43 22v10h11q13 0 31.5 -1.5t33.5 -1.5q16 0 35.5 1.5t31.5 1.5h11v-10q-36 0 -62.5 -15.5t-60.5 -50.5l-106 -108l171 -258
q16 -25 27.5 -31t39.5 -6v-11h-4q-8 0 -28 1.5t-39 1.5q-17 0 -35.5 -1.5t-25.5 -1.5h-19v11h7q38 0 38 14q0 7 -10 22l-151 229l-98 -100v-123q0 -29 9 -35.5t46 -6.5v-11h-7q-10 0 -30.5 1.5t-38.5 1.5t-38.5 -1.5t-30.5 -1.5h-6zM234 -222l-3 9q30 9 46 35t15 52
q-8 -18 -31 -18q-15 0 -24.5 10t-9.5 24q0 15 10.5 25.5t26.5 10.5q17 0 28 -13t11 -34q0 -42 -21.5 -67.5t-47.5 -33.5z" />
    <glyph glyph-name="kgreenlandic" unicode="&#x138;" horiz-adv-x="510" 
d="M47 0v11q36 0 45 6.5t9 35.5v347q0 29 -9 35t-45 6v10h6q31 0 53.5 12.5t27.5 31.5h9v-301l91 92l-20 29h46l98 98q30 30 30 45q0 22 -43 22v10h11q13 0 31.5 -1.5t33.5 -1.5q16 0 35.5 1.5t31.5 1.5h11v-10q-36 0 -62.5 -15.5t-60.5 -50.5l-106 -108l171 -258
q16 -25 27.5 -31t39.5 -6v-11h-4q-8 0 -28 1.5t-39 1.5q-17 0 -35.5 -1.5t-25.5 -1.5h-19v11h7q38 0 38 14q0 7 -10 22l-151 229l-98 -100v-123q0 -29 9 -35.5t46 -6.5v-11h-7q-10 0 -30.5 1.5t-38.5 1.5t-38.5 -1.5t-30.5 -1.5h-6z" />
    <glyph glyph-name="Lacute" unicode="&#x139;" horiz-adv-x="553" 
d="M78 736l-9 6q32 49 53 94t31 58q8 11 19 11q8 0 14 -6t6 -14t-5 -16q-9 -14 -42.5 -49.5t-66.5 -83.5zM437 -34l-11 4q4 16 -1 23t-24 7h-223q-9 0 -27 0.5t-35 0.5t-35 -0.5t-27 -0.5h-7v12q33 0 41 6.5t8 32.5v579q0 27 -8 33.5t-41 6.5v12h7q8 0 27 -1.5t36 -1.5
q18 0 37 1.5t27 1.5h7v-12q-33 0 -41 -6.5t-8 -33.5v-616h209q34 0 53.5 9.5t42.5 42.5q39 54 95 153l9 -5z" />
    <glyph glyph-name="lacute" unicode="&#x13a;" horiz-adv-x="227" 
d="M65 789l-9 6q32 49 53 94t31 58q8 11 19 11q8 0 14 -6t6 -14t-5 -16q-9 -14 -42.5 -49.5t-66.5 -83.5zM38 0v11q36 0 45 6.5t9 35.5v577q0 29 -9 35t-45 6v10h6q31 0 53.5 12.5t27.5 31.5h9v-672q0 -29 9 -35.5t46 -6.5v-11h-7q-10 0 -30.5 1.5t-38.5 1.5t-38.5 -1.5
t-30.5 -1.5h-6z" />
    <glyph glyph-name="uni013B" unicode="&#x13b;" horiz-adv-x="553" 
d="M437 -34l-11 4q4 16 -1 23t-24 7h-223q-9 0 -27 0.5t-35 0.5t-35 -0.5t-27 -0.5h-7v12q33 0 41 6.5t8 32.5v579q0 27 -8 33.5t-41 6.5v12h7q8 0 27 -1.5t36 -1.5q18 0 37 1.5t27 1.5h7v-12q-33 0 -41 -6.5t-8 -33.5v-616h209q34 0 53.5 9.5t42.5 42.5q39 54 95 153l9 -5z
M239 -222l-3 9q30 9 46 35t15 52q-8 -18 -31 -18q-15 0 -24.5 10t-9.5 24q0 15 10.5 25.5t26.5 10.5q17 0 28 -13t11 -34q0 -42 -21.5 -67.5t-47.5 -33.5z" />
    <glyph glyph-name="uni013C" unicode="&#x13c;" horiz-adv-x="227" 
d="M38 0v11q36 0 45 6.5t9 35.5v577q0 29 -9 35t-45 6v10h6q31 0 53.5 12.5t27.5 31.5h9v-672q0 -29 9 -35.5t46 -6.5v-11h-7q-10 0 -30.5 1.5t-38.5 1.5t-38.5 -1.5t-30.5 -1.5h-6zM89 -222l-3 9q30 9 46 35t15 52q-8 -18 -31 -18q-15 0 -24.5 10t-9.5 24q0 15 10.5 25.5
t26.5 10.5q17 0 28 -13t11 -34q0 -42 -21.5 -67.5t-47.5 -33.5z" />
    <glyph glyph-name="Lcaron" unicode="&#x13d;" horiz-adv-x="553" 
d="M403 463l-12 2q12 60 18.5 126.5t8.5 75.5q5 23 23 23q21 0 21 -21q0 -6 -4 -20q-4 -15 -14.5 -43.5t-20.5 -63t-20 -79.5zM437 -34l-11 4q4 16 -1 23t-24 7h-223q-9 0 -27 0.5t-35 0.5t-35 -0.5t-27 -0.5h-7v12q33 0 41 6.5t8 32.5v579q0 27 -8 33.5t-41 6.5v12h7
q8 0 27 -1.5t36 -1.5q18 0 37 1.5t27 1.5h7v-12q-33 0 -41 -6.5t-8 -33.5v-616h209q34 0 53.5 9.5t42.5 42.5q39 54 95 153l9 -5z" />
    <glyph glyph-name="lcaron" unicode="&#x13e;" horiz-adv-x="236" 
d="M38 0v11q36 0 45 6.5t9 35.5v577q0 29 -9 35t-45 6v10h6q31 0 53.5 12.5t27.5 31.5h9v-672q0 -29 9 -35.5t46 -6.5v-11h-7q-10 0 -30.5 1.5t-38.5 1.5t-38.5 -1.5t-30.5 -1.5h-6zM245 498l-12 2q12 60 18.5 126.5t8.5 75.5q5 23 23 23q21 0 21 -21q0 -6 -4 -20
q-4 -15 -14.5 -43.5t-20.5 -63t-20 -79.5z" />
    <glyph glyph-name="Ldot" unicode="&#x13f;" horiz-adv-x="553" 
d="M437 -34l-11 4q4 16 -1 23t-24 7h-223q-9 0 -27 0.5t-35 0.5t-35 -0.5t-27 -0.5h-7v12q33 0 41 6.5t8 32.5v579q0 27 -8 33.5t-41 6.5v12h7q8 0 27 -1.5t36 -1.5q18 0 37 1.5t27 1.5h7v-12q-33 0 -41 -6.5t-8 -33.5v-616h209q34 0 53.5 9.5t42.5 42.5q39 54 95 153l9 -5z
M359 322q-16 0 -26.5 10.5t-10.5 26.5t10.5 26.5t26.5 10.5t26.5 -10.5t10.5 -26.5t-10.5 -26.5t-26.5 -10.5z" />
    <glyph glyph-name="ldot" unicode="&#x140;" horiz-adv-x="370" 
d="M38 0v11q36 0 45 6.5t9 35.5v577q0 29 -9 35t-45 6v10h6q31 0 53.5 12.5t27.5 31.5h9v-672q0 -29 9 -35.5t46 -6.5v-11h-7q-10 0 -30.5 1.5t-38.5 1.5t-38.5 -1.5t-30.5 -1.5h-6zM296 243q-16 0 -26.5 10.5t-10.5 26.5t10.5 26.5t26.5 10.5t26.5 -10.5t10.5 -26.5
t-10.5 -26.5t-26.5 -10.5z" />
    <glyph glyph-name="Lslash" unicode="&#x141;" horiz-adv-x="558" 
d="M442 -34l-11 4q4 16 -1 23t-24 7h-223q-9 0 -27 0.5t-35 0.5t-35 -0.5t-27 -0.5h-7v12q33 0 41 6.5t8 32.5v247l-67 -35l-6 13l73 38v316q0 27 -8 33.5t-41 6.5v12h7q9 0 27 -1.5t36 -1.5t37 1.5t27 1.5h7v-12q-33 0 -41 -6.5t-8 -33.5v-294l126 65l6 -12l-132 -69v-306
h209q34 0 53.5 9.5t42.5 42.5q39 54 95 153l9 -5z" />
    <glyph glyph-name="lslash" unicode="&#x142;" horiz-adv-x="277" 
d="M63 0v11q36 0 45 6.5t9 35.5v252l-84 -43l-6 11l90 46v311q0 29 -9 35t-45 6v10h6q31 0 53.5 12.5t27.5 31.5h9v-384l85 44l6 -11l-91 -47v-274q0 -29 9 -35.5t46 -6.5v-11h-7q-10 0 -30.5 1.5t-38.5 1.5t-38.5 -1.5t-30.5 -1.5h-6z" />
    <glyph glyph-name="Nacute" unicode="&#x143;" horiz-adv-x="683" 
d="M315 736l-9 6q32 49 53 94t31 58q8 11 19 11q8 0 14 -6t6 -14t-5 -16q-9 -14 -42.5 -49.5t-66.5 -83.5zM25 0v12q23 0 38.5 7t23.5 16t12 26.5t5 30t1 34.5v516q-10 11 -15 15.5t-16 8.5t-27 4h-1v11h1q11 0 24.5 -0.5t19.5 -0.5q7 0 21 0.5t23 0.5l431 -597v472
q0 22 -1 34.5t-5 30t-12.5 26.5t-24.5 16t-39 7v11h19q8 0 31.5 -1.5t39.5 -1.5t39.5 1.5t32.5 1.5h17v-11q-28 0 -46 -9t-25.5 -27.5t-9.5 -34.5t-2 -43v-491l47 -65q-8 0 -15.5 0.5t-12.5 0.5t-12 -0.5t-14 -0.5l-454 628v-502q0 -36 3.5 -56.5t23 -39t57.5 -18.5v-12h-18
q-9 0 -32 1.5t-39 1.5q-17 0 -40.5 -1.5t-31.5 -1.5h-17z" />
    <glyph glyph-name="nacute" unicode="&#x144;" horiz-adv-x="528" 
d="M224 544l-9 6q32 49 53 94t31 58q8 11 19 11q8 0 14 -6t6 -14t-5 -16q-9 -14 -42.5 -49.5t-66.5 -83.5zM47 0v11q36 0 45 6.5t9 35.5v348q0 29 -8.5 35t-45.5 6v10h6q31 0 53.5 12.5t27.5 31.5h9v-77l103 41q98 38 131 38q61 0 61 -67v-378q0 -29 9 -35.5t45 -6.5v-11h-7
q-10 0 -30 1.5t-38 1.5t-38.5 -1.5t-30.5 -1.5h-7v11q37 0 46 6.5t9 35.5v378q0 51 -36 51q-23 0 -103 -31l-114 -45v-353q0 -29 9 -35.5t46 -6.5v-11h-7q-10 0 -30.5 1.5t-38.5 1.5t-38.5 -1.5t-30.5 -1.5h-6z" />
    <glyph glyph-name="uni0145" unicode="&#x145;" horiz-adv-x="683" 
d="M25 0v12q23 0 38.5 7t23.5 16t12 26.5t5 30t1 34.5v516q-10 11 -15 15.5t-16 8.5t-27 4h-1v11h1q11 0 24.5 -0.5t19.5 -0.5q7 0 21 0.5t23 0.5l431 -597v472q0 22 -1 34.5t-5 30t-12.5 26.5t-24.5 16t-39 7v11h19q8 0 31.5 -1.5t39.5 -1.5t39.5 1.5t32.5 1.5h17v-11
q-28 0 -46 -9t-25.5 -27.5t-9.5 -34.5t-2 -43v-491l47 -65q-8 0 -15.5 0.5t-12.5 0.5t-12 -0.5t-14 -0.5l-454 628v-502q0 -36 3.5 -56.5t23 -39t57.5 -18.5v-12h-18q-9 0 -32 1.5t-39 1.5q-17 0 -40.5 -1.5t-31.5 -1.5h-17zM338 -222l-3 9q30 9 46 35t15 52q-8 -18 -31 -18
q-15 0 -24.5 10t-9.5 24q0 15 10.5 25.5t26.5 10.5q17 0 28 -13t11 -34q0 -42 -21.5 -67.5t-47.5 -33.5z" />
    <glyph glyph-name="uni0146" unicode="&#x146;" horiz-adv-x="528" 
d="M47 0v11q36 0 45 6.5t9 35.5v348q0 29 -8.5 35t-45.5 6v10h6q31 0 53.5 12.5t27.5 31.5h9v-77l103 41q98 38 131 38q61 0 61 -67v-378q0 -29 9 -35.5t45 -6.5v-11h-7q-10 0 -30 1.5t-38 1.5t-38.5 -1.5t-30.5 -1.5h-7v11q37 0 46 6.5t9 35.5v378q0 51 -36 51
q-23 0 -103 -31l-114 -45v-353q0 -29 9 -35.5t46 -6.5v-11h-7q-10 0 -30.5 1.5t-38.5 1.5t-38.5 -1.5t-30.5 -1.5h-6zM246 -222l-3 9q30 9 46 35t15 52q-8 -18 -31 -18q-15 0 -24.5 10t-9.5 24q0 15 10.5 25.5t26.5 10.5q17 0 28 -13t11 -34q0 -42 -21.5 -67.5t-47.5 -33.5z
" />
    <glyph glyph-name="Ncaron" unicode="&#x147;" horiz-adv-x="683" 
d="M368 739q-3 0 -6 1t-5 2.5t-4.5 5t-3.5 5.5l-4 8t-5 9q-45 83 -80 135l9 7q24 -34 99 -118q75 84 99 118l9 -7q-35 -52 -80 -135q-2 -3 -5 -9l-4 -8t-3.5 -5.5t-4.5 -5t-5 -2.5t-6 -1zM25 0v12q23 0 38.5 7t23.5 16t12 26.5t5 30t1 34.5v516q-10 11 -15 15.5t-16 8.5
t-27 4h-1v11h1q11 0 24.5 -0.5t19.5 -0.5q7 0 21 0.5t23 0.5l431 -597v472q0 22 -1 34.5t-5 30t-12.5 26.5t-24.5 16t-39 7v11h19q8 0 31.5 -1.5t39.5 -1.5t39.5 1.5t32.5 1.5h17v-11q-28 0 -46 -9t-25.5 -27.5t-9.5 -34.5t-2 -43v-491l47 -65q-8 0 -15.5 0.5t-12.5 0.5
t-12 -0.5t-14 -0.5l-454 628v-502q0 -36 3.5 -56.5t23 -39t57.5 -18.5v-12h-18q-9 0 -32 1.5t-39 1.5q-17 0 -40.5 -1.5t-31.5 -1.5h-17z" />
    <glyph glyph-name="ncaron" unicode="&#x148;" horiz-adv-x="528" 
d="M277 547q-3 0 -6 1t-5 2.5t-4.5 5t-3.5 5.5l-4 8t-5 9q-45 83 -80 135l9 7q24 -34 99 -118q75 84 99 118l9 -7q-35 -52 -80 -135q-2 -3 -5 -9l-4 -8t-3.5 -5.5t-4.5 -5t-5 -2.5t-6 -1zM47 0v11q36 0 45 6.5t9 35.5v348q0 29 -8.5 35t-45.5 6v10h6q31 0 53.5 12.5
t27.5 31.5h9v-77l103 41q98 38 131 38q61 0 61 -67v-378q0 -29 9 -35.5t45 -6.5v-11h-7q-10 0 -30 1.5t-38 1.5t-38.5 -1.5t-30.5 -1.5h-7v11q37 0 46 6.5t9 35.5v378q0 51 -36 51q-23 0 -103 -31l-114 -45v-353q0 -29 9 -35.5t46 -6.5v-11h-7q-10 0 -30.5 1.5t-38.5 1.5
t-38.5 -1.5t-30.5 -1.5h-6z" />
    <glyph glyph-name="napostrophe" unicode="&#x149;" horiz-adv-x="578" 
d="M4 537l-2 9q27 7 44.5 33t16.5 57q-11 -18 -32 -18q-14 0 -23.5 10t-9.5 25q0 16 10 26t26 10q17 0 29 -12.5t12 -35.5q0 -40 -21.5 -69t-49.5 -35zM98 0v11q36 0 45 6.5t9 35.5v348q0 29 -8.5 35t-45.5 6v10h6q31 0 53.5 12.5t27.5 31.5h9v-77l103 41q98 38 131 38
q61 0 61 -67v-378q0 -29 9 -35.5t45 -6.5v-11h-7q-10 0 -30 1.5t-38 1.5t-38.5 -1.5t-30.5 -1.5h-7v11q37 0 46 6.5t9 35.5v378q0 51 -36 51q-23 0 -103 -31l-114 -45v-353q0 -29 9 -35.5t46 -6.5v-11h-7q-10 0 -30.5 1.5t-38.5 1.5t-38.5 -1.5t-30.5 -1.5h-6z" />
    <glyph glyph-name="Eng" unicode="&#x14a;" horiz-adv-x="676" 
d="M414 -236q-22 0 -22 19q0 20 22 20q10 0 30 -2.5t28 -2.5q37 0 66 52.5t29 132.5v25l-448 620v-502q0 -36 3.5 -56.5t23 -39t57.5 -18.5v-12h-18q-9 0 -32 1.5t-39 1.5q-17 0 -40.5 -1.5t-31.5 -1.5h-17v12q23 0 38.5 7t23.5 16t12 26.5t5 30t1 34.5v516q-10 11 -15 15.5
t-16 8.5t-27 4h-1v11h1q11 0 24.5 -0.5t19.5 -0.5q7 0 21 0.5t23 0.5l431 -597v472q0 22 -1 34.5t-5 30t-12.5 26.5t-24.5 16t-39 7v11h19q8 0 31.5 -1.5t39.5 -1.5t39.5 1.5t32.5 1.5h17v-11q-28 0 -46 -9t-25.5 -27.5t-9.5 -34.5t-2 -43v-491l47 -65q-7 0 -14 0.5t-12 0.5
q-3 0 -10 -0.5t-11 -0.5v-16q0 -104 -44.5 -162t-121.5 -58z" />
    <glyph glyph-name="eng" unicode="&#x14b;" horiz-adv-x="519" 
d="M278 -236q-22 0 -22 18q0 20 22 20q8 0 25 -0.5t24 -0.5q32 0 50.5 27t18.5 80v523q0 51 -37 51q-25 0 -113 -35l-103 -41v-353q0 -29 9 -35.5t46 -6.5v-11h-7q-10 0 -30.5 1.5t-38.5 1.5t-38.5 -1.5t-30.5 -1.5h-6v11q36 0 45 6.5t9 35.5v348q0 29 -8.5 35t-45.5 6v10h6
q31 0 53.5 12.5t27.5 31.5h9v-77l103 41q98 38 131 38q61 0 61 -67v-396q0 -115 -33 -182q-44 -89 -127 -89z" />
    <glyph glyph-name="Omacron" unicode="&#x14c;" horiz-adv-x="642" 
d="M205 798v22h235v-22h-235zM321 -10q-125 0 -205 98.5t-80 252.5q0 153 80 251.5t205 98.5t205 -98.5t80 -251.5q0 -154 -80 -252.5t-205 -98.5zM321 4q115 0 175 86t60 251t-60 251t-175 86t-175 -86t-60 -251t60 -251t175 -86z" />
    <glyph glyph-name="omacron" unicode="&#x14d;" horiz-adv-x="495" 
d="M135 609v22h235v-22h-235zM247 -8q-85 0 -144 73t-59 180t59 180t144 73q86 0 145 -73.5t59 -179.5t-59 -179.5t-145 -73.5zM247 4q77 0 116.5 61.5t39.5 179.5t-39.5 179.5t-116.5 61.5q-76 0 -115.5 -61.5t-39.5 -179.5t39.5 -179.5t115.5 -61.5z" />
    <glyph glyph-name="Obreve" unicode="&#x14e;" horiz-adv-x="642" 
d="M320 764q-44 0 -77 31t-49 69l10 5q32 -65 116 -65q82 0 115 65l10 -5q-16 -38 -48.5 -69t-76.5 -31zM321 -10q-125 0 -205 98.5t-80 252.5q0 153 80 251.5t205 98.5t205 -98.5t80 -251.5q0 -154 -80 -252.5t-205 -98.5zM321 4q115 0 175 86t60 251t-60 251t-175 86
t-175 -86t-60 -251t60 -251t175 -86z" />
    <glyph glyph-name="obreve" unicode="&#x14f;" horiz-adv-x="495" 
d="M251 575q-44 0 -77 31t-49 69l10 5q33 -65 116 -65t115 65l10 -5q-16 -38 -48.5 -69t-76.5 -31zM247 -8q-85 0 -144 73t-59 180t59 180t144 73q86 0 145 -73.5t59 -179.5t-59 -179.5t-145 -73.5zM247 4q77 0 116.5 61.5t39.5 179.5t-39.5 179.5t-116.5 61.5
q-76 0 -115.5 -61.5t-39.5 -179.5t39.5 -179.5t115.5 -61.5z" />
    <glyph glyph-name="Ohungarumlaut" unicode="&#x150;" horiz-adv-x="642" 
d="M270 730l-9 5q23 46 41 93.5t23 58.5q7 14 20 14q8 0 13.5 -5t5.5 -12q0 -10 -5 -18q-5 -9 -34.5 -49.5t-54.5 -86.5zM385 730l-9 5q23 46 41 93.5t23 58.5q7 14 20 14q8 0 13.5 -5t5.5 -12q0 -8 -5 -18q-6 -12 -35.5 -51.5t-53.5 -84.5zM321 -10q-125 0 -205 98.5
t-80 252.5q0 153 80 251.5t205 98.5t205 -98.5t80 -251.5q0 -154 -80 -252.5t-205 -98.5zM321 4q115 0 175 86t60 251t-60 251t-175 86t-175 -86t-60 -251t60 -251t175 -86z" />
    <glyph glyph-name="ohungarumlaut" unicode="&#x151;" horiz-adv-x="495" 
d="M201 541l-9 5q23 46 41 93.5t23 58.5q7 14 20 14q8 0 13.5 -5t5.5 -12q0 -10 -5 -18q-5 -9 -34.5 -49.5t-54.5 -86.5zM316 541l-9 5q23 46 41 93.5t23 58.5q7 14 20 14q8 0 13.5 -5t5.5 -12q0 -8 -5 -18q-6 -12 -35.5 -51.5t-53.5 -84.5zM247 -8q-85 0 -144 73t-59 180
t59 180t144 73q86 0 145 -73.5t59 -179.5t-59 -179.5t-145 -73.5zM247 4q77 0 116.5 61.5t39.5 179.5t-39.5 179.5t-116.5 61.5q-76 0 -115.5 -61.5t-39.5 -179.5t39.5 -179.5t115.5 -61.5z" />
    <glyph glyph-name="OE" unicode="&#x152;" horiz-adv-x="985" 
d="M849 -34l-11 4q4 16 -1 23t-24 7h-232q-15 0 -39 0.5t-45 0.5q-19 0 -42 -0.5t-35 -0.5h-71q-153 0 -232.5 87.5t-79.5 252.5q0 167 79 254t233 87h71q12 0 35 -0.5t42 -0.5t41.5 0.5t35.5 0.5h224q20 0 25.5 7.5t1.5 23.5l11 3l108 -219l-9 -5q-79 116 -98 137
q-35 39 -89 39h-230v-313h141q54 0 68 23.5t19 102.5h11v-270h-11q-5 80 -19.5 105t-67.5 25h-141v-326h244q33 0 52.5 9t38.5 37q41 59 94 148l9 -5zM362 14h113v653h-113q-151 0 -213 -74.5t-62 -252.5q0 -177 62 -251.5t213 -74.5z" />
    <glyph glyph-name="oe" unicode="&#x153;" horiz-adv-x="823" 
d="M247 -8q-85 0 -144 73.5t-59 179.5t59 179.5t144 73.5q60 0 108 -37t72 -100q25 65 73 101t105 36q67 0 121 -49.5t49 -133.5h-322q-2 -22 -2 -51q0 -109 45.5 -182t123.5 -73q103 0 145 117l9 -3q-43 -131 -168 -131q-58 0 -106.5 35.5t-73.5 99.5q-25 -62 -72.5 -98.5
t-106.5 -36.5zM454 327h274q-2 87 -37.5 123.5t-85.5 36.5q-66 0 -103.5 -47t-47.5 -113zM247 4q156 0 156 241t-156 241q-71 0 -113 -58t-42 -183t42 -183t113 -58z" />
    <glyph glyph-name="Racute" unicode="&#x154;" horiz-adv-x="613" 
d="M254 733l-9 6q32 49 53 94t31 58q8 11 19 11q8 0 14 -6t6 -14t-5 -16q-9 -14 -42.5 -49.5t-66.5 -83.5zM47 0v12q33 0 41 6.5t8 32.5v579q0 27 -8 33.5t-41 6.5v11h7q9 0 27.5 -0.5t35.5 -0.5q22 0 47 0.5t39 0.5h112q98 0 157 -48.5t59 -134.5q0 -76 -52.5 -128.5
t-157.5 -52.5h-3q18 -29 32.5 -40t32.5 -11l97 -163q34 -57 58 -73t64 -18v-12q-20 0 -40.5 1t-34.5 1q-7 0 -19 -1t-17 -1l-188 317h-164v-266q0 -26 8 -32.5t41 -6.5v-12h-7q-9 0 -28 1.5t-36 1.5t-36 -1.5t-27 -1.5h-7zM139 331h179q87 0 125 38.5t38 130.5
q0 85 -38.5 126t-130.5 41h-173v-336z" />
    <glyph glyph-name="racute" unicode="&#x155;" horiz-adv-x="335" 
d="M156 544l-9 6q32 49 53 94t31 58q8 11 19 11q8 0 14 -6t6 -14t-5 -16q-9 -14 -42.5 -49.5t-66.5 -83.5zM47 0v11q36 0 45 6.5t9 35.5v348q0 29 -8.5 35t-45.5 6v10h6q31 0 53.5 12.5t27.5 31.5h9v-110q36 55 79 86q36 26 77 26q33 0 33 -20t-26 -20q-12 0 -31.5 3
t-27.5 3q-39 0 -104 -95v-316q0 -28 11 -35t48 -7h12v-11h-14q-12 0 -35.5 2t-42.5 2q-18 0 -38.5 -2t-30.5 -2h-6z" />
    <glyph glyph-name="uni0156" unicode="&#x156;" horiz-adv-x="613" 
d="M47 0v12q33 0 41 6.5t8 32.5v579q0 27 -8 33.5t-41 6.5v11h7q9 0 27.5 -0.5t35.5 -0.5q22 0 47 0.5t39 0.5h112q98 0 157 -48.5t59 -134.5q0 -76 -52.5 -128.5t-157.5 -52.5h-3q18 -29 32.5 -40t32.5 -11l97 -163q34 -57 58 -73t64 -18v-12q-20 0 -40.5 1t-34.5 1
q-7 0 -19 -1t-17 -1l-188 317h-164v-266q0 -26 8 -32.5t41 -6.5v-12h-7q-9 0 -28 1.5t-36 1.5t-36 -1.5t-27 -1.5h-7zM139 331h179q87 0 125 38.5t38 130.5q0 85 -38.5 126t-130.5 41h-173v-336zM286 -222l-3 9q30 9 46 35t15 52q-8 -18 -31 -18q-15 0 -24.5 10t-9.5 24
q0 15 10.5 25.5t26.5 10.5q17 0 28 -13t11 -34q0 -42 -21.5 -67.5t-47.5 -33.5z" />
    <glyph glyph-name="uni0157" unicode="&#x157;" horiz-adv-x="335" 
d="M47 0v11q36 0 45 6.5t9 35.5v348q0 29 -8.5 35t-45.5 6v10h6q31 0 53.5 12.5t27.5 31.5h9v-110q36 55 79 86q36 26 77 26q33 0 33 -20t-26 -20q-12 0 -31.5 3t-27.5 3q-39 0 -104 -95v-316q0 -28 11 -35t48 -7h12v-11h-14q-12 0 -35.5 2t-42.5 2q-18 0 -38.5 -2t-30.5 -2
h-6zM99 -222l-3 9q30 9 46 35t15 52q-8 -18 -31 -18q-15 0 -24.5 10t-9.5 24q0 15 10.5 25.5t26.5 10.5q17 0 28 -13t11 -34q0 -42 -21.5 -67.5t-47.5 -33.5z" />
    <glyph glyph-name="Rcaron" unicode="&#x158;" horiz-adv-x="613" 
d="M307 736q-3 0 -6 1t-5 2.5t-4.5 5t-3.5 5.5l-4 8t-5 9q-45 83 -80 135l9 7q24 -34 99 -118q75 84 99 118l9 -7q-35 -52 -80 -135q-2 -3 -5 -9l-4 -8t-3.5 -5.5t-4.5 -5t-5 -2.5t-6 -1zM47 0v12q33 0 41 6.5t8 32.5v579q0 27 -8 33.5t-41 6.5v11h7q9 0 27.5 -0.5
t35.5 -0.5q22 0 47 0.5t39 0.5h112q98 0 157 -48.5t59 -134.5q0 -76 -52.5 -128.5t-157.5 -52.5h-3q18 -29 32.5 -40t32.5 -11l97 -163q34 -57 58 -73t64 -18v-12q-20 0 -40.5 1t-34.5 1q-7 0 -19 -1t-17 -1l-188 317h-164v-266q0 -26 8 -32.5t41 -6.5v-12h-7q-9 0 -28 1.5
t-36 1.5t-36 -1.5t-27 -1.5h-7zM139 331h179q87 0 125 38.5t38 130.5q0 85 -38.5 126t-130.5 41h-173v-336z" />
    <glyph glyph-name="rcaron" unicode="&#x159;" horiz-adv-x="335" 
d="M209 547q-3 0 -6 1t-5 2.5t-4.5 5t-3.5 5.5l-4 8t-5 9q-45 83 -80 135l9 7q24 -34 99 -118q75 84 99 118l9 -7q-35 -52 -80 -135q-2 -3 -5 -9l-4 -8t-3.5 -5.5t-4.5 -5t-5 -2.5t-6 -1zM47 0v11q36 0 45 6.5t9 35.5v348q0 29 -8.5 35t-45.5 6v10h6q31 0 53.5 12.5
t27.5 31.5h9v-110q36 55 79 86q36 26 77 26q33 0 33 -20t-26 -20q-12 0 -31.5 3t-27.5 3q-39 0 -104 -95v-316q0 -28 11 -35t48 -7h12v-11h-14q-12 0 -35.5 2t-42.5 2q-18 0 -38.5 -2t-30.5 -2h-6z" />
    <glyph glyph-name="Sacute" unicode="&#x15a;" horiz-adv-x="547" 
d="M197 733l-9 6q32 49 53 94t31 58q8 11 19 11q8 0 14 -6t6 -14t-5 -16q-9 -14 -42.5 -49.5t-66.5 -83.5zM131 -17l-101 223l10 5q110 -208 264 -208q78 0 127 44.5t49 108.5q0 55 -40.5 96t-128.5 73l-80 29q-165 61 -165 181q0 71 51.5 113.5t127.5 42.5q33 0 74 -9.5
t47 -9.5q27 0 16 34l11 4l104 -197l-10 -5q-99 170 -242 170q-71 0 -113.5 -36t-42.5 -94q0 -52 37.5 -86.5t123.5 -65.5l80 -29q90 -33 133.5 -77t43.5 -110q0 -86 -60 -138t-143 -52q-40 0 -90 15t-58 15q-24 0 -14 -33z" />
    <glyph glyph-name="sacute" unicode="&#x15b;" horiz-adv-x="444" 
d="M154 544l-9 6q32 49 53 94t31 58q8 11 19 11q8 0 14 -6t6 -14t-5 -16q-9 -14 -42.5 -49.5t-66.5 -83.5zM111 -11l-69 165l9 4q76 -155 194 -155q56 0 92 31.5t36 79.5q0 38 -25 64t-76 46l-99 38q-99 39 -99 124q0 48 31 80t88 32q26 0 57 -8.5t40 -8.5q23 0 17 19l9 3
l65 -167l-8 -4q-66 155 -179 155q-50 0 -75.5 -25t-25.5 -60q0 -63 95 -100l99 -38q55 -21 81 -51.5t26 -78.5q0 -63 -42.5 -102.5t-106.5 -39.5q-29 0 -64 9.5t-46 9.5q-21 0 -15 -19z" />
    <glyph glyph-name="Scircumflex" unicode="&#x15c;" horiz-adv-x="547" 
d="M152 733l-9 7q38 57 80 134q2 3 5 9l4 8t3.5 5.5t4.5 5t5 2.5t6 1t6 -1t5 -2.5t4.5 -5t3.5 -5.5l4 -8t5 -9q42 -77 80 -134l-9 -7q-12 17 -26 34t-23 27.5t-26 29t-24 26.5q-7 -8 -24 -26.5t-26 -29t-23 -27.5t-26 -34zM131 -17l-101 223l10 5q110 -208 264 -208
q78 0 127 44.5t49 108.5q0 55 -40.5 96t-128.5 73l-80 29q-165 61 -165 181q0 71 51.5 113.5t127.5 42.5q33 0 74 -9.5t47 -9.5q27 0 16 34l11 4l104 -197l-10 -5q-99 170 -242 170q-71 0 -113.5 -36t-42.5 -94q0 -52 37.5 -86.5t123.5 -65.5l80 -29q90 -33 133.5 -77
t43.5 -110q0 -86 -60 -138t-143 -52q-40 0 -90 15t-58 15q-24 0 -14 -33z" />
    <glyph glyph-name="scircumflex" unicode="&#x15d;" horiz-adv-x="444" 
d="M109 544l-9 7q38 57 80 134q2 3 5 9l4 8t3.5 5.5t4.5 5t5 2.5t6 1t6 -1t5 -2.5t4.5 -5t3.5 -5.5l4 -8t5 -9q42 -77 80 -134l-9 -7q-12 17 -26 34t-23 27.5t-26 29t-24 26.5q-7 -8 -24 -26.5t-26 -29t-23 -27.5t-26 -34zM111 -11l-69 165l9 4q76 -155 194 -155
q56 0 92 31.5t36 79.5q0 38 -25 64t-76 46l-99 38q-99 39 -99 124q0 48 31 80t88 32q26 0 57 -8.5t40 -8.5q23 0 17 19l9 3l65 -167l-8 -4q-66 155 -179 155q-50 0 -75.5 -25t-25.5 -60q0 -63 95 -100l99 -38q55 -21 81 -51.5t26 -78.5q0 -63 -42.5 -102.5t-106.5 -39.5
q-29 0 -64 9.5t-46 9.5q-21 0 -15 -19z" />
    <glyph glyph-name="Scedilla" unicode="&#x15e;" horiz-adv-x="546" 
d="M183 -250l-1 10q63 9 106 43t43 71q0 42 -48 42q-31 0 -57 -14l-5 6l72 82q-36 2 -82.5 16t-54.5 14q-24 0 -14 -33l-11 -4l-101 223l10 5q110 -208 264 -208q78 0 127 44.5t49 108.5q0 55 -40.5 96t-128.5 73l-80 29q-165 61 -165 181q0 71 51.5 113.5t127.5 42.5
q33 0 74 -9.5t47 -9.5q27 0 16 34l11 4l104 -197l-10 -5q-99 170 -242 170q-71 0 -113.5 -36t-42.5 -94q0 -52 37.5 -86.5t123.5 -65.5l80 -29q90 -33 133.5 -77t43.5 -110q0 -86 -60 -138t-143 -52h-2l-30 -49q9 3 20 3q34 0 54 -16t20 -44q0 -50 -58.5 -88.5t-124.5 -45.5
z" />
    <glyph glyph-name="scedilla" unicode="&#x15f;" horiz-adv-x="444" 
d="M123 -250l-1 10q63 9 106 43t43 71q0 42 -48 42q-31 0 -57 -14l-5 6l74 84q-23 1 -55.5 10t-44.5 9q-21 0 -15 -19l-9 -3l-69 165l9 4q76 -155 194 -155q56 0 92 31.5t36 79.5q0 38 -25 64t-76 46l-99 38q-99 39 -99 124q0 48 31 80t88 32q26 0 57 -8.5t40 -8.5
q23 0 17 19l9 3l65 -167l-8 -4q-66 155 -179 155q-50 0 -75.5 -25t-25.5 -60q0 -63 95 -100l99 -38q55 -21 81 -51.5t26 -78.5q0 -63 -42 -102.5t-108 -39.5l-32 -51q9 3 20 3q34 0 54 -16t20 -44q0 -50 -58.5 -88.5t-124.5 -45.5z" />
    <glyph glyph-name="Scaron" unicode="&#x160;" horiz-adv-x="547" 
d="M251 736q-3 0 -6 1t-5 2.5t-4.5 5t-3.5 5.5l-4 8t-5 9q-45 83 -80 135l9 7q24 -34 99 -118q75 84 99 118l9 -7q-35 -52 -80 -135q-2 -3 -5 -9l-4 -8t-3.5 -5.5t-4.5 -5t-5 -2.5t-6 -1zM131 -17l-101 223l10 5q110 -208 264 -208q78 0 127 44.5t49 108.5q0 55 -40.5 96
t-128.5 73l-80 29q-165 61 -165 181q0 71 51.5 113.5t127.5 42.5q33 0 74 -9.5t47 -9.5q27 0 16 34l11 4l104 -197l-10 -5q-99 170 -242 170q-71 0 -113.5 -36t-42.5 -94q0 -52 37.5 -86.5t123.5 -65.5l80 -29q90 -33 133.5 -77t43.5 -110q0 -86 -60 -138t-143 -52
q-40 0 -90 15t-58 15q-24 0 -14 -33z" />
    <glyph glyph-name="scaron" unicode="&#x161;" horiz-adv-x="444" 
d="M216 547q-3 0 -6 1t-5 2.5t-4.5 5t-3.5 5.5l-4 8t-5 9q-45 83 -80 135l9 7q24 -34 99 -118q75 84 99 118l9 -7q-35 -52 -80 -135q-2 -3 -5 -9l-4 -8t-3.5 -5.5t-4.5 -5t-5 -2.5t-6 -1zM111 -11l-69 165l9 4q76 -155 194 -155q56 0 92 31.5t36 79.5q0 38 -25 64t-76 46
l-99 38q-99 39 -99 124q0 48 31 80t88 32q26 0 57 -8.5t40 -8.5q23 0 17 19l9 3l65 -167l-8 -4q-66 155 -179 155q-50 0 -75.5 -25t-25.5 -60q0 -63 95 -100l99 -38q55 -21 81 -51.5t26 -78.5q0 -63 -42.5 -102.5t-106.5 -39.5q-29 0 -64 9.5t-46 9.5q-21 0 -15 -19z" />
    <glyph glyph-name="uni0162" unicode="&#x162;" horiz-adv-x="632" 
d="M204 -250l-1 10q63 9 106 43t43 71q0 42 -48 42q-31 0 -57 -14l-5 6l79 95h-4q-18 0 -37 -1.5t-27 -1.5h-7v12q33 0 41 6.5t8 32.5v616h-102q-35 0 -51 -6.5t-34 -32.5q-31 -46 -87 -161l-10 4l91 243l11 -2q-3 -17 4 -24t26 -7h100q2 0 26.5 -0.5t46.5 -0.5t46.5 0.5
t26.5 0.5h102q34 0 28 31l11 2l91 -243l-10 -4q-56 115 -87 161q-18 26 -33.5 32.5t-51.5 6.5h-101v-616q0 -26 8 -32.5t41 -6.5v-12h-7q-10 0 -25.5 1.5t-23.5 1.5l-38 -62q9 3 20 3q34 0 54 -16t20 -44q0 -50 -58.5 -88.5t-124.5 -45.5z" />
    <glyph glyph-name="uni0163" unicode="&#x163;" horiz-adv-x="259" 
d="M24 -250l-2 10q63 9 106 43t43 71q0 42 -47 42q-30 0 -58 -14l-4 6l74 85q-43 10 -43 67v417h-70v13h70v81q13 0 23 15t10 34h9v-130h102v-13h-102v-422q0 -28 8 -38t24 -10q36 0 63 42l7 -6q-33 -52 -82 -52q-6 0 -12 1l-30 -51q7 3 19 3q34 0 54.5 -16t20.5 -44
q0 -50 -58.5 -88.5t-124.5 -45.5z" />
    <glyph glyph-name="Tcaron" unicode="&#x164;" horiz-adv-x="632" 
d="M317 736q-3 0 -6 1t-5 2.5t-4.5 5t-3.5 5.5l-4 8t-5 9q-45 83 -80 135l9 7q24 -34 99 -118q75 84 99 118l9 -7q-35 -52 -80 -135q-2 -3 -5 -9l-4 -8t-3.5 -5.5t-4.5 -5t-5 -2.5t-6 -1zM246 0v12q33 0 41 6.5t8 32.5v616h-102q-35 0 -50.5 -6.5t-33.5 -32.5
q-35 -51 -88 -161l-10 4l91 243l11 -2q-3 -17 4 -24t26 -7h100q2 0 26.5 -0.5t46.5 -0.5t46.5 0.5t26.5 0.5h102q34 0 28 31l11 2l91 -243l-10 -4q-53 110 -88 161q-18 26 -33 32.5t-51 6.5h-101v-616q0 -26 8 -32.5t41 -6.5v-12h-7q-8 0 -27 1.5t-36 1.5q-18 0 -37 -1.5
t-27 -1.5h-7z" />
    <glyph glyph-name="tcaron" unicode="&#x165;" horiz-adv-x="254" 
d="M203 541l-12 2q12 60 18.5 126.5t8.5 75.5q5 23 23 23q21 0 21 -21q0 -6 -4 -20q-4 -15 -14.5 -43.5t-20.5 -63t-20 -79.5zM155 -8q-62 0 -62 68v417h-70v13h70v81q13 0 23 15t10 34h9v-130h102v-13h-102v-422q0 -28 8 -38t24 -10q36 0 63 42l7 -6q-33 -51 -82 -51z" />
    <glyph glyph-name="Tbar" unicode="&#x166;" horiz-adv-x="632" 
d="M246 0v12q33 0 41 6.5t8 32.5v288h-125v14h125v314h-102q-35 0 -51 -6.5t-34 -32.5q-31 -46 -87 -161l-10 4l91 243l11 -2q-3 -17 4 -24t26 -7h100q2 0 26.5 -0.5t46.5 -0.5t46.5 0.5t26.5 0.5h102q34 0 28 31l11 2l91 -243l-10 -4q-56 115 -87 161q-18 26 -33.5 32.5
t-51.5 6.5h-101v-314h124v-14h-124v-288q0 -26 8 -32.5t41 -6.5v-12h-7q-8 0 -27 1.5t-36 1.5q-18 0 -37 -1.5t-27 -1.5h-7z" />
    <glyph glyph-name="tbar" unicode="&#x167;" horiz-adv-x="262" 
d="M158 -8q-62 0 -62 68v272h-69v12h69v133h-70v13h70v81q13 0 23 15t10 34h9v-130h102v-13h-102v-133h87v-12h-87v-277q0 -28 8 -38t24 -10q36 0 63 42l7 -6q-33 -51 -82 -51z" />
    <glyph glyph-name="Utilde" unicode="&#x168;" 
d="M198 769l-10 6q0 1 5.5 9t6.5 10.5t6.5 10.5t8 10.5t8.5 9.5t10 10l10 7.5t11.5 6.5t12.5 3.5t14 1.5q20 0 55 -20t54 -20q29 0 61 56l10 -6q-1 -2 -6 -10.5t-7.5 -11.5t-7.5 -11t-9 -12t-10 -10.5t-11 -9.5t-12 -7t-14 -5.5t-15 -1.5q-20 0 -55.5 20t-54.5 20
q-29 0 -61 -56zM307 -8q-105 0 -166.5 52t-61.5 165v421q0 27 -8 33.5t-40 6.5v11h6q9 0 27.5 -1.5t35.5 -1.5q18 0 37 1.5t27 1.5h7v-11q-33 0 -41 -6.5t-8 -33.5v-391q0 -120 44 -176t141 -56q96 0 148 53t52 149v346q0 22 -1 35t-5 30t-12 26.5t-24 16.5t-39 7h-1v11h19
q8 0 31.5 -1.5t39.5 -1.5q17 0 40.5 1.5t31.5 1.5h17v-11q-28 0 -46 -9t-25.5 -27.5t-9.5 -35t-2 -43.5v-346q0 -102 -56 -159.5t-158 -57.5z" />
    <glyph glyph-name="utilde" unicode="&#x169;" horiz-adv-x="517" 
d="M135 580l-10 6q0 1 5.5 9t6.5 10.5t6.5 10.5t8 10.5t8.5 9.5t10 10l10 7.5t11.5 6.5t12.5 3.5t14 1.5q20 0 55 -20t54 -20q29 0 61 56l10 -6q-1 -2 -6 -10.5t-7.5 -11.5t-7.5 -11t-9 -12t-10 -10.5t-11 -9.5t-12 -7t-14 -5.5t-15 -1.5q-20 0 -55.5 20t-54.5 20
q-29 0 -61 -56zM155 -8q-32 0 -48 15.5t-16 51.5v342q0 29 -9 35t-46 6v10h11q29 0 51 13.5t26 30.5h9v-437q0 -26 8.5 -38t30.5 -12q27 0 111 34l99 41v317q0 29 -9 35t-46 6v10h11q29 0 51 13.5t26 30.5h9v-444q0 -29 9.5 -35.5t45.5 -6.5v-10h-7q-10 0 -31 1t-39 1
q-6 0 -12.5 -1t-7.5 -1v71l-99 -41q-90 -38 -128 -38z" />
    <glyph glyph-name="Umacron" unicode="&#x16a;" 
d="M202 798v22h235v-22h-235zM307 -8q-105 0 -166.5 52t-61.5 165v421q0 27 -8 33.5t-40 6.5v11h6q9 0 27.5 -1.5t35.5 -1.5q18 0 37 1.5t27 1.5h7v-11q-33 0 -41 -6.5t-8 -33.5v-391q0 -120 44 -176t141 -56q96 0 148 53t52 149v346q0 22 -1 35t-5 30t-12 26.5t-24 16.5
t-39 7h-1v11h19q8 0 31.5 -1.5t39.5 -1.5q17 0 40.5 1.5t31.5 1.5h17v-11q-28 0 -46 -9t-25.5 -27.5t-9.5 -35t-2 -43.5v-346q0 -102 -56 -159.5t-158 -57.5z" />
    <glyph glyph-name="umacron" unicode="&#x16b;" horiz-adv-x="517" 
d="M146 609v22h235v-22h-235zM155 -8q-32 0 -48 15.5t-16 51.5v342q0 29 -9 35t-46 6v10h11q29 0 51 13.5t26 30.5h9v-437q0 -26 8.5 -38t30.5 -12q27 0 111 34l99 41v317q0 29 -9 35t-46 6v10h11q29 0 51 13.5t26 30.5h9v-444q0 -29 9.5 -35.5t45.5 -6.5v-10h-7
q-10 0 -31 1t-39 1q-6 0 -12.5 -1t-7.5 -1v71l-99 -41q-90 -38 -128 -38z" />
    <glyph glyph-name="Ubreve" unicode="&#x16c;" 
d="M317 764q-44 0 -77 31t-49 69l10 5q33 -65 116 -65t115 65l10 -5q-16 -38 -48.5 -69t-76.5 -31zM307 -8q-105 0 -166.5 52t-61.5 165v421q0 27 -8 33.5t-40 6.5v11h6q9 0 27.5 -1.5t35.5 -1.5q18 0 37 1.5t27 1.5h7v-11q-33 0 -41 -6.5t-8 -33.5v-391q0 -120 44 -176
t141 -56q96 0 148 53t52 149v346q0 22 -1 35t-5 30t-12 26.5t-24 16.5t-39 7h-1v11h19q8 0 31.5 -1.5t39.5 -1.5q17 0 40.5 1.5t31.5 1.5h17v-11q-28 0 -46 -9t-25.5 -27.5t-9.5 -35t-2 -43.5v-346q0 -102 -56 -159.5t-158 -57.5z" />
    <glyph glyph-name="ubreve" unicode="&#x16d;" horiz-adv-x="517" 
d="M261 575q-44 0 -77 31t-49 69l10 5q33 -65 116 -65t115 65l10 -5q-16 -38 -48.5 -69t-76.5 -31zM155 -8q-32 0 -48 15.5t-16 51.5v342q0 29 -9 35t-46 6v10h11q29 0 51 13.5t26 30.5h9v-437q0 -26 8.5 -38t30.5 -12q27 0 111 34l99 41v317q0 29 -9 35t-46 6v10h11
q29 0 51 13.5t26 30.5h9v-444q0 -29 9.5 -35.5t45.5 -6.5v-10h-7q-10 0 -31 1t-39 1q-6 0 -12.5 -1t-7.5 -1v71l-99 -41q-90 -38 -128 -38z" />
    <glyph glyph-name="Uring" unicode="&#x16e;" 
d="M319 745q-35 0 -59 24.5t-24 59.5t24.5 59.5t58.5 24.5t58 -24.5t24 -59.5t-24 -59.5t-58 -24.5zM319 759q28 0 47.5 20.5t19.5 49.5t-19.5 49t-47.5 20q-29 0 -48 -20t-19 -49q0 -30 19 -50t48 -20zM307 -8q-105 0 -166.5 52t-61.5 165v421q0 27 -8 33.5t-40 6.5v11h6
q9 0 27.5 -1.5t35.5 -1.5q18 0 37 1.5t27 1.5h7v-11q-33 0 -41 -6.5t-8 -33.5v-391q0 -120 44 -176t141 -56q96 0 148 53t52 149v346q0 22 -1 35t-5 30t-12 26.5t-24 16.5t-39 7h-1v11h19q8 0 31.5 -1.5t39.5 -1.5q17 0 40.5 1.5t31.5 1.5h17v-11q-28 0 -46 -9t-25.5 -27.5
t-9.5 -35t-2 -43.5v-346q0 -102 -56 -159.5t-158 -57.5z" />
    <glyph glyph-name="uring" unicode="&#x16f;" horiz-adv-x="517" 
d="M262 556q-35 0 -59 24.5t-24 59.5t24.5 59.5t58.5 24.5t58 -24.5t24 -59.5t-24 -59.5t-58 -24.5zM262 570q28 0 47.5 20.5t19.5 49.5t-19.5 49t-47.5 20q-29 0 -48 -20t-19 -49q0 -30 19 -50t48 -20zM155 -8q-32 0 -48 15.5t-16 51.5v342q0 29 -9 35t-46 6v10h11
q29 0 51 13.5t26 30.5h9v-437q0 -26 8.5 -38t30.5 -12q27 0 111 34l99 41v317q0 29 -9 35t-46 6v10h11q29 0 51 13.5t26 30.5h9v-444q0 -29 9.5 -35.5t45.5 -6.5v-10h-7q-10 0 -31 1t-39 1q-6 0 -12.5 -1t-7.5 -1v71l-99 -41q-90 -38 -128 -38z" />
    <glyph glyph-name="Uhungarumlaut" unicode="&#x170;" 
d="M267 730l-9 5q23 46 41 93.5t23 58.5q7 14 20 14q8 0 13.5 -5t5.5 -12q0 -10 -5 -18q-5 -9 -34.5 -49.5t-54.5 -86.5zM382 730l-9 5q23 46 41 93.5t23 58.5q7 14 20 14q8 0 13.5 -5t5.5 -12q0 -8 -5 -18q-6 -12 -35.5 -51.5t-53.5 -84.5zM307 -8q-105 0 -166.5 52
t-61.5 165v421q0 27 -8 33.5t-40 6.5v11h6q9 0 27.5 -1.5t35.5 -1.5q18 0 37 1.5t27 1.5h7v-11q-33 0 -41 -6.5t-8 -33.5v-391q0 -120 44 -176t141 -56q96 0 148 53t52 149v346q0 22 -1 35t-5 30t-12 26.5t-24 16.5t-39 7h-1v11h19q8 0 31.5 -1.5t39.5 -1.5q17 0 40.5 1.5
t31.5 1.5h17v-11q-28 0 -46 -9t-25.5 -27.5t-9.5 -35t-2 -43.5v-346q0 -102 -56 -159.5t-158 -57.5z" />
    <glyph glyph-name="uhungarumlaut" unicode="&#x171;" horiz-adv-x="517" 
d="M211 541l-9 5q23 46 41 93.5t23 58.5q7 14 20 14q8 0 13.5 -5t5.5 -12q0 -10 -5 -18q-5 -9 -34.5 -49.5t-54.5 -86.5zM326 541l-9 5q23 46 41 93.5t23 58.5q7 14 20 14q8 0 13.5 -5t5.5 -12q0 -8 -5 -18q-6 -12 -35.5 -51.5t-53.5 -84.5zM155 -8q-32 0 -48 15.5t-16 51.5
v342q0 29 -9 35t-46 6v10h11q29 0 51 13.5t26 30.5h9v-437q0 -26 8.5 -38t30.5 -12q27 0 111 34l99 41v317q0 29 -9 35t-46 6v10h11q29 0 51 13.5t26 30.5h9v-444q0 -29 9.5 -35.5t45.5 -6.5v-10h-7q-10 0 -31 1t-39 1q-6 0 -12.5 -1t-7.5 -1v71l-99 -41q-90 -38 -128 -38z
" />
    <glyph glyph-name="Uogonek" unicode="&#x172;" 
d="M306 -173q-36 0 -58.5 17.5t-22.5 43.5q0 31 33 58t75 46h-26q-106 0 -167 52.5t-61 164.5v421q0 27 -8 33.5t-40 6.5v11h6q9 0 27.5 -1.5t35.5 -1.5q18 0 37 1.5t27 1.5h7v-11q-33 0 -41 -6.5t-8 -33.5v-391q0 -120 44 -176t141 -56q95 0 147.5 53.5t52.5 148.5v346
q0 22 -1 35t-5 30.5t-12 26.5t-24 16t-39 7h-1v11h19q8 0 31.5 -1.5t39.5 -1.5q17 0 40.5 1.5t31.5 1.5h17v-11q-28 0 -46 -9t-25.5 -27.5t-9.5 -35t-2 -43.5v-346q0 -168 -150 -212q-45 -14 -76 -41.5t-31 -57.5q0 -22 16.5 -35.5t45.5 -13.5q48 0 83 39l7 -6
q-18 -23 -48 -39t-62 -16z" />
    <glyph glyph-name="uogonek" unicode="&#x173;" horiz-adv-x="517" 
d="M374 -173q-35 0 -57.5 17.5t-22.5 43.5q0 23 23 47t44 36.5t57 30.5h-12q-10 0 -24 -2v71l-99 -41q-90 -38 -128 -38q-32 0 -48 15.5t-16 51.5v342q0 29 -9 35t-46 6v10h11q29 0 51 13.5t26 30.5h9v-437q0 -26 8.5 -38t30.5 -12q27 0 111 34l99 41v317q0 29 -9 35t-46 6
v10h11q29 0 51 13.5t26 30.5h9v-444q0 -29 9.5 -35.5t45.5 -6.5v-10h-7q-6 0 -18 0.5t-19 0.5q-48 -24 -75 -48t-27 -54q0 -23 16 -36.5t44 -13.5q50 0 85 39l7 -6q-18 -23 -48 -39t-63 -16z" />
    <glyph glyph-name="Wcircumflex" unicode="&#x174;" horiz-adv-x="969" 
d="M383 733l-9 7q38 57 80 134q2 3 5 9l4 8t3.5 5.5t4.5 5t5 2.5t6 1t6 -1t5 -2.5t4.5 -5t3.5 -5.5l4 -8t5 -9q42 -77 80 -134l-9 -7q-12 17 -26 34t-23 27.5t-26 29t-24 26.5q-7 -8 -24 -26.5t-26 -29t-23 -27.5t-26 -34zM301 0l-238 632q-9 24 -24.5 31t-42.5 7v11h13
q4 0 27.5 -1.5t39.5 -1.5q19 0 43.5 1.5t26.5 1.5h15v-11h-3q-52 0 -52 -24q0 -8 5 -21l204 -539l160 519l-10 28q-6 17 -17 25.5t-20 10t-27 1.5h-2v11h12q4 0 28.5 -1.5t40.5 -1.5q19 0 42 1.5t25 1.5h15v-11h-3q-52 0 -52 -25q0 -7 5 -20l190 -534l155 491q12 38 12 51
q0 37 -65 37v11h11q6 0 35 -1.5t45 -1.5q8 0 30.5 1.5t31.5 1.5h23v-11q-47 -2 -70 -19.5t-40 -72.5l-161 -511l25 -67q-5 0 -12 0.5t-11 0.5t-11.5 -0.5t-10.5 -0.5l-206 585l-160 -520l24 -65q-4 0 -11 0.5t-12 0.5q-4 0 -12 -0.5t-11 -0.5z" />
    <glyph glyph-name="wcircumflex" unicode="&#x175;" horiz-adv-x="751" 
d="M263 544l-9 7q38 57 80 134q2 3 5 9l4 8t3.5 5.5t4.5 5t5 2.5t6 1t6 -1t5 -2.5t4.5 -5t3.5 -5.5l4 -8t5 -9q42 -77 80 -134l-9 -7q-12 17 -26 34t-23 27.5t-26 29t-24 26.5q-7 -8 -24 -26.5t-26 -29t-23 -27.5t-26 -34zM235 0l-168 438q-11 27 -23.5 34.5t-46.5 6.5v11
h14q6 0 26.5 -1.5t39.5 -1.5t39 1.5t25 1.5h16v-10q-50 0 -50 -22q0 -8 4 -20l139 -359l117 321l-15 38q-10 27 -22.5 34.5t-47.5 7.5v10h15q6 0 26 -1.5t38 -1.5q17 0 38 1.5t27 1.5h16v-10q-50 0 -50 -22q0 -11 5 -22l142 -357l121 333q7 23 7 34q0 19 -14 26.5t-49 7.5
v10h11q10 0 31.5 -1.5t35.5 -1.5t35 1.5t26 1.5h19v-10q-41 -2 -58 -15.5t-29 -47.5l-129 -356l24 -61q-5 0 -11.5 0.5t-10.5 0.5t-11 -0.5t-13 -0.5l-150 382l-117 -321l24 -61q-6 0 -12 0.5t-10 0.5t-11 -0.5t-13 -0.5z" />
    <glyph glyph-name="Ycircumflex" unicode="&#x176;" horiz-adv-x="583" 
d="M206 733l-9 7q38 57 80 134q2 3 5 9l4 8t3.5 5.5t4.5 5t5 2.5t6 1t6 -1t5 -2.5t4.5 -5t3.5 -5.5l4 -8t5 -9q42 -77 80 -134l-9 -7q-12 17 -26 34t-23 27.5t-26 29t-24 26.5q-7 -8 -24 -26.5t-26 -29t-23 -27.5t-26 -34zM231 0v12q33 0 41 6.5t8 32.5v259l-207 315
q-17 26 -33.5 35.5t-48.5 9.5v11h22q5 0 28 -1.5t40 -1.5t39 1.5t29 1.5h20v-11q-53 0 -53 -24q0 -10 9 -23l191 -294l155 253q23 37 23 55q0 33 -61 33h-1v11h11q9 0 34 -1.5t38 -1.5q10 0 34.5 1.5t33.5 1.5h19v-11h-1q-41 0 -61.5 -18t-57.5 -76l-159 -261v-264
q0 -26 8 -32.5t41 -6.5v-12h-7q-9 0 -27 1.5t-36 1.5t-37 -1.5t-27 -1.5h-7z" />
    <glyph glyph-name="ycircumflex" unicode="&#x177;" horiz-adv-x="462" 
d="M137 544l-9 7q38 57 80 134q2 3 5 9l4 8t3.5 5.5t4.5 5t5 2.5t6 1t6 -1t5 -2.5t4.5 -5t3.5 -5.5l4 -8t5 -9q42 -77 80 -134l-9 -7q-12 17 -26 34t-23 27.5t-26 29t-24 26.5q-7 -8 -24 -26.5t-26 -29t-23 -27.5t-26 -34zM31 -236q-33 0 -33 20q0 19 23 19q6 0 26.5 -2
t28.5 -2q35 0 64 36t65 129l18 48l-156 426q-10 27 -22.5 34.5t-47.5 7.5v10h14q6 0 26.5 -1.5t39.5 -1.5t39 1.5t25 1.5h16v-10q-50 0 -50 -22q0 -10 5 -21l134 -363l124 337q8 21 8 35q0 19 -14 26.5t-49 7.5v10h11q10 0 31 -1.5t35 -1.5t35 1.5t27 1.5h19v-10
q-41 -2 -58 -15.5t-29 -47.5l-133 -361l21 -56q-6 0 -12 0.5t-10 0.5q-3 0 -9 -0.5t-10 -0.5l-16 -40q-42 -107 -81.5 -151.5t-104.5 -44.5z" />
    <glyph glyph-name="Ydieresis" unicode="&#x178;" horiz-adv-x="583" 
d="M208 773q-15 0 -25.5 10t-10.5 26t10.5 26t25.5 10t25.5 -10t10.5 -26t-10.5 -26t-25.5 -10zM394 773q-15 0 -25.5 10t-10.5 26t10.5 26t25.5 10t25.5 -10t10.5 -26t-10.5 -26t-25.5 -10zM231 0v12q33 0 41 6.5t8 32.5v259l-207 315q-17 26 -33.5 35.5t-48.5 9.5v11h22
q5 0 28 -1.5t40 -1.5t39 1.5t29 1.5h20v-11q-53 0 -53 -24q0 -10 9 -23l191 -294l155 253q23 37 23 55q0 33 -61 33h-1v11h11q9 0 34 -1.5t38 -1.5q10 0 34.5 1.5t33.5 1.5h19v-11h-1q-41 0 -61.5 -18t-57.5 -76l-159 -261v-264q0 -26 8 -32.5t41 -6.5v-12h-7q-9 0 -27 1.5
t-36 1.5t-37 -1.5t-27 -1.5h-7z" />
    <glyph glyph-name="Zacute" unicode="&#x179;" horiz-adv-x="581" 
d="M274 733l-9 6q32 49 53 94t31 58q8 11 19 11q8 0 14 -6t6 -14t-5 -16q-9 -14 -42.5 -49.5t-66.5 -83.5zM453 -34l-11 4q4 16 -1.5 23t-24.5 7h-388v8l457 659h-242q-54 0 -90 -39q-24 -27 -102 -147l-9 6l113 228l11 -3q-4 -16 1.5 -23.5t24.5 -7.5h349v-8l-458 -659h282
q32 0 51.5 8.5t39.5 36.5q40 57 94 149l10 -5z" />
    <glyph glyph-name="zacute" unicode="&#x17a;" horiz-adv-x="444" 
d="M189 544l-9 6q32 49 53 94t31 58q8 11 19 11q8 0 14 -6t6 -14t-5 -16q-9 -14 -42.5 -49.5t-66.5 -83.5zM340 -20l-9 3q2 10 -5 13.5t-21 3.5h-263v8l303 471h-136q-36 0 -53.5 -6t-35.5 -26q-40 -45 -79 -104l-8 4l82 163l9 -3q-2 -10 5.5 -13.5t25.5 -3.5h238v-7
l-303 -471h149q40 0 60 8t44 33q36 41 77 101l8 -5z" />
    <glyph glyph-name="Zdotaccent" unicode="&#x17b;" horiz-adv-x="581" 
d="M321 772q-16 0 -26.5 10.5t-10.5 26.5t10.5 26.5t26.5 10.5t26.5 -10.5t10.5 -26.5t-10.5 -26.5t-26.5 -10.5zM453 -34l-11 4q4 16 -1.5 23t-24.5 7h-388v8l457 659h-242q-54 0 -90 -39q-24 -27 -102 -147l-9 6l113 228l11 -3q-4 -16 1.5 -23.5t24.5 -7.5h349v-8
l-458 -659h282q32 0 51.5 8.5t39.5 36.5q40 57 94 149l10 -5z" />
    <glyph glyph-name="zdotaccent" unicode="&#x17c;" horiz-adv-x="444" 
d="M236 593q-16 0 -26.5 10.5t-10.5 26.5t10.5 26.5t26.5 10.5t26.5 -10.5t10.5 -26.5t-10.5 -26.5t-26.5 -10.5zM340 -20l-9 3q2 10 -5 13.5t-21 3.5h-263v8l303 471h-136q-36 0 -53.5 -6t-35.5 -26q-40 -45 -79 -104l-8 4l82 163l9 -3q-2 -10 5.5 -13.5t25.5 -3.5h238v-7
l-303 -471h149q40 0 60 8t44 33q36 41 77 101l8 -5z" />
    <glyph glyph-name="Zcaron" unicode="&#x17d;" horiz-adv-x="581" 
d="M327 736q-3 0 -6 1t-5 2.5t-4.5 5t-3.5 5.5l-4 8t-5 9q-45 83 -80 135l9 7q24 -34 99 -118q75 84 99 118l9 -7q-35 -52 -80 -135q-2 -3 -5 -9l-4 -8t-3.5 -5.5t-4.5 -5t-5 -2.5t-6 -1zM453 -34l-11 4q4 16 -1.5 23t-24.5 7h-388v8l457 659h-242q-54 0 -90 -39
q-24 -27 -102 -147l-9 6l113 228l11 -3q-4 -16 1.5 -23.5t24.5 -7.5h349v-8l-458 -659h282q32 0 51.5 8.5t39.5 36.5q40 57 94 149l10 -5z" />
    <glyph glyph-name="zcaron" unicode="&#x17e;" horiz-adv-x="444" 
d="M242 547q-3 0 -6 1t-5 2.5t-4.5 5t-3.5 5.5l-4 8t-5 9q-45 83 -80 135l9 7q24 -34 99 -118q75 84 99 118l9 -7q-35 -52 -80 -135q-2 -3 -5 -9l-4 -8t-3.5 -5.5t-4.5 -5t-5 -2.5t-6 -1zM340 -20l-9 3q2 10 -5 13.5t-21 3.5h-263v8l303 471h-136q-36 0 -53.5 -6t-35.5 -26
q-40 -45 -79 -104l-8 4l82 163l9 -3q-2 -10 5.5 -13.5t25.5 -3.5h238v-7l-303 -471h149q40 0 60 8t44 33q36 41 77 101l8 -5z" />
    <glyph glyph-name="florin" unicode="&#x192;" horiz-adv-x="338" 
d="M-34 -233q-23 0 -23 19t25 22q5 1 53 4q69 4 97.5 40.5t28.5 115.5v356h-105v13h105v77q0 111 44 181q33 52 84.5 78t94.5 26q23 0 23 -19t-25 -22q-5 -1 -53 -4q-69 -5 -97.5 -41.5t-28.5 -115.5v-160h132v-13h-132v-272q0 -113 -44 -182q-33 -51 -84.5 -77t-94.5 -26z
" />
    <glyph glyph-name="uni01B5" unicode="&#x1b5;" horiz-adv-x="581" 
d="M453 -34l-11 4q4 16 -1.5 23t-24.5 7h-388v8l231 332h-136v14h145l217 313h-242q-54 0 -90 -39q-24 -27 -102 -147l-9 6l113 228l11 -3q-4 -16 1.5 -23.5t24.5 -7.5h349v-8l-222 -319h134v-14h-143l-227 -326h282q32 0 51.5 8.5t39.5 36.5q40 57 94 149l10 -5z" />
    <glyph glyph-name="uni01B6" unicode="&#x1b6;" horiz-adv-x="444" 
d="M340 -20l-9 3q2 10 -5 13.5t-21 3.5h-263v8l151 234h-90v12h98l144 225h-136q-36 0 -53.5 -6t-35.5 -26q-40 -45 -79 -104l-8 4l82 163l9 -3q-2 -10 5.5 -13.5t25.5 -3.5h238v-7l-147 -229h88v-12h-96l-148 -230h149q40 0 60 8t44 33q36 41 77 101l8 -5z" />
    <glyph glyph-name="Aringacute" unicode="&#x1fa;" horiz-adv-x="633" 
d="M296 745q-34 0 -58 24.5t-24 59.5q0 27 16 53q28 43 48.5 88t31.5 60q8 11 19 11q8 0 14 -6t6 -14t-5 -16q-10 -16 -39 -46t-50 -59q18 13 41 13q34 0 58.5 -24.5t24.5 -59.5t-24 -59.5t-59 -24.5zM296 759q29 0 48 20t19 50q0 29 -19 49t-48 20q-28 0 -47.5 -20
t-19.5 -49t19.5 -49.5t47.5 -20.5zM-17 0v12q42 2 62.5 20t42.5 73l201 515l-27 61q3 0 11.5 -0.5t13.5 -0.5q4 0 11.5 0.5t10.5 0.5l268 -631q10 -23 25.5 -30.5t42.5 -7.5v-12h-13q-3 0 -27.5 1.5t-40.5 1.5q-18 0 -42.5 -1.5t-26.5 -1.5h-14v12q52 0 52 25q0 7 -5 20
l-53 124h-343l-29 -74q-15 -36 -15 -57q0 -38 70 -38v-12h-12q-10 0 -38 1.5t-41 1.5q-5 0 -30 -1.5t-31 -1.5h-23zM138 195h331l-173 407z" />
    <glyph glyph-name="aringacute" unicode="&#x1fb;" horiz-adv-x="483" 
d="M249 556q-34 0 -58 24.5t-24 59.5q0 27 16 53q28 43 48.5 88t31.5 60q8 11 19 11q8 0 14 -6t6 -14t-5 -16q-10 -16 -39 -46t-50 -59q18 13 41 13q34 0 58.5 -24.5t24.5 -59.5t-24 -59.5t-59 -24.5zM249 570q29 0 48 20t19 50q0 29 -19 49t-48 20q-28 0 -47.5 -20
t-19.5 -49t19.5 -49.5t47.5 -20.5zM180 -8q-57 0 -92.5 34t-35.5 92q0 110 145 169l148 60v71q0 41 -11 55t-52 14q-50 0 -88.5 -23.5t-81.5 -68.5q-9 -9 -19 -9q-19 0 -19 18q0 29 65 61.5t142 32.5q106 0 106 -79v-380q0 -32 22 -32q26 0 48 31l7 -6q-34 -40 -69 -40
q-50 0 -50 69q-33 -28 -77.5 -48.5t-87.5 -20.5zM187 5q35 0 79.5 20t78.5 50v259l-145 -59q-99 -40 -99 -152q0 -52 20.5 -85t65.5 -33z" />
    <glyph glyph-name="AEacute" unicode="&#x1fc;" horiz-adv-x="1008" 
d="M557 735l-9 6q32 49 53 94t31 58q8 11 19 11q8 0 14 -6t6 -14t-5 -16q-9 -14 -42.5 -49.5t-66.5 -83.5zM872 -34l-11 4q4 16 -1 23t-24 7h-232q-14 0 -39 0.5t-47 0.5q-17 0 -35 -0.5t-27 -0.5h-6v12q34 0 41 5t7 34v130h-338l-59 -79q-32 -44 -32 -62q0 -14 10 -21
t44 -7h2v-12h-12q-11 0 -37 1.5t-39 1.5q-7 0 -32 -1.5t-34 -1.5h-24v12h3q65 0 133 90l397 516q15 20 15 34q0 18 -39 18h-2v11h2q9 0 27 -0.5t35 -0.5q20 0 43 0.5t36 0.5h224q20 0 25.5 7.5t1.5 23.5l11 3l108 -219l-9 -5q-79 116 -98 137q-35 39 -89 39h-230v-313h141
q54 0 68 23.5t19 102.5h11v-270h-11q-5 80 -19.5 105t-67.5 25h-141v-326h244q33 0 52.5 9t38.5 37q41 59 94 148l9 -5zM172 194h326v426z" />
    <glyph glyph-name="aeacute" unicode="&#x1fd;" horiz-adv-x="763" 
d="M350 544l-9 6q32 49 53 94t31 58q8 11 19 11q8 0 14 -6t6 -14t-5 -16q-9 -14 -42.5 -49.5t-66.5 -83.5zM205 -8q-63 0 -108 39t-45 120q0 88 63 133t153 45h80v87q0 41 -11.5 56t-52.5 15q-50 0 -88.5 -23.5t-81.5 -68.5q-9 -9 -19 -9q-19 0 -19 18q0 29 64.5 61.5
t141.5 32.5q58 0 82 -21t26 -69q58 90 157 90q65 0 119 -49.5t49 -133.5h-322q-2 -26 -2 -51q0 -109 46 -182t123 -73q102 0 145 117l9 -3q-43 -131 -168 -131q-50 0 -93 27.5t-71 73.5q-75 -101 -177 -101zM394 327h274q-2 87 -37.5 123.5t-85.5 36.5q-65 0 -103 -45.5
t-48 -114.5zM203 5q99 0 172 99q-27 58 -27 163v49h-80q-90 0 -128.5 -41.5t-38.5 -123.5q0 -146 102 -146z" />
    <glyph glyph-name="Oslashacute" unicode="&#x1fe;" horiz-adv-x="642" 
d="M290 736l-9 6q32 49 53 94t31 58q8 11 19 11q8 0 14 -6t6 -14t-5 -16q-9 -14 -42.5 -49.5t-66.5 -83.5zM89 -56l-12 7l66 109q-107 101 -107 281q0 149 78.5 249.5t206.5 100.5q99 0 169 -61l65 106l12 -7l-66 -108q50 -48 77.5 -121t27.5 -159q0 -150 -78.5 -250.5
t-206.5 -100.5q-94 0 -168 61zM154 79l326 534q-59 65 -159 65q-122 0 -178.5 -90.5t-56.5 -246.5q0 -177 68 -262zM321 4q82 0 136 44.5t76.5 118t22.5 174.5q0 174 -67 261l-325 -534q58 -64 157 -64z" />
    <glyph glyph-name="oslashacute" unicode="&#x1ff;" horiz-adv-x="495" 
d="M203 544l-9 6q32 49 53 94t31 58q8 11 19 11q8 0 14 -6t6 -14t-5 -16q-9 -14 -42.5 -49.5t-66.5 -83.5zM74 -53l-11 6l57 94q-76 74 -76 198q0 107 59 180t144 73q67 0 119 -46l56 91l11 -6l-57 -94q75 -73 75 -198q0 -106 -59 -179.5t-145 -73.5q-64 0 -118 46zM131 65
l226 371q-39 50 -110 50q-76 0 -115.5 -61.5t-39.5 -179.5q0 -120 39 -180zM247 4q77 0 116.5 61.5t39.5 179.5t-38 180l-226 -371q39 -50 108 -50z" />
    <glyph glyph-name="uni0218" unicode="&#x218;" horiz-adv-x="547" 
d="M131 -17l-101 223l10 5q110 -208 264 -208q78 0 127 44.5t49 108.5q0 55 -40.5 96t-128.5 73l-80 29q-165 61 -165 181q0 71 51.5 113.5t127.5 42.5q33 0 74 -9.5t47 -9.5q27 0 16 34l11 4l104 -197l-10 -5q-99 170 -242 170q-71 0 -113.5 -36t-42.5 -94
q0 -52 37.5 -86.5t123.5 -65.5l80 -29q90 -33 133.5 -77t43.5 -110q0 -86 -60 -138t-143 -52q-40 0 -90 15t-58 15q-24 0 -14 -33zM279 -222l-3 9q30 9 46 35t15 52q-8 -18 -31 -18q-15 0 -24.5 10t-9.5 24q0 15 10.5 25.5t26.5 10.5q17 0 28 -13t11 -34q0 -42 -21.5 -67.5
t-47.5 -33.5z" />
    <glyph glyph-name="uni0219" unicode="&#x219;" horiz-adv-x="444" 
d="M111 -11l-69 165l9 4q76 -155 194 -155q56 0 92 31.5t36 79.5q0 38 -25 64t-76 46l-99 38q-99 39 -99 124q0 48 31 80t88 32q26 0 57 -8.5t40 -8.5q23 0 17 19l9 3l65 -167l-8 -4q-66 155 -179 155q-50 0 -75.5 -25t-25.5 -60q0 -63 95 -100l99 -38q55 -21 81 -51.5
t26 -78.5q0 -63 -42.5 -102.5t-106.5 -39.5q-29 0 -64 9.5t-46 9.5q-21 0 -15 -19zM216 -222l-3 9q30 9 46 35t15 52q-8 -18 -31 -18q-15 0 -24.5 10t-9.5 24q0 15 10.5 25.5t26.5 10.5q17 0 28 -13t11 -34q0 -42 -21.5 -67.5t-47.5 -33.5z" />
    <glyph glyph-name="uni021A" unicode="&#x21a;" horiz-adv-x="632" 
d="M246 0v12q33 0 41 6.5t8 32.5v616h-102q-35 0 -50.5 -6.5t-33.5 -32.5q-35 -51 -88 -161l-10 4l91 243l11 -2q-3 -17 4 -24t26 -7h100q2 0 26.5 -0.5t46.5 -0.5t46.5 0.5t26.5 0.5h102q34 0 28 31l11 2l91 -243l-10 -4q-53 110 -88 161q-18 26 -33 32.5t-51 6.5h-101
v-616q0 -26 8 -32.5t41 -6.5v-12h-7q-8 0 -27 1.5t-36 1.5q-18 0 -37 -1.5t-27 -1.5h-7zM285 -222l-3 9q30 9 46 35t15 52q-8 -18 -31 -18q-15 0 -24.5 10t-9.5 24q0 15 10.5 25.5t26.5 10.5q17 0 28 -13t11 -34q0 -42 -21.5 -67.5t-47.5 -33.5z" />
    <glyph glyph-name="uni021B" unicode="&#x21b;" horiz-adv-x="259" 
d="M155 -8q-62 0 -62 68v417h-70v13h70v81q13 0 23 15t10 34h9v-130h102v-13h-102v-422q0 -28 8 -38t24 -10q36 0 63 42l7 -6q-33 -51 -82 -51zM109 -222l-3 9q30 9 46 35t15 52q-8 -18 -31 -18q-15 0 -24.5 10t-9.5 24q0 15 10.5 25.5t26.5 10.5q17 0 28 -13t11 -34
q0 -42 -21.5 -67.5t-47.5 -33.5z" />
    <glyph glyph-name="uni0237" unicode="&#x237;" horiz-adv-x="209" 
d="M-30 -236q-22 0 -22 18q0 20 22 20q8 0 25.5 -0.5t24.5 -0.5q32 0 50 27t18 80v494q0 29 -8.5 35t-45.5 6v10h6q31 0 53.5 12.5t27.5 31.5h9v-462q0 -115 -33 -182q-44 -89 -127 -89z" />
    <glyph glyph-name="circumflex" unicode="&#x2c6;" horiz-adv-x="320" 
d="M61 544l-9 7q38 57 80 134q2 3 5 9l4 8t3.5 5.5t4.5 5t5 2.5t6 1t6 -1t5 -2.5t4.5 -5t3.5 -5.5l4 -8t5 -9q42 -77 80 -134l-9 -7q-12 17 -26 34t-23 27.5t-26 29t-24 26.5q-7 -8 -24 -26.5t-26 -29t-23 -27.5t-26 -34z" />
    <glyph glyph-name="caron" unicode="&#x2c7;" horiz-adv-x="320" 
d="M160 547q-3 0 -6 1t-5 2.5t-4.5 5t-3.5 5.5l-4 8t-5 9q-45 83 -80 135l9 7q24 -34 99 -118q75 84 99 118l9 -7q-35 -52 -80 -135q-2 -3 -5 -9l-4 -8t-3.5 -5.5t-4.5 -5t-5 -2.5t-6 -1z" />
    <glyph glyph-name="breve" unicode="&#x2d8;" horiz-adv-x="371" 
d="M186 575q-44 0 -77 31t-49 69l10 5q32 -65 116 -65q82 0 115 65l10 -5q-16 -38 -48.5 -69t-76.5 -31z" />
    <glyph glyph-name="dotaccent" unicode="&#x2d9;" horiz-adv-x="178" 
d="M89 593q-16 0 -26.5 10.5t-10.5 26.5t10.5 26.5t26.5 10.5t26.5 -10.5t10.5 -26.5t-10.5 -26.5t-26.5 -10.5z" />
    <glyph glyph-name="ring" unicode="&#x2da;" horiz-adv-x="270" 
d="M135 556q-35 0 -59 24.5t-24 59.5t24.5 59.5t58.5 24.5t58 -24.5t24 -59.5t-24 -59.5t-58 -24.5zM135 570q28 0 47.5 20.5t19.5 49.5t-19.5 49t-47.5 20q-29 0 -48 -20t-19 -49q0 -30 19 -50t48 -20z" />
    <glyph glyph-name="ogonek" unicode="&#x2db;" horiz-adv-x="295" 
d="M135 -173q-37 0 -59.5 17.5t-22.5 46.5q0 31 39.5 60.5t82.5 48.5h19q-103 -49 -103 -101q0 -23 16.5 -36.5t46.5 -13.5q48 0 82 39l7 -6q-18 -23 -47.5 -39t-60.5 -16z" />
    <glyph glyph-name="tilde" unicode="&#x2dc;" horiz-adv-x="387" 
d="M67 580l-10 6q0 1 5.5 9t6.5 10.5t6.5 10.5t8 10.5t8.5 9.5t10 10l10 7.5t11.5 6.5t12.5 3.5t14 1.5q20 0 55 -20t54 -20q29 0 61 56l10 -6q-1 -2 -6 -10.5t-7.5 -11.5t-7.5 -11t-9 -12t-10 -10.5t-11 -9.5t-12 -7t-14 -5.5t-15 -1.5q-20 0 -55.5 20t-54.5 20
q-29 0 -61 -56z" />
    <glyph glyph-name="hungarumlaut" unicode="&#x2dd;" horiz-adv-x="323" 
d="M61 541l-9 5q23 46 41 93.5t23 58.5q7 14 20 14q8 0 13.5 -5t5.5 -12q0 -10 -5 -18q-5 -9 -34.5 -49.5t-54.5 -86.5zM176 541l-9 5q23 46 41 93.5t23 58.5q7 14 20 14q8 0 13.5 -5t5.5 -12q0 -8 -5 -18q-6 -12 -35.5 -51.5t-53.5 -84.5z" />
    <glyph glyph-name="pi" unicode="&#x3c0;" horiz-adv-x="540" 
d="M48 0v11q36 0 45 6.5t9 35.5v384q0 29 -9.5 35.5t-45.5 6.5v11h6q10 0 30.5 -0.5t38.5 -0.5t44.5 0.5t36.5 0.5h133q10 0 36.5 -0.5t44.5 -0.5t38.5 0.5t30.5 0.5h6v-11q-36 0 -44.5 -6.5t-8.5 -35.5v-384q0 -29 9 -35.5t45 -6.5v-11h-6q-10 0 -30.5 1.5t-38.5 1.5
t-38.5 -1.5t-30.5 -1.5h-6v11q36 0 45 6.5t9 35.5v424h-253v-424q0 -29 9 -35.5t45 -6.5v-11h-6q-10 0 -30.5 1.5t-38.5 1.5t-38.5 -1.5t-30.5 -1.5h-6z" />
    <glyph glyph-name="Wgrave" unicode="&#x1e80;" horiz-adv-x="969" 
d="M531 733q-33 48 -66.5 83.5t-42.5 49.5q-5 8 -5 16t6 14t14 6q11 0 19 -11q10 -13 31 -58t53 -94zM301 0l-238 632q-9 24 -24.5 31t-42.5 7v11h13q4 0 27.5 -1.5t39.5 -1.5q19 0 43.5 1.5t26.5 1.5h15v-11h-3q-52 0 -52 -24q0 -8 5 -21l204 -539l160 519l-10 28
q-6 17 -17 25.5t-20 10t-27 1.5h-2v11h12q4 0 28.5 -1.5t40.5 -1.5q19 0 42 1.5t25 1.5h15v-11h-3q-52 0 -52 -25q0 -7 5 -20l190 -534l155 491q12 38 12 51q0 37 -65 37v11h11q6 0 35 -1.5t45 -1.5q8 0 30.5 1.5t31.5 1.5h23v-11q-47 -2 -70 -19.5t-40 -72.5l-161 -511
l25 -67q-5 0 -12 0.5t-11 0.5t-11.5 -0.5t-10.5 -0.5l-206 585l-160 -520l24 -65q-4 0 -11 0.5t-12 0.5q-4 0 -12 -0.5t-11 -0.5z" />
    <glyph glyph-name="wgrave" unicode="&#x1e81;" horiz-adv-x="751" 
d="M411 544q-33 48 -66.5 83.5t-42.5 49.5q-5 8 -5 16t6 14t14 6q11 0 19 -11q10 -13 31 -58t53 -94zM235 0l-168 438q-11 27 -23.5 34.5t-46.5 6.5v11h14q6 0 26.5 -1.5t39.5 -1.5t39 1.5t25 1.5h16v-10q-50 0 -50 -22q0 -8 4 -20l139 -359l117 321l-15 38
q-10 27 -22.5 34.5t-47.5 7.5v10h15q6 0 26 -1.5t38 -1.5q17 0 38 1.5t27 1.5h16v-10q-50 0 -50 -22q0 -11 5 -22l142 -357l121 333q7 23 7 34q0 19 -14 26.5t-49 7.5v10h11q10 0 31.5 -1.5t35.5 -1.5t35 1.5t26 1.5h19v-10q-41 -2 -58 -15.5t-29 -47.5l-129 -356l24 -61
q-5 0 -11.5 0.5t-10.5 0.5t-11 -0.5t-13 -0.5l-150 382l-117 -321l24 -61q-6 0 -12 0.5t-10 0.5t-11 -0.5t-13 -0.5z" />
    <glyph glyph-name="Wacute" unicode="&#x1e82;" horiz-adv-x="969" 
d="M429 733l-9 6q32 49 53 94t31 58q8 11 19 11q8 0 14 -6t6 -14t-5 -16q-9 -14 -42.5 -49.5t-66.5 -83.5zM301 0l-238 632q-9 24 -24.5 31t-42.5 7v11h13q4 0 27.5 -1.5t39.5 -1.5q19 0 43.5 1.5t26.5 1.5h15v-11h-3q-52 0 -52 -24q0 -8 5 -21l204 -539l160 519l-10 28
q-6 17 -17 25.5t-20 10t-27 1.5h-2v11h12q4 0 28.5 -1.5t40.5 -1.5q19 0 42 1.5t25 1.5h15v-11h-3q-52 0 -52 -25q0 -7 5 -20l190 -534l155 491q12 38 12 51q0 37 -65 37v11h11q6 0 35 -1.5t45 -1.5q8 0 30.5 1.5t31.5 1.5h23v-11q-47 -2 -70 -19.5t-40 -72.5l-161 -511
l25 -67q-5 0 -12 0.5t-11 0.5t-11.5 -0.5t-10.5 -0.5l-206 585l-160 -520l24 -65q-4 0 -11 0.5t-12 0.5q-4 0 -12 -0.5t-11 -0.5z" />
    <glyph glyph-name="wacute" unicode="&#x1e83;" horiz-adv-x="751" 
d="M309 544l-9 6q32 49 53 94t31 58q8 11 19 11q8 0 14 -6t6 -14t-5 -16q-9 -14 -42.5 -49.5t-66.5 -83.5zM235 0l-168 438q-11 27 -23.5 34.5t-46.5 6.5v11h14q6 0 26.5 -1.5t39.5 -1.5t39 1.5t25 1.5h16v-10q-50 0 -50 -22q0 -8 4 -20l139 -359l117 321l-15 38
q-10 27 -22.5 34.5t-47.5 7.5v10h15q6 0 26 -1.5t38 -1.5q17 0 38 1.5t27 1.5h16v-10q-50 0 -50 -22q0 -11 5 -22l142 -357l121 333q7 23 7 34q0 19 -14 26.5t-49 7.5v10h11q10 0 31.5 -1.5t35.5 -1.5t35 1.5t26 1.5h19v-10q-41 -2 -58 -15.5t-29 -47.5l-129 -356l24 -61
q-5 0 -11.5 0.5t-10.5 0.5t-11 -0.5t-13 -0.5l-150 382l-117 -321l24 -61q-6 0 -12 0.5t-10 0.5t-11 -0.5t-13 -0.5z" />
    <glyph glyph-name="Wdieresis" unicode="&#x1e84;" horiz-adv-x="969" 
d="M385 773q-15 0 -25.5 10t-10.5 26t10.5 26t25.5 10t25.5 -10t10.5 -26t-10.5 -26t-25.5 -10zM571 773q-15 0 -25.5 10t-10.5 26t10.5 26t25.5 10t25.5 -10t10.5 -26t-10.5 -26t-25.5 -10zM301 0l-238 632q-9 24 -24.5 31t-42.5 7v11h13q4 0 27.5 -1.5t39.5 -1.5
q19 0 43.5 1.5t26.5 1.5h15v-11h-3q-52 0 -52 -24q0 -8 5 -21l204 -539l160 519l-10 28q-6 17 -17 25.5t-20 10t-27 1.5h-2v11h12q4 0 28.5 -1.5t40.5 -1.5q19 0 42 1.5t25 1.5h15v-11h-3q-52 0 -52 -25q0 -7 5 -20l190 -534l155 491q12 38 12 51q0 37 -65 37v11h11
q6 0 35 -1.5t45 -1.5q8 0 30.5 1.5t31.5 1.5h23v-11q-47 -2 -70 -19.5t-40 -72.5l-161 -511l25 -67q-5 0 -12 0.5t-11 0.5t-11.5 -0.5t-10.5 -0.5l-206 585l-160 -520l24 -65q-4 0 -11 0.5t-12 0.5q-4 0 -12 -0.5t-11 -0.5z" />
    <glyph glyph-name="wdieresis" unicode="&#x1e85;" horiz-adv-x="751" 
d="M265 594q-15 0 -25.5 10t-10.5 26t10.5 26t25.5 10t25.5 -10t10.5 -26t-10.5 -26t-25.5 -10zM451 594q-15 0 -25.5 10t-10.5 26t10.5 26t25.5 10t25.5 -10t10.5 -26t-10.5 -26t-25.5 -10zM235 0l-168 438q-11 27 -23.5 34.5t-46.5 6.5v11h14q6 0 26.5 -1.5t39.5 -1.5
t39 1.5t25 1.5h16v-10q-50 0 -50 -22q0 -8 4 -20l139 -359l117 321l-15 38q-10 27 -22.5 34.5t-47.5 7.5v10h15q6 0 26 -1.5t38 -1.5q17 0 38 1.5t27 1.5h16v-10q-50 0 -50 -22q0 -11 5 -22l142 -357l121 333q7 23 7 34q0 19 -14 26.5t-49 7.5v10h11q10 0 31.5 -1.5
t35.5 -1.5t35 1.5t26 1.5h19v-10q-41 -2 -58 -15.5t-29 -47.5l-129 -356l24 -61q-5 0 -11.5 0.5t-10.5 0.5t-11 -0.5t-13 -0.5l-150 382l-117 -321l24 -61q-6 0 -12 0.5t-10 0.5t-11 -0.5t-13 -0.5z" />
    <glyph glyph-name="uni1E8A" unicode="&#x1e8a;" horiz-adv-x="619" 
d="M331 774q-16 0 -26.5 10.5t-10.5 26.5t10.5 26.5t26.5 10.5t26.5 -10.5t10.5 -26.5t-10.5 -26.5t-26.5 -10.5zM8 0v12h1q22 0 36.5 4t31 20.5t23 25t30.5 42.5l166 229l-184 294q-14 24 -35 33.5t-57 9.5v11h32q5 0 26.5 -1.5t35.5 -1.5q18 0 40 1.5t28 1.5h32v-11
q-60 0 -60 -21q0 -8 8 -22l162 -260l144 215q27 40 27 57q0 31 -60 31h-1v11h13q9 0 36 -1.5t38 -1.5q7 0 32 1.5t35 1.5h15v-11h-1q-28 0 -48.5 -11.5t-34 -27.5t-38.5 -54l-149 -221l187 -302q27 -42 92 -42v-12h-32q-5 0 -26.5 1.5t-35.5 1.5q-17 0 -39 -1.5t-28 -1.5
h-32v12q34 0 47 4.5t13 16.5q0 5 -9 23l-165 266l-161 -224q-27 -37 -27 -55q0 -31 60 -31h1v-12h-13q-9 0 -36 1.5t-38 1.5q-7 0 -32 -1.5t-34 -1.5h-16z" />
    <glyph glyph-name="uni1E8B" unicode="&#x1e8b;" horiz-adv-x="479" 
d="M240 593q-16 0 -26.5 10.5t-10.5 26.5t10.5 26.5t26.5 10.5t26.5 -10.5t10.5 -26.5t-10.5 -26.5t-26.5 -10.5zM9 -1v11q34 0 53.5 12t46.5 53l113 166l-124 185q-21 31 -37 42.5t-45 11.5v10h18q6 0 27 -1.5t40 -1.5q16 0 35 1.5t25 1.5h16v-10q-49 0 -49 -19
q0 -8 11 -24l109 -165l98 148q12 19 12 33t-11 20.5t-42 6.5v10h8q11 0 33 -1.5t37 -1.5q17 0 35 1.5t26 1.5h15v-10q-35 0 -54.5 -12t-46.5 -53l-102 -154l132 -197q20 -30 36.5 -41.5t45.5 -11.5v-11h-18q-6 0 -27 1.5t-40 1.5q-17 0 -36 -1.5t-25 -1.5h-15v11q49 0 49 18
q0 6 -11 24l-117 177l-108 -159q-12 -21 -12 -34q0 -14 11 -20.5t42 -6.5v-11h-8q-11 0 -33.5 2t-37.5 2q-16 0 -34 -2t-26 -2h-15z" />
    <glyph glyph-name="Ygrave" unicode="&#x1ef2;" horiz-adv-x="583" 
d="M354 733q-33 48 -66.5 83.5t-42.5 49.5q-5 8 -5 16t6 14t14 6q11 0 19 -11q10 -13 31 -58t53 -94zM231 0v12q33 0 41 6.5t8 32.5v259l-207 315q-17 26 -33.5 35.5t-48.5 9.5v11h22q5 0 28 -1.5t40 -1.5t39 1.5t29 1.5h20v-11q-53 0 -53 -24q0 -10 9 -23l191 -294l155 253
q23 37 23 55q0 33 -61 33h-1v11h11q9 0 34 -1.5t38 -1.5q10 0 34.5 1.5t33.5 1.5h19v-11h-1q-41 0 -61.5 -18t-57.5 -76l-159 -261v-264q0 -26 8 -32.5t41 -6.5v-12h-7q-9 0 -27 1.5t-36 1.5t-37 -1.5t-27 -1.5h-7z" />
    <glyph glyph-name="ygrave" unicode="&#x1ef3;" horiz-adv-x="462" 
d="M285 544q-33 48 -66.5 83.5t-42.5 49.5q-5 8 -5 16t6 14t14 6q11 0 19 -11q10 -13 31 -58t53 -94zM31 -236q-33 0 -33 20q0 19 23 19q6 0 26.5 -2t28.5 -2q35 0 64 36t65 129l18 48l-156 426q-10 27 -22.5 34.5t-47.5 7.5v10h14q6 0 26.5 -1.5t39.5 -1.5t39 1.5t25 1.5
h16v-10q-50 0 -50 -22q0 -10 5 -21l134 -363l124 337q8 21 8 35q0 19 -14 26.5t-49 7.5v10h11q10 0 31 -1.5t35 -1.5t35 1.5t27 1.5h19v-10q-41 -2 -58 -15.5t-29 -47.5l-133 -361l21 -56q-6 0 -12 0.5t-10 0.5q-3 0 -9 -0.5t-10 -0.5l-16 -40q-42 -107 -81.5 -151.5
t-104.5 -44.5z" />
    <glyph glyph-name="endash" unicode="&#x2013;" horiz-adv-x="516" 
d="M47 273v15h422v-15h-422z" />
    <glyph glyph-name="emdash" unicode="&#x2014;" horiz-adv-x="992" 
d="M47 273v15h898v-15h-898z" />
    <glyph glyph-name="quoteleft" unicode="&#x2018;" horiz-adv-x="170" 
d="M88 537q-17 0 -29 13t-12 36q0 41 21.5 69t49.5 34l2 -9q-27 -7 -45 -33t-17 -56q10 17 32 17q14 0 24 -10t10 -25t-10 -25.5t-26 -10.5z" />
    <glyph glyph-name="quoteright" unicode="&#x2019;" horiz-adv-x="170" 
d="M53 537l-2 9q27 7 44.5 33t16.5 57q-11 -18 -32 -18q-14 0 -23.5 10t-9.5 25q0 16 10 26t26 10q17 0 29 -12.5t12 -35.5q0 -40 -21.5 -69t-49.5 -35z" />
    <glyph glyph-name="quotesinglbase" unicode="&#x201a;" horiz-adv-x="170" 
d="M53 -88l-2 9q27 7 44.5 33t16.5 57q-11 -18 -32 -18q-14 0 -23.5 10t-9.5 25q0 16 10 26t26 10q17 0 29 -12.5t12 -35.5q0 -41 -21.5 -69.5t-49.5 -34.5z" />
    <glyph glyph-name="quotedblleft" unicode="&#x201c;" horiz-adv-x="289" 
d="M88 537q-17 0 -29 13t-12 36q0 41 21.5 69t49.5 34l2 -9q-27 -7 -45 -33t-17 -56q10 17 32 17q14 0 24 -10t10 -25t-10 -25.5t-26 -10.5zM207 537q-17 0 -29 13t-12 36q0 41 21.5 69t49.5 34l2 -9q-27 -7 -45 -33t-17 -56q10 17 32 17q15 0 24.5 -10t9.5 -25t-10 -25.5
t-26 -10.5z" />
    <glyph glyph-name="quotedblright" unicode="&#x201d;" horiz-adv-x="289" 
d="M53 537l-2 9q27 7 44.5 33t16.5 57q-11 -18 -32 -18q-14 0 -23.5 10t-9.5 25q0 16 10 26t26 10q17 0 29 -12.5t12 -35.5q0 -40 -21.5 -69t-49.5 -35zM172 537l-2 9q27 7 44.5 33t16.5 57q-11 -18 -32 -18q-14 0 -23.5 10t-9.5 25q0 16 10 26t26 10q17 0 29 -12.5
t12 -35.5q0 -40 -21.5 -69t-49.5 -35z" />
    <glyph glyph-name="quotedblbase" unicode="&#x201e;" horiz-adv-x="289" 
d="M53 -88l-2 9q27 7 44.5 33t16.5 57q-11 -18 -32 -18q-14 0 -23.5 10t-9.5 25q0 16 10 26t26 10q17 0 29 -12.5t12 -35.5q0 -41 -21.5 -69.5t-49.5 -34.5zM172 -88l-2 9q27 7 44.5 33t16.5 57q-11 -18 -32 -18q-14 0 -23.5 10t-9.5 25q0 16 10 26t26 10q17 0 29 -12.5
t12 -35.5q0 -41 -21.5 -69.5t-49.5 -34.5z" />
    <glyph glyph-name="dagger" unicode="&#x2020;" horiz-adv-x="422" 
d="M205 -10q0 246 -18 413q14 37 19 95q-20 -1 -67 -9t-60 -8q-27 0 -27 24q0 25 27 25q13 0 59.5 -10t67.5 -11q-3 60 -14 107.5t-11 55.5q0 15 9 24t21 9t21 -9t9 -24q0 -8 -10.5 -55.5t-13.5 -107.5q21 1 67 11t59 10q27 0 27 -25q0 -24 -27 -24q-13 0 -59.5 8t-66.5 9
q5 -62 18 -95q-18 -167 -18 -413h-12z" />
    <glyph glyph-name="daggerdbl" unicode="&#x2021;" horiz-adv-x="422" 
d="M206 359q0 58 -13 89q13 33 13 80q-20 -1 -66.5 -9t-59.5 -8q-28 0 -28 24q0 25 28 25q13 0 59.5 -10.5t66.5 -11.5q-3 50 -14 86t-11 48q0 15 9 24t21 9t21 -9t9 -24q0 -12 -10.5 -48t-13.5 -86q20 1 66 11.5t59 10.5q28 0 28 -25q0 -24 -28 -24q-13 0 -59 8t-66 9
q0 -49 12 -80q-13 -31 -13 -89h-10zM211 -8q-12 0 -21 9t-9 24q0 12 11 48.5t14 86.5q-20 -1 -66.5 -12t-59.5 -11q-28 0 -28 25q0 24 28 24q13 0 59.5 -7.5t66.5 -8.5q0 46 -13 79q13 31 13 89h10q0 -58 13 -89q-12 -31 -12 -79q20 1 66 8.5t59 7.5q28 0 28 -24
q0 -25 -28 -25q-13 0 -59 11t-66 12q3 -50 13.5 -86.5t10.5 -48.5q0 -15 -9 -24t-21 -9z" />
    <glyph glyph-name="bullet" unicode="&#x2022;" horiz-adv-x="330" 
d="M165 271q-34 0 -56.5 22.5t-22.5 56.5q0 35 22.5 57.5t56.5 22.5t56.5 -22.5t22.5 -57.5q0 -34 -22.5 -56.5t-56.5 -22.5z" />
    <glyph glyph-name="ellipsis" unicode="&#x2026;" horiz-adv-x="598" 
d="M95 -5q-16 0 -27 11t-11 27t11 27t27 11t27 -11t11 -27t-11 -27t-27 -11zM299 -5q-16 0 -27 11t-11 27t11 27t27 11t27 -11t11 -27t-11 -27t-27 -11zM503 -5q-16 0 -27 11t-11 27t11 27t27 11t27 -11t11 -27t-11 -27t-27 -11z" />
    <glyph glyph-name="perthousand" unicode="&#x2030;" horiz-adv-x="1040" 
d="M168 -12l-13 7l369 657q-64 -56 -144 -56q-40 0 -78 23q22 -46 22 -102q0 -71 -33.5 -121t-96.5 -50q-62 0 -98.5 49.5t-36.5 121.5t36.5 121.5t98.5 49.5q46 0 80 -32q49 -47 106 -47q42 0 87 21t78 61l12 -7zM191 359q58 0 88 46t30 112t-30 112t-88 46q-88 0 -88 -158
t88 -158zM517 -8q-62 0 -98.5 49.5t-36.5 121.5t36.5 121.5t98.5 49.5q63 0 96.5 -50.5t33.5 -120.5q0 -71 -33.5 -121t-96.5 -50zM863 -8q-62 0 -98.5 49.5t-36.5 121.5t36.5 121.5t98.5 49.5q63 0 96.5 -50.5t33.5 -120.5q0 -71 -33.5 -121t-96.5 -50zM514 5q58 0 88 46
t30 112t-30 112t-88 46q-88 0 -88 -158t88 -158zM860 5q58 0 88 46t30 112t-30 112t-88 46q-88 0 -88 -158t88 -158z" />
    <glyph glyph-name="guilsinglleft" unicode="&#x2039;" horiz-adv-x="337" 
d="M258 72q-27 28 -76.5 71.5t-86.5 74.5t-43 35q9 7 43.5 36t85 73.5t77.5 72.5l8 -9q-29 -33 -85 -98.5t-64 -74.5q8 -8 33 -37.5t59.5 -70t56.5 -65.5z" />
    <glyph glyph-name="guilsinglright" unicode="&#x203a;" horiz-adv-x="337" 
d="M79 72l-8 8q28 32 84 98t65 75q-7 8 -63 74t-86 99l8 9q27 -28 77.5 -72.5t85.5 -74t43 -35.5q-5 -4 -42 -35t-86.5 -74.5t-77.5 -71.5z" />
    <glyph glyph-name="fraction" unicode="&#x2044;" horiz-adv-x="60" 
d="M-219 -22l-11 8l507 714l11 -8z" />
    <glyph glyph-name="uni2070" unicode="&#x2070;" horiz-adv-x="281" 
d="M141 389q-51 0 -83 43.5t-32 106.5t32 106.5t83 43.5q50 0 82 -43.5t32 -106.5t-32 -106.5t-82 -43.5zM141 399q73 0 73 140t-73 140t-73 -140t73 -140z" />
    <glyph glyph-name="uni2074" unicode="&#x2074;" horiz-adv-x="282" 
d="M104 397v11h7q24 0 32 9.5t8 42.5v14h-132v7l139 199q1 0 6 -0.5t8 -0.5t7.5 0.5t7.5 0.5v-195h7q20 0 30.5 10.5t27.5 44.5l8 -2l-15 -64h-58v-14q0 -33 7 -42.5t31 -9.5h2v-11h-5q-6 0 -22.5 2t-31.5 2q-14 0 -30.5 -2t-22.5 -2h-11zM36 485h115v165z" />
    <glyph glyph-name="uni2075" unicode="&#x2075;" horiz-adv-x="285" 
d="M137 389q-37 0 -68.5 18.5t-31.5 45.5q0 19 17 19q14 0 22 -22q15 -51 61 -51q63 0 63 93q0 87 -60 87q-41 0 -67 -39l-8 2l22 139h102q27 0 37 23l8 -1l-11 -56h-130l-14 -84q26 26 64 26q40 0 69.5 -27.5t29.5 -68.5q0 -42 -30.5 -73t-74.5 -31z" />
    <glyph glyph-name="uni2076" unicode="&#x2076;" horiz-adv-x="279" 
d="M142 389q-39 0 -72.5 34.5t-33.5 92.5q0 65 49 113t137 65l2 -10q-62 -13 -99.5 -47t-46.5 -81q29 40 76 40q37 0 63 -26t26 -69q0 -47 -31 -79.5t-70 -32.5zM143 399q59 0 59 101q0 45 -12 65.5t-39 20.5q-42 0 -73 -44q-1 -6 -1 -19q0 -124 66 -124z" />
    <glyph glyph-name="uni2077" unicode="&#x2077;" horiz-adv-x="289" 
d="M121 389q-9 0 -15.5 6t-6.5 18q0 94 123 234h-139q-27 0 -37 -26l-8 1l17 81l9 -1q-1 -13 4.5 -17t21.5 -4h162v-8q-44 -58 -60.5 -81.5t-33.5 -72t-17 -105.5q0 -11 -6 -18t-14 -7z" />
    <glyph glyph-name="uni2078" unicode="&#x2078;" horiz-adv-x="283" 
d="M144 389q-40 0 -72 21.5t-32 56.5q0 51 71 78q-56 22 -56 70q0 31 24.5 52.5t65.5 21.5q37 0 62 -19t25 -49q0 -46 -55 -68q66 -28 66 -79q0 -36 -29 -60.5t-70 -24.5zM169 557q32 26 32 62q0 27 -15.5 43.5t-43.5 16.5t-45 -15t-17 -37q0 -36 46 -53zM146 399
q32 0 49 18.5t17 45.5q0 41 -52 62l-39 16q-44 -25 -44 -73q0 -31 18 -50t51 -19z" />
    <glyph glyph-name="uni2079" unicode="&#x2079;" horiz-adv-x="279" 
d="M57 384l-2 11q62 12 100 46t46 82q-11 -17 -31.5 -28.5t-43.5 -11.5q-38 0 -64 25.5t-26 68.5q0 47 31.5 79.5t69.5 32.5q40 0 73 -34t33 -92q0 -66 -49 -114t-137 -65zM129 493q40 0 73 43v20q0 66 -16 94.5t-49 28.5t-46.5 -25t-13.5 -76q0 -45 12 -65t40 -20z" />
    <glyph glyph-name="parenleft.sups" unicode="&#x207d;" horiz-adv-x="177" 
d="M134 352q-41 31 -69 83t-28 104t28 104.5t69 82.5l6 -8q-32 -29 -50 -78.5t-18 -100.5t18 -100.5t50 -78.5z" />
    <glyph glyph-name="parenright.sups" unicode="&#x207e;" horiz-adv-x="177" 
d="M44 352l-7 8q32 29 50 78.5t18 100.5q0 52 -17.5 101t-50.5 78l7 8q40 -30 68 -82.5t28 -104.5t-27.5 -104t-68.5 -83z" />
    <glyph glyph-name="uni2080" unicode="&#x2080;" horiz-adv-x="281" 
d="M141 -8q-51 0 -83 43.5t-32 106.5t32 106.5t83 43.5q50 0 82 -43.5t32 -106.5t-32 -106.5t-82 -43.5zM141 2q73 0 73 140t-73 140t-73 -140t73 -140z" />
    <glyph glyph-name="uni2081" unicode="&#x2081;" horiz-adv-x="286" 
d="M84 0v11h19q27 0 35.5 9.5t8.5 42.5v137q0 18 -14 18q-9 0 -48 -21l-5 10l18 10q57 31 76 85h9v-239q0 -31 7.5 -41.5t30.5 -10.5h9v-11q-12 0 -30.5 2t-35.5 2t-34.5 -2t-31.5 -2h-14z" />
    <glyph glyph-name="uni2082" unicode="&#x2082;" horiz-adv-x="288" 
d="M229 -30l-8 2q2 15 -2 21.5t-21 6.5h-155v9l62 60q90 88 90 155q0 58 -43 58q-30 0 -52 -43q-11 -22 -24 -22q-16 0 -16 16q0 19 26 39t68 20q35 0 58.5 -17t23.5 -51q0 -26 -18.5 -54.5t-39 -49t-71.5 -65.5l-23 -21h159z" />
    <glyph glyph-name="uni2083" unicode="&#x2083;" horiz-adv-x="285" 
d="M139 -8q-41 0 -72.5 22.5t-31.5 53.5q0 20 18 20q17 0 22 -24q14 -62 67 -62q62 0 62 81q0 70 -39 70q-13 0 -27 -7l-27 -13l-4 10l42 20q34 16 34 63q0 56 -41 56q-30 0 -50 -40q-12 -25 -26 -25q-17 0 -17 17q0 18 27.5 38t67.5 20q34 0 56.5 -16.5t22.5 -43.5
q0 -24 -17 -42.5t-42 -26.5q33 0 57 -21.5t24 -56.5q0 -40 -31.5 -66.5t-74.5 -26.5z" />
    <glyph glyph-name="uni2084" unicode="&#x2084;" horiz-adv-x="282" 
d="M104 0v11h7q24 0 32 9.5t8 42.5v14h-132v7l139 199q1 0 6 -0.5t8 -0.5t7.5 0.5t7.5 0.5v-195h7q20 0 30.5 10t27.5 45l8 -2l-15 -64h-58v-14q0 -33 7 -42.5t31 -9.5h2v-11h-5q-6 0 -22.5 2t-31.5 2q-14 0 -30.5 -2t-22.5 -2h-11zM36 88h115v165z" />
    <glyph glyph-name="uni2085" unicode="&#x2085;" horiz-adv-x="285" 
d="M140 -8q-37 0 -68.5 18.5t-31.5 45.5q0 19 17 19q14 0 22 -22q15 -51 61 -51q63 0 63 93q0 87 -60 87q-41 0 -67 -39l-8 2l22 139h102q27 0 37 23l8 -1l-11 -56h-130l-14 -84q26 26 64 26q40 0 69.5 -27.5t29.5 -68.5q0 -42 -30.5 -73t-74.5 -31z" />
    <glyph glyph-name="uni2086" unicode="&#x2086;" horiz-adv-x="279" 
d="M142 -8q-39 0 -72.5 34.5t-33.5 92.5q0 65 49 113t137 65l2 -10q-62 -13 -99.5 -47t-46.5 -81q29 40 76 40q37 0 63 -26t26 -69q0 -47 -31 -79.5t-70 -32.5zM143 2q59 0 59 101q0 45 -12 65.5t-39 20.5q-42 0 -73 -44q-1 -6 -1 -19q0 -124 66 -124z" />
    <glyph glyph-name="uni2087" unicode="&#x2087;" horiz-adv-x="289" 
d="M120 -8q-9 0 -15.5 6t-6.5 18q0 94 123 234h-139q-27 0 -37 -26l-8 1l17 81l9 -1q-1 -13 4.5 -17t21.5 -4h162v-8q-44 -58 -60.5 -81.5t-33.5 -72t-17 -105.5q0 -11 -6 -18t-14 -7z" />
    <glyph glyph-name="uni2088" unicode="&#x2088;" horiz-adv-x="283" 
d="M144 -8q-40 0 -72 21.5t-32 56.5q0 51 71 78q-56 22 -56 70q0 31 24.5 52.5t65.5 21.5q37 0 62 -19t25 -49q0 -46 -55 -68q66 -28 66 -79q0 -36 -29 -60.5t-70 -24.5zM169 160q32 26 32 62q0 27 -15.5 43.5t-43.5 16.5t-45 -15t-17 -37q0 -36 46 -53zM146 2q32 0 49 18.5
t17 45.5q0 41 -52 62l-39 16q-44 -25 -44 -73q0 -31 18 -50t51 -19z" />
    <glyph glyph-name="uni2089" unicode="&#x2089;" horiz-adv-x="279" 
d="M57 -13l-2 11q62 12 100 46t46 82q-11 -17 -31.5 -28.5t-43.5 -11.5q-38 0 -64 25.5t-26 68.5q0 47 31.5 79.5t69.5 32.5q40 0 73 -34t33 -92q0 -66 -49 -114t-137 -65zM129 96q40 0 73 43v20q0 66 -16 94.5t-49 28.5t-46.5 -25t-13.5 -76q0 -45 12 -65t40 -20z" />
    <glyph glyph-name="Euro" unicode="&#x20ac;" horiz-adv-x="611" 
d="M373 -10q-101 0 -162.5 79t-77.5 200h-108v14h107q-3 28 -3 57q0 30 3 58h-107v14h108q16 121 77.5 200t162.5 79q72 0 129 -43t57 -92q0 -22 -19 -22q-13 0 -20 13t-14 38q-1 5 -2 8q-26 85 -131 85q-183 0 -193 -266h275v-14h-275v-115h275v-14h-275q10 -266 193 -266
q105 0 131 85q14 47 23 55q6 4 13 4q19 0 19 -22q0 -49 -57 -92t-129 -43z" />
    <glyph glyph-name="trademark" unicode="&#x2122;" horiz-adv-x="784" 
d="M155 394v11h1q22 0 26.5 3t4.5 17v244h-40q-23 0 -41 -23q-27 -35 -37 -49l-7 4l42 94l7 -2q-1 -6 2.5 -9t12.5 -3h39q6 0 18.5 -0.5t19.5 -0.5q6 0 19.5 0.5t18.5 0.5h39q9 0 12.5 3t2.5 9l8 2l41 -94l-6 -4q-8 11 -15 20t-13.5 17t-9.5 12q-17 23 -40 23h-42v-244
q0 -14 5 -17t29 -3h1v-11h-5q-4 0 -20.5 1t-24.5 1q-9 0 -24.5 -1t-19.5 -1h-4zM357 394v11h2q27 0 33 7t6 29v197q0 16 -7.5 24t-33.5 8h-1v11l35 -1q5 0 16.5 0.5t18.5 0.5l105 -232l99 232q3 0 11 -0.5t12 -0.5q7 0 16.5 0.5t15.5 0.5h17v-11h-1q-22 0 -27.5 -3t-5.5 -15
v-226q0 -14 5.5 -17.5t27.5 -3.5h1v-11h-17q-5 0 -15 1t-17 1q-9 0 -19 -1t-15 -1h-15v11h1q22 0 26.5 3.5t4.5 17.5v238l-97 -228l20 -42q-4 0 -10 0.5t-9 0.5t-8 -0.5t-9 -0.5l-112 248v-201q0 -22 7.5 -29t36.5 -7h2v-11h-12q-1 0 -16.5 1t-24.5 1q-8 0 -23.5 -1
t-16.5 -1h-7z" />
    <glyph glyph-name="uni2126" unicode="&#x2126;" horiz-adv-x="730" 
d="M138 -33l-100 224l10 5q47 -82 83 -134q22 -31 38.5 -39.5t53.5 -8.5h71v60q-74 29 -125.5 86t-72.5 115t-21 113q0 122 80.5 212.5t209.5 90.5q130 0 210 -90.5t80 -212.5q0 -55 -20.5 -113t-72 -115t-125.5 -86v-60h70q37 0 53.5 8.5t38.5 39.5q36 49 84 134l9 -5
l-99 -224l-11 3q2 16 -3 23t-24 7h-132v84q48 20 84.5 57.5t57 82t30.5 86.5t10 78q0 126 -59.5 208t-180.5 82t-180.5 -82t-59.5 -208q0 -36 10 -78t30.5 -86.5t57.5 -82t85 -57.5v-84h-133q-18 0 -23.5 -7t-3.5 -23z" />
    <glyph glyph-name="uni2153" unicode="&#x2153;" horiz-adv-x="390" 
d="M128 397v11h19q27 0 35.5 9.5t8.5 42.5v137q0 18 -14 18q-9 0 -48 -21l-5 10l18 10q57 31 76 85h9v-239q0 -31 7.5 -41.5t30.5 -10.5h9v-11q-12 0 -30.5 2t-35.5 2t-35 -2t-31 -2h-14zM44 336v13h302v-13h-302zM193 -8q-41 0 -72.5 22.5t-31.5 53.5q0 20 18 20
q17 0 22 -24q14 -62 67 -62q62 0 62 81q0 70 -39 70q-13 0 -27 -7l-27 -13l-4 10l42 20q34 16 34 63q0 56 -41 56q-30 0 -50 -40q-12 -25 -26 -25q-17 0 -17 17q0 18 27.5 38t67.5 20q34 0 56.5 -16.5t22.5 -43.5q0 -24 -17 -42.5t-42 -26.5q33 0 57 -21.5t24 -56.5
q0 -40 -31.5 -66.5t-74.5 -26.5z" />
    <glyph glyph-name="uni2154" unicode="&#x2154;" horiz-adv-x="390" 
d="M293 367l-8 2q2 15 -2 21.5t-21 6.5h-155v9l62 60q90 88 90 155q0 58 -43 58q-30 0 -52 -43q-11 -22 -24 -22q-16 0 -16 16q0 19 26 39t68 20q35 0 58.5 -17t23.5 -51q0 -26 -18.5 -54.5t-39 -49t-71.5 -65.5l-23 -21h159zM44 336v13h302v-13h-302zM193 -8
q-41 0 -72.5 22.5t-31.5 53.5q0 20 18 20q17 0 22 -24q14 -62 67 -62q62 0 62 81q0 70 -39 70q-13 0 -27 -7l-27 -13l-4 10l42 20q34 16 34 63q0 56 -41 56q-30 0 -50 -40q-12 -25 -26 -25q-17 0 -17 17q0 18 27.5 38t67.5 20q34 0 56.5 -16.5t22.5 -43.5q0 -24 -17 -42.5
t-42 -26.5q33 0 57 -21.5t24 -56.5q0 -40 -31.5 -66.5t-74.5 -26.5z" />
    <glyph glyph-name="uni2155" unicode="&#x2155;" horiz-adv-x="390" 
d="M128 397v11h19q27 0 35.5 9.5t8.5 42.5v137q0 18 -14 18q-9 0 -48 -21l-5 10l18 10q57 31 76 85h9v-239q0 -31 7.5 -41.5t30.5 -10.5h9v-11q-12 0 -30.5 2t-35.5 2t-35 -2t-31 -2h-14zM44 336v13h302v-13h-302zM195 -8q-37 0 -68.5 18.5t-31.5 45.5q0 19 17 19
q14 0 22 -22q15 -51 61 -51q63 0 63 93q0 87 -60 87q-41 0 -67 -39l-8 2l22 139h102q27 0 37 23l8 -1l-11 -56h-130l-14 -84q26 26 64 26q40 0 69.5 -27.5t29.5 -68.5q0 -42 -30.5 -73t-74.5 -31z" />
    <glyph glyph-name="uni2156" unicode="&#x2156;" horiz-adv-x="390" 
d="M293 367l-8 2q2 15 -2 21.5t-21 6.5h-155v9l62 60q90 88 90 155q0 58 -43 58q-30 0 -52 -43q-11 -22 -24 -22q-16 0 -16 16q0 19 26 39t68 20q35 0 58.5 -17t23.5 -51q0 -26 -18.5 -54.5t-39 -49t-71.5 -65.5l-23 -21h159zM44 336v13h302v-13h-302zM195 -8
q-37 0 -68.5 18.5t-31.5 45.5q0 19 17 19q14 0 22 -22q15 -51 61 -51q63 0 63 93q0 87 -60 87q-41 0 -67 -39l-8 2l22 139h102q27 0 37 23l8 -1l-11 -56h-130l-14 -84q26 26 64 26q40 0 69.5 -27.5t29.5 -68.5q0 -42 -30.5 -73t-74.5 -31z" />
    <glyph glyph-name="uni2157" unicode="&#x2157;" horiz-adv-x="390" 
d="M197 389q-41 0 -72.5 22.5t-31.5 53.5q0 20 18 20q17 0 22 -24q14 -62 67 -62q62 0 62 81q0 70 -39 70q-13 0 -27 -7l-27 -13l-4 10l42 20q34 16 34 63q0 56 -41 56q-30 0 -50 -40q-12 -25 -26 -25q-17 0 -17 17q0 18 27.5 38t67.5 20q34 0 56.5 -16.5t22.5 -43.5
q0 -24 -17 -42.5t-42 -26.5q33 0 57 -21.5t24 -56.5q0 -40 -31.5 -66.5t-74.5 -26.5zM44 336v13h302v-13h-302zM195 -8q-37 0 -68.5 18.5t-31.5 45.5q0 19 17 19q14 0 22 -22q15 -51 61 -51q63 0 63 93q0 87 -60 87q-41 0 -67 -39l-8 2l22 139h102q27 0 37 23l8 -1l-11 -56
h-130l-14 -84q26 26 64 26q40 0 69.5 -27.5t29.5 -68.5q0 -42 -30.5 -73t-74.5 -31z" />
    <glyph glyph-name="uni2158" unicode="&#x2158;" horiz-adv-x="390" 
d="M161 397v11h7q24 0 32 9.5t8 42.5v14h-132v7l139 199q1 0 6 -0.5t8 -0.5t7.5 0.5t7.5 0.5v-195h7q20 0 30.5 10.5t27.5 44.5l8 -2l-15 -64h-58v-14q0 -33 7 -42.5t31 -9.5h2v-11h-5q-6 0 -22.5 2t-31.5 2q-14 0 -30.5 -2t-22.5 -2h-11zM93 485h115v165zM44 336v13h302
v-13h-302zM196 -8q-37 0 -68.5 18.5t-31.5 45.5q0 19 17 19q14 0 22 -22q15 -51 61 -51q63 0 63 93q0 87 -60 87q-41 0 -67 -39l-8 2l22 139h102q27 0 37 23l8 -1l-11 -56h-130l-14 -84q26 26 64 26q40 0 69.5 -27.5t29.5 -68.5q0 -42 -30.5 -73t-74.5 -31z" />
    <glyph glyph-name="uni2159" unicode="&#x2159;" horiz-adv-x="390" 
d="M128 397v11h19q27 0 35.5 9.5t8.5 42.5v137q0 18 -14 18q-9 0 -48 -21l-5 10l18 10q57 31 76 85h9v-239q0 -31 7.5 -41.5t30.5 -10.5h9v-11q-12 0 -30.5 2t-35.5 2t-35 -2t-31 -2h-14zM44 336v13h302v-13h-302zM198 -8q-39 0 -72.5 34.5t-33.5 92.5q0 65 49 113t137 65
l2 -10q-62 -13 -99.5 -47t-46.5 -81q29 40 76 40q37 0 63 -26t26 -69q0 -47 -31 -79.5t-70 -32.5zM199 2q59 0 59 101q0 45 -12 65.5t-39 20.5q-42 0 -73 -44q-1 -6 -1 -19q0 -124 66 -124z" />
    <glyph glyph-name="uni215A" unicode="&#x215a;" horiz-adv-x="390" 
d="M210 389q-37 0 -68.5 18.5t-31.5 45.5q0 19 17 19q14 0 22 -22q15 -51 61 -51q63 0 63 93q0 87 -60 87q-41 0 -67 -39l-8 2l22 139h102q27 0 37 23l8 -1l-11 -56h-130l-14 -84q26 26 64 26q40 0 69.5 -27.5t29.5 -68.5q0 -42 -30.5 -73t-74.5 -31zM44 336v13h302v-13
h-302zM198 -8q-39 0 -72.5 34.5t-33.5 92.5q0 65 49 113t137 65l2 -10q-62 -13 -99.5 -47t-46.5 -81q29 40 76 40q37 0 63 -26t26 -69q0 -47 -31 -79.5t-70 -32.5zM199 2q59 0 59 101q0 45 -12 65.5t-39 20.5q-42 0 -73 -44q-1 -6 -1 -19q0 -124 66 -124z" />
    <glyph glyph-name="uni215B" unicode="&#x215b;" horiz-adv-x="390" 
d="M128 397v11h19q27 0 35.5 9.5t8.5 42.5v137q0 18 -14 18q-9 0 -48 -21l-5 10l18 10q57 31 76 85h9v-239q0 -31 7.5 -41.5t30.5 -10.5h9v-11q-12 0 -30.5 2t-35.5 2t-35 -2t-31 -2h-14zM44 336v13h302v-13h-302zM187 -8q-40 0 -72 21.5t-32 56.5q0 51 71 78q-56 22 -56 70
q0 31 24.5 52.5t65.5 21.5q37 0 62 -19t25 -49q0 -46 -55 -68q66 -28 66 -79q0 -36 -29 -60.5t-70 -24.5zM212 160q32 26 32 62q0 27 -15.5 43.5t-43.5 16.5t-45 -15t-17 -37q0 -36 46 -53zM189 2q32 0 49 18.5t17 45.5q0 41 -52 62l-39 16q-44 -25 -44 -73q0 -31 18 -50
t51 -19z" />
    <glyph glyph-name="uni215C" unicode="&#x215c;" horiz-adv-x="390" 
d="M197 389q-41 0 -72.5 22.5t-31.5 53.5q0 20 18 20q17 0 22 -24q14 -62 67 -62q62 0 62 81q0 70 -39 70q-13 0 -27 -7l-27 -13l-4 10l42 20q34 16 34 63q0 56 -41 56q-30 0 -50 -40q-12 -25 -26 -25q-17 0 -17 17q0 18 27.5 38t67.5 20q34 0 56.5 -16.5t22.5 -43.5
q0 -24 -17 -42.5t-42 -26.5q33 0 57 -21.5t24 -56.5q0 -40 -31.5 -66.5t-74.5 -26.5zM44 336v13h302v-13h-302zM187 -8q-40 0 -72 21.5t-32 56.5q0 51 71 78q-56 22 -56 70q0 31 24.5 52.5t65.5 21.5q37 0 62 -19t25 -49q0 -46 -55 -68q66 -28 66 -79q0 -36 -29 -60.5
t-70 -24.5zM212 160q32 26 32 62q0 27 -15.5 43.5t-43.5 16.5t-45 -15t-17 -37q0 -36 46 -53zM189 2q32 0 49 18.5t17 45.5q0 41 -52 62l-39 16q-44 -25 -44 -73q0 -31 18 -50t51 -19z" />
    <glyph glyph-name="uni215D" unicode="&#x215d;" horiz-adv-x="390" 
d="M210 389q-37 0 -68.5 18.5t-31.5 45.5q0 19 17 19q14 0 22 -22q15 -51 61 -51q63 0 63 93q0 87 -60 87q-41 0 -67 -39l-8 2l22 139h102q27 0 37 23l8 -1l-11 -56h-130l-14 -84q26 26 64 26q40 0 69.5 -27.5t29.5 -68.5q0 -42 -30.5 -73t-74.5 -31zM44 336v13h302v-13
h-302zM187 -8q-40 0 -72 21.5t-32 56.5q0 51 71 78q-56 22 -56 70q0 31 24.5 52.5t65.5 21.5q37 0 62 -19t25 -49q0 -46 -55 -68q66 -28 66 -79q0 -36 -29 -60.5t-70 -24.5zM212 160q32 26 32 62q0 27 -15.5 43.5t-43.5 16.5t-45 -15t-17 -37q0 -36 46 -53zM189 2
q32 0 49 18.5t17 45.5q0 41 -52 62l-39 16q-44 -25 -44 -73q0 -31 18 -50t51 -19z" />
    <glyph glyph-name="uni215E" unicode="&#x215e;" horiz-adv-x="390" 
d="M193 389q-9 0 -15.5 6t-6.5 18q0 94 123 234h-139q-27 0 -37 -26l-8 1l17 81l9 -1q-1 -13 4.5 -17t21.5 -4h162v-8q-44 -58 -60.5 -81.5t-33.5 -72t-17 -105.5q0 -11 -6 -18t-14 -7zM44 336v13h302v-13h-302zM187 -8q-40 0 -72 21.5t-32 56.5q0 51 71 78q-56 22 -56 70
q0 31 24.5 52.5t65.5 21.5q37 0 62 -19t25 -49q0 -46 -55 -68q66 -28 66 -79q0 -36 -29 -60.5t-70 -24.5zM212 160q32 26 32 62q0 27 -15.5 43.5t-43.5 16.5t-45 -15t-17 -37q0 -36 46 -53zM189 2q32 0 49 18.5t17 45.5q0 41 -52 62l-39 16q-44 -25 -44 -73q0 -31 18 -50
t51 -19z" />
    <glyph glyph-name="partialdiff" unicode="&#x2202;" horiz-adv-x="498" 
d="M248 -8q-90 0 -147 76t-57 177q0 104 59.5 178.5t153.5 74.5q68 0 119 -46q-67 188 -271 232l3 10q151 -32 248.5 -147t97.5 -253q0 -81 -18.5 -142t-49.5 -94.5t-65.5 -49.5t-72.5 -16zM248 4q49 0 81 21t53 82.5t21 167.5q0 76 -22 157q-49 54 -124 54
q-165 0 -165 -241t156 -241z" />
    <glyph glyph-name="uni2206" unicode="&#x2206;" horiz-adv-x="615" 
d="M39 0v8l236 601l-31 72q7 0 14.5 -0.5t10.5 -0.5t9.5 0.5t11.5 0.5l286 -673v-8h-537zM56 14h471l-244 578z" />
    <glyph glyph-name="product" unicode="&#x220f;" horiz-adv-x="665" 
d="M47 0v12q33 0 41 6.5t8 32.5v579q0 27 -8 33.5t-41 6.5v11h6q10 0 26 -0.5t27 -0.5q17 0 47 0.5t38 0.5h282q10 0 38 -0.5t45 -0.5q11 0 28 0.5t27 0.5h7v-11q-33 0 -41 -6.5t-8 -33.5v-579q0 -26 8 -32.5t41 -6.5v-12h-7q-9 0 -27 1.5t-36 1.5t-37 -1.5t-27 -1.5h-7v12
q33 0 41 6.5t8 32.5v616h-387v-616q0 -26 8 -32.5t41 -6.5v-12h-7q-9 0 -27 1.5t-36 1.5t-37 -1.5t-27 -1.5h-7z" />
    <glyph glyph-name="summation" unicode="&#x2211;" horiz-adv-x="597" 
d="M537 -54l-9 1q2 32 -9 42.5t-38 10.5h-434v9l248 304l-186 322q-13 23 -24 29t-45 6h-3v11h57h58h259q20 0 25.5 7.5t1.5 23.5l11 3l108 -219l-9 -5q-79 116 -98 137q-35 39 -89 39h-221l191 -332l-238 -292h464z" />
    <glyph glyph-name="minus" unicode="&#x2212;" horiz-adv-x="494" 
d="M47 314v15h400v-15h-400z" />
    <glyph glyph-name="radical" unicode="&#x221a;" horiz-adv-x="523" 
d="M203 0l-158 444l14 5l150 -424l255 730l14 -5l-262 -750h-13z" />
    <glyph glyph-name="infinity" unicode="&#x221e;" horiz-adv-x="756" 
d="M179 184q-57 0 -94.5 41.5t-37.5 99.5t37.5 99.5t94.5 41.5q17 0 32.5 -3t31.5 -12t26.5 -14.5t28.5 -22t24.5 -23t28.5 -29t27 -27.5q5 5 27 28t28.5 28.5t25 22.5t28.5 22.5t26.5 14.5t32 12t32.5 3q57 0 94 -41.5t37 -99.5t-37 -99.5t-94 -41.5q-13 0 -25.5 2t-25 7.5
t-22 9t-23 14t-20 15t-21.5 19t-19.5 19.5t-22 23t-21.5 22q-6 -6 -21.5 -22.5t-21.5 -22.5t-20 -19.5t-21.5 -19t-20 -15.5t-22 -14t-22 -9t-25 -7t-25.5 -2zM179 199q14 0 27.5 3t24 6.5t25 13.5t22 15t23 19.5t21.5 20.5t24 24.5t23 23.5q-7 7 -31 31.5t-31.5 32
t-27.5 24t-32.5 22t-31 11.5t-36.5 6q-51 0 -84 -37t-33 -90t33 -89.5t84 -36.5zM577 199q52 0 85 36.5t33 89.5t-33.5 90t-84.5 37q-16 0 -30.5 -3t-30 -11.5t-25.5 -14t-26.5 -21.5t-24 -22.5t-27.5 -27.5t-26 -27q8 -8 27 -27.5t27 -27l24 -22.5t26.5 -21t25.5 -14
t29.5 -11t30.5 -3z" />
    <glyph glyph-name="integral" unicode="&#x222b;" horiz-adv-x="338" 
d="M-35 -233q-22 0 -22 19t25 22q5 1 53 4q69 4 97.5 40.5t28.5 115.5v446q0 113 44 181q33 52 84.5 78t95.5 26q22 0 22 -19t-25 -22q-5 -1 -53 -4q-69 -5 -97.5 -41.5t-28.5 -115.5v-445q0 -113 -44 -182q-33 -51 -84.5 -77t-95.5 -26z" />
    <glyph glyph-name="approxequal" unicode="&#x2248;" horiz-adv-x="537" 
d="M381 373q-43 0 -115 30.5t-111 30.5q-57 0 -96 -56l-12 8q41 63 108 63q42 0 114.5 -30.5t112.5 -30.5q55 0 95 56l12 -8q-39 -63 -108 -63zM381 199q-43 0 -115 30.5t-111 30.5q-56 0 -96 -56l-12 8q41 63 108 63q42 0 114.5 -30.5t112.5 -30.5q56 0 95 56l12 -8
q-39 -63 -108 -63z" />
    <glyph glyph-name="notequal" unicode="&#x2260;" horiz-adv-x="494" 
d="M142 120l-13 7l55 100h-137v15h146l92 163h-238v15h246l57 103l13 -7l-53 -96h137v-15h-145l-92 -163h237v-15h-246z" />
    <glyph glyph-name="lessequal" unicode="&#x2264;" horiz-adv-x="534" 
d="M458 244l-375 123v13l375 123l5 -15l-352 -115l352 -115zM47 106v15h440v-15h-440z" />
    <glyph glyph-name="greaterequal" unicode="&#x2265;" horiz-adv-x="534" 
d="M77 244l-5 14l351 115l-351 115l5 15l374 -123v-13zM47 106v15h440v-15h-440z" />
    <glyph glyph-name="lozenge" unicode="&#x25ca;" horiz-adv-x="540" 
d="M265 -81l-220 405l220 405h10l220 -405l-220 -405h-10zM270 -60l208 384l-208 384l-207 -384z" />
    <glyph glyph-name="uniF6C3" unicode="&#xf6c3;" horiz-adv-x="0" 
d="M-124 -222l-3 9q30 9 46 35t15 52q-8 -18 -31 -18q-15 0 -24.5 10t-9.5 24q0 15 10.5 25.5t26.5 10.5q17 0 28 -13t11 -34q0 -42 -21.5 -67.5t-47.5 -33.5z" />
    <glyph glyph-name="uniF8FF" unicode="&#xf8ff;" horiz-adv-x="1232" 
d="M49 0q-1 7 -1 22q0 53 39.5 86.5t102.5 33.5q12 0 42.5 -2t40.5 -2q104 0 152 114q22 50 55 77.5t93 27.5q9 0 40.5 -1.5t39.5 -1.5q54 0 85.5 26t54.5 77q25 56 61.5 87t99.5 31q13 0 42.5 -2t40.5 -2q59 0 95.5 32t36.5 78v20h16v-20q0 -54 -41.5 -90t-107.5 -36
q-12 0 -42.5 2t-40.5 2q-98 0 -145 -107q-24 -55 -59.5 -84t-95.5 -29q-9 0 -40.5 1.5t-39.5 1.5q-52 0 -81.5 -23.5t-51.5 -72.5q-27 -59 -65 -91.5t-103 -32.5q-13 0 -42.5 2t-40.5 2q-56 0 -90.5 -29.5t-34.5 -74.5q0 -15 1 -22h-16z" />
    <glyph glyph-name="uni00A40301" horiz-adv-x="265" 
d="M132 735l-9 6q32 49 53 94t31 58q8 11 19 11q8 0 14 -6t6 -14t-5 -16q-9 -14 -42.5 -49.5t-66.5 -83.5zM-13 -83q-27 0 -27 21t25 21q5 0 32 -3.5t41 -3.5q76 0 76 132v546q0 27 -8 33.5t-40 6.5v11h6q9 0 27.5 -1.5t36.5 -1.5t36 1.5t27 1.5h7v-11q-32 0 -40.5 -6.5
t-8.5 -33.5v-436q0 -149 -49 -213t-141 -64z" />
    <glyph glyph-name="R.ss02" horiz-adv-x="613" 
d="M47 0v12q33 0 41 6.5t8 32.5v579q0 27 -8 33.5t-41 6.5v11h7q9 0 27.5 -0.5t35.5 -0.5q22 0 47 0.5t39 0.5h112q98 0 157 -48.5t59 -134.5q0 -71 -46.5 -122.5t-140.5 -57.5l132 -212q38 -60 60 -76t63 -18v-12q-23 0 -43.5 1t-32.5 1q-10 0 -19.5 -1t-11.5 -1l-196 317
h-157v-266q0 -26 8 -32.5t41 -6.5v-12h-7q-9 0 -28 1.5t-36 1.5t-36 -1.5t-27 -1.5h-7zM139 331h148l-33 55q6 0 14 -0.5t12 -0.5t10.5 0.5t11.5 0.5l34 -54q77 3 111 41.5t34 126.5q0 85 -38.5 126t-130.5 41h-173v-336z" />
    <glyph glyph-name="uni006A0301" horiz-adv-x="209" 
d="M79 544l-9 6q32 49 53 94t31 58q8 11 19 11q8 0 14 -6t6 -14t-5 -16q-9 -14 -42.5 -49.5t-66.5 -83.5zM-30 -236q-22 0 -22 18q0 20 22 20q8 0 25.5 -0.5t24.5 -0.5q32 0 50 27t18 80v494q0 29 -8.5 35t-45.5 6v10h6q31 0 53.5 12.5t27.5 31.5h9v-462q0 -115 -33 -182
q-44 -89 -127 -89z" />
    <glyph glyph-name="i.trk" horiz-adv-x="233" 
d="M121 612q-16 0 -26.5 10.5t-10.5 26.5t10.5 26.5t26.5 10.5t26.5 -10.5t10.5 -26.5t-10.5 -26.5t-26.5 -10.5zM45 0v11q36 0 45 6.5t9 35.5v349q0 29 -8.5 35t-45.5 6v10h6q31 0 53.5 12.5t27.5 31.5h9v-444q0 -29 9 -35.5t46 -6.5v-11h-7q-10 0 -30.5 1.5t-38.5 1.5
t-38.5 -1.5t-30.5 -1.5h-6z" />
    <glyph glyph-name="zero.osf" horiz-adv-x="514" 
d="M257 -8q-86 0 -145 76t-59 187t59 187t145 76t145 -76t59 -187t-59 -187t-145 -76zM257 4q76 0 116 64.5t40 186.5t-40 186.5t-116 64.5q-75 0 -115.5 -65t-40.5 -186t40.5 -186t115.5 -65z" />
    <glyph glyph-name="one.osf" horiz-adv-x="254" 
d="M52 0v11q36 0 45.5 6.5t9.5 35.5v404q0 29 -9.5 36t-45.5 7v10h6q10 0 30.5 -1.5t38.5 -1.5t38.5 1.5t30.5 1.5h6v-10q-36 0 -45 -7t-9 -36v-404q0 -29 9 -35.5t45 -6.5v-11h-6q-10 0 -30.5 1.5t-38.5 1.5t-38.5 -1.5t-30.5 -1.5h-6z" />
    <glyph glyph-name="two.osf" horiz-adv-x="454" 
d="M379 -54l-9 2q3 31 -8.5 41.5t-38.5 10.5h-288v7l132 118q94 83 135 143.5t41 124.5q0 49 -24.5 80.5t-75.5 31.5q-91 0 -134 -105q-9 -23 -26 -23q-8 0 -14 6t-6 15q0 36 54 77.5t126 41.5q63 0 105.5 -33t42.5 -91q0 -33 -12 -62.5t-44 -66t-57 -60t-82 -73.5
q-5 -5 -9 -8.5t-8 -6.5l-87 -76h305z" />
    <glyph glyph-name="three.osf" horiz-adv-x="442" 
d="M59 -154l-3 12q125 33 208 103t83 168q0 51 -22.5 82.5t-66.5 31.5q-21 0 -54 -17l-53 -28l-6 11l75 39q96 50 96 139q0 47 -24.5 82.5t-79.5 35.5q-90 0 -133 -105q-10 -23 -26 -23q-8 0 -14 6t-6 15q0 36 55 77.5t123 41.5q64 0 108.5 -36t44.5 -91q0 -25 -10 -47.5
t-28.5 -39t-33.5 -27t-35 -21.5q22 1 51 -6.5t58 -37t29 -75.5q0 -64 -53 -126t-128.5 -103.5t-154.5 -60.5z" />
    <glyph glyph-name="four.osf" horiz-adv-x="491" 
d="M234 -140v10h12q36 0 45 6.5t9 35.5v124h-290v8l293 467h16h22v-463h5q53 0 81 26.5t47 83.5l9 -2l-26 -120h-116v-124q0 -29 9 -35.5t44 -6.5h1v-10h-6q-10 0 -30.5 1.5t-38.5 1.5t-38 -1.5t-30 -1.5h-18zM27 48h273v435z" />
    <glyph glyph-name="five.osf" horiz-adv-x="447" 
d="M60 -154l-3 12q137 36 213 111t76 177q0 62 -27.5 99.5t-80.5 37.5q-47 0 -93 -29t-74 -76l-12 2l48 331h206q33 0 50 7.5t24 29.5l9 -2l-18 -75h-265l-38 -266q30 42 74.5 66t92.5 24q65 0 108.5 -42t43.5 -107q0 -95 -96 -179.5t-238 -120.5z" />
    <glyph glyph-name="six.osf" horiz-adv-x="516" 
d="M266 -11q-86 0 -147.5 76t-61.5 204q0 140 99.5 248t261.5 145l3 -12q-133 -32 -213.5 -108t-97.5 -194q30 40 74 64t91 24q75 0 134 -60t59 -154q0 -103 -60.5 -168t-141.5 -65zM266 1q72 0 113 57.5t41 162.5q0 99 -39.5 151t-105.5 52q-47 0 -91 -25t-75 -69
q-4 -40 -4 -59q0 -270 161 -270z" />
    <glyph glyph-name="seven.osf" horiz-adv-x="425" 
d="M160 -146q-11 0 -18.5 7.5t-7.5 19.5q0 131 74.5 292t173.5 298h-268q-29 0 -44 -13.5t-27 -45.5l-9 1l29 133l9 -1q-1 -20 11.5 -27t39.5 -7h295v-8q-117 -166 -173.5 -308.5t-56.5 -314.5q0 -12 -8.5 -19t-19.5 -7z" />
    <glyph glyph-name="eight.osf" horiz-adv-x="497" 
d="M257 -10q-91 0 -149.5 54t-58.5 132q0 56 36 103.5t104 78.5q-106 47 -106 139q0 64 46.5 114t121.5 50q67 0 119 -42.5t52 -112.5q0 -99 -101 -161q127 -55 127 -171q0 -80 -54 -132t-137 -52zM309 350q72 45 72 151q0 66 -34 107t-96 41q-63 0 -102 -39t-39 -92
q0 -83 102 -127zM257 2q77 0 120 45t43 113q0 54 -32 89.5t-95 62.5l-90 40q-54 -26 -81 -72t-27 -100q0 -71 40.5 -124.5t121.5 -53.5z" />
    <glyph glyph-name="nine.osf" horiz-adv-x="516" 
d="M93 -155l-3 12q277 67 311 303q-30 -41 -73 -65t-90 -24q-76 0 -135.5 60.5t-59.5 154.5q0 103 60.5 167.5t142.5 64.5q86 0 147 -75.5t61 -204.5q0 -139 -99.5 -247.5t-261.5 -145.5zM238 83q46 0 89.5 25.5t74.5 69.5q4 25 4 59q0 269 -160 269q-72 0 -113.5 -57
t-41.5 -163q0 -99 40 -151t107 -52z" />
    <glyph glyph-name="zero.osf_01" horiz-adv-x="597" 
d="M299 -8q-109 0 -185.5 77t-76.5 186t76.5 186t185.5 77t185.5 -77t76.5 -186t-76.5 -186t-185.5 -77zM299 13q99 0 168.5 70.5t69.5 171.5t-69.5 171.5t-168.5 70.5t-168.5 -70.5t-69.5 -171.5t69.5 -171.5t168.5 -70.5z" />
    <glyph glyph-name="exclamdown.case" horiz-adv-x="218" 
d="M109 612q-16 0 -27 11t-11 27t11 27t27 11t27 -11t11 -27t-11 -27t-27 -11zM109 -6q-28 0 -28 35q0 43 10.5 190.5t10.5 224.5v50h13v-50q0 -76 11 -223.5t11 -191.5q0 -35 -28 -35z" />
    <glyph glyph-name="questiondown.case" horiz-adv-x="324" 
d="M208 612q-16 0 -27 11t-11 27t11 27t27 11t27 -11t11 -27t-11 -27t-27 -11zM228 -6q-76 0 -124.5 45.5t-48.5 116.5q0 27 6.5 52.5t21.5 52.5t45 49t71 35v149h14v-203q-67 -12 -106 -52t-39 -88q0 -52 28.5 -80.5t77.5 -28.5q18 0 37.5 2.5t25.5 2.5q12 0 20.5 -7
t8.5 -18q0 -28 -38 -28z" />
    <glyph glyph-name="slash.case" horiz-adv-x="360" 
d="M37 -122l-14 4l300 895l15 -5z" />
    <glyph glyph-name="backslash.case" horiz-adv-x="360" 
d="M324 -122l-301 894l15 5l300 -895z" />
    <glyph glyph-name="parenleft.case" horiz-adv-x="279" 
d="M259 -124q-84 70 -140.5 198.5t-56.5 253.5t56.5 253.5t140.5 198.5l8 -9q-79 -69 -118.5 -186.5t-39.5 -256.5q0 -138 39.5 -256.5t118.5 -186.5z" />
    <glyph glyph-name="parenright.case" horiz-adv-x="279" 
d="M20 -124l-8 9q79 68 118.5 186.5t39.5 256.5q0 139 -39.5 256.5t-118.5 186.5l8 9q84 -70 140.5 -198.5t56.5 -253.5t-56.5 -253.5t-140.5 -198.5z" />
    <glyph glyph-name="braceleft.case" horiz-adv-x="280" 
d="M254 -122q-83 20 -111.5 50.5t-28.5 106.5q0 33 5 99.5t5 82.5q0 53 -16 76.5t-66 25.5v16q50 2 66 25.5t16 76.5q0 16 -5 82.5t-5 99.5q0 76 28.5 106.5t111.5 50.5l3 -11q-60 -15 -82.5 -36.5t-22.5 -65.5q0 -21 5 -100t5 -102q0 -58 -21 -92t-74 -42q53 -8 74 -42
t21 -92q0 -23 -5 -102t-5 -100q0 -44 22.5 -65.5t82.5 -36.5z" />
    <glyph glyph-name="braceright.case" horiz-adv-x="280" 
d="M26 -122l-3 11q60 15 82.5 36.5t22.5 65.5q0 21 -5 100t-5 102q0 58 21 92t74 42q-53 8 -74 42t-21 92q0 23 5 102t5 100q0 44 -22.5 65.5t-82.5 36.5l3 11q83 -20 111.5 -50.5t28.5 -106.5q0 -33 -5 -99.5t-5 -82.5q0 -53 16 -76.5t66 -25.5v-16q-50 -2 -66 -25.5
t-16 -76.5q0 -16 5 -82.5t5 -99.5q0 -76 -28.5 -106.5t-111.5 -50.5z" />
    <glyph glyph-name="bracketleft.case" horiz-adv-x="265" 
d="M87 -122v901q40 -2 150 -2v-12q-47 0 -85.5 -1.5t-46.5 -1.5q0 -2 3.5 -31.5t6.5 -63t6.5 -83.5t5.5 -116.5t2 -138.5t-2 -138.5t-5.5 -116.5t-6.5 -84t-6.5 -63.5t-3.5 -31.5q8 0 46.5 -1.5t85.5 -1.5v-12q-110 0 -150 -2z" />
    <glyph glyph-name="bracketright.case" horiz-adv-x="265" 
d="M178 -122q-40 2 -150 2v12q47 0 85.5 1.5t46.5 1.5q0 2 -3.5 31.5t-6.5 63.5t-6.5 84t-5.5 116.5t-2 138.5t2 138.5t5.5 116.5t6.5 83.5t6.5 63t3.5 31.5q-8 0 -46.5 1.5t-85.5 1.5v12q110 0 150 2v-901z" />
    <glyph glyph-name="hyphen.case" horiz-adv-x="296" 
d="M67 318v36h162v-36h-162z" />
    <glyph glyph-name="uni00AD.case" horiz-adv-x="296" 
d="M67 316v36h162v-36h-162z" />
    <glyph glyph-name="endash.case" horiz-adv-x="516" 
d="M47 327v15h422v-15h-422z" />
    <glyph glyph-name="emdash.case" horiz-adv-x="992" 
d="M47 327v15h898v-15h-898z" />
    <glyph glyph-name="guillemotleft.case" horiz-adv-x="479" 
d="M258 137q-27 28 -76.5 71.5t-86.5 74.5t-43 35q9 7 43.5 36t85 73.5t77.5 72.5l8 -9q-29 -33 -85 -98.5t-64 -74.5q8 -8 33 -37.5t59.5 -70t56.5 -65.5zM400 137q-27 28 -76.5 71.5t-86.5 74.5t-43 35q9 7 43.5 36t85 73.5t77.5 72.5l8 -9q-29 -33 -85 -98.5t-64 -74.5
q8 -8 33 -37.5t59.5 -70t56.5 -65.5z" />
    <glyph glyph-name="guillemotright.case" horiz-adv-x="479" 
d="M79 137l-8 8q28 32 84 98t65 75q-7 8 -63 74t-86 99l8 9q27 -28 77.5 -72.5t85.5 -74t43 -35.5q-5 -4 -42 -35t-86.5 -74.5t-77.5 -71.5zM221 137l-8 8q28 32 84 98t65 75q-7 8 -63 74t-86 99l8 9q27 -28 77.5 -72.5t85.5 -74t43 -35.5q-5 -4 -42 -35t-86.5 -74.5
t-77.5 -71.5z" />
    <glyph glyph-name="guilsinglleft.case" horiz-adv-x="337" 
d="M258 137q-27 28 -76.5 71.5t-86.5 74.5t-43 35q9 7 43.5 36t85 73.5t77.5 72.5l8 -9q-29 -33 -85 -98.5t-64 -74.5q8 -8 33 -37.5t59.5 -70t56.5 -65.5z" />
    <glyph glyph-name="guilsinglright.case" horiz-adv-x="337" 
d="M79 137l-8 8q28 32 84 98t65 75q-7 8 -63 74t-86 99l8 9q27 -28 77.5 -72.5t85.5 -74t43 -35.5q-5 -4 -42 -35t-86.5 -74.5t-77.5 -71.5z" />
    <glyph glyph-name="parenleft.subs" horiz-adv-x="177" 
d="M134 -45q-41 30 -69 82.5t-28 104.5t28 104.5t69 82.5l6 -8q-32 -29 -50 -78.5t-18 -100.5t18 -100.5t50 -78.5z" />
    <glyph glyph-name="parenright.subs" horiz-adv-x="177" 
d="M44 -45l-7 8q32 29 50 78.5t18 100.5q0 52 -17.5 101t-50.5 78l7 8q40 -30 68 -82.5t28 -104.5t-28 -104.5t-68 -82.5z" />
    <glyph glyph-name="cent.osf" horiz-adv-x="489" 
d="M105 -145l-13 4l57 173q-92 70 -92 204q0 117 58.5 189.5t143.5 72.5q21 0 43 -5l47 140l13 -4l-47 -140q49 -15 80.5 -49t31.5 -63q0 -10 -6 -16t-15 -6q-11 0 -17 9q-3 7 -10 25q-23 69 -68 89l-140 -422q44 -47 103 -47q106 0 149 117l9 -3q-45 -131 -168 -131
q-57 0 -104 32zM161 68l138 414q-20 5 -40 5q-73 0 -113.5 -63t-40.5 -153q0 -131 56 -203z" />
    <glyph glyph-name="dollar.osf" horiz-adv-x="497" 
d="M247 -72v70q-79 1 -137 42t-58 90q0 11 6.5 17.5t15.5 6.5q17 0 22 -16q1 -2 3.5 -13t5.5 -20q30 -90 142 -94v305l-42 13q-58 18 -95 58.5t-37 99.5q0 67 44.5 113.5t129.5 46.5v69h14v-69q55 -1 108.5 -40t53.5 -86q0 -21 -21 -21q-13 0 -19 12q-1 3 -4.5 15t-6.5 21
q-15 43 -40.5 64.5t-70.5 22.5v-280l44 -13q141 -44 141 -165q0 -79 -52 -129t-133 -50v-70h-14zM247 360v275q-77 0 -116.5 -40t-39.5 -98q0 -50 31.5 -79.5t98.5 -49.5zM261 11q73 0 117.5 42t44.5 107q0 56 -33.5 89t-108.5 57l-20 6v-301z" />
    <glyph glyph-name="Euro.osf" horiz-adv-x="595" 
d="M358 -10q-98 0 -156 76t-74 190h-103v14h102q-3 27 -3 56t3 56h-102v13h103q16 115 74 190.5t156 75.5q70 0 125 -41t55 -86q0 -23 -20 -23q-4 0 -7 1t-5.5 3t-4.5 4t-4.5 6t-4 7t-3.5 8t-3 8.5t-3 10t-3 9.5q-24 80 -121 80q-176 0 -186 -253h263v-13h-263v-112h263v-14
h-263q10 -253 186 -253q95 0 121 80q1 3 3 8.5t3 9t2.5 8t3 7.5t3 6.5t3.5 6l4 5t4.5 3.5t5.5 2t6 1q20 0 20 -23q0 -45 -55 -86t-125 -41z" />
    <glyph glyph-name="sterling.osf" horiz-adv-x="555" 
d="M107 -10q-32 0 -53 16.5t-21 45.5t23.5 48.5t66.5 19.5q36 0 105 -29q27 81 -23 199h-138v14h134q-20 44 -30.5 70t-19.5 62t-9 67q0 68 48.5 113t118.5 45q64 0 114.5 -40.5t50.5 -86.5q0 -10 -6 -16.5t-16 -6.5q-13 0 -19 10.5t-13 40.5q-18 86 -111 86q-61 0 -94 -34
t-33 -88q0 -24 6 -54t12 -49t20 -61.5t19 -57.5h177v-14h-174q16 -60 16 -105q0 -51 -17 -100q4 -2 23 -10.5t25.5 -11t23 -9t25.5 -9.5t23 -6.5t26 -5t23 -1.5q82 0 82 91q0 53 -30 96l9 6q34 -49 34 -105q0 -60 -31 -93.5t-82 -33.5q-12 0 -24 2t-25 6.5t-22 8t-24.5 11.5
t-22 11.5t-23.5 13.5t-22 13q-46 -69 -122 -69zM108 3q69 0 110 63q-67 38 -109 38q-28 0 -45 -15t-17 -37t17 -35.5t44 -13.5z" />
    <glyph glyph-name="yen.osf" horiz-adv-x="545" 
d="M211 0v11q31 0 38.5 6.5t7.5 33.5v95h-155v14h155v88h-155v13h155v46l-174 290q-16 25 -32 34t-47 9v11h21q5 0 26.5 -1.5t37.5 -1.5t37.5 1.5t27.5 1.5h20v-11q-29 0 -40 -4.5t-11 -17.5q0 -9 8 -23l160 -269l126 232q21 39 21 51q0 16 -12.5 23.5t-45.5 7.5h-1v11h11
q9 0 32.5 -1.5t35.5 -1.5q10 0 33.5 1.5t31.5 1.5h19v-11h-1q-40 0 -62 -18t-51 -70l-131 -240v-51h156v-13h-156v-88h156v-14h-156v-95q0 -27 7.5 -33.5t39.5 -6.5v-11h-5q-9 0 -27 1.5t-35 1.5t-35 -1.5t-27 -1.5h-4z" />
    <glyph glyph-name="plus.osf" horiz-adv-x="540" 
d="M262 33v212h-212v15h212v213h15v-213h213v-15h-213v-212h-15z" />
    <glyph glyph-name="minus.osf" horiz-adv-x="500" 
d="M50 244v15h400v-15h-400z" />
    <glyph glyph-name="multiply.osf" horiz-adv-x="447" 
d="M60 79l-10 10l164 164l-164 163l10 10l164 -163l163 163l10 -10l-163 -163l163 -164l-10 -10l-163 163z" />
    <glyph glyph-name="divide.osf" horiz-adv-x="541" 
d="M271 356q-17 0 -28.5 11.5t-11.5 28.5t11.5 28.5t28.5 11.5t28.5 -11.5t11.5 -28.5t-11.5 -28.5t-28.5 -11.5zM50 244v15h441v-15h-441zM271 68q-17 0 -28.5 11.5t-11.5 28.5t11.5 28.5t28.5 11.5t28.5 -11.5t11.5 -28.5t-11.5 -28.5t-28.5 -11.5z" />
    <glyph glyph-name="equal.osf" horiz-adv-x="500" 
d="M50 335v15h400v-15h-400zM50 157v15h400v-15h-400z" />
    <glyph glyph-name="notequal.osf" horiz-adv-x="500" 
d="M145 50l-13 7l55 100h-137v15h146l92 163h-238v15h246l57 103l13 -7l-53 -96h137v-15h-145l-92 -163h237v-15h-246z" />
    <glyph glyph-name="greater.osf" horiz-adv-x="483" 
d="M56 70l-6 14l364 169l-364 170l6 13l377 -175v-15z" />
    <glyph glyph-name="less.osf" horiz-adv-x="483" 
d="M427 70l-377 176v15l377 175l6 -13l-364 -170l364 -169z" />
    <glyph glyph-name="greaterequal.osf" horiz-adv-x="540" 
d="M80 174l-5 14l351 115l-351 115l5 15l374 -123v-13zM50 36v15h440v-15h-440z" />
    <glyph glyph-name="lessequal.osf" horiz-adv-x="540" 
d="M461 174l-375 123v13l375 123l5 -15l-352 -115l352 -115zM50 36v15h440v-15h-440z" />
    <glyph glyph-name="plusminus.osf" horiz-adv-x="500" 
d="M242 130v167h-192v15h192v163h15v-163h193v-15h-193v-167h-15zM50 39v15h400v-15h-400z" />
    <glyph glyph-name="approxequal.osf" horiz-adv-x="542" 
d="M384 303q-42 0 -114 30.5t-112 30.5q-58 0 -96 -56l-12 8q41 63 108 63q42 0 114.5 -30.5t112.5 -30.5q55 0 95 56l12 -8q-39 -63 -108 -63zM384 129q-42 0 -114 30.5t-112 30.5q-56 0 -96 -56l-12 8q41 63 108 63q42 0 114.5 -30.5t112.5 -30.5q57 0 95 56l12 -8
q-39 -63 -108 -63z" />
    <glyph glyph-name="asciitilde.osf" horiz-adv-x="542" 
d="M384 210q-42 0 -114.5 30.5t-112.5 30.5q-57 0 -95 -56l-12 8q39 63 108 63q42 0 114 -30.5t112 -30.5q56 0 96 56l12 -8q-41 -63 -108 -63z" />
    <glyph glyph-name="logicalnot.osf" horiz-adv-x="515" 
d="M450 36v211h-400v15h415v-226h-15z" />
    <glyph glyph-name="asciicircum.osf" horiz-adv-x="467" 
d="M63 315l-13 5l176 385h16l175 -385l-13 -5l-170 374z" />
    <glyph glyph-name="infinity.osf" horiz-adv-x="762" 
d="M182 114q-57 0 -94.5 41.5t-37.5 99.5t37.5 99.5t94.5 41.5q17 0 32.5 -3t31.5 -12t26.5 -14.5t28.5 -22t24.5 -23t28.5 -29t27 -27.5q5 5 27 28t28.5 28.5t25 22.5t28.5 22.5t26.5 14.5t32 12t32.5 3q57 0 94 -41.5t37 -99.5t-37 -99.5t-94 -41.5q-13 0 -25.5 2t-25 7.5
t-22 9t-23 14t-20 15t-21.5 19t-19.5 19.5t-22 23t-21.5 22q-6 -6 -21.5 -22.5t-21.5 -22.5t-20 -19.5t-21.5 -19t-20 -15.5t-22 -14t-22 -9t-25 -7t-25.5 -2zM182 129q14 0 27.5 3t24 6.5t25 13.5t22 15t23 19.5t21.5 20.5t24 24.5t23 23.5q-7 7 -31 31.5t-31.5 32
t-27.5 24t-32.5 22t-31 11.5t-36.5 6q-51 0 -84 -37t-33 -90t33 -89.5t84 -36.5zM580 129q52 0 85 36.5t33 89.5t-33.5 90t-84.5 37q-16 0 -30.5 -3t-30 -11.5t-25.5 -14t-26.5 -21.5t-24 -22.5t-27.5 -27.5t-26 -27q8 -8 27 -27.5t27 -27l24 -22.5t26.5 -21t25.5 -14
t29.5 -11t30.5 -3z" />
    <glyph glyph-name="bar.case" horiz-adv-x="217" 
d="M101 -165v987h15v-987h-15z" />
    </font>
</defs>
</svg>
