<?xml version="1.0" standalone="no"?>
<!DOCTYPE svg PUBLIC "-//W3C//DTD SVG 1.1//EN" "http://www.w3.org/Graphics/SVG/1.1/DTD/svg11.dtd" >
<svg xmlns="http://www.w3.org/2000/svg" xmlns:xlink="http://www.w3.org/1999/xlink" version="1.1">
<metadata>
Created by FontForge 20170731 at Thu Nov 21 15:06:29 2019
 By Aleksey,,,
Copyright (c) 2019 Schick Toikka. All rights reserved. Saol Display is a trademark of Schick Toikka. Unauthorised copying or modification of any of its data is illegal.
</metadata>
<defs>
<font id="SaolDisplay-Medium" horiz-adv-x="294" >
  <font-face 
    font-family="Saol Display Medium"
    font-weight="500"
    font-stretch="normal"
    units-per-em="1000"
    panose-1="0 0 6 0 0 0 0 0 0 0"
    ascent="750"
    descent="-250"
    x-height="490"
    cap-height="681"
    bbox="-225 -250 1180 1068"
    underline-thickness="50"
    underline-position="-200"
    unicode-range="U+0020-FB02"
  />
<missing-glyph horiz-adv-x="588" 
d="M541 -226h-494v1002h494v-1002zM294 288l229 477h-458zM58 754v-958l229 479zM530 -204v958l-229 -479zM523 -215l-229 477l-229 -477h458z" />
    <glyph glyph-name="fi" unicode="fi" horiz-adv-x="584" 
d="M264 0h-40q-16 0 -44.5 1.5t-46.5 1.5q-17 0 -42.5 -1.5t-39.5 -1.5h-25v8h3q31 0 41.5 14t10.5 48v342q0 33 7 68h-73v10h75q20 67 58 111q85 98 211 98q44 0 72 -12t28 -34q0 -17 -11 -27t-29 -10q-24 0 -73.5 24.5t-77.5 24.5q-38 0 -61 -27t-23 -84v-64h137v-10h-137
v-410q0 -32 13.5 -47t46.5 -15h20v-8zM559 0h-25q-13 0 -38.5 1.5t-42.5 1.5t-42.5 -1.5t-39.5 -1.5h-25v8h3q31 0 41.5 14t10.5 48v320q0 33 -10.5 47t-41.5 14h-3v8h20q38 0 79.5 12t51.5 30h7v-431q0 -34 10.5 -48t42.5 -14h2v-8z" />
    <glyph glyph-name="fl" unicode="fl" horiz-adv-x="578" 
d="M321 480h-137v-410q0 -32 13.5 -47t46.5 -15h20v-8h-40q-16 0 -44.5 1.5t-46.5 1.5q-17 0 -42.5 -1.5t-39.5 -1.5h-25v8h3q31 0 41.5 14t10.5 48v343q0 20 5 67h-71v10h73q17 94 71 149.5t142 55.5q55 0 99 -36q85 36 90 64h7v-654q0 -33 11 -47t42 -14h3v-8h-26
q-13 0 -38.5 1.5t-42.5 1.5t-42.5 -1.5t-39.5 -1.5h-25v8h3q31 0 42 14t11 47v581q-45 35 -94 35q-117 0 -117 -161v-34h137v-10z" />
    <glyph glyph-name="fb" unicode="fb" horiz-adv-x="865" 
d="M264 0h-40q-16 0 -44.5 1.5t-46.5 1.5q-17 0 -42.5 -1.5t-39.5 -1.5h-25v8h3q31 0 41.5 14t10.5 48v343q0 20 5 67h-71v10h73q17 94 71 149.5t141 55.5q55 0 97 -36q85 36 90 64h7v-284q67 59 143 59q77 0 132.5 -62t55.5 -191t-55.5 -191t-132.5 -62q-76 0 -147 62
q-86 -34 -91 -64h-7v660q-41 35 -92 35q-60 0 -88 -40t-28 -121v-34h137v-10h-137v-410q0 -32 13.5 -47t46.5 -15h20v-8zM623 5q29 0 46.5 15.5t29.5 70t12 154.5t-12 154.5t-29.5 70t-46.5 15.5q-64 0 -129 -59v-362q65 -59 129 -59z" />
    <glyph glyph-name="fh" unicode="fh" horiz-adv-x="869" 
d="M321 480h-137v-410q0 -32 13.5 -47t46.5 -15h20v-8h-40q-16 0 -44.5 1.5t-46.5 1.5q-17 0 -42.5 -1.5t-39.5 -1.5h-25v8h3q31 0 41.5 14t10.5 48v343q0 20 5 67h-71v10h73q17 94 71 149.5t142 55.5q55 0 99 -36q85 36 90 64h7v-298l110 42q79 31 119 31q66 0 66 -74v-354
q0 -34 11 -48t42 -14h3v-8h-26q-13 0 -38.5 1.5t-42.5 1.5t-42.5 -1.5t-39.5 -1.5h-25v8h3q31 0 42 14t11 48v354q0 44 -35 44q-16 0 -72 -20l-86 -33v-346q0 -33 11 -47t42 -14h3v-8h-26q-13 0 -38.5 1.5t-42.5 1.5t-42.5 -1.5t-39.5 -1.5h-25v8h3q31 0 42 14t11 47v581
q-45 35 -94 35q-117 0 -117 -161v-34h137v-10z" />
    <glyph glyph-name="fj" unicode="fj" horiz-adv-x="571" 
d="M264 0h-40q-16 0 -44.5 1.5t-46.5 1.5q-17 0 -42.5 -1.5t-39.5 -1.5h-25v8h3q31 0 41.5 14t10.5 48v342q0 33 7 68h-73v10h75q20 67 58 111q85 98 211 98q44 0 72 -12t28 -34q0 -17 -11 -27t-29 -10q-24 0 -73.5 24.5t-77.5 24.5q-38 0 -61 -27t-23 -84v-64h137v-10h-137
v-410q0 -32 13.5 -47t46.5 -15h20v-8zM277 -235q-22 0 -35.5 10t-13.5 26t11 26t28 10q20 0 49 -15.5t40 -15.5q22 0 33 14t11 48v522q0 33 -11 47t-42 14h-3v8h20q38 0 80 12t51 30h7v-456q0 -102 -63 -185q-72 -95 -162 -95z" />
    <glyph glyph-name="fk" unicode="fk" horiz-adv-x="881" 
d="M321 480h-137v-410q0 -32 13.5 -47t46.5 -15h20v-8h-40q-16 0 -44.5 1.5t-46.5 1.5q-17 0 -42.5 -1.5t-39.5 -1.5h-25v8h3q31 0 41.5 14t10.5 48v343q0 20 5 67h-71v10h73q17 94 71 149.5t142 55.5q55 0 99 -36q85 36 90 64h7v-531l79 83l-21 42q12 0 30 -1t32 0l65 67
q37 39 37 64q0 35 -49 35h-4v8h15q11 0 36.5 -1.5t42.5 -1.5q18 0 43 1.5t36 1.5h18v-8h-2q-64 0 -165 -103l-60 -63q3 0 16 0.5t21 0.5l128 -253q17 -31 32.5 -43.5t42.5 -12.5h2v-8h-24q-10 0 -35.5 1.5t-43.5 1.5t-43.5 -1.5t-35.5 -1.5h-33v8h3q39 0 39 21q0 10 -8 25
l-110 212l-84 -88v-109q0 -33 11 -47t42 -14h3v-8h-26q-13 0 -38.5 1.5t-42.5 1.5t-42.5 -1.5t-39.5 -1.5h-25v8h3q31 0 42 14t11 47v581q-45 35 -94 35q-117 0 -117 -161v-34h137v-10z" />
    <glyph glyph-name=".notdef" horiz-adv-x="588" 
d="M541 -226h-494v1002h494v-1002zM294 288l229 477h-458zM58 754v-958l229 479zM530 -204v958l-229 -479zM523 -215l-229 477l-229 -477h458z" />
    <glyph glyph-name=".null" horiz-adv-x="0" 
 />
    <glyph glyph-name="nonmarkingreturn" horiz-adv-x="333" 
 />
    <glyph glyph-name="space" unicode=" " horiz-adv-x="186" 
 />
    <glyph glyph-name="exclam" unicode="!" horiz-adv-x="255" 
d="M133 232h-10v32q0 60 -26.5 184.5t-26.5 171.5q0 31 16.5 49.5t41.5 18.5q27 0 43 -18t16 -50q0 -47 -27 -171.5t-27 -184.5v-32zM128 -8q-27 0 -46.5 19t-19.5 46q0 26 19.5 45t46.5 19q26 0 45.5 -19t19.5 -45q0 -27 -19.5 -46t-45.5 -19z" />
    <glyph glyph-name="quotedbl" unicode="&#x22;" horiz-adv-x="340" 
d="M96 433h-8q-1 54 -12.5 94.5t-22.5 66t-11 43.5q0 26 13.5 40t35.5 14q23 0 37 -14t14 -40q0 -18 -11 -43.5t-22.5 -66t-12.5 -94.5zM252 433h-8q-1 54 -12.5 94.5t-22.5 66t-11 43.5q0 26 13.5 40t35.5 14q23 0 37 -14t14 -40q0 -18 -11 -43.5t-22.5 -66t-12.5 -94.5z
" />
    <glyph glyph-name="numbersign" unicode="#" horiz-adv-x="596" 
d="M104 455v11h135l58 203l11 -3l-57 -200h156l58 203l11 -3l-57 -200h133v-11h-136l-68 -232h133v-11h-136l-58 -203l-11 3l57 200h-156l-58 -203l-11 3l57 200h-132v11h135l68 232h-132zM248 455l-68 -232h156l68 232h-156z" />
    <glyph glyph-name="dollar" unicode="$" horiz-adv-x="543" 
d="M281 -72h-11v71q-88 3 -157 42t-69 97q0 20 12 32t29 12q34 0 46 -38q13 -40 17 -51q17 -41 45.5 -61.5t76.5 -22.5v289l-60 18q-143 43 -143 180q0 81 57 133t146 52v72h11v-72q73 -2 134 -40.5t61 -91.5q0 -18 -12 -29.5t-28 -11.5q-33 0 -44 37q-9 32 -14 44
q-17 43 -38.5 62t-58.5 20v-254l58 -16q158 -43 158 -189q0 -100 -65 -156.5t-147 -56.5h-4v-71zM122 552q0 -47 29 -75t93 -48l26 -9v251q-72 0 -110 -34t-38 -85zM432 148q0 57 -33 90t-101 52l-17 5v-286h3q69 0 108.5 40t39.5 99z" />
    <glyph glyph-name="percent" unicode="%" horiz-adv-x="703" 
d="M199 346q-68 0 -109 47.5t-41 123.5q0 75 41 123t109 48q50 0 86 -33q49 -46 103 -46q34 0 80.5 20.5t80.5 58.5l9 -6l-389 -691l-9 5l372 662q-28 -25 -67.5 -42.5t-76.5 -17.5q-42 0 -80 25q26 -44 26 -106q0 -75 -36 -123t-99 -48zM203 356q54 0 87 44.5t33 116.5
q0 71 -33 116t-87 45q-42 0 -55 -37t-13 -124q0 -88 13 -124.5t55 -36.5zM516 -8q-68 0 -109 47.5t-41 123.5q0 75 41 123t109 48q63 0 98.5 -48t35.5 -123t-35.5 -123t-98.5 -48zM519 2q54 0 87 44.5t33 116.5q0 71 -33 116t-87 45q-42 0 -55 -37.5t-13 -123.5
q0 -87 13 -124t55 -37z" />
    <glyph glyph-name="ampersand" unicode="&#x26;" horiz-adv-x="791" 
d="M272 -10q-96 0 -155 55t-59 141q0 82 54.5 134t132.5 70q-38 19 -63.5 56.5t-25.5 82.5q0 76 56.5 119t123.5 43q76 0 132.5 -33.5t56.5 -77.5q0 -18 -11.5 -28.5t-27.5 -10.5q-34 0 -49 50q-28 89 -106 89q-47 0 -80.5 -25.5t-33.5 -68.5t33.5 -72.5t96.5 -54.5
q85 -34 127 -75t58 -122l35 56q63 103 137 103q21 0 35 -11t14 -29q0 -41 -50 -41q-16 0 -39.5 7.5t-35.5 7.5q-27 0 -54 -45l-38 -63q2 -6 4.5 -19.5t3.5 -19.5q22 -98 51 -136.5t75 -38.5q55 0 82 72l8 -2q-13 -45 -49.5 -78t-97.5 -33q-115 0 -155 130
q-76 -132 -186 -132zM277 2q99 0 176 134q-14 57 -25 93q-16 52 -41.5 79.5t-75.5 50.5q-28 13 -55 24q-42 -15 -65.5 -64t-23.5 -124q0 -193 110 -193z" />
    <glyph glyph-name="quotesingle" unicode="'" horiz-adv-x="184" 
d="M96 433h-8q-1 54 -12.5 94.5t-22.5 66t-11 43.5q0 26 13.5 40t35.5 14q23 0 37 -14t14 -40q0 -18 -11 -43.5t-22.5 -66t-12.5 -94.5z" />
    <glyph glyph-name="parenleft" unicode="(" horiz-adv-x="317" 
d="M155 276q0 -341 154 -444l-4 -7q-116 68 -181.5 190.5t-65.5 260.5t65.5 261t181.5 191l4 -7q-154 -104 -154 -445z" />
    <glyph glyph-name="parenright" unicode=")" horiz-adv-x="317" 
d="M162 276q0 341 -154 445l4 7q116 -68 181.5 -191t65.5 -261t-65.5 -260.5t-181.5 -190.5l-4 7q154 103 154 444z" />
    <glyph glyph-name="asterisk" unicode="*" horiz-adv-x="392" 
d="M196 729q14 0 24.5 -10t10.5 -25q0 -19 -15.5 -58.5t-16.5 -67.5q22 14 48 47.5t44 43.5q10 5 19 5q14 0 24 -10.5t10 -24.5q0 -19 -17 -30q-16 -11 -59 -17t-67 -19q24 -13 67 -19t59 -16q17 -11 17 -29q0 -14 -9.5 -25t-23.5 -11q-11 0 -20 6q-16 10 -42.5 42t-49.5 47
q1 -28 16.5 -67.5t15.5 -58.5q0 -15 -10.5 -25t-24.5 -10t-24.5 10t-10.5 25q0 19 15.5 58.5t16.5 67.5q-23 -15 -49.5 -47t-42.5 -42q-9 -6 -20 -6q-14 0 -23.5 11t-9.5 25q0 18 17 29q16 10 59 16t67 19q-24 13 -67 19t-59 17q-17 11 -17 30q0 14 10 24.5t24 10.5
q9 0 19 -5q18 -10 44 -43.5t48 -47.5q-1 28 -16.5 67.5t-15.5 58.5q0 15 10.5 25t24.5 10z" />
    <glyph glyph-name="plus" unicode="+" horiz-adv-x="534" 
d="M272 103h-11v214h-214v11h214v215h11v-215h215v-11h-215v-214z" />
    <glyph glyph-name="comma" unicode="," horiz-adv-x="240" 
d="M113 -6q-27 0 -44.5 17.5t-17.5 44.5q0 26 18.5 45t47.5 19q30 0 51 -23.5t21 -58.5q0 -63 -34.5 -104.5t-78.5 -50.5l-2 8q39 9 70 46t31 85q0 7 -1 12q-18 -40 -61 -40z" />
    <glyph glyph-name="hyphen" unicode="-" horiz-adv-x="310" 
d="M249 254h-188v55h188v-55z" />
    <glyph glyph-name="period" unicode="." horiz-adv-x="233" 
d="M117 -8q-27 0 -46.5 19t-19.5 46q0 26 19.5 45t46.5 19q26 0 45.5 -19t19.5 -45q0 -27 -19.5 -46t-45.5 -19z" />
    <glyph glyph-name="slash" unicode="/" horiz-adv-x="353" 
d="M331 721l-300 -893l-10 4l300 893z" />
    <glyph glyph-name="zero" unicode="0" horiz-adv-x="613" 
d="M306 -10q-112 0 -187 98.5t-75 252.5t75 252t187 98q113 0 187.5 -98t74.5 -252q0 -155 -74.5 -253t-187.5 -98zM306 0q37 0 63 16t41.5 42.5t24.5 72.5t11.5 93.5t2.5 116.5q0 57 -2 98.5t-7 82.5t-15 68t-25.5 49t-39 32t-54.5 10q-37 0 -63 -16t-41 -42.5t-24 -72
t-11.5 -93t-2.5 -116.5t2.5 -116.5t11.5 -93.5t24 -72.5t41 -42.5t63 -16z" />
    <glyph glyph-name="one" unicode="1" horiz-adv-x="334" 
d="M285 0h-29q-13 0 -38.5 1.5t-41.5 1.5t-42 -1.5t-39 -1.5h-51v9h17q32 0 46.5 14t14.5 48v457q0 35 -23 35q-15 0 -37 -11l-22 -11l-5 9q67 33 119.5 72.5t66.5 67.5h7v-617q0 -35 12.5 -49.5t42.5 -14.5h2v-9z" />
    <glyph glyph-name="two" unicode="2" horiz-adv-x="505" 
d="M461 95l-33 -163l-7 1q0 39 -14 53t-52 14h-346v5l130 144q106 117 154 205.5t48 182.5q0 78 -22 111t-67 33q-47 0 -72.5 -32.5t-44.5 -99.5q-12 -46 -47 -46q-19 0 -31.5 12t-12.5 33q0 49 66 96t146 47q86 0 145.5 -44.5t59.5 -123.5q0 -53 -34 -108.5t-74 -92
t-105 -92t-95 -85.5l-50 -50h358z" />
    <glyph glyph-name="three" unicode="3" horiz-adv-x="543" 
d="M261 -10q-102 0 -168.5 52.5t-66.5 113.5q0 20 13 33.5t30 13.5q38 0 48 -49q34 -154 141 -154q126 0 126 203q0 93 -16.5 132t-56.5 39q-19 0 -49 -15l-73 -36l-5 9l84 43q44 23 60.5 57.5t16.5 108.5q0 71 -18 105.5t-69 34.5q-85 0 -116 -130q-12 -48 -50 -48
q-17 0 -29 12.5t-12 32.5q0 49 65.5 96t144.5 47q84 0 141 -40t57 -105q0 -49 -41 -90.5t-111 -70.5q33 1 66 -8.5t63 -29.5t48.5 -56.5t18.5 -84.5q0 -97 -75.5 -156.5t-166.5 -59.5z" />
    <glyph glyph-name="four" unicode="4" horiz-adv-x="539" 
d="M502 195h-115v-122q0 -35 12 -49.5t42 -14.5h2v-9h-29q-14 0 -39.5 1.5t-41.5 1.5t-43.5 -1.5t-39.5 -1.5h-53v9h15q37 0 52.5 14t15.5 48v124h-275v7l285 478q8 0 23 -0.5t22 -0.5q5 0 23 0.5t29 0.5v-474h5q19 0 35.5 9t35 33.5t30 43.5t36.5 63l6 -2zM280 206v435
l-259 -435h259z" />
    <glyph glyph-name="five" unicode="5" horiz-adv-x="532" 
d="M248 -10q-83 0 -147.5 47t-64.5 95q0 21 12 33.5t30 12.5q39 0 50 -46q32 -132 115 -132q70 0 98.5 56.5t28.5 167.5q0 112 -23.5 160.5t-85.5 48.5q-49 0 -102 -28.5t-77 -76.5l-10 3q49 350 50 350h255q39 0 57 8.5t30 33.5l7 -2l-30 -135h-322l-32 -230q26 38 77 63
t100 25q100 0 162.5 -56.5t62.5 -160.5q0 -105 -71 -171t-170 -66z" />
    <glyph glyph-name="six" unicode="6" horiz-adv-x="565" 
d="M288 -10q-41 0 -81 15.5t-78 48.5t-61.5 95.5t-23.5 146.5q0 153 118 265t288 131l1 -10q-246 -38 -282 -302q59 64 147 64q35 0 69 -11.5t66 -35t52 -66.5t20 -100q0 -111 -72.5 -176t-162.5 -65zM288 0q117 0 117 229q0 201 -105 201q-33 0 -69 -17.5t-63 -48.5
q-4 -38 -4 -67q0 -117 15.5 -184t41.5 -90t67 -23z" />
    <glyph glyph-name="seven" unicode="7" horiz-adv-x="468" 
d="M251 51q0 -29 -16.5 -46t-41.5 -17q-26 0 -43 16.5t-17 44.5q0 63 22 132.5t69 148t79.5 126t93.5 130.5h-258q-44 0 -66.5 -15t-39.5 -56l-7 1l43 206l7 -1q1 -24 15.5 -32t42.5 -8h337v-4q-109 -156 -141 -220q-65 -128 -76 -303q-3 -47 -3 -103z" />
    <glyph glyph-name="eight" unicode="8" horiz-adv-x="546" 
d="M274 -10q-107 0 -171.5 50t-64.5 134q0 56 39 101.5t106 69.5q-53 24 -83.5 66t-30.5 95q0 82 59 133.5t144 51.5q82 0 139 -41t57 -110q0 -99 -111 -144q77 -34 114.5 -79.5t37.5 -116.5q0 -94 -66.5 -152t-168.5 -58zM394 544q0 137 -123 137q-57 0 -91 -32.5
t-34 -83.5q0 -85 103 -126l95 -39q24 19 37 59.5t13 84.5zM275 0q71 0 109 41.5t38 107.5q0 102 -122 149l-106 42q-33 -20 -51 -65t-18 -93q0 -78 37 -130t113 -52z" />
    <glyph glyph-name="nine" unicode="9" horiz-adv-x="565" 
d="M277 691q41 0 80.5 -15.5t77.5 -48.5t61.5 -95.5t23.5 -146.5q0 -153 -118 -265t-287 -131l-1 10q246 38 282 302q-59 -64 -147 -64q-35 0 -69.5 11.5t-66.5 35t-51.5 66.5t-19.5 100q0 111 72 176t163 65zM277 681q-117 0 -117 -229q0 -201 105 -201q33 0 68.5 17.5
t63.5 48.5q4 38 4 67q0 117 -15.5 184t-41.5 90t-67 23z" />
    <glyph glyph-name="colon" unicode=":" horiz-adv-x="233" 
d="M117 337q-27 0 -46.5 19t-19.5 46q0 26 19.5 45t46.5 19q26 0 45.5 -19t19.5 -45q0 -27 -19.5 -46t-45.5 -19zM117 -8q-27 0 -46.5 19t-19.5 46q0 26 19.5 45t46.5 19q26 0 45.5 -19t19.5 -45q0 -27 -19.5 -46t-45.5 -19z" />
    <glyph glyph-name="semicolon" unicode=";" horiz-adv-x="240" 
d="M117 337q-27 0 -46.5 19t-19.5 46q0 26 19.5 45t46.5 19q26 0 45.5 -19t19.5 -45q0 -27 -19.5 -46t-45.5 -19zM113 -6q-27 0 -44.5 17.5t-17.5 44.5q0 26 18.5 45t47.5 19q30 0 51 -23.5t21 -58.5q0 -63 -34.5 -104.5t-78.5 -50.5l-2 8q39 9 70 46t31 85q0 7 -1 12
q-18 -40 -61 -40z" />
    <glyph glyph-name="less" unicode="&#x3c;" horiz-adv-x="473" 
d="M46 329l375 174l5 -10l-368 -170l368 -170l-5 -10l-375 174v12z" />
    <glyph glyph-name="equal" unicode="=" horiz-adv-x="494" 
d="M47 408v11h400v-11h-400zM47 228v11h400v-11h-400z" />
    <glyph glyph-name="greater" unicode="&#x3e;" horiz-adv-x="473" 
d="M52 503l375 -174v-12l-375 -174l-5 10l368 170l-368 170z" />
    <glyph glyph-name="question" unicode="?" horiz-adv-x="364" 
d="M157 232h-10v200q66 13 103 55.5t37 85.5q0 29 -18 47t-48 18q-32 0 -74.5 -26t-60.5 -26q-20 0 -32.5 13t-12.5 33q0 56 84 56q86 0 143 -52.5t57 -128.5q0 -62 -44 -110.5t-124 -73.5v-91zM152 -8q-27 0 -46.5 19t-19.5 46q0 26 19.5 45t46.5 19t46 -19t19 -45
q0 -27 -19 -46t-46 -19z" />
    <glyph glyph-name="at" unicode="@" horiz-adv-x="837" 
d="M435 -145q-161 0 -272 113t-111 277q0 161 111.5 276.5t269.5 115.5q146 0 249 -92t103 -238q0 -66 -31.5 -132.5t-89.5 -112t-124 -45.5q-40 0 -67 22.5t-27 61.5q0 42 27 107l66 157l-148 -222q-82 -125 -144 -125q-28 0 -44.5 17.5t-16.5 49.5q0 51 40.5 141t86.5 150
q73 96 145 96q58 0 99 -65q83 18 110 69l6 -3l-117 -289q-31 -74 -31 -109q0 -41 36 -41q79 0 146 87.5t67 185.5q0 140 -100.5 229.5t-240.5 89.5q-154 0 -262 -112t-108 -269q0 -160 107.5 -269.5t264.5 -109.5q108 0 201 56.5t131 152.5l9 -4q-38 -100 -134 -158
t-207 -58zM303 66q24 0 79 82l168 251q-33 57 -69 57q-24 0 -46.5 -21.5t-55.5 -79.5q-35 -62 -63.5 -145.5t-28.5 -118.5q0 -25 16 -25z" />
    <glyph glyph-name="A" unicode="A" horiz-adv-x="659" 
d="M673 0h-32q-10 0 -39 1.5t-44 1.5q-17 0 -47 -1.5t-39 -1.5h-32v9q23 0 36 10t13 26q0 17 -9 36l-43 107h-305l-18 -45q-14 -38 -14 -65q0 -31 20.5 -50t56.5 -19v-9h-13q-13 0 -45.5 1.5t-46.5 1.5q-10 0 -40.5 -1.5t-41.5 -1.5h-19v9q39 1 72 35t62 108l171 433l-39 96
q11 0 31.5 -0.5t30.5 -0.5q11 0 29 0.5t27 0.5l245 -606q14 -35 30.5 -50.5t42.5 -15.5v-9zM282 572l-146 -373h296z" />
    <glyph glyph-name="B" unicode="B" horiz-adv-x="638" 
d="M600 176q0 -87 -69.5 -131.5t-177.5 -44.5h-96q-19 0 -55 0.5t-54 0.5q-17 0 -43 -0.5t-39 -0.5h-30v9h3q30 0 42 14.5t12 49.5v536q0 35 -12 49t-42 14h-3v9h30q13 0 39 -0.5t43 -0.5q21 0 54 0.5t51 0.5h76q103 0 168.5 -44.5t65.5 -123.5q0 -69 -52 -114t-137 -53
q100 -1 163 -43.5t63 -126.5zM449 512q0 81 -28.5 119.5t-100.5 38.5h-118v-320h124q70 0 96.5 41t26.5 121zM480 177q0 89 -32.5 125.5t-103.5 36.5h-142v-328h141q75 0 106 38t31 128z" />
    <glyph glyph-name="C" unicode="C" horiz-adv-x="627" 
d="M324 -8q-123 0 -207 99t-84 252q0 82 28 150.5t73 110.5t97 64.5t103 22.5q33 0 80.5 -9.5t58.5 -9.5q35 0 35 31l7 2l80 -246l-7 -3q-70 128 -131 176.5t-123 48.5q-85 0 -145.5 -69.5t-60.5 -188.5q0 -162 78 -260.5t187 -98.5q135 0 198 137l8 -3q-35 -89 -108 -147.5
t-167 -58.5z" />
    <glyph glyph-name="D" unicode="D" horiz-adv-x="661" 
d="M628 340q0 -159 -88.5 -249.5t-222.5 -90.5h-64q-18 0 -51 0.5t-54 0.5q-17 0 -43 -0.5t-39 -0.5h-30v9h3q30 0 42 14.5t12 49.5v536q0 35 -12 49t-42 14h-3v9h30q13 0 39 -0.5t43 -0.5q21 0 54 0.5t51 0.5h64q134 0 222.5 -91t88.5 -250zM506 340q0 180 -45 255t-161 75
h-98v-659h98q116 0 161 75t45 254z" />
    <glyph glyph-name="E" unicode="E" horiz-adv-x="626" 
d="M508 -32l-7 2q2 30 -38 30h-222q-15 0 -45 0.5t-48 0.5q-17 0 -43 -0.5t-39 -0.5h-30v9h3q30 0 42 14.5t12 49.5v536q0 35 -12 49t-42 14h-3v9h30q13 0 39 -0.5t43 -0.5q18 0 53 0.5t51 0.5h202q21 0 30.5 7.5t8.5 22.5l7 2l84 -239l-7 -3q-97 135 -127 166
q-20 20 -40 26.5t-52 6.5h-156v-319h108q55 0 75.5 33.5t28.5 103.5h9v-288h-9q-8 70 -28.5 105t-75.5 35h-108v-329h164q34 0 53.5 6.5t41.5 30.5q46 49 133 181l7 -3z" />
    <glyph glyph-name="F" unicode="F" horiz-adv-x="584" 
d="M424 194h-8q-8 70 -28.5 105t-75.5 35h-110v-261q0 -34 17.5 -49t57.5 -15h22v-9h-48q-15 0 -48 1.5t-52 1.5q-17 0 -44.5 -1.5t-40.5 -1.5h-30v9h3q29 0 41.5 14.5t12.5 49.5v536q0 34 -12.5 48.5t-41.5 14.5h-3v9h30q13 0 39 -0.5t43 -0.5q16 0 47.5 0.5t44.5 0.5h207
q41 0 39 30l7 2l84 -239l-7 -3q-93 130 -127 166q-33 33 -93 33h-148v-325h110q55 0 75.5 33.5t28.5 103.5h8v-288z" />
    <glyph glyph-name="G" unicode="G" horiz-adv-x="674" 
d="M600 229v-239h-7q-7 45 -95 68q-68 -66 -172 -66q-122 0 -207.5 96t-85.5 245q0 94 31 167t80 112.5t100.5 59t101.5 19.5q41 0 88 -9.5t56 -9.5q37 0 37 31l7 2l80 -246l-7 -3q-70 125 -130 175t-131 50q-85 0 -138.5 -79.5t-53.5 -253.5q0 -167 52 -253t149 -86
q40 0 77.5 18t59.5 40v162q0 35 -12.5 49t-42.5 14h-2v9h29q13 0 39.5 -1.5t42.5 -1.5t42.5 1.5t39.5 1.5h30v-9h-3q-30 0 -42.5 -14t-12.5 -49z" />
    <glyph glyph-name="H" unicode="H" horiz-adv-x="725" 
d="M631 73q0 -35 12.5 -49.5t42.5 -14.5h2v-9h-29q-13 0 -39.5 1.5t-42.5 1.5t-42.5 -1.5t-39.5 -1.5h-29v9h2q30 0 42.5 14.5t12.5 49.5v268h-321v-268q0 -35 12 -49.5t42 -14.5h3v-9h-30q-12 0 -38.5 1.5t-42.5 1.5q-17 0 -43 -1.5t-39 -1.5h-30v9h3q30 0 42 14.5t12 49.5
v536q0 35 -12 49t-42 14h-3v9h30q13 0 39 -1.5t43 -1.5q16 0 42.5 1.5t38.5 1.5h30v-9h-3q-30 0 -42 -14t-12 -49v-257h321v257q0 34 -12.5 48.5t-42.5 14.5h-2v9h29q13 0 39.5 -1.5t42.5 -1.5t42.5 1.5t39.5 1.5h29v-9h-2q-30 0 -42.5 -14.5t-12.5 -48.5v-536z" />
    <glyph glyph-name="I" unicode="I" horiz-adv-x="295" 
d="M202 73q0 -35 12 -49.5t42 -14.5h3v-9h-30q-12 0 -38.5 1.5t-43.5 1.5q-16 0 -42 -1.5t-39 -1.5h-30v9h3q30 0 42 14.5t12 49.5v536q0 35 -12 49t-42 14h-3v9h30q13 0 39 -1.5t42 -1.5q17 0 43.5 1.5t38.5 1.5h30v-9h-3q-30 0 -42 -14t-12 -49v-536z" />
    <glyph glyph-name="J" unicode="J" horiz-adv-x="315" 
d="M228 199q0 -78 -23 -141t-60 -100.5t-79.5 -57t-86.5 -19.5q-22 0 -35.5 11t-13.5 30q0 18 11.5 29.5t30.5 11.5t52.5 -21t48.5 -21q46 0 46 88v600q0 35 -12 49t-42 14h-2v9h29q13 0 39.5 -1.5t42.5 -1.5t42.5 1.5t39.5 1.5h29v-9h-2q-30 0 -42.5 -14.5t-12.5 -48.5
v-410z" />
    <glyph glyph-name="K" unicode="K" horiz-adv-x="682" 
d="M685 0h-45q-9 0 -37.5 1.5t-45.5 1.5q-16 0 -44.5 -1.5t-37.5 -1.5h-41v9h10q39 0 39 29q0 15 -11 32l-159 285l-111 -131v-151q0 -35 12 -49.5t42 -14.5h3v-9h-30q-12 0 -38.5 1.5t-42.5 1.5q-17 0 -43 -1.5t-39 -1.5h-30v9h3q30 0 42 14.5t12 49.5v536q0 35 -12 49
t-42 14h-3v9h30q13 0 39 -1.5t43 -1.5q16 0 42.5 1.5t38.5 1.5h30v-9h-3q-30 0 -42 -14t-12 -49v-368l105 124l-27 48q2 0 34 -0.5t34 0.5l124 147q36 43 36 71q0 21 -14.5 31t-48.5 10v9h22q14 0 42 -1.5t41 -1.5q16 0 44 1.5t39 1.5h22v-9q-75 0 -174 -118l-119 -141
q9 0 22 0.5t18 0.5l194 -345q32 -60 89 -60v-9z" />
    <glyph glyph-name="L" unicode="L" horiz-adv-x="574" 
d="M570 241l-96 -273l-7 2q2 30 -37 30h-201q-12 0 -38.5 0.5t-42.5 0.5q-17 0 -43 -0.5t-39 -0.5h-30v9h3q30 0 42 14.5t12 49.5v536q0 35 -12 49t-42 14h-3v9h30q13 0 39 -1.5t43 -1.5q16 0 42.5 1.5t38.5 1.5h30v-9h-3q-30 0 -42 -14t-12 -49v-598h133q31 0 50.5 7
t41.5 30q29 31 136 196z" />
    <glyph glyph-name="M" unicode="M" horiz-adv-x="887" 
d="M793 73q0 -35 12.5 -49.5t42.5 -14.5h2v-9h-29q-13 0 -39.5 1.5t-42.5 1.5t-42.5 -1.5t-39.5 -1.5h-29v9h2q30 0 42.5 14.5t12.5 49.5v576l-225 -555l40 -94q-12 0 -31.5 0.5t-27.5 0.5q-9 0 -28.5 -0.5t-30.5 -0.5l-265 607v-469q0 -52 24 -90t70 -39h2v-9h-19
q-9 0 -37 1.5t-44 1.5q-17 0 -45 -1.5t-37 -1.5h-19v9h2q46 0 69 38t23 91v483q-22 51 -67 51h-7v9h26q14 0 37 -0.5t35 -0.5q16 0 40 0.5t34 0.5l250 -572l231 572q7 0 32 -1t40 -1q9 0 29 1t35 1h29v-9h-2q-30 0 -42.5 -14.5t-12.5 -48.5v-536z" />
    <glyph glyph-name="N" unicode="N" horiz-adv-x="700" 
d="M655 0q-16 0 -37.5 0.5t-26.5 0.5q-10 0 -32 -0.5t-34 -0.5l-406 597v-459q0 -53 23.5 -90.5t70.5 -38.5h2v-9h-20q-9 0 -36.5 1.5t-44.5 1.5t-45 -1.5t-37 -1.5h-19v9h2q47 0 70 38t23 91v472q-23 37 -37 49.5t-40 12.5h-4v9h21q15 0 37 -0.5t36 -0.5q17 0 38.5 0.5
t33.5 0.5l391 -571v433q0 53 -23.5 90.5t-69.5 38.5h-2v9h19q9 0 37 -1.5t44 -1.5q17 0 45 1.5t37 1.5h19v-9h-2q-46 0 -69.5 -38t-23.5 -91v-449z" />
    <glyph glyph-name="O" unicode="O" horiz-adv-x="684" 
d="M342 -10q-130 0 -219.5 99t-89.5 252t89.5 251.5t219.5 98.5t219.5 -98.5t89.5 -251.5t-89.5 -252t-219.5 -99zM342 0q187 0 187 341q0 340 -187 340t-187 -340q0 -341 187 -341z" />
    <glyph glyph-name="P" unicode="P" horiz-adv-x="594" 
d="M297 0h-46q-15 0 -48 1.5t-52 1.5q-17 0 -44.5 -1.5t-40.5 -1.5h-30v9h3q30 0 42 14.5t12 49.5v536q0 35 -12 49t-42 14h-3v9h30q13 0 39 -0.5t43 -0.5q21 0 54 0.5t51 0.5h86q111 0 176 -47t65 -136q0 -90 -65 -138t-176 -48h-137v-239q0 -35 14 -49.5t53 -14.5h28v-9z
M333 323q73 0 100.5 41t27.5 134q0 92 -27.5 132t-100.5 40h-131v-347h131z" />
    <glyph glyph-name="Q" unicode="Q" horiz-adv-x="684" 
d="M467 -235q-42 0 -88 38l-68 56q-42 35 -66 35q-30 0 -113 -49l-6 9l177 139q-117 14 -193.5 110t-76.5 238q0 153 89.5 251.5t219.5 98.5t219.5 -98.5t89.5 -251.5t-89.5 -252t-219.5 -99q-20 0 -25 1l-135 -106q95 51 137 51q34 0 68 -27l53 -43q4 -3 12.5 -10t12.5 -10
t11 -8.5t11.5 -8t11 -5.5t12.5 -4t12 -1q22 0 43 16t63 63l8 -7q-71 -78 -94 -96q-38 -30 -76 -30zM529 341q0 340 -187 340t-187 -340q0 -341 187 -341t187 341z" />
    <glyph glyph-name="R" unicode="R" horiz-adv-x="657" 
d="M657 0q-29 0 -56 1.5t-43 1.5q-12 0 -35 -1.5t-37 -1.5l-166 323h-118v-250q0 -35 12 -49.5t42 -14.5h3v-9h-30q-12 0 -38.5 1.5t-42.5 1.5q-17 0 -43 -1.5t-39 -1.5h-30v9h3q30 0 42 14.5t12 49.5v536q0 35 -12 49t-42 14h-3v9h30q13 0 39 -0.5t43 -0.5q18 0 48 0.5
t45 0.5h102q108 0 172 -47t64 -130q0 -78 -62.5 -129.5t-172.5 -51.5h-10q20 -32 45 -43.5t90 -11.5l87 -171q28 -55 47.5 -71t53.5 -17v-9zM463 503q0 84 -28.5 125.5t-99.5 41.5h-133v-336h133q70 0 99 41t29 128z" />
    <glyph glyph-name="S" unicode="S" horiz-adv-x="573" 
d="M536 196q0 -95 -65 -150.5t-149 -55.5q-43 0 -108 15.5t-73 15.5q-17 0 -25.5 -7.5t-7.5 -22.5l-7 -2l-71 244l7 3q40 -75 80 -125.5t78 -73t66.5 -30t60.5 -7.5q61 0 101 37t40 90q0 102 -154 160l-86 32q-165 62 -165 194q0 81 57 129.5t142 48.5q31 0 78.5 -9.5
t61.5 -9.5q17 0 26 7.5t8 23.5l7 2l76 -222l-7 -3q-65 113 -124 157t-126 44q-63 0 -97.5 -31t-34.5 -79q0 -49 34 -82.5t111 -61.5l89 -33q177 -67 177 -198z" />
    <glyph glyph-name="T" unicode="T" horiz-adv-x="657" 
d="M440 9v-9h-30q-12 0 -38.5 1.5t-42.5 1.5t-42.5 -1.5t-39.5 -1.5h-30v9h3q30 0 42 14.5t12 49.5v597h-72q-25 0 -38 -5.5t-30 -26.5q-39 -51 -119 -199l-7 3l69 270l7 -1q0 -30 41 -30h105q13 0 45.5 -0.5t53.5 -0.5q20 0 53 0.5t45 0.5h106q41 0 41 30l7 1l69 -270
l-7 -3q-82 150 -120 199q-16 21 -29 26.5t-39 5.5h-72v-597q0 -35 12 -49.5t43 -14.5h2z" />
    <glyph glyph-name="U" unicode="U" horiz-adv-x="637" 
d="M553 214q0 -100 -58.5 -161t-167.5 -61q-247 0 -247 224v393q0 34 -12.5 48.5t-42.5 14.5h-2v9h30q12 0 38.5 -1.5t42.5 -1.5t42.5 1.5t39.5 1.5h30v-9h-3q-30 0 -42 -14t-12 -49v-366q0 -120 41.5 -175.5t128.5 -55.5q82 0 132.5 55.5t50.5 146.5v329q0 53 -23.5 90.5
t-69.5 38.5h-2v9h19q9 0 37 -1.5t44 -1.5q17 0 45 1.5t37 1.5h19v-9h-2q-46 0 -69.5 -38t-23.5 -91v-329z" />
    <glyph glyph-name="V" unicode="V" horiz-adv-x="631" 
d="M528 528l-152 -431l36 -97q-11 0 -30.5 0.5t-29.5 0.5t-27 -0.5t-29 -0.5l-235 607q-13 34 -29 49.5t-42 15.5h-1v9h31q10 0 39.5 -1.5t45.5 -1.5q17 0 46.5 1.5t39.5 1.5h29v-9h-2q-47 0 -47 -35q0 -10 8 -36l191 -490l147 421q15 41 15 70q0 32 -19.5 51t-56.5 19v9h14
q13 0 44.5 -1.5t45.5 -1.5q10 0 40.5 1.5t41.5 1.5h18v-9q-41 -1 -75.5 -39.5t-56.5 -104.5z" />
    <glyph glyph-name="W" unicode="W" horiz-adv-x="992" 
d="M781 0q-11 0 -29 0.5t-28 0.5q-11 0 -28.5 -0.5t-29.5 -0.5l-168 504l-134 -405l34 -99q-11 0 -30 0.5t-29 0.5t-27 -0.5t-29 -0.5l-220 607q-23 65 -71 65v9h32q9 0 37.5 -1.5t44.5 -1.5q17 0 46.5 1.5t38.5 1.5h32v-9q-23 0 -36 -9.5t-13 -25.5q0 -18 7 -36l176 -486
l135 407l-28 85q-20 65 -72 65v9h32q10 0 39.5 -1.5t45.5 -1.5q17 0 45 1.5t37 1.5h32v-9q-50 0 -50 -35q0 -15 8 -36l162 -483l130 413q16 51 16 71q0 32 -19.5 51t-56.5 19v9h13q13 0 45 -1.5t46 -1.5q10 0 40 1.5t41 1.5h19v-9q-42 -1 -77.5 -39t-55.5 -105l-135 -428z
" />
    <glyph glyph-name="X" unicode="X" horiz-adv-x="652" 
d="M651 0h-33q-9 0 -41.5 1.5t-49.5 1.5q-16 0 -51.5 -1.5t-44.5 -1.5h-35v9q49 0 49 31q0 19 -15 42l-137 219l-112 -156q-37 -50 -37 -84q0 -52 61 -52h2v-9h-14q-13 0 -45 1.5t-45 1.5q-10 0 -42 -1.5t-44 -1.5h-17v9h1q43 1 83 38t89 105l113 159l-188 301
q-37 60 -86 60v9h35q9 0 42 -1.5t49 -1.5q17 0 51.5 1.5t44.5 1.5h34v-9q-49 0 -49 -31q0 -17 15 -42l128 -206l97 144q37 55 37 83q0 52 -61 52h-1v9h13q13 0 45 -1.5t46 -1.5q10 0 42 1.5t43 1.5h17v-9h-1q-78 -2 -171 -142l-99 -147l196 -314q37 -60 86 -60v-9z" />
    <glyph glyph-name="Y" unicode="Y" horiz-adv-x="614" 
d="M370 73q0 -35 12 -49.5t42 -14.5h3v-9h-30q-13 0 -39.5 1.5t-42.5 1.5t-42.5 -1.5t-38.5 -1.5h-30v9h2q30 0 42.5 14.5t12.5 49.5v236l-196 311q-33 52 -78 52v9h39q9 0 36 -1.5t44 -1.5t45.5 1.5t37.5 1.5h41v-9q-43 0 -43 -28q0 -15 11 -34l166 -260l112 185
q32 55 32 83q0 54 -66 54h-1v9h13q13 0 46 -1.5t47 -1.5q10 0 40.5 1.5t41.5 1.5h17v-9h-1q-45 -1 -83 -38.5t-78 -105.5l-114 -190v-265z" />
    <glyph glyph-name="Z" unicode="Z" horiz-adv-x="593" 
d="M577 226l-93 -258l-7 2q2 30 -37 30h-421v4l418 666h-168q-59 0 -92 -34q-39 -41 -129 -170l-7 3l86 244l7 -2q-2 -15 8 -22.5t31 -7.5h391v-4l-416 -666h196q34 0 52.5 6.5t40.5 30.5q49 54 133 181z" />
    <glyph glyph-name="bracketleft" unicode="[" horiz-adv-x="305" 
d="M89 -174v901q80 -4 187 -4v-9q-30 0 -70 -1t-68.5 -1.5t-31.5 -0.5q78 -192 78 -435q0 -242 -78 -434q3 0 31.5 -1t68.5 -1.5t70 -0.5v-9q-107 0 -187 -4z" />
    <glyph glyph-name="backslash" unicode="\" horiz-adv-x="353" 
d="M321 -172l-300 893l10 4l300 -893z" />
    <glyph glyph-name="bracketright" unicode="]" horiz-adv-x="305" 
d="M216 727v-901q-60 3 -187 3v10q30 0 69.5 0.5t68.5 1.5t31 1q-77 197 -77 434q0 238 77 435q-2 0 -31 0.5t-68.5 1.5t-69.5 1v10q127 0 187 3z" />
    <glyph glyph-name="asciicircum" unicode="^" horiz-adv-x="451" 
d="M403 322l-10 -5l-167 373l-167 -373l-10 5l172 383h9z" />
    <glyph glyph-name="underscore" unicode="_" horiz-adv-x="468" 
d="M445 -89h-422v11h422v-11z" />
    <glyph glyph-name="grave" unicode="`" horiz-adv-x="255" 
d="M204 542l-6 -4q-29 37 -75.5 78t-61.5 60q-9 12 -9 26q0 15 11 26t27 11q21 0 34 -21q12 -19 35 -77.5t45 -98.5z" />
    <glyph glyph-name="a" unicode="a" horiz-adv-x="516" 
d="M410 -8q-66 0 -76 63q-77 -63 -157 -63q-61 0 -96.5 34.5t-35.5 93.5t42 98.5t115 69.5l129 54v84q0 34 -10 48t-36 14q-76 0 -140 -99q-13 -23 -23 -32.5t-25 -9.5t-26 10.5t-11 26.5q0 42 79 78t162 36q73 0 102 -26t29 -83v-328q0 -36 26 -36t44 41l7 -3
q-11 -29 -37 -50t-62 -21zM214 12q53 0 119 53q-2 12 -2 35v231l-93 -38q-51 -21 -68 -58.5t-17 -103.5q0 -119 61 -119z" />
    <glyph glyph-name="b" unicode="b" horiz-adv-x="543" 
d="M503 245q0 -129 -55.5 -191t-132.5 -62q-75 0 -148 62q-84 -33 -90 -64h-7v622q0 33 -11 47t-42 14h-3v8h20q38 0 80 12t51 30h7v-283q71 58 143 58q77 0 132.5 -62t55.5 -191zM389 245q0 100 -12 154.5t-29.5 70t-46.5 15.5q-64 0 -129 -59v-362q66 -59 129 -59
q29 0 46.5 15.5t29.5 70t12 154.5z" />
    <glyph glyph-name="c" unicode="c" horiz-adv-x="478" 
d="M248 -8q-85 0 -149 68.5t-64 177.5q0 119 68.5 189.5t160.5 70.5q69 0 122.5 -44t53.5 -96q0 -18 -11 -30t-28 -12t-28 10.5t-11 27.5q0 3 0.5 13.5t0.5 21.5q0 41 -22.5 70.5t-71.5 29.5q-56 0 -89.5 -53t-33.5 -151q0 -118 42 -182.5t107 -64.5q49 0 86 31.5t56 92.5
l8 -2q-24 -80 -74.5 -124t-122.5 -44z" />
    <glyph glyph-name="d" unicode="d" horiz-adv-x="554" 
d="M228 -8q-78 0 -133 63t-55 190t55 190t133 63q72 0 143 -58v172q0 33 -11 47t-42 14h-3v8h20q38 0 80 12t51 30h7v-654q0 -33 11 -47t42 -14h3v-8h-25q-14 0 -39.5 1t-42.5 1q-12 0 -28 -1t-23 -1v50q-72 -58 -143 -58zM242 5q63 0 129 59v362q-68 59 -129 59
q-29 0 -47 -15.5t-30 -70t-12 -154.5t12 -154.5t30 -70t47 -15.5z" />
    <glyph glyph-name="e" unicode="e" horiz-adv-x="490" 
d="M253 -8q-85 0 -151.5 69t-66.5 178q0 118 69 188.5t158 70.5q79 0 134.5 -50.5t53.5 -134.5h-303q-1 -9 -1 -31q0 -109 42 -176.5t112 -67.5q104 0 144 124l8 -2q-24 -80 -74.5 -124t-124.5 -44zM352 323q-1 166 -95 166q-46 0 -75.5 -42t-34.5 -124h205z" />
    <glyph glyph-name="f" unicode="f" horiz-adv-x="314" 
d="M348 626q-15 0 -49.5 15t-51.5 15q-63 0 -63 -109v-57h137v-10h-137v-411q0 -32 13.5 -46.5t46.5 -14.5h20v-8h-40q-16 0 -44.5 1.5t-46.5 1.5q-17 0 -42.5 -1.5t-39.5 -1.5h-25v8h3q31 0 41.5 14t10.5 47v334q0 42 7 77h-73v10h75q16 59 51 101q39 49 94 78.5t104 29.5
q23 0 35.5 -10t12.5 -26t-10.5 -26.5t-28.5 -10.5z" />
    <glyph glyph-name="g" unicode="g" horiz-adv-x="521" 
d="M248 -234q-102 0 -168.5 31t-66.5 74q0 66 146 103q-117 15 -117 81q0 62 121 107q-50 20 -80 61.5t-30 97.5q0 78 56 127.5t141 49.5q60 0 106 -27q53 80 110 80q21 0 33.5 -10.5t12.5 -26.5q0 -15 -11 -25.5t-26 -10.5q-14 0 -34 10t-33 10q-23 0 -45 -32
q83 -47 83 -144q0 -78 -55.5 -127t-140.5 -49q-40 0 -75 12q-34 -12 -51 -24t-17 -29q0 -31 91 -42l125 -15q177 -22 177 -133q0 -72 -73 -110.5t-179 -38.5zM250 155q94 0 94 167t-94 167t-94 -167t94 -167zM251 -225q88 0 134.5 25.5t46.5 69.5q0 66 -134 84l-121 16
q-93 -26 -93 -97q0 -42 43 -70t124 -28z" />
    <glyph glyph-name="h" unicode="h" horiz-adv-x="557" 
d="M478 424v-354q0 -34 11 -48t42 -14h3v-8h-25q-14 0 -39.5 1.5t-42.5 1.5t-42.5 -1.5t-39.5 -1.5h-25v8h3q31 0 42 14t11 48v354q0 44 -35 44q-16 0 -72 -20l-86 -33v-345q0 -34 11 -48t42 -14h3v-8h-25q-14 0 -39.5 1.5t-42.5 1.5t-42.5 -1.5t-39.5 -1.5h-25v8h3
q31 0 42 14t11 48v542q0 33 -11 47t-42 14h-3v8h20q38 0 80 12t51 30h7v-298l110 42q79 31 119 31q66 0 66 -74z" />
    <glyph glyph-name="i" unicode="i" horiz-adv-x="270" 
d="M137 569q-26 0 -44 17t-18 43t18 43t44 17q25 0 43.5 -17t18.5 -43t-18.5 -43t-43.5 -17zM245 0h-25q-14 0 -39.5 1.5t-42.5 1.5t-42.5 -1.5t-38.5 -1.5h-25v8h2q32 0 42.5 14t10.5 48v320q0 33 -10.5 47t-42.5 14h-2v8h20q38 0 79.5 12t51.5 30h7v-431q0 -34 10.5 -48
t41.5 -14h3v-8z" />
    <glyph glyph-name="j" unicode="j" horiz-adv-x="258" 
d="M135 569q-26 0 -43.5 16.5t-17.5 43.5t17.5 43.5t43.5 16.5t44 -17t18 -43t-18 -43t-44 -17zM-37 -235q-22 0 -35.5 10t-13.5 26t11 26t28 10q20 0 49 -15.5t40 -15.5q22 0 33 14t11 48v522q0 33 -11 47t-42 14h-3v8h20q38 0 80 12t51 30h7v-456q0 -102 -63 -185
q-72 -95 -162 -95z" />
    <glyph glyph-name="k" unicode="k" horiz-adv-x="553" 
d="M376 379l-60 -63q3 0 16 0.5t21 0.5l128 -253q16 -31 31.5 -43.5t43.5 -12.5h2v-8h-24q-10 0 -36 1.5t-44 1.5t-44 -1.5t-36 -1.5h-31v8h4q38 0 38 21q0 7 -8 25l-110 212l-84 -88v-109q0 -33 11 -47t42 -14h3v-8h-25q-14 0 -39.5 1.5t-42.5 1.5t-42.5 -1.5t-39.5 -1.5
h-25v8h3q31 0 42 14t11 47v543q0 33 -11 47t-42 14h-3v8h20q38 0 80 12t51 30h7v-531l79 83l-21 42q12 0 30 -1t32 0l65 67q37 39 37 64q0 35 -49 35h-4v8h15q11 0 37 -1.5t43 -1.5t41.5 1.5t36.5 1.5h18v-8h-2q-64 0 -165 -103z" />
    <glyph glyph-name="l" unicode="l" horiz-adv-x="264" 
d="M183 69q0 -33 11 -47t42 -14h3v-8h-25q-14 0 -39.5 1.5t-42.5 1.5t-42.5 -1.5t-39.5 -1.5h-25v8h3q31 0 42 14t11 47v543q0 33 -11 47t-42 14h-3v8h20q38 0 80 12t51 30h7v-654z" />
    <glyph glyph-name="m" unicode="m" horiz-adv-x="839" 
d="M817 0h-25q-13 0 -38.5 1.5t-42.5 1.5t-42.5 -1.5t-39.5 -1.5h-25v8h3q31 0 41.5 14t10.5 48v354q0 44 -34 44q-19 0 -71 -21l-78 -31v-346q0 -34 10.5 -48t42.5 -14h2v-8h-25q-13 0 -38.5 1.5t-42.5 1.5t-43 -1.5t-39 -1.5h-25v8h2q32 0 42.5 14t10.5 48v354
q0 44 -34 44q-19 0 -71 -21l-78 -31v-346q0 -34 10.5 -48t41.5 -14h3v-8h-25q-14 0 -39.5 1.5t-42.5 1.5t-42.5 -1.5t-38.5 -1.5h-25v8h2q32 0 42.5 14t10.5 48v320q0 33 -10.5 47t-42.5 14h-2v8h20q38 0 79.5 12t51.5 30h7v-75l102 40q81 32 118 32q63 0 65 -72l103 40
q81 32 118 32q66 0 66 -74v-354q0 -34 10.5 -48t42.5 -14h2v-8z" />
    <glyph glyph-name="n" unicode="n" horiz-adv-x="562" 
d="M540 0h-25q-14 0 -39.5 1.5t-42.5 1.5t-42.5 -1.5t-38.5 -1.5h-25v8h2q32 0 42.5 14t10.5 48v354q0 44 -34 44q-16 0 -72 -20l-86 -33v-345q0 -34 10.5 -48t41.5 -14h3v-8h-25q-14 0 -39.5 1.5t-42.5 1.5t-42.5 -1.5t-38.5 -1.5h-25v8h2q32 0 42.5 14t10.5 48v320
q0 33 -10.5 47t-42.5 14h-2v8h20q38 0 79.5 12t51.5 30h7v-76l110 42q79 31 118 31q67 0 67 -74v-354q0 -34 10.5 -48t41.5 -14h3v-8z" />
    <glyph glyph-name="o" unicode="o" horiz-adv-x="526" 
d="M263 -8q-93 0 -160.5 72.5t-67.5 180.5t67.5 180.5t160.5 72.5t160.5 -72.5t67.5 -180.5t-67.5 -180.5t-160.5 -72.5zM263 1q58 0 86 51.5t28 192.5t-28 192.5t-86 51.5t-86 -51.5t-28 -192.5t28 -192.5t86 -51.5z" />
    <glyph glyph-name="p" unicode="p" horiz-adv-x="554" 
d="M183 50v-206q0 -62 64 -62h16v-8h-40q-15 0 -43.5 1.5t-47.5 1.5q-17 0 -42.5 -1.5t-39.5 -1.5h-25v8h3q31 0 42 14t11 48v546q0 33 -11 47t-42 14h-3v8h20q38 0 80 12t51 30h7v-61q71 58 143 58q78 0 133 -63t55 -190t-55 -190t-133 -63q-71 0 -143 58zM312 5
q29 0 46.5 15.5t29.5 70t12 154.5t-12 154.5t-29.5 70t-46.5 15.5q-61 0 -129 -59v-362q66 -59 129 -59z" />
    <glyph glyph-name="q" unicode="q" horiz-adv-x="543" 
d="M40 245q0 129 55.5 191t132.5 62q75 0 148 -62q85 34 90 64h7v-656q0 -34 11 -48t42 -14h3v-8h-25q-14 0 -39.5 2t-42.5 2t-42.5 -2t-39.5 -2h-43v8h17q32 0 44.5 14.5t12.5 47.5v206q-71 -58 -143 -58q-77 0 -132.5 62t-55.5 191zM153 245q0 -100 12 -154.5t30 -70
t47 -15.5q64 0 129 59v362q-66 59 -129 59q-29 0 -47 -15.5t-30 -70t-12 -154.5z" />
    <glyph glyph-name="r" unicode="r" horiz-adv-x="382" 
d="M269 0h-40q-15 0 -43.5 1.5t-47.5 1.5q-17 0 -42.5 -1.5t-39.5 -1.5h-25v8h3q31 0 42 14t11 48v320q0 33 -11 47t-42 14h-3v8h20q38 0 80 12t51 30h7v-122q37 59 67 86q33 33 74 33q23 0 36.5 -11t13.5 -28q0 -41 -48 -41q-13 0 -36.5 8.5t-34.5 8.5q-30 0 -72 -72v-293
q0 -62 63 -62h17v-8z" />
    <glyph glyph-name="s" unicode="s" horiz-adv-x="456" 
d="M246 -8q-31 0 -74 10.5t-57 10.5q-11 0 -18 -6t-6 -17l-7 -1l-48 184l7 2q80 -174 204 -174q50 0 77.5 25.5t27.5 63.5q0 35 -29 60.5t-89 48.5l-55 21q-118 45 -118 147q0 59 41.5 95t106.5 36q24 0 60 -8.5t50 -8.5q12 0 19.5 6t6.5 18l7 1l47 -172l-7 -2
q-73 157 -183 157q-42 0 -65 -21t-23 -50q0 -32 25.5 -54.5t84.5 -46.5l52 -21q68 -28 100 -61.5t32 -87.5q0 -72 -49.5 -113.5t-119.5 -41.5z" />
    <glyph glyph-name="t" unicode="t" horiz-adv-x="302" 
d="M175 -8q-42 0 -69 24.5t-27 82.5v381h-69v10h69v76q46 0 70 20.5t24 55.5v3h8v-155h102v-10h-102v-394q0 -58 40 -58q17 0 33.5 15t25.5 38l7 -2q-12 -36 -41 -61.5t-71 -25.5z" />
    <glyph glyph-name="u" unicode="u" horiz-adv-x="551" 
d="M526 0h-25q-14 0 -39.5 1t-42.5 1q-12 0 -28 -1t-23 -1v64l-105 -41q-80 -31 -119 -31q-66 0 -66 74v324q0 33 -11 47t-42 14h-3v8h20q38 0 80 12t52 30h6v-435q0 -44 35 -44q22 0 72 20l81 32v316q0 33 -11 47t-42 14h-3v8h20q38 0 80 12t52 30h6v-431q0 -34 11 -48
t42 -14h3v-8z" />
    <glyph glyph-name="v" unicode="v" horiz-adv-x="484" 
d="M291 89l32 -89q-11 0 -28.5 0.5t-26.5 0.5q-8 0 -25.5 -0.5t-27.5 -0.5l-156 426q-11 31 -25.5 43.5t-39.5 12.5v8h29q10 0 35 -1.5t43 -1.5t42.5 1.5t34.5 1.5h29v-8q-45 0 -45 -28q0 -6 4 -20l119 -331l97 271q10 25 10 50q0 58 -70 58v8h10q14 0 39.5 -1.5t40.5 -1.5
q16 0 41.5 1.5t36.5 1.5h15v-8q-74 -1 -114 -113z" />
    <glyph glyph-name="w" unicode="w" horiz-adv-x="768" 
d="M610 0q-11 0 -28.5 0.5t-26.5 0.5q-8 0 -25.5 -0.5t-27.5 -0.5l-122 347l-88 -258l31 -89q-11 0 -28.5 0.5t-25.5 0.5q-9 0 -26.5 -0.5t-27.5 -0.5l-156 426q-11 31 -25.5 43.5t-39.5 12.5v8h29q10 0 35 -1.5t43 -1.5t42.5 1.5t34.5 1.5h29v-8q-45 0 -45 -28q0 -6 4 -20
l120 -331l88 259l-22 64q-11 31 -25.5 43.5t-39.5 12.5v8h28q10 0 35 -1.5t43 -1.5t43 1.5t35 1.5h29v-8q-45 0 -45 -27q0 -13 4 -21l114 -331l94 270q10 30 10 51q0 58 -70 58v8h10q14 0 39.5 -1.5t40.5 -1.5q16 0 41.5 1.5t36.5 1.5h15v-8q-74 -1 -114 -115l-97 -278z" />
    <glyph glyph-name="x" unicode="x" horiz-adv-x="497" 
d="M496 0h-31q-10 0 -35 1.5t-43 1.5t-42.5 -1.5t-34.5 -1.5h-29v8q41 0 41 23q0 11 -7 22l-99 154l-66 -97q-25 -37 -25 -61q0 -20 12 -30.5t44 -10.5h1v-8h-13q-11 0 -36 1.5t-40 1.5q-12 0 -38 -1.5t-34 -1.5h-20v8h1q68 0 140 106l68 101l-130 206q-38 61 -75 61v8h31
q10 0 35 -1.5t43 -1.5t42.5 1.5t34.5 1.5h29v-8q-41 0 -41 -23q0 -11 7 -22l92 -145l58 88q25 37 25 61q0 21 -12 31t-44 10h-1v8h13q11 0 36 -1.5t40 -1.5q13 0 39 1.5t34 1.5h19v-8h-1q-70 0 -139 -106l-60 -92l136 -215q38 -61 75 -61v-8z" />
    <glyph glyph-name="y" unicode="y" horiz-adv-x="484" 
d="M323 0q-10 0 -27.5 0.5t-25.5 0.5h-14l-22 -53q-42 -101 -78.5 -142t-103.5 -41q-24 0 -39 10t-15 26t10.5 25.5t27.5 9.5q18 0 46.5 -13t40.5 -13q24 0 46.5 31.5t55.5 109.5l21 50l-31 -1l-156 426q-11 31 -25.5 43.5t-39.5 12.5v8h29q10 0 35 -1.5t43 -1.5t42.5 1.5
t34.5 1.5h29v-8q-45 0 -45 -28q0 -6 4 -20l119 -331l97 271q10 24 10 50q0 58 -70 58v8h10q14 0 39.5 -1.5t40.5 -1.5q16 0 41.5 1.5t36.5 1.5h15v-8q-74 -1 -114 -113l-100 -281z" />
    <glyph glyph-name="z" unicode="z" horiz-adv-x="462" 
d="M375 -24l-7 1q0 14 -9 18.5t-30 4.5h-303v4l287 477h-100q-32 0 -49 -6.5t-35 -27.5q-48 -52 -91 -120l-6 3l66 184l7 -1q0 -23 37 -23h288v-4l-289 -477h117q36 0 55 9.5t44 38.5q29 33 80 112l6 -3z" />
    <glyph glyph-name="braceleft" unicode="{" horiz-adv-x="325" 
d="M198 -61q0 -48 20 -68.5t82 -36.5l-2 -8q-95 23 -139.5 54.5t-44.5 102.5q0 33 5 94.5t5 77.5q0 57 -16 85t-66 30v10q50 2 66 30t16 85q0 16 -5 77.5t-5 94.5q0 71 44.5 102.5t139.5 54.5l2 -8q-62 -16 -82 -36.5t-20 -68.5q0 -21 5 -100t5 -102q0 -60 -29 -93.5
t-108 -40.5q79 -7 108 -40.5t29 -93.5q0 -23 -5 -102t-5 -100z" />
    <glyph glyph-name="bar" unicode="|" horiz-adv-x="211" 
d="M111 -217h-11v987h11v-987z" />
    <glyph glyph-name="braceright" unicode="}" horiz-adv-x="325" 
d="M127 -61q0 21 -4.5 100t-4.5 102q0 60 28.5 93.5t107.5 40.5q-79 7 -107.5 40.5t-28.5 93.5q0 23 4.5 102t4.5 100q0 48 -20 68.5t-81 36.5l2 8q95 -23 139 -54.5t44 -102.5q0 -33 -5 -94.5t-5 -77.5q0 -57 16 -85t66 -30v-10q-50 -2 -66 -30t-16 -85q0 -16 5 -77.5
t5 -94.5q0 -71 -44 -102.5t-139 -54.5l-2 8q61 16 81 36.5t20 68.5z" />
    <glyph glyph-name="asciitilde" unicode="~" horiz-adv-x="537" 
d="M382 281q-42 0 -115 31.5t-112 31.5q-62 0 -99 -59l-9 6q14 25 43 44.5t65 19.5q43 0 115.5 -31.5t111.5 -31.5q61 0 99 58l9 -5q-14 -25 -43 -44.5t-65 -19.5z" />
    <glyph glyph-name="exclamdown" unicode="&#xa1;" horiz-adv-x="255" 
d="M127 498q27 0 46 -19t19 -46q0 -26 -19 -45t-46 -19t-46 19t-19 45q0 27 19 46t46 19zM122 258h10v-32q0 -60 27 -184.5t27 -171.5q0 -32 -16 -50t-43 -18q-25 0 -41.5 18.5t-16.5 49.5q0 47 26.5 171.5t26.5 184.5v32z" />
    <glyph glyph-name="cent" unicode="&#xa2;" horiz-adv-x="512" 
d="M264 -8q-49 0 -92 23l-53 -159l-10 4l53 161q-50 31 -80.5 87t-30.5 130q0 119 68.5 189.5t160.5 70.5q22 0 39 -4l46 137l10 -4l-45 -136q53 -14 89.5 -53t36.5 -80q0 -18 -11 -30t-28 -12t-28 10.5t-11 27.5q0 3 0.5 13.5t0.5 21.5q0 71 -53 92l-124 -375
q41 -68 109 -68q49 0 86 31.5t56 92.5l8 -2q-24 -80 -74.5 -124t-122.5 -44zM162 285q0 -103 33 -167l121 367q-18 4 -31 4q-56 0 -89.5 -53t-33.5 -151z" />
    <glyph glyph-name="sterling" unicode="&#xa3;" horiz-adv-x="595" 
d="M440 -9q-9 0 -19 1.5t-18 3t-19 5.5t-17 6.5t-18.5 9t-17 8.5t-18.5 11t-16.5 10.5t-17.5 11.5t-17 11q-28 -39 -67.5 -59t-78.5 -20q-36 0 -62 20t-26 56t31 59t79 23q40 0 109 -20q2 16 2 27q-3 67 -55 163h-118v11h113q-62 115 -62 185q0 78 62 127.5t140 49.5
q79 0 139 -41t60 -92q0 -18 -11 -30t-28 -12q-21 0 -31.5 13t-18.5 45q-15 59 -40.5 83t-67.5 24q-45 0 -70 -29.5t-25 -76.5q0 -29 6 -63t13 -57t20 -65t19 -61h165v-11h-163q15 -55 15 -99q0 -52 -20 -102q120 -38 164 -38q38 0 58 20.5t20 57.5q0 46 -28 86l8 5
q39 -55 39 -125q0 -60 -30 -96t-82 -36zM116 1q43 0 75.5 22t47.5 62q-76 47 -124 47q-31 0 -53.5 -18t-22.5 -48q0 -31 23 -48t54 -17z" />
    <glyph glyph-name="currency" unicode="&#xa4;" horiz-adv-x="665" 
d="M332 113q-98 0 -165 59l-112 -111l-8 8l112 111q-64 64 -64 166q0 103 65 166l-111 113l7 8l112 -113q67 59 164 59q100 0 166 -60l112 113l8 -8l-113 -112q65 -67 65 -166q0 -101 -65 -166l112 -113l-8 -7l-112 112q-67 -59 -165 -59zM332 124q98 0 162.5 60.5
t64.5 161.5t-64.5 161.5t-162.5 60.5q-97 0 -161.5 -61t-64.5 -161q0 -101 64.5 -161.5t161.5 -60.5z" />
    <glyph glyph-name="yen" unicode="&#xa5;" horiz-adv-x="624" 
d="M427 0h-29q-14 0 -40 1.5t-42 1.5q-17 0 -43.5 -1.5t-39.5 -1.5h-29v9h3q29 0 41.5 14.5t12.5 49.5v88h-143v11h143v89h-143v11h143v42l-184 306q-30 52 -78 52v9h39q9 0 36.5 -1.5t44.5 -1.5t46 1.5t38 1.5h40v-9q-43 0 -43 -28q0 -15 11 -34l153 -255l100 180
q32 60 32 85q0 52 -66 52h-1v9h13q13 0 46 -1.5t47 -1.5q10 0 40.5 1.5t41.5 1.5h17v-9h-1q-83 -1 -161 -144l-102 -184v-72h143v-11h-143v-89h143v-11h-143v-88q0 -35 12 -49.5t43 -14.5h2v-9z" />
    <glyph glyph-name="brokenbar" unicode="&#xa6;" horiz-adv-x="211" 
d="M111 340h-11v430h11v-430zM111 -217h-11v436h11v-436z" />
    <glyph glyph-name="section" unicode="&#xa7;" horiz-adv-x="533" 
d="M186 -154q-84 0 -84 47q0 16 11 27t31 11t59 -25.5t69 -25.5q34 0 54.5 20t20.5 53q0 14 -4 27t-16 29t-18.5 24.5t-27.5 30.5t-27 29l-118 129q-43 48 -60.5 81.5t-17.5 71.5q0 88 77 154q7 71 66.5 115.5t145.5 44.5q85 0 85 -47q0 -16 -11.5 -27t-31.5 -11
q-19 0 -58 25.5t-69 25.5q-35 0 -55.5 -19.5t-20.5 -53.5q0 -10 2.5 -19.5t8 -20t10.5 -18.5t15.5 -20.5t16.5 -19t20 -21.5t20 -21l118 -129q43 -48 60.5 -81.5t17.5 -71.5q0 -87 -77 -155q-7 -70 -66.5 -114.5t-145.5 -44.5zM430 85q0 24 -13.5 49t-25 39t-50.5 57
l-122 135q-42 46 -62 79t-22 72q-31 -31 -31 -66q0 -24 13 -48.5t25 -39t51 -57.5l122 -135q41 -45 61 -78.5t22 -72.5q32 31 32 66z" />
    <glyph glyph-name="dieresis" unicode="&#xa8;" horiz-adv-x="417" 
d="M166 627q0 -22 -15.5 -36.5t-37.5 -14.5t-37.5 14.5t-15.5 36.5t15.5 37t37.5 15t37.5 -15t15.5 -37zM359 627q0 -22 -15.5 -36.5t-37.5 -14.5t-37.5 14.5t-15.5 36.5t15.5 37t37.5 15q21 0 37 -15t16 -37z" />
    <glyph glyph-name="copyright" unicode="&#xa9;" horiz-adv-x="796" 
d="M398 -9q-147 0 -246.5 96t-99.5 253q0 156 99.5 252.5t246.5 96.5q146 0 246 -96.5t100 -252.5q0 -157 -100 -253t-246 -96zM398 2q143 0 239 93t96 245q0 151 -96.5 244.5t-238.5 93.5q-143 0 -239 -93.5t-96 -244.5q0 -152 96 -245t239 -93zM400 127q-79 0 -136 59.5
t-57 150.5q0 102 58.5 156.5t130.5 54.5q19 0 47.5 -5.5t37.5 -5.5q12 0 18 5.5t5 15.5l7 2l54 -150l-6 -4q-87 132 -163 132q-47 0 -78.5 -38.5t-31.5 -113.5q0 -91 46.5 -150t110.5 -59q88 0 127 78l7 -3q-20 -53 -69 -89t-108 -36z" />
    <glyph glyph-name="ordfeminine" unicode="&#xaa;" horiz-adv-x="389" 
d="M283 361q-44 0 -53 39q-47 -39 -97 -39q-41 0 -65 22.5t-24 62.5q0 38 24.5 62t70.5 44l88 39v48q0 23 -6.5 32.5t-24.5 9.5q-49 0 -82 -62q-11 -31 -34 -31q-12 0 -19.5 8t-7.5 20q0 26 46.5 50t103.5 24q50 0 73 -19t23 -59v-195q0 -28 19 -28q13 0 20 20l7 -2
q-13 -46 -62 -46zM163 379q27 0 65 31q-1 8 -1 30v140l-53 -23q-32 -14 -43.5 -36t-11.5 -62q0 -80 44 -80zM332 290h-283v10h283v-10z" />
    <glyph glyph-name="guillemotleft" unicode="&#xab;" horiz-adv-x="527" 
d="M287 67l-5 -6q-25 26 -83.5 73.5t-102 80t-52.5 38.5q9 6 52.5 38.5t102 80t83.5 73.5l5 -6q-38 -44 -126 -186q88 -142 126 -186zM467 67l-6 -6q-25 26 -83.5 73.5t-102 80t-51.5 38.5q8 6 51.5 38.5t102 80t83.5 73.5l6 -6q-54 -62 -127 -186q73 -124 127 -186z" />
    <glyph glyph-name="logicalnot" unicode="&#xac;" horiz-adv-x="511" 
d="M464 108h-11v212h-406v11h417v-223z" />
    <glyph glyph-name="uni00AD" unicode="&#xad;" horiz-adv-x="310" 
d="M249 244h-188v55h188v-55z" />
    <glyph glyph-name="registered" unicode="&#xae;" horiz-adv-x="524" 
d="M262 304q-89 0 -149.5 58.5t-60.5 151.5t60.5 151.5t149.5 58.5t149.5 -58.5t60.5 -151.5t-60.5 -151.5t-149.5 -58.5zM262 315q84 0 141.5 55t57.5 144t-57.5 144t-141.5 55t-141.5 -55t-57.5 -144t57.5 -144t141.5 -55zM393 393q-10 0 -24 0.5t-20 0.5q-4 0 -15 -0.5
t-17 -0.5l-53 111h-38v-81q0 -12 6 -17.5t23 -5.5v-7h-18q-5 0 -17 0.5t-17 0.5q-6 0 -17 -0.5t-16 -0.5h-18v7q16 0 22 5.5t6 17.5v180q0 12 -6 17t-22 5v8h18q5 0 16 -0.5t17 -0.5q5 0 17 0.5t17 0.5h42q88 0 88 -64q0 -65 -88 -65h-6q9 -17 31 -17h22l25 -56
q9 -20 17.5 -25.5t24.5 -5.5v-7zM320 569q0 29 -9.5 42.5t-35.5 13.5h-49v-113h50q44 0 44 57z" />
    <glyph glyph-name="macron" unicode="&#xaf;" horiz-adv-x="364" 
d="M306 607h-248v22h248v-22z" />
    <glyph glyph-name="degree" unicode="&#xb0;" horiz-adv-x="318" 
d="M276 573q0 -53 -34 -85.5t-83 -32.5t-83 32.5t-34 85.5t34 85.5t83 32.5t83 -32.5t34 -85.5zM265 573q0 47 -31.5 77.5t-74.5 30.5t-74.5 -30.5t-31.5 -77.5t31.5 -77.5t74.5 -30.5t74.5 30.5t31.5 77.5z" />
    <glyph glyph-name="plusminus" unicode="&#xb1;" horiz-adv-x="494" 
d="M47 370v11h194v164h11v-164h195v-11h-195v-168h-11v168h-194zM47 110v11h400v-11h-400z" />
    <glyph glyph-name="uni00B2" unicode="&#xb2;" 
d="M248 618q0 -22 -15.5 -45t-30 -36t-48 -38t-43.5 -33l-15 -12h155l-20 -92l-6 1q0 11 -1.5 17.5t-9 11.5t-22.5 5h-158v5l57 59q82 86 82 170q0 50 -29 50q-27 0 -40 -53q-8 -31 -31 -31q-28 0 -28 27q0 24 29.5 44.5t74.5 20.5t72 -18t27 -53z" />
    <glyph glyph-name="uni00B3" unicode="&#xb3;" 
d="M262 480q0 -39 -34 -65t-81 -26q-52 0 -83.5 22t-31.5 53q0 11 8 19.5t19 8.5q27 0 32 -31q7 -34 19 -49t34 -15t32 18.5t10 63.5q0 41 -6 56.5t-20 15.5q-6 0 -18 -6l-34 -16l-3 7l38 19q27 13 27 73q0 53 -29 53q-27 0 -40 -54q-8 -30 -32 -30q-11 0 -19 7t-8 20
q0 24 29.5 44.5t74.5 20.5q43 0 69.5 -15.5t26.5 -43.5q0 -21 -20.5 -40t-58.5 -32q41 0 70 -21t29 -57z" />
    <glyph glyph-name="acute" unicode="&#xb4;" horiz-adv-x="255" 
d="M58 538l-7 4q22 39 45 97t36 78q14 22 33 22q16 0 27 -11t11 -26q0 -14 -9 -26q-15 -19 -61.5 -60t-74.5 -78z" />
    <glyph glyph-name="uni00B5" unicode="&#xb5;" horiz-adv-x="551" 
d="M526 0h-25q-14 0 -39.5 1t-42.5 1q-12 0 -28 -1t-23 -1v64l-105 -41q-80 -31 -119 -31q-42 0 -57 27q4 -55 25 -119t21 -82q0 -26 -13 -40t-34 -14t-33.5 14t-12.5 40q0 17 19 92t19 135v345q0 33 -11 47t-42 14h-3v8h20q38 0 80 12t52 30h6v-435q0 -44 35 -44
q22 0 72 20l81 32v316q0 33 -11 47t-42 14h-3v8h20q38 0 80 12t52 30h6v-431q0 -34 11 -48t42 -14h3v-8z" />
    <glyph glyph-name="paragraph" unicode="&#xb6;" horiz-adv-x="572" 
d="M425 -226h-11v226h-95q-119 0 -193.5 85.5t-74.5 255.5t74 255t194 85h203v-11h-97v-659h97v-11h-97v-226zM335 11h79v659h-79v-659z" />
    <glyph glyph-name="periodcentered" unicode="&#xb7;" horiz-adv-x="258" 
d="M129 283q-27 0 -46.5 19t-19.5 46q0 26 19.5 45t46.5 19q26 0 45.5 -19t19.5 -45q0 -27 -19.5 -46t-45.5 -19z" />
    <glyph glyph-name="cedilla" unicode="&#xb8;" horiz-adv-x="299" 
d="M248 -118q0 -50 -60.5 -87.5t-135.5 -44.5l-1 8q64 9 102 38.5t38 63.5q0 38 -51 38q-29 0 -55 -11l-3 5l94 108h6l-35 -58q12 2 23 2q34 0 56 -17t22 -45z" />
    <glyph glyph-name="uni00B9" unicode="&#xb9;" 
d="M231 397h-18q-11 0 -28 1t-31 1t-31 -1t-28 -1h-31v8h17q22 0 30 10.5t8 37.5v141q0 25 -16 25q-6 0 -32 -12l-3 7l6 3q33 16 66 41t43 41h6v-246q0 -27 7 -37.5t29 -10.5h6v-8z" />
    <glyph glyph-name="ordmasculine" unicode="&#xba;" horiz-adv-x="389" 
d="M194 360q-58 0 -104 44.5t-46 119.5q0 76 45.5 120.5t104.5 44.5t105 -44.5t46 -120.5q0 -75 -46.5 -119.5t-104.5 -44.5zM194 370q35 0 52 34.5t17 119.5q0 87 -17 121t-52 34t-52 -34t-17 -121q0 -85 17 -119.5t52 -34.5zM335 290h-283v10h283v-10z" />
    <glyph glyph-name="guillemotright" unicode="&#xbb;" horiz-adv-x="527" 
d="M66 61l-6 6q61 70 127 186q-66 116 -127 186l6 6q25 -26 83.5 -73.5t102 -80t51.5 -38.5q-8 -6 -51.5 -38.5t-102 -80t-83.5 -73.5zM245 61l-6 6q61 70 127 186q-77 128 -127 186l6 6q25 -26 83.5 -73.5t102 -80t51.5 -38.5q-8 -6 -51.5 -38.5t-102 -80t-83.5 -73.5z" />
    <glyph glyph-name="onequarter" unicode="&#xbc;" horiz-adv-x="393" 
d="M276 397h-18q-10 0 -28 1t-31 1t-31 -1t-28 -1h-31v8h17q22 0 30 10.5t8 37.5v141q0 25 -16 25q-6 0 -32 -12l-3 7l6 3q33 16 66 41t43 41h6v-246q0 -27 7 -37.5t29 -10.5h6v-8zM45 346h302v-10h-302v10zM293 0h-20q-7 0 -23 1t-30 1t-30 -1t-23 -1h-36v8h17
q21 0 29 10.5t8 37.5v22h-124v6l130 201q5 0 15 -0.5t16 -0.5t17 0.5t16 0.5v-198h3q17 0 30 17t35 57l5 -1l-18 -82h-55v-22q0 -27 7 -37.5t28 -10.5h3v-8zM185 87v171l-110 -171h110z" />
    <glyph glyph-name="onehalf" unicode="&#xbd;" horiz-adv-x="393" 
d="M276 397h-18q-10 0 -28 1t-31 1t-31 -1t-28 -1h-31v8h17q22 0 30 10.5t8 37.5v141q0 25 -16 25q-6 0 -32 -12l-3 7l6 3q33 16 66 41t43 41h6v-246q0 -27 7 -37.5t29 -10.5h6v-8zM45 346h302v-10h-302v10zM293 221q0 -22 -15.5 -45t-30 -36t-48 -38t-43.5 -33l-15 -12h155
l-20 -92l-6 1q0 11 -1.5 17.5t-9 11.5t-22.5 5h-158v5l57 59q82 86 82 170q0 50 -29 50q-27 0 -40 -53q-8 -31 -31 -31q-28 0 -28 27q0 24 29.5 44.5t74.5 20.5t72 -18t27 -53z" />
    <glyph glyph-name="threequarters" unicode="&#xbe;" horiz-adv-x="393" 
d="M314 480q0 -39 -34 -65t-81 -26q-52 0 -83.5 22t-31.5 53q0 11 8 19.5t19 8.5q27 0 32 -31q7 -34 19 -49t34 -15t32 18.5t10 63.5q0 41 -6 56.5t-20 15.5q-6 0 -18 -6l-34 -16l-3 7l38 19q27 13 27 73q0 53 -29 53q-27 0 -40 -54q-8 -30 -32 -30q-11 0 -19 7t-8 20
q0 24 29.5 44.5t74.5 20.5q43 0 69.5 -15.5t26.5 -43.5q0 -21 -20.5 -40t-58.5 -32q41 0 70 -21t29 -57zM45 346h302v-10h-302v10zM293 0h-20q-7 0 -23 1t-30 1t-30 -1t-23 -1h-36v8h17q21 0 29 10.5t8 37.5v22h-124v6l130 201q5 0 15 -0.5t16 -0.5t17 0.5t16 0.5v-198h3
q17 0 30 17t35 57l5 -1l-18 -82h-55v-22q0 -27 7 -37.5t28 -10.5h3v-8zM185 87v171l-110 -171h110z" />
    <glyph glyph-name="questiondown" unicode="&#xbf;" horiz-adv-x="364" 
d="M212 499q27 0 46.5 -19t19.5 -46q0 -26 -19.5 -45t-46.5 -19t-46 19t-19 45q0 27 19 46t46 19zM207 259h10v-200q-66 -13 -103 -55.5t-37 -85.5q0 -29 18 -47t48 -18q32 0 74.5 26t60.5 26q20 0 32.5 -13t12.5 -33q0 -56 -84 -56q-86 0 -143 52.5t-57 128.5
q0 62 44 110.5t124 73.5v91z" />
    <glyph glyph-name="Agrave" unicode="&#xc0;" horiz-adv-x="659" 
d="M370 731l-6 -4q-29 37 -75.5 78t-61.5 60q-9 12 -9 26q0 15 11 26t27 11q21 0 34 -21q12 -19 35 -77.5t45 -98.5zM673 0h-32q-10 0 -39 1.5t-44 1.5q-17 0 -47 -1.5t-39 -1.5h-32v9q23 0 36 10t13 26q0 17 -9 36l-43 107h-305l-18 -45q-14 -38 -14 -65q0 -31 20.5 -50
t56.5 -19v-9h-13q-13 0 -45.5 1.5t-46.5 1.5q-10 0 -40.5 -1.5t-41.5 -1.5h-19v9q39 1 72 35t62 108l171 433l-39 96q11 0 31.5 -0.5t30.5 -0.5q11 0 29 0.5t27 0.5l245 -606q14 -35 30.5 -50.5t42.5 -15.5v-9zM282 572l-146 -373h296z" />
    <glyph glyph-name="Aacute" unicode="&#xc1;" horiz-adv-x="659" 
d="M250 727l-7 4q22 39 45 97t36 78q14 22 33 22q16 0 27 -11t11 -26q0 -14 -9 -26q-15 -19 -61.5 -60t-74.5 -78zM673 0h-32q-10 0 -39 1.5t-44 1.5q-17 0 -47 -1.5t-39 -1.5h-32v9q23 0 36 10t13 26q0 17 -9 36l-43 107h-305l-18 -45q-14 -38 -14 -65q0 -31 20.5 -50
t56.5 -19v-9h-13q-13 0 -45.5 1.5t-46.5 1.5q-10 0 -40.5 -1.5t-41.5 -1.5h-19v9q39 1 72 35t62 108l171 433l-39 96q11 0 31.5 -0.5t30.5 -0.5q11 0 29 0.5t27 0.5l245 -606q14 -35 30.5 -50.5t42.5 -15.5v-9zM282 572l-146 -373h296z" />
    <glyph glyph-name="Acircumflex" unicode="&#xc2;" horiz-adv-x="659" 
d="M433 731l-6 -5q-17 21 -37 41t-47 45t-36 34q-9 -9 -36 -33.5t-47.5 -45t-36.5 -41.5l-7 5q23 36 83 155q20 39 44 39t44 -39q61 -121 82 -155zM673 0h-32q-10 0 -39 1.5t-44 1.5q-17 0 -47 -1.5t-39 -1.5h-32v9q23 0 36 10t13 26q0 17 -9 36l-43 107h-305l-18 -45
q-14 -38 -14 -65q0 -31 20.5 -50t56.5 -19v-9h-13q-13 0 -45.5 1.5t-46.5 1.5q-10 0 -40.5 -1.5t-41.5 -1.5h-19v9q39 1 72 35t62 108l171 433l-39 96q11 0 31.5 -0.5t30.5 -0.5q11 0 29 0.5t27 0.5l245 -606q14 -35 30.5 -50.5t42.5 -15.5v-9zM282 572l-146 -373h296z" />
    <glyph glyph-name="Atilde" unicode="&#xc3;" horiz-adv-x="659" 
d="M345 770q-22 0 -57 21.5t-60 21.5q-30 0 -64 -56l-7 4q2 3 11 18.5t12.5 21.5t13 19.5t16 19.5t16.5 14t20.5 11t21.5 3q22 0 57 -22t61 -22q28 0 63 56l7 -4q-1 -1 -11 -18t-13 -22t-12.5 -19t-16 -19t-16.5 -13.5t-20.5 -11.5t-21.5 -3zM673 0h-32q-10 0 -39 1.5
t-44 1.5q-17 0 -47 -1.5t-39 -1.5h-32v9q23 0 36 10t13 26q0 17 -9 36l-43 107h-305l-18 -45q-14 -38 -14 -65q0 -31 20.5 -50t56.5 -19v-9h-13q-13 0 -45.5 1.5t-46.5 1.5q-10 0 -40.5 -1.5t-41.5 -1.5h-19v9q39 1 72 35t62 108l171 433l-39 96q11 0 31.5 -0.5t30.5 -0.5
q11 0 29 0.5t27 0.5l245 -606q14 -35 30.5 -50.5t42.5 -15.5v-9zM282 572l-146 -373h296z" />
    <glyph glyph-name="Adieresis" unicode="&#xc4;" horiz-adv-x="659" 
d="M264 806q0 -22 -15.5 -36.5t-37.5 -14.5t-37.5 14.5t-15.5 36.5t15.5 37t37.5 15t37.5 -15t15.5 -37zM457 806q0 -22 -15.5 -36.5t-37.5 -14.5t-37.5 14.5t-15.5 36.5t15.5 37t37.5 15q21 0 37 -15t16 -37zM673 0h-32q-10 0 -39 1.5t-44 1.5q-17 0 -47 -1.5t-39 -1.5h-32
v9q23 0 36 10t13 26q0 17 -9 36l-43 107h-305l-18 -45q-14 -38 -14 -65q0 -31 20.5 -50t56.5 -19v-9h-13q-13 0 -45.5 1.5t-46.5 1.5q-10 0 -40.5 -1.5t-41.5 -1.5h-19v9q39 1 72 35t62 108l171 433l-39 96q11 0 31.5 -0.5t30.5 -0.5q11 0 29 0.5t27 0.5l245 -606
q14 -35 30.5 -50.5t42.5 -15.5v-9zM282 572l-146 -373h296z" />
    <glyph glyph-name="Aring" unicode="&#xc5;" horiz-adv-x="659" 
d="M392 828q0 -36 -24.5 -61.5t-60.5 -25.5t-61 25.5t-25 61.5t25 61.5t61 25.5t60.5 -25.5t24.5 -61.5zM381 828q0 31 -21.5 53.5t-52.5 22.5q-32 0 -53.5 -22.5t-21.5 -53.5t21.5 -53.5t53.5 -22.5q31 0 52.5 22.5t21.5 53.5zM673 0h-32q-10 0 -39 1.5t-44 1.5
q-17 0 -47 -1.5t-39 -1.5h-32v9q23 0 36 10t13 26q0 17 -9 36l-43 107h-305l-18 -45q-14 -38 -14 -65q0 -31 20.5 -50t56.5 -19v-9h-13q-13 0 -45.5 1.5t-46.5 1.5q-10 0 -40.5 -1.5t-41.5 -1.5h-19v9q39 1 72 35t62 108l171 433l-39 96q11 0 31.5 -0.5t30.5 -0.5
q11 0 29 0.5t27 0.5l245 -606q14 -35 30.5 -50.5t42.5 -15.5v-9zM282 572l-146 -373h296z" />
    <glyph glyph-name="AE" unicode="&#xc6;" horiz-adv-x="996" 
d="M878 -32l-7 2q2 30 -38 30h-222q-15 0 -44.5 0.5t-48.5 0.5q-17 0 -43 -0.5t-39 -0.5h-32v9h3q30 0 43 14.5t13 49.5v116h-302l-33 -46q-31 -44 -31 -71q0 -63 67 -63h2v-9h-12q-12 0 -49.5 1.5t-51.5 1.5q-9 0 -43 -1.5t-42 -1.5h-22v9h1q74 2 172 143l320 456
q13 18 13 34q0 30 -43 30h-9v9h36q13 0 39 -0.5t43 -0.5q18 0 53 0.5t51 0.5h202q21 0 30.5 7.5t8.5 22.5l7 2l84 -239l-7 -3q-97 135 -127 166q-19 20 -39.5 26.5t-52.5 6.5h-156v-319h108q55 0 75 33.5t29 103.5h9v-288h-9q-4 35 -9.5 56t-16 42.5t-30 31.5t-48.5 10h-108
v-329h164q34 0 53.5 6.5t41.5 30.5q46 49 133 181l7 -3zM463 200v423l-294 -423h294z" />
    <glyph glyph-name="Ccedilla" unicode="&#xc7;" horiz-adv-x="627" 
d="M378 -118q0 -50 -60.5 -87.5t-134.5 -44.5l-1 8q63 9 101.5 38.5t38.5 63.5q0 38 -51 38q-31 0 -55 -11l-4 5l87 101q-115 11 -190.5 108.5t-75.5 241.5q0 82 28 150.5t73 110.5t97 64.5t103 22.5q33 0 80.5 -9.5t58.5 -9.5q35 0 35 31l7 2l80 -246l-7 -3
q-70 128 -131 176.5t-123 48.5q-85 0 -145.5 -69.5t-60.5 -188.5q0 -162 78 -260.5t187 -98.5q135 0 198 137l8 -3q-35 -89 -108 -147.5t-167 -58.5q-11 0 -17 1l-29 -51q12 2 23 2q34 0 55.5 -17t21.5 -45z" />
    <glyph glyph-name="Egrave" unicode="&#xc8;" horiz-adv-x="626" 
d="M362 731l-6 -4q-29 37 -75.5 78t-61.5 60q-9 12 -9 26q0 15 11 26t27 11q21 0 34 -21q12 -19 35 -77.5t45 -98.5zM508 -32l-7 2q2 30 -38 30h-222q-15 0 -45 0.5t-48 0.5q-17 0 -43 -0.5t-39 -0.5h-30v9h3q30 0 42 14.5t12 49.5v536q0 35 -12 49t-42 14h-3v9h30
q13 0 39 -0.5t43 -0.5q18 0 53 0.5t51 0.5h202q21 0 30.5 7.5t8.5 22.5l7 2l84 -239l-7 -3q-97 135 -127 166q-20 20 -40 26.5t-52 6.5h-156v-319h108q55 0 75.5 33.5t28.5 103.5h9v-288h-9q-8 70 -28.5 105t-75.5 35h-108v-329h164q34 0 53.5 6.5t41.5 30.5q46 49 133 181
l7 -3z" />
    <glyph glyph-name="Eacute" unicode="&#xc9;" horiz-adv-x="626" 
d="M242 727l-7 4q22 39 45 97t36 78q14 22 33 22q16 0 27 -11t11 -26q0 -14 -9 -26q-15 -19 -61.5 -60t-74.5 -78zM508 -32l-7 2q2 30 -38 30h-222q-15 0 -45 0.5t-48 0.5q-17 0 -43 -0.5t-39 -0.5h-30v9h3q30 0 42 14.5t12 49.5v536q0 35 -12 49t-42 14h-3v9h30
q13 0 39 -0.5t43 -0.5q18 0 53 0.5t51 0.5h202q21 0 30.5 7.5t8.5 22.5l7 2l84 -239l-7 -3q-97 135 -127 166q-20 20 -40 26.5t-52 6.5h-156v-319h108q55 0 75.5 33.5t28.5 103.5h9v-288h-9q-8 70 -28.5 105t-75.5 35h-108v-329h164q34 0 53.5 6.5t41.5 30.5q46 49 133 181
l7 -3z" />
    <glyph glyph-name="Ecircumflex" unicode="&#xca;" horiz-adv-x="626" 
d="M425 731l-6 -5q-17 21 -37 41t-47 45t-36 34q-9 -9 -36 -33.5t-47.5 -45t-36.5 -41.5l-7 5q23 36 83 155q20 39 44 39t44 -39q61 -121 82 -155zM508 -32l-7 2q2 30 -38 30h-222q-15 0 -45 0.5t-48 0.5q-17 0 -43 -0.5t-39 -0.5h-30v9h3q30 0 42 14.5t12 49.5v536
q0 35 -12 49t-42 14h-3v9h30q13 0 39 -0.5t43 -0.5q18 0 53 0.5t51 0.5h202q21 0 30.5 7.5t8.5 22.5l7 2l84 -239l-7 -3q-97 135 -127 166q-20 20 -40 26.5t-52 6.5h-156v-319h108q55 0 75.5 33.5t28.5 103.5h9v-288h-9q-8 70 -28.5 105t-75.5 35h-108v-329h164
q34 0 53.5 6.5t41.5 30.5q46 49 133 181l7 -3z" />
    <glyph glyph-name="Edieresis" unicode="&#xcb;" horiz-adv-x="626" 
d="M256 806q0 -22 -15.5 -36.5t-37.5 -14.5t-37.5 14.5t-15.5 36.5t15.5 37t37.5 15t37.5 -15t15.5 -37zM449 806q0 -22 -15.5 -36.5t-37.5 -14.5t-37.5 14.5t-15.5 36.5t15.5 37t37.5 15q21 0 37 -15t16 -37zM508 -32l-7 2q2 30 -38 30h-222q-15 0 -45 0.5t-48 0.5
q-17 0 -43 -0.5t-39 -0.5h-30v9h3q30 0 42 14.5t12 49.5v536q0 35 -12 49t-42 14h-3v9h30q13 0 39 -0.5t43 -0.5q18 0 53 0.5t51 0.5h202q21 0 30.5 7.5t8.5 22.5l7 2l84 -239l-7 -3q-97 135 -127 166q-20 20 -40 26.5t-52 6.5h-156v-319h108q55 0 75.5 33.5t28.5 103.5h9
v-288h-9q-8 70 -28.5 105t-75.5 35h-108v-329h164q34 0 53.5 6.5t41.5 30.5q46 49 133 181l7 -3z" />
    <glyph glyph-name="Igrave" unicode="&#xcc;" horiz-adv-x="295" 
d="M210 731l-6 -4q-29 37 -75.5 78t-61.5 60q-9 12 -9 26q0 15 11 26t27 11q21 0 34 -21q12 -19 35 -77.5t45 -98.5zM202 73q0 -35 12 -49.5t42 -14.5h3v-9h-30q-12 0 -38.5 1.5t-43.5 1.5q-16 0 -42 -1.5t-39 -1.5h-30v9h3q30 0 42 14.5t12 49.5v536q0 35 -12 49t-42 14h-3
v9h30q13 0 39 -1.5t42 -1.5q17 0 43.5 1.5t38.5 1.5h30v-9h-3q-30 0 -42 -14t-12 -49v-536z" />
    <glyph glyph-name="Iacute" unicode="&#xcd;" horiz-adv-x="295" 
d="M90 727l-7 4q22 39 45 97t36 78q14 22 33 22q16 0 27 -11t11 -26q0 -14 -9 -26q-15 -19 -61.5 -60t-74.5 -78zM202 73q0 -35 12 -49.5t42 -14.5h3v-9h-30q-12 0 -38.5 1.5t-43.5 1.5q-16 0 -42 -1.5t-39 -1.5h-30v9h3q30 0 42 14.5t12 49.5v536q0 35 -12 49t-42 14h-3v9
h30q13 0 39 -1.5t42 -1.5q17 0 43.5 1.5t38.5 1.5h30v-9h-3q-30 0 -42 -14t-12 -49v-536z" />
    <glyph glyph-name="Icircumflex" unicode="&#xce;" horiz-adv-x="295" 
d="M274 731l-6 -5q-17 21 -37 41t-47 45t-36 34q-9 -9 -36 -33.5t-47.5 -45t-36.5 -41.5l-7 5q23 36 83 155q20 39 44 39t44 -39q61 -121 82 -155zM202 73q0 -35 12 -49.5t42 -14.5h3v-9h-30q-12 0 -38.5 1.5t-43.5 1.5q-16 0 -42 -1.5t-39 -1.5h-30v9h3q30 0 42 14.5
t12 49.5v536q0 35 -12 49t-42 14h-3v9h30q13 0 39 -1.5t42 -1.5q17 0 43.5 1.5t38.5 1.5h30v-9h-3q-30 0 -42 -14t-12 -49v-536z" />
    <glyph glyph-name="Idieresis" unicode="&#xcf;" horiz-adv-x="295" 
d="M105 806q0 -22 -15.5 -36.5t-37.5 -14.5t-37.5 14.5t-15.5 36.5t15.5 37t37.5 15t37.5 -15t15.5 -37zM298 806q0 -22 -15.5 -36.5t-37.5 -14.5t-37.5 14.5t-15.5 36.5t15.5 37t37.5 15q21 0 37 -15t16 -37zM202 73q0 -35 12 -49.5t42 -14.5h3v-9h-30q-12 0 -38.5 1.5
t-43.5 1.5q-16 0 -42 -1.5t-39 -1.5h-30v9h3q30 0 42 14.5t12 49.5v536q0 35 -12 49t-42 14h-3v9h30q13 0 39 -1.5t42 -1.5q17 0 43.5 1.5t38.5 1.5h30v-9h-3q-30 0 -42 -14t-12 -49v-536z" />
    <glyph glyph-name="Eth" unicode="&#xd0;" horiz-adv-x="672" 
d="M638 340q0 -159 -88.5 -249.5t-222.5 -90.5h-63q-18 0 -51 0.5t-55 0.5q-16 0 -41.5 -0.5t-38.5 -0.5h-31v9h2q30 0 42 14.5t12 49.5v268h-78v11h78v257q0 35 -12 49t-42 14h-2v9h31q13 0 38.5 -0.5t41.5 -0.5q21 0 54.5 0.5t51.5 0.5h63q134 0 222.5 -90.5t88.5 -250.5z
M340 341h-128v-330h99q115 0 160.5 75t45.5 254q0 180 -45.5 255t-160.5 75h-99v-318h128v-11z" />
    <glyph glyph-name="Ntilde" unicode="&#xd1;" horiz-adv-x="700" 
d="M410 770q-22 0 -57 21.5t-60 21.5q-30 0 -64 -56l-7 4q2 3 11 18.5t12.5 21.5t13 19.5t16 19.5t16.5 14t20.5 11t21.5 3q22 0 57 -22t61 -22q28 0 63 56l7 -4q-1 -1 -11 -18t-13 -22t-12.5 -19t-16 -19t-16.5 -13.5t-20.5 -11.5t-21.5 -3zM655 0q-16 0 -37.5 0.5
t-26.5 0.5q-10 0 -32 -0.5t-34 -0.5l-406 597v-459q0 -53 23.5 -90.5t70.5 -38.5h2v-9h-20q-9 0 -36.5 1.5t-44.5 1.5t-45 -1.5t-37 -1.5h-19v9h2q47 0 70 38t23 91v472q-23 37 -37 49.5t-40 12.5h-4v9h21q15 0 37 -0.5t36 -0.5q17 0 38.5 0.5t33.5 0.5l391 -571v433
q0 53 -23.5 90.5t-69.5 38.5h-2v9h19q9 0 37 -1.5t44 -1.5q17 0 45 1.5t37 1.5h19v-9h-2q-46 0 -69.5 -38t-23.5 -91v-449z" />
    <glyph glyph-name="Ograve" unicode="&#xd2;" horiz-adv-x="684" 
d="M405 731l-6 -4q-29 37 -75.5 78t-61.5 60q-9 12 -9 26q0 15 11 26t27 11q21 0 34 -21q12 -19 35 -77.5t45 -98.5zM342 -10q-130 0 -219.5 99t-89.5 252t89.5 251.5t219.5 98.5t219.5 -98.5t89.5 -251.5t-89.5 -252t-219.5 -99zM342 0q187 0 187 341q0 340 -187 340
t-187 -340q0 -341 187 -341z" />
    <glyph glyph-name="Oacute" unicode="&#xd3;" horiz-adv-x="684" 
d="M285 727l-7 4q22 39 45 97t36 78q14 22 33 22q16 0 27 -11t11 -26q0 -14 -9 -26q-15 -19 -61.5 -60t-74.5 -78zM342 -10q-130 0 -219.5 99t-89.5 252t89.5 251.5t219.5 98.5t219.5 -98.5t89.5 -251.5t-89.5 -252t-219.5 -99zM342 0q187 0 187 341q0 340 -187 340
t-187 -340q0 -341 187 -341z" />
    <glyph glyph-name="Ocircumflex" unicode="&#xd4;" horiz-adv-x="684" 
d="M468 731l-6 -5q-17 21 -37 41t-47 45t-36 34q-9 -9 -36 -33.5t-47.5 -45t-36.5 -41.5l-7 5q23 36 83 155q20 39 44 39t44 -39q61 -121 82 -155zM342 -10q-130 0 -219.5 99t-89.5 252t89.5 251.5t219.5 98.5t219.5 -98.5t89.5 -251.5t-89.5 -252t-219.5 -99zM342 0
q187 0 187 341q0 340 -187 340t-187 -340q0 -341 187 -341z" />
    <glyph glyph-name="Otilde" unicode="&#xd5;" horiz-adv-x="684" 
d="M380 770q-22 0 -57 21.5t-60 21.5q-30 0 -64 -56l-7 4q2 3 11 18.5t12.5 21.5t13 19.5t16 19.5t16.5 14t20.5 11t21.5 3q22 0 57 -22t61 -22q28 0 63 56l7 -4q-1 -1 -11 -18t-13 -22t-12.5 -19t-16 -19t-16.5 -13.5t-20.5 -11.5t-21.5 -3zM342 -10q-130 0 -219.5 99
t-89.5 252t89.5 251.5t219.5 98.5t219.5 -98.5t89.5 -251.5t-89.5 -252t-219.5 -99zM342 0q187 0 187 341q0 340 -187 340t-187 -340q0 -341 187 -341z" />
    <glyph glyph-name="Odieresis" unicode="&#xd6;" horiz-adv-x="684" 
d="M299 806q0 -22 -15.5 -36.5t-37.5 -14.5t-37.5 14.5t-15.5 36.5t15.5 37t37.5 15t37.5 -15t15.5 -37zM492 806q0 -22 -15.5 -36.5t-37.5 -14.5t-37.5 14.5t-15.5 36.5t15.5 37t37.5 15q21 0 37 -15t16 -37zM342 -10q-130 0 -219.5 99t-89.5 252t89.5 251.5t219.5 98.5
t219.5 -98.5t89.5 -251.5t-89.5 -252t-219.5 -99zM342 0q187 0 187 341q0 340 -187 340t-187 -340q0 -341 187 -341z" />
    <glyph glyph-name="multiply" unicode="&#xd7;" horiz-adv-x="421" 
d="M379 485l-162 -162l163 -162l-8 -8l-163 162l-162 -162l-8 8l162 162l-162 162l8 8l162 -162l162 162z" />
    <glyph glyph-name="Oslash" unicode="&#xd8;" horiz-adv-x="684" 
d="M342 -10q-96 0 -173 57l-64 -106l-9 6l65 106q-60 47 -94 121.5t-34 166.5q0 153 89.5 251.5t219.5 98.5q96 0 172 -56l64 104l10 -6l-64 -105q59 -47 93 -121.5t34 -165.5q0 -153 -89.5 -252t-219.5 -99zM342 681q-187 0 -187 -340q0 -155 38 -235l293 480
q-45 95 -144 95zM342 0q187 0 187 341q0 157 -37 232l-294 -479q46 -94 144 -94z" />
    <glyph glyph-name="Ugrave" unicode="&#xd9;" horiz-adv-x="637" 
d="M404 731l-6 -4q-29 37 -75.5 78t-61.5 60q-9 12 -9 26q0 15 11 26t27 11q21 0 34 -21q12 -19 35 -77.5t45 -98.5zM553 214q0 -100 -58.5 -161t-167.5 -61q-247 0 -247 224v393q0 34 -12.5 48.5t-42.5 14.5h-2v9h30q12 0 38.5 -1.5t42.5 -1.5t42.5 1.5t39.5 1.5h30v-9h-3
q-30 0 -42 -14t-12 -49v-366q0 -120 41.5 -175.5t128.5 -55.5q82 0 132.5 55.5t50.5 146.5v329q0 53 -23.5 90.5t-69.5 38.5h-2v9h19q9 0 37 -1.5t44 -1.5q17 0 45 1.5t37 1.5h19v-9h-2q-46 0 -69.5 -38t-23.5 -91v-329z" />
    <glyph glyph-name="Uacute" unicode="&#xda;" horiz-adv-x="637" 
d="M284 727l-7 4q22 39 45 97t36 78q14 22 33 22q16 0 27 -11t11 -26q0 -14 -9 -26q-15 -19 -61.5 -60t-74.5 -78zM553 214q0 -100 -58.5 -161t-167.5 -61q-247 0 -247 224v393q0 34 -12.5 48.5t-42.5 14.5h-2v9h30q12 0 38.5 -1.5t42.5 -1.5t42.5 1.5t39.5 1.5h30v-9h-3
q-30 0 -42 -14t-12 -49v-366q0 -120 41.5 -175.5t128.5 -55.5q82 0 132.5 55.5t50.5 146.5v329q0 53 -23.5 90.5t-69.5 38.5h-2v9h19q9 0 37 -1.5t44 -1.5q17 0 45 1.5t37 1.5h19v-9h-2q-46 0 -69.5 -38t-23.5 -91v-329z" />
    <glyph glyph-name="Ucircumflex" unicode="&#xdb;" horiz-adv-x="637" 
d="M467 731l-6 -5q-17 21 -37 41t-47 45t-36 34q-9 -9 -36 -33.5t-47.5 -45t-36.5 -41.5l-7 5q23 36 83 155q20 39 44 39t44 -39q61 -121 82 -155zM553 214q0 -100 -58.5 -161t-167.5 -61q-247 0 -247 224v393q0 34 -12.5 48.5t-42.5 14.5h-2v9h30q12 0 38.5 -1.5t42.5 -1.5
t42.5 1.5t39.5 1.5h30v-9h-3q-30 0 -42 -14t-12 -49v-366q0 -120 41.5 -175.5t128.5 -55.5q82 0 132.5 55.5t50.5 146.5v329q0 53 -23.5 90.5t-69.5 38.5h-2v9h19q9 0 37 -1.5t44 -1.5q17 0 45 1.5t37 1.5h19v-9h-2q-46 0 -69.5 -38t-23.5 -91v-329z" />
    <glyph glyph-name="Udieresis" unicode="&#xdc;" horiz-adv-x="637" 
d="M298 806q0 -22 -15.5 -36.5t-37.5 -14.5t-37.5 14.5t-15.5 36.5t15.5 37t37.5 15t37.5 -15t15.5 -37zM491 806q0 -22 -15.5 -36.5t-37.5 -14.5t-37.5 14.5t-15.5 36.5t15.5 37t37.5 15q21 0 37 -15t16 -37zM553 214q0 -100 -58.5 -161t-167.5 -61q-247 0 -247 224v393
q0 34 -12.5 48.5t-42.5 14.5h-2v9h30q12 0 38.5 -1.5t42.5 -1.5t42.5 1.5t39.5 1.5h30v-9h-3q-30 0 -42 -14t-12 -49v-366q0 -120 41.5 -175.5t128.5 -55.5q82 0 132.5 55.5t50.5 146.5v329q0 53 -23.5 90.5t-69.5 38.5h-2v9h19q9 0 37 -1.5t44 -1.5q17 0 45 1.5t37 1.5h19
v-9h-2q-46 0 -69.5 -38t-23.5 -91v-329z" />
    <glyph glyph-name="Yacute" unicode="&#xdd;" horiz-adv-x="614" 
d="M274 727l-7 4q22 39 45 97t36 78q14 22 33 22q16 0 27 -11t11 -26q0 -14 -9 -26q-15 -19 -61.5 -60t-74.5 -78zM370 73q0 -35 12 -49.5t42 -14.5h3v-9h-30q-13 0 -39.5 1.5t-42.5 1.5t-42.5 -1.5t-38.5 -1.5h-30v9h2q30 0 42.5 14.5t12.5 49.5v236l-196 311
q-33 52 -78 52v9h39q9 0 36 -1.5t44 -1.5t45.5 1.5t37.5 1.5h41v-9q-43 0 -43 -28q0 -15 11 -34l166 -260l112 185q32 55 32 83q0 54 -66 54h-1v9h13q13 0 46 -1.5t47 -1.5q10 0 40.5 1.5t41.5 1.5h17v-9h-1q-45 -1 -83 -38.5t-78 -105.5l-114 -190v-265z" />
    <glyph glyph-name="Thorn" unicode="&#xde;" horiz-adv-x="594" 
d="M259 0h-30q-12 0 -38.5 1.5t-43.5 1.5q-16 0 -42 -1.5t-39 -1.5h-30v9h3q30 0 42 14.5t12 49.5v536q0 35 -12 49t-42 14h-3v9h30q13 0 39 -1.5t42 -1.5q17 0 43.5 1.5t38.5 1.5h30v-9h-3q-30 0 -42 -14t-12 -49v-68h133q113 0 179 -47.5t66 -136.5q0 -90 -66 -137.5
t-179 -47.5h-133v-99q0 -35 12 -49.5t42 -14.5h3v-9zM202 183h124q77 0 106 40.5t29 133.5t-29 133t-106 40h-124v-347z" />
    <glyph glyph-name="germandbls" unicode="&#xdf;" horiz-adv-x="598" 
d="M581 161q0 -76 -49.5 -122.5t-114.5 -46.5q-23 0 -61 10.5t-47 10.5q-22 0 -22 -23l-7 -1l-48 184l7 2q88 -174 178 -174q40 0 65.5 29t25.5 73q0 74 -81 119l-67 38q-72 39 -72 91q0 27 13.5 48t48.5 59q32 34 45 64t13 69q0 47 -26 73t-74 26q-65 0 -94.5 -39
t-29.5 -119v-532q-7 0 -25 1t-26 1q-17 0 -42.5 -1t-39.5 -1h-25v8h3q31 0 41.5 14t10.5 47v411h-66v10h66q4 99 64 154t163 55q73 0 122.5 -26.5t49.5 -72.5q0 -27 -16.5 -50t-54.5 -52q-62 -46 -62 -78q0 -31 60 -63l65 -35q109 -58 109 -161z" />
    <glyph glyph-name="agrave" unicode="&#xe0;" horiz-adv-x="516" 
d="M324 542l-6 -4q-29 37 -75.5 78t-61.5 60q-9 12 -9 26q0 15 11 26t27 11q21 0 34 -21q12 -19 35 -77.5t45 -98.5zM410 -8q-66 0 -76 63q-77 -63 -157 -63q-61 0 -96.5 34.5t-35.5 93.5t42 98.5t115 69.5l129 54v84q0 34 -10 48t-36 14q-76 0 -140 -99q-13 -23 -23 -32.5
t-25 -9.5t-26 10.5t-11 26.5q0 42 79 78t162 36q73 0 102 -26t29 -83v-328q0 -36 26 -36t44 41l7 -3q-11 -29 -37 -50t-62 -21zM214 12q53 0 119 53q-2 12 -2 35v231l-93 -38q-51 -21 -68 -58.5t-17 -103.5q0 -119 61 -119z" />
    <glyph glyph-name="aacute" unicode="&#xe1;" horiz-adv-x="516" 
d="M204 538l-7 4q22 39 45 97t36 78q14 22 33 22q16 0 27 -11t11 -26q0 -14 -9 -26q-15 -19 -61.5 -60t-74.5 -78zM410 -8q-66 0 -76 63q-77 -63 -157 -63q-61 0 -96.5 34.5t-35.5 93.5t42 98.5t115 69.5l129 54v84q0 34 -10 48t-36 14q-76 0 -140 -99q-13 -23 -23 -32.5
t-25 -9.5t-26 10.5t-11 26.5q0 42 79 78t162 36q73 0 102 -26t29 -83v-328q0 -36 26 -36t44 41l7 -3q-11 -29 -37 -50t-62 -21zM214 12q53 0 119 53q-2 12 -2 35v231l-93 -38q-51 -21 -68 -58.5t-17 -103.5q0 -119 61 -119z" />
    <glyph glyph-name="acircumflex" unicode="&#xe2;" horiz-adv-x="516" 
d="M387 542l-6 -5q-17 21 -37 41t-47 45t-36 34q-9 -9 -36 -33.5t-47.5 -45t-36.5 -41.5l-7 5q23 36 83 155q20 39 44 39t44 -39q61 -121 82 -155zM410 -8q-66 0 -76 63q-77 -63 -157 -63q-61 0 -96.5 34.5t-35.5 93.5t42 98.5t115 69.5l129 54v84q0 34 -10 48t-36 14
q-76 0 -140 -99q-13 -23 -23 -32.5t-25 -9.5t-26 10.5t-11 26.5q0 42 79 78t162 36q73 0 102 -26t29 -83v-328q0 -36 26 -36t44 41l7 -3q-11 -29 -37 -50t-62 -21zM214 12q53 0 119 53q-2 12 -2 35v231l-93 -38q-51 -21 -68 -58.5t-17 -103.5q0 -119 61 -119z" />
    <glyph glyph-name="atilde" unicode="&#xe3;" horiz-adv-x="516" 
d="M299 581q-22 0 -57 21.5t-60 21.5q-30 0 -64 -56l-7 4q2 3 11 18.5t12.5 21.5t13 19.5t16 19.5t16.5 14t20.5 11t21.5 3q22 0 57 -22t61 -22q28 0 63 56l7 -4q-1 -1 -11 -18t-13 -22t-12.5 -19t-16 -19t-16.5 -13.5t-20.5 -11.5t-21.5 -3zM410 -8q-66 0 -76 63
q-77 -63 -157 -63q-61 0 -96.5 34.5t-35.5 93.5t42 98.5t115 69.5l129 54v84q0 34 -10 48t-36 14q-76 0 -140 -99q-13 -23 -23 -32.5t-25 -9.5t-26 10.5t-11 26.5q0 42 79 78t162 36q73 0 102 -26t29 -83v-328q0 -36 26 -36t44 41l7 -3q-11 -29 -37 -50t-62 -21zM214 12
q53 0 119 53q-2 12 -2 35v231l-93 -38q-51 -21 -68 -58.5t-17 -103.5q0 -119 61 -119z" />
    <glyph glyph-name="adieresis" unicode="&#xe4;" horiz-adv-x="516" 
d="M218 627q0 -22 -15.5 -36.5t-37.5 -14.5t-37.5 14.5t-15.5 36.5t15.5 37t37.5 15t37.5 -15t15.5 -37zM411 627q0 -22 -15.5 -36.5t-37.5 -14.5t-37.5 14.5t-15.5 36.5t15.5 37t37.5 15q21 0 37 -15t16 -37zM410 -8q-66 0 -76 63q-77 -63 -157 -63q-61 0 -96.5 34.5
t-35.5 93.5t42 98.5t115 69.5l129 54v84q0 34 -10 48t-36 14q-76 0 -140 -99q-13 -23 -23 -32.5t-25 -9.5t-26 10.5t-11 26.5q0 42 79 78t162 36q73 0 102 -26t29 -83v-328q0 -36 26 -36t44 41l7 -3q-11 -29 -37 -50t-62 -21zM214 12q53 0 119 53q-2 12 -2 35v231l-93 -38
q-51 -21 -68 -58.5t-17 -103.5q0 -119 61 -119z" />
    <glyph glyph-name="aring" unicode="&#xe5;" horiz-adv-x="516" 
d="M346 639q0 -36 -24.5 -61.5t-60.5 -25.5t-61 25.5t-25 61.5t25 61.5t61 25.5t60.5 -25.5t24.5 -61.5zM335 639q0 31 -21.5 53.5t-52.5 22.5q-32 0 -53.5 -22.5t-21.5 -53.5t21.5 -53.5t53.5 -22.5q31 0 52.5 22.5t21.5 53.5zM410 -8q-66 0 -76 63q-77 -63 -157 -63
q-61 0 -96.5 34.5t-35.5 93.5t42 98.5t115 69.5l129 54v84q0 34 -10 48t-36 14q-76 0 -140 -99q-13 -23 -23 -32.5t-25 -9.5t-26 10.5t-11 26.5q0 42 79 78t162 36q73 0 102 -26t29 -83v-328q0 -36 26 -36t44 41l7 -3q-11 -29 -37 -50t-62 -21zM214 12q53 0 119 53
q-2 12 -2 35v231l-93 -38q-51 -21 -68 -58.5t-17 -103.5q0 -119 61 -119z" />
    <glyph glyph-name="ae" unicode="&#xe6;" horiz-adv-x="779" 
d="M542 -8q-49 0 -93 25t-75 70q-84 -95 -184 -95q-61 0 -103 39t-42 115q0 77 62.5 126t166.5 49h59v105q0 34 -10 48t-37 14q-79 0 -138 -99q-13 -22 -23.5 -32t-25.5 -10t-26 10.5t-11 26.5q0 42 78.5 78t161.5 36q50 0 73.5 -15.5t32.5 -50.5q55 66 141 66
q81 0 136 -50.5t54 -134.5h-303q-1 -15 -1 -31q0 -109 41.5 -176.5t111.5 -67.5q106 0 145 124l8 -2q-24 -80 -75 -124t-124 -44zM546 489q-45 0 -74.5 -40t-35.5 -126h205q-3 166 -95 166zM224 11q70 0 144 83q-35 61 -35 171v47h-51q-72 0 -100.5 -36.5t-28.5 -125.5
q0 -139 71 -139z" />
    <glyph glyph-name="ccedilla" unicode="&#xe7;" horiz-adv-x="478" 
d="M264 498q69 0 122.5 -44t53.5 -96q0 -18 -11 -30t-28 -12t-28 10.5t-11 27.5q0 3 0.5 13.5t0.5 21.5q0 41 -22.5 70.5t-71.5 29.5q-56 0 -89.5 -53t-33.5 -151q0 -118 42 -182.5t107 -64.5q49 0 86 31.5t56 92.5l8 -2q-24 -80 -75 -124.5t-125 -43.5l-30 -50q12 2 23 2
q34 0 55.5 -17t21.5 -45q0 -50 -60.5 -87.5t-134.5 -44.5l-1 8q63 9 101.5 38.5t38.5 63.5q0 38 -51 38q-31 0 -55 -11l-4 5l87 100q-81 5 -141 73t-60 173q0 119 68.5 189.5t160.5 70.5z" />
    <glyph glyph-name="egrave" unicode="&#xe8;" horiz-adv-x="490" 
d="M322 542l-6 -4q-29 37 -75.5 78t-61.5 60q-9 12 -9 26q0 15 11 26t27 11q21 0 34 -21q12 -19 35 -77.5t45 -98.5zM253 -8q-85 0 -151.5 69t-66.5 178q0 118 69 188.5t158 70.5q79 0 134.5 -50.5t53.5 -134.5h-303q-1 -9 -1 -31q0 -109 42 -176.5t112 -67.5q104 0 144 124
l8 -2q-24 -80 -74.5 -124t-124.5 -44zM352 323q-1 166 -95 166q-46 0 -75.5 -42t-34.5 -124h205z" />
    <glyph glyph-name="eacute" unicode="&#xe9;" horiz-adv-x="490" 
d="M203 538l-7 4q22 39 45 97t36 78q14 22 33 22q16 0 27 -11t11 -26q0 -14 -9 -26q-15 -19 -61.5 -60t-74.5 -78zM253 -8q-85 0 -151.5 69t-66.5 178q0 118 69 188.5t158 70.5q79 0 134.5 -50.5t53.5 -134.5h-303q-1 -9 -1 -31q0 -109 42 -176.5t112 -67.5q104 0 144 124
l8 -2q-24 -80 -74.5 -124t-124.5 -44zM352 323q-1 166 -95 166q-46 0 -75.5 -42t-34.5 -124h205z" />
    <glyph glyph-name="ecircumflex" unicode="&#xea;" horiz-adv-x="490" 
d="M385 542l-6 -5q-17 21 -37 41t-47 45t-36 34q-9 -9 -36 -33.5t-47.5 -45t-36.5 -41.5l-7 5q23 36 83 155q20 39 44 39t44 -39q61 -121 82 -155zM253 -8q-85 0 -151.5 69t-66.5 178q0 118 69 188.5t158 70.5q79 0 134.5 -50.5t53.5 -134.5h-303q-1 -9 -1 -31
q0 -109 42 -176.5t112 -67.5q104 0 144 124l8 -2q-24 -80 -74.5 -124t-124.5 -44zM352 323q-1 166 -95 166q-46 0 -75.5 -42t-34.5 -124h205z" />
    <glyph glyph-name="edieresis" unicode="&#xeb;" horiz-adv-x="490" 
d="M216 627q0 -22 -15.5 -36.5t-37.5 -14.5t-37.5 14.5t-15.5 36.5t15.5 37t37.5 15t37.5 -15t15.5 -37zM409 627q0 -22 -15.5 -36.5t-37.5 -14.5t-37.5 14.5t-15.5 36.5t15.5 37t37.5 15q21 0 37 -15t16 -37zM253 -8q-85 0 -151.5 69t-66.5 178q0 118 69 188.5t158 70.5
q79 0 134.5 -50.5t53.5 -134.5h-303q-1 -9 -1 -31q0 -109 42 -176.5t112 -67.5q104 0 144 124l8 -2q-24 -80 -74.5 -124t-124.5 -44zM352 323q-1 166 -95 166q-46 0 -75.5 -42t-34.5 -124h205z" />
    <glyph glyph-name="igrave" unicode="&#xec;" horiz-adv-x="270" 
d="M200 542l-6 -4q-29 37 -75.5 78t-61.5 60q-9 12 -9 26q0 15 11 26t27 11q21 0 34 -21q12 -19 35 -77.5t45 -98.5zM245 0h-25q-14 0 -39.5 1.5t-42.5 1.5t-42.5 -1.5t-38.5 -1.5h-25v8h2q32 0 42.5 14t10.5 48v320q0 33 -10.5 47t-42.5 14h-2v8h20q38 0 79.5 12t51.5 30h7
v-431q0 -34 10.5 -48t41.5 -14h3v-8z" />
    <glyph glyph-name="iacute" unicode="&#xed;" horiz-adv-x="270" 
d="M80 538l-7 4q22 39 45 97t36 78q14 22 33 22q16 0 27 -11t11 -26q0 -14 -9 -26q-15 -19 -61.5 -60t-74.5 -78zM245 0h-25q-14 0 -39.5 1.5t-42.5 1.5t-42.5 -1.5t-38.5 -1.5h-25v8h2q32 0 42.5 14t10.5 48v320q0 33 -10.5 47t-42.5 14h-2v8h20q38 0 79.5 12t51.5 30h7
v-431q0 -34 10.5 -48t41.5 -14h3v-8z" />
    <glyph glyph-name="icircumflex" unicode="&#xee;" horiz-adv-x="270" 
d="M263 542l-6 -5q-17 21 -37 41t-47 45t-36 34q-9 -9 -36 -33.5t-47.5 -45t-36.5 -41.5l-7 5q23 36 83 155q20 39 44 39t44 -39q61 -121 82 -155zM245 0h-25q-14 0 -39.5 1.5t-42.5 1.5t-42.5 -1.5t-38.5 -1.5h-25v8h2q32 0 42.5 14t10.5 48v320q0 33 -10.5 47t-42.5 14h-2
v8h20q38 0 79.5 12t51.5 30h7v-431q0 -34 10.5 -48t41.5 -14h3v-8z" />
    <glyph glyph-name="idieresis" unicode="&#xef;" horiz-adv-x="270" 
d="M94 627q0 -22 -15.5 -36.5t-37.5 -14.5t-37.5 14.5t-15.5 36.5t15.5 37t37.5 15t37.5 -15t15.5 -37zM287 627q0 -22 -15.5 -36.5t-37.5 -14.5t-37.5 14.5t-15.5 36.5t15.5 37t37.5 15q21 0 37 -15t16 -37zM245 0h-25q-14 0 -39.5 1.5t-42.5 1.5t-42.5 -1.5t-38.5 -1.5
h-25v8h2q32 0 42.5 14t10.5 48v320q0 33 -10.5 47t-42.5 14h-2v8h20q38 0 79.5 12t51.5 30h7v-431q0 -34 10.5 -48t41.5 -14h3v-8z" />
    <glyph glyph-name="eth" unicode="&#xf0;" horiz-adv-x="526" 
d="M262 -8q-87 0 -157.5 68.5t-70.5 184.5q0 114 62.5 183.5t152.5 69.5q58 0 101 -34q-27 83 -81 136l-102 -67l-5 8l100 66q-64 62 -165 79l1 8q109 -15 196 -66l94 62l5 -8l-91 -60q87 -55 138 -140.5t51 -187.5q0 -85 -22.5 -147.5t-58.5 -94t-73 -46t-75 -14.5zM262 1
q58 0 86 59t28 215q0 101 -22 175q-38 36 -90 36q-27 0 -46.5 -9.5t-36 -34.5t-25 -74t-8.5 -123q0 -134 28.5 -189t85.5 -55z" />
    <glyph glyph-name="ntilde" unicode="&#xf1;" horiz-adv-x="562" 
d="M327 581q-22 0 -57 21.5t-60 21.5q-30 0 -64 -56l-7 4q2 3 11 18.5t12.5 21.5t13 19.5t16 19.5t16.5 14t20.5 11t21.5 3q22 0 57 -22t61 -22q28 0 63 56l7 -4q-1 -1 -11 -18t-13 -22t-12.5 -19t-16 -19t-16.5 -13.5t-20.5 -11.5t-21.5 -3zM540 0h-25q-14 0 -39.5 1.5
t-42.5 1.5t-42.5 -1.5t-38.5 -1.5h-25v8h2q32 0 42.5 14t10.5 48v354q0 44 -34 44q-16 0 -72 -20l-86 -33v-345q0 -34 10.5 -48t41.5 -14h3v-8h-25q-14 0 -39.5 1.5t-42.5 1.5t-42.5 -1.5t-38.5 -1.5h-25v8h2q32 0 42.5 14t10.5 48v320q0 33 -10.5 47t-42.5 14h-2v8h20
q38 0 79.5 12t51.5 30h7v-76l110 42q79 31 118 31q67 0 67 -74v-354q0 -34 10.5 -48t41.5 -14h3v-8z" />
    <glyph glyph-name="ograve" unicode="&#xf2;" horiz-adv-x="526" 
d="M325 542l-6 -4q-29 37 -75.5 78t-61.5 60q-9 12 -9 26q0 15 11 26t27 11q21 0 34 -21q12 -19 35 -77.5t45 -98.5zM263 -8q-93 0 -160.5 72.5t-67.5 180.5t67.5 180.5t160.5 72.5t160.5 -72.5t67.5 -180.5t-67.5 -180.5t-160.5 -72.5zM263 1q58 0 86 51.5t28 192.5
t-28 192.5t-86 51.5t-86 -51.5t-28 -192.5t28 -192.5t86 -51.5z" />
    <glyph glyph-name="oacute" unicode="&#xf3;" horiz-adv-x="526" 
d="M206 538l-7 4q22 39 45 97t36 78q14 22 33 22q16 0 27 -11t11 -26q0 -14 -9 -26q-15 -19 -61.5 -60t-74.5 -78zM263 -8q-93 0 -160.5 72.5t-67.5 180.5t67.5 180.5t160.5 72.5t160.5 -72.5t67.5 -180.5t-67.5 -180.5t-160.5 -72.5zM263 1q58 0 86 51.5t28 192.5
t-28 192.5t-86 51.5t-86 -51.5t-28 -192.5t28 -192.5t86 -51.5z" />
    <glyph glyph-name="ocircumflex" unicode="&#xf4;" horiz-adv-x="526" 
d="M388 542l-6 -5q-17 21 -37 41t-47 45t-36 34q-9 -9 -36 -33.5t-47.5 -45t-36.5 -41.5l-7 5q23 36 83 155q20 39 44 39t44 -39q61 -121 82 -155zM263 -8q-93 0 -160.5 72.5t-67.5 180.5t67.5 180.5t160.5 72.5t160.5 -72.5t67.5 -180.5t-67.5 -180.5t-160.5 -72.5zM263 1
q58 0 86 51.5t28 192.5t-28 192.5t-86 51.5t-86 -51.5t-28 -192.5t28 -192.5t86 -51.5z" />
    <glyph glyph-name="otilde" unicode="&#xf5;" horiz-adv-x="526" 
d="M301 581q-22 0 -57 21.5t-60 21.5q-30 0 -64 -56l-7 4q2 3 11 18.5t12.5 21.5t13 19.5t16 19.5t16.5 14t20.5 11t21.5 3q22 0 57 -22t61 -22q28 0 63 56l7 -4q-1 -1 -11 -18t-13 -22t-12.5 -19t-16 -19t-16.5 -13.5t-20.5 -11.5t-21.5 -3zM263 -8q-93 0 -160.5 72.5
t-67.5 180.5t67.5 180.5t160.5 72.5t160.5 -72.5t67.5 -180.5t-67.5 -180.5t-160.5 -72.5zM263 1q58 0 86 51.5t28 192.5t-28 192.5t-86 51.5t-86 -51.5t-28 -192.5t28 -192.5t86 -51.5z" />
    <glyph glyph-name="odieresis" unicode="&#xf6;" horiz-adv-x="526" 
d="M220 627q0 -22 -15.5 -36.5t-37.5 -14.5t-37.5 14.5t-15.5 36.5t15.5 37t37.5 15t37.5 -15t15.5 -37zM413 627q0 -22 -15.5 -36.5t-37.5 -14.5t-37.5 14.5t-15.5 36.5t15.5 37t37.5 15q21 0 37 -15t16 -37zM263 -8q-93 0 -160.5 72.5t-67.5 180.5t67.5 180.5t160.5 72.5
t160.5 -72.5t67.5 -180.5t-67.5 -180.5t-160.5 -72.5zM263 1q58 0 86 51.5t28 192.5t-28 192.5t-86 51.5t-86 -51.5t-28 -192.5t28 -192.5t86 -51.5z" />
    <glyph glyph-name="divide" unicode="&#xf7;" horiz-adv-x="534" 
d="M261 424q-26 0 -44.5 17.5t-18.5 43.5q0 27 18.5 45t44.5 18t44.5 -18t18.5 -45q0 -26 -18.5 -43.5t-44.5 -17.5zM47 317v11h440v-11h-440zM261 97q-26 0 -44.5 18t-18.5 44t18.5 44t44.5 18t44.5 -18t18.5 -44t-18.5 -44t-44.5 -18z" />
    <glyph glyph-name="oslash" unicode="&#xf8;" horiz-adv-x="526" 
d="M263 -8q-67 0 -125 40l-51 -82l-7 5l50 83q-95 75 -95 207q0 108 67.5 180.5t160.5 72.5q67 0 124 -40l51 83l9 -5l-52 -84q44 -35 70 -89t26 -118q0 -108 -67.5 -180.5t-160.5 -72.5zM263 489q-58 0 -86 -51.5t-28 -192.5q0 -100 14 -153l196 320q-24 77 -96 77zM263 1
q58 0 86 51.5t28 192.5q0 108 -15 154l-196 -320q24 -78 97 -78z" />
    <glyph glyph-name="ugrave" unicode="&#xf9;" horiz-adv-x="551" 
d="M337 542l-6 -4q-29 37 -75.5 78t-61.5 60q-9 12 -9 26q0 15 11 26t27 11q21 0 34 -21q12 -19 35 -77.5t45 -98.5zM526 0h-25q-14 0 -39.5 1t-42.5 1q-12 0 -28 -1t-23 -1v64l-105 -41q-80 -31 -119 -31q-66 0 -66 74v324q0 33 -11 47t-42 14h-3v8h20q38 0 80 12t52 30h6
v-435q0 -44 35 -44q22 0 72 20l81 32v316q0 33 -11 47t-42 14h-3v8h20q38 0 80 12t52 30h6v-431q0 -34 11 -48t42 -14h3v-8z" />
    <glyph glyph-name="uacute" unicode="&#xfa;" horiz-adv-x="551" 
d="M217 538l-7 4q22 39 45 97t36 78q14 22 33 22q16 0 27 -11t11 -26q0 -14 -9 -26q-15 -19 -61.5 -60t-74.5 -78zM526 0h-25q-14 0 -39.5 1t-42.5 1q-12 0 -28 -1t-23 -1v64l-105 -41q-80 -31 -119 -31q-66 0 -66 74v324q0 33 -11 47t-42 14h-3v8h20q38 0 80 12t52 30h6
v-435q0 -44 35 -44q22 0 72 20l81 32v316q0 33 -11 47t-42 14h-3v8h20q38 0 80 12t52 30h6v-431q0 -34 11 -48t42 -14h3v-8z" />
    <glyph glyph-name="ucircumflex" unicode="&#xfb;" horiz-adv-x="551" 
d="M400 542l-6 -5q-17 21 -37 41t-47 45t-36 34q-9 -9 -36 -33.5t-47.5 -45t-36.5 -41.5l-7 5q23 36 83 155q20 39 44 39t44 -39q61 -121 82 -155zM526 0h-25q-14 0 -39.5 1t-42.5 1q-12 0 -28 -1t-23 -1v64l-105 -41q-80 -31 -119 -31q-66 0 -66 74v324q0 33 -11 47t-42 14
h-3v8h20q38 0 80 12t52 30h6v-435q0 -44 35 -44q22 0 72 20l81 32v316q0 33 -11 47t-42 14h-3v8h20q38 0 80 12t52 30h6v-431q0 -34 11 -48t42 -14h3v-8z" />
    <glyph glyph-name="udieresis" unicode="&#xfc;" horiz-adv-x="551" 
d="M231 627q0 -22 -15.5 -36.5t-37.5 -14.5t-37.5 14.5t-15.5 36.5t15.5 37t37.5 15t37.5 -15t15.5 -37zM424 627q0 -22 -15.5 -36.5t-37.5 -14.5t-37.5 14.5t-15.5 36.5t15.5 37t37.5 15q21 0 37 -15t16 -37zM526 0h-25q-14 0 -39.5 1t-42.5 1q-12 0 -28 -1t-23 -1v64
l-105 -41q-80 -31 -119 -31q-66 0 -66 74v324q0 33 -11 47t-42 14h-3v8h20q38 0 80 12t52 30h6v-435q0 -44 35 -44q22 0 72 20l81 32v316q0 33 -11 47t-42 14h-3v8h20q38 0 80 12t52 30h6v-431q0 -34 11 -48t42 -14h3v-8z" />
    <glyph glyph-name="yacute" unicode="&#xfd;" horiz-adv-x="484" 
d="M201 538l-7 4q22 39 45 97t36 78q14 22 33 22q16 0 27 -11t11 -26q0 -14 -9 -26q-15 -19 -61.5 -60t-74.5 -78zM323 0q-10 0 -27.5 0.5t-25.5 0.5h-14l-22 -53q-42 -101 -78.5 -142t-103.5 -41q-24 0 -39 10t-15 26t10.5 25.5t27.5 9.5q18 0 46.5 -13t40.5 -13
q24 0 46.5 31.5t55.5 109.5l21 50l-31 -1l-156 426q-11 31 -25.5 43.5t-39.5 12.5v8h29q10 0 35 -1.5t43 -1.5t42.5 1.5t34.5 1.5h29v-8q-45 0 -45 -28q0 -6 4 -20l119 -331l97 271q10 24 10 50q0 58 -70 58v8h10q14 0 39.5 -1.5t40.5 -1.5q16 0 41.5 1.5t36.5 1.5h15v-8
q-74 -1 -114 -113l-100 -281z" />
    <glyph glyph-name="thorn" unicode="&#xfe;" horiz-adv-x="551" 
d="M180 50v-206q0 -62 64 -62h16v-8h-40q-15 0 -43.5 1.5t-47.5 1.5q-17 0 -42.5 -1.5t-39.5 -1.5h-25v8h3q31 0 42 14t11 48v768q0 33 -11 47t-42 14h-3v8h20q38 0 80 12t51 30h7v-283q71 58 143 58q78 0 133 -63t55 -190t-55 -190t-133 -63q-71 0 -143 58zM398 245
q0 100 -12 154.5t-30 70t-47 15.5q-61 0 -129 -59v-362q66 -59 129 -59q29 0 47 15.5t30 70t12 154.5z" />
    <glyph glyph-name="ydieresis" unicode="&#xff;" horiz-adv-x="484" 
d="M214 627q0 -22 -15.5 -36.5t-37.5 -14.5t-37.5 14.5t-15.5 36.5t15.5 37t37.5 15t37.5 -15t15.5 -37zM407 627q0 -22 -15.5 -36.5t-37.5 -14.5t-37.5 14.5t-15.5 36.5t15.5 37t37.5 15q21 0 37 -15t16 -37zM323 0q-10 0 -27.5 0.5t-25.5 0.5h-14l-22 -53
q-42 -101 -78.5 -142t-103.5 -41q-24 0 -39 10t-15 26t10.5 25.5t27.5 9.5q18 0 46.5 -13t40.5 -13q24 0 46.5 31.5t55.5 109.5l21 50l-31 -1l-156 426q-11 31 -25.5 43.5t-39.5 12.5v8h29q10 0 35 -1.5t43 -1.5t42.5 1.5t34.5 1.5h29v-8q-45 0 -45 -28q0 -6 4 -20l119 -331
l97 271q10 24 10 50q0 58 -70 58v8h10q14 0 39.5 -1.5t40.5 -1.5q16 0 41.5 1.5t36.5 1.5h15v-8q-74 -1 -114 -113l-100 -281z" />
    <glyph glyph-name="Amacron" unicode="&#x100;" horiz-adv-x="659" 
d="M430 796h-248v22h248v-22zM673 0h-32q-10 0 -39 1.5t-44 1.5q-17 0 -47 -1.5t-39 -1.5h-32v9q23 0 36 10t13 26q0 17 -9 36l-43 107h-305l-18 -45q-14 -38 -14 -65q0 -31 20.5 -50t56.5 -19v-9h-13q-13 0 -45.5 1.5t-46.5 1.5q-10 0 -40.5 -1.5t-41.5 -1.5h-19v9
q39 1 72 35t62 108l171 433l-39 96q11 0 31.5 -0.5t30.5 -0.5q11 0 29 0.5t27 0.5l245 -606q14 -35 30.5 -50.5t42.5 -15.5v-9zM282 572l-146 -373h296z" />
    <glyph glyph-name="amacron" unicode="&#x101;" horiz-adv-x="516" 
d="M384 607h-248v22h248v-22zM410 -8q-66 0 -76 63q-77 -63 -157 -63q-61 0 -96.5 34.5t-35.5 93.5t42 98.5t115 69.5l129 54v84q0 34 -10 48t-36 14q-76 0 -140 -99q-13 -23 -23 -32.5t-25 -9.5t-26 10.5t-11 26.5q0 42 79 78t162 36q73 0 102 -26t29 -83v-328
q0 -36 26 -36t44 41l7 -3q-11 -29 -37 -50t-62 -21zM214 12q53 0 119 53q-2 12 -2 35v231l-93 -38q-51 -21 -68 -58.5t-17 -103.5q0 -119 61 -119z" />
    <glyph glyph-name="Abreve" unicode="&#x102;" horiz-adv-x="659" 
d="M307 752q-86 0 -136 133l7 3q38 -72 129 -72t128 72l7 -3q-48 -133 -135 -133zM673 0h-32q-10 0 -39 1.5t-44 1.5q-17 0 -47 -1.5t-39 -1.5h-32v9q23 0 36 10t13 26q0 17 -9 36l-43 107h-305l-18 -45q-14 -38 -14 -65q0 -31 20.5 -50t56.5 -19v-9h-13q-13 0 -45.5 1.5
t-46.5 1.5q-10 0 -40.5 -1.5t-41.5 -1.5h-19v9q39 1 72 35t62 108l171 433l-39 96q11 0 31.5 -0.5t30.5 -0.5q11 0 29 0.5t27 0.5l245 -606q14 -35 30.5 -50.5t42.5 -15.5v-9zM282 572l-146 -373h296z" />
    <glyph glyph-name="abreve" unicode="&#x103;" horiz-adv-x="516" 
d="M261 563q-86 0 -136 133l7 3q38 -72 129 -72t128 72l7 -3q-48 -133 -135 -133zM410 -8q-66 0 -76 63q-77 -63 -157 -63q-61 0 -96.5 34.5t-35.5 93.5t42 98.5t115 69.5l129 54v84q0 34 -10 48t-36 14q-76 0 -140 -99q-13 -23 -23 -32.5t-25 -9.5t-26 10.5t-11 26.5
q0 42 79 78t162 36q73 0 102 -26t29 -83v-328q0 -36 26 -36t44 41l7 -3q-11 -29 -37 -50t-62 -21zM214 12q53 0 119 53q-2 12 -2 35v231l-93 -38q-51 -21 -68 -58.5t-17 -103.5q0 -119 61 -119z" />
    <glyph glyph-name="Aogonek" unicode="&#x104;" horiz-adv-x="661" 
d="M458 -181q-42 0 -66 19.5t-24 48.5q0 56 143 117l-74 184h-305l-18 -45q-14 -38 -14 -65q0 -31 20.5 -50t56.5 -19v-9h-13q-13 0 -45.5 1.5t-46.5 1.5q-10 0 -40.5 -1.5t-41.5 -1.5h-19v9q39 1 72 35t62 108l171 433l-39 96q11 0 31.5 -0.5t30.5 -0.5q11 0 29 0.5t27 0.5
l245 -606q14 -35 30.5 -50.5t42.5 -15.5v-9h-32q-10 0 -39 1.5t-44 1.5q-12 0 -36 -2q-84 -36 -84 -95q0 -27 17 -43.5t44 -16.5q41 0 73 36l6 -5q-19 -25 -51.5 -41.5t-68.5 -16.5zM432 199l-150 373l-146 -373h296z" />
    <glyph glyph-name="aogonek" unicode="&#x105;" horiz-adv-x="516" 
d="M410 -8q-66 0 -76 63q-77 -63 -157 -63q-61 0 -96.5 34.5t-35.5 93.5t42 98.5t115 69.5l129 54v84q0 34 -10 48t-36 14q-76 0 -140 -99q-13 -23 -23 -32.5t-25 -9.5t-26 10.5t-11 26.5q0 42 79 78t162 36q73 0 102 -26t29 -83v-328q0 -36 26 -36t44 41l7 -3
q-19 -48 -65 -67q-78 -33 -78 -90q0 -27 17.5 -43.5t44.5 -16.5q39 0 73 36l6 -5q-20 -25 -52.5 -41.5t-68.5 -16.5q-41 0 -65.5 19.5t-24.5 48.5q0 52 123 105h-9zM214 12q52 0 119 53q-2 14 -2 36v230l-93 -38q-51 -21 -68 -58.5t-17 -103.5q0 -119 61 -119z" />
    <glyph glyph-name="Cacute" unicode="&#x106;" horiz-adv-x="627" 
d="M277 728l-7 4q22 39 45 97t36 78q14 22 33 22q16 0 27 -11t11 -26q0 -14 -9 -26q-15 -19 -61.5 -60t-74.5 -78zM324 -8q-123 0 -207 99t-84 252q0 82 28 150.5t73 110.5t97 64.5t103 22.5q33 0 80.5 -9.5t58.5 -9.5q35 0 35 31l7 2l80 -246l-7 -3q-70 128 -131 176.5
t-123 48.5q-85 0 -145.5 -69.5t-60.5 -188.5q0 -162 78 -260.5t187 -98.5q135 0 198 137l8 -3q-35 -89 -108 -147.5t-167 -58.5z" />
    <glyph glyph-name="cacute" unicode="&#x107;" horiz-adv-x="478" 
d="M201 538l-7 4q22 39 45 97t36 78q14 22 33 22q16 0 27 -11t11 -26q0 -14 -9 -26q-15 -19 -61.5 -60t-74.5 -78zM248 -8q-85 0 -149 68.5t-64 177.5q0 119 68.5 189.5t160.5 70.5q69 0 122.5 -44t53.5 -96q0 -18 -11 -30t-28 -12t-28 10.5t-11 27.5q0 3 0.5 13.5t0.5 21.5
q0 41 -22.5 70.5t-71.5 29.5q-56 0 -89.5 -53t-33.5 -151q0 -118 42 -182.5t107 -64.5q49 0 86 31.5t56 92.5l8 -2q-24 -80 -74.5 -124t-122.5 -44z" />
    <glyph glyph-name="Ccircumflex" unicode="&#x108;" horiz-adv-x="627" 
d="M459 732l-6 -5q-17 21 -37 41t-47 45t-36 34q-9 -9 -36 -33.5t-47.5 -45t-36.5 -41.5l-7 5q23 36 83 155q20 39 44 39t44 -39q61 -121 82 -155zM324 -8q-123 0 -207 99t-84 252q0 82 28 150.5t73 110.5t97 64.5t103 22.5q33 0 80.5 -9.5t58.5 -9.5q35 0 35 31l7 2
l80 -246l-7 -3q-70 128 -131 176.5t-123 48.5q-85 0 -145.5 -69.5t-60.5 -188.5q0 -162 78 -260.5t187 -98.5q135 0 198 137l8 -3q-35 -89 -108 -147.5t-167 -58.5z" />
    <glyph glyph-name="ccircumflex" unicode="&#x109;" horiz-adv-x="478" 
d="M383 542l-6 -5q-17 21 -37 41t-47 45t-36 34q-9 -9 -36 -33.5t-47.5 -45t-36.5 -41.5l-7 5q23 36 83 155q20 39 44 39t44 -39q61 -121 82 -155zM248 -8q-85 0 -149 68.5t-64 177.5q0 119 68.5 189.5t160.5 70.5q69 0 122.5 -44t53.5 -96q0 -18 -11 -30t-28 -12t-28 10.5
t-11 27.5q0 3 0.5 13.5t0.5 21.5q0 41 -22.5 70.5t-71.5 29.5q-56 0 -89.5 -53t-33.5 -151q0 -118 42 -182.5t107 -64.5q49 0 86 31.5t56 92.5l8 -2q-24 -80 -74.5 -124t-122.5 -44z" />
    <glyph glyph-name="Cdotaccent" unicode="&#x10a;" horiz-adv-x="627" 
d="M333 751q-23 0 -39 15t-16 39t16 39t39 15t39.5 -15.5t16.5 -38.5t-16.5 -38.5t-39.5 -15.5zM324 -8q-123 0 -207 99t-84 252q0 82 28 150.5t73 110.5t97 64.5t103 22.5q33 0 80.5 -9.5t58.5 -9.5q35 0 35 31l7 2l80 -246l-7 -3q-70 128 -131 176.5t-123 48.5
q-85 0 -145.5 -69.5t-60.5 -188.5q0 -162 78 -260.5t187 -98.5q135 0 198 137l8 -3q-35 -89 -108 -147.5t-167 -58.5z" />
    <glyph glyph-name="cdotaccent" unicode="&#x10b;" horiz-adv-x="478" 
d="M257 571q-23 0 -39 15t-16 39t16 39t39 15t39.5 -15.5t16.5 -38.5t-16.5 -38.5t-39.5 -15.5zM248 -8q-85 0 -149 68.5t-64 177.5q0 119 68.5 189.5t160.5 70.5q69 0 122.5 -44t53.5 -96q0 -18 -11 -30t-28 -12t-28 10.5t-11 27.5q0 3 0.5 13.5t0.5 21.5q0 41 -22.5 70.5
t-71.5 29.5q-56 0 -89.5 -53t-33.5 -151q0 -118 42 -182.5t107 -64.5q49 0 86 31.5t56 92.5l8 -2q-24 -80 -74.5 -124t-122.5 -44z" />
    <glyph glyph-name="Ccaron" unicode="&#x10c;" horiz-adv-x="627" 
d="M333 728q-24 0 -44 39q-60 119 -83 155l7 5q16 -21 36.5 -41.5t47.5 -45t36 -33.5q9 9 36 34t47 45t37 41l6 -5q-21 -34 -82 -155q-20 -39 -44 -39zM324 -8q-123 0 -207 99t-84 252q0 82 28 150.5t73 110.5t97 64.5t103 22.5q33 0 80.5 -9.5t58.5 -9.5q35 0 35 31l7 2
l80 -246l-7 -3q-70 128 -131 176.5t-123 48.5q-85 0 -145.5 -69.5t-60.5 -188.5q0 -162 78 -260.5t187 -98.5q135 0 198 137l8 -3q-35 -89 -108 -147.5t-167 -58.5z" />
    <glyph glyph-name="ccaron" unicode="&#x10d;" horiz-adv-x="478" 
d="M257 538q-24 0 -44 39q-60 119 -83 155l7 5q16 -21 36.5 -41.5t47.5 -45t36 -33.5q9 9 36 34t47 45t37 41l6 -5q-21 -34 -82 -155q-20 -39 -44 -39zM248 -8q-85 0 -149 68.5t-64 177.5q0 119 68.5 189.5t160.5 70.5q69 0 122.5 -44t53.5 -96q0 -18 -11 -30t-28 -12
t-28 10.5t-11 27.5q0 3 0.5 13.5t0.5 21.5q0 41 -22.5 70.5t-71.5 29.5q-56 0 -89.5 -53t-33.5 -151q0 -118 42 -182.5t107 -64.5q49 0 86 31.5t56 92.5l8 -2q-24 -80 -74.5 -124t-122.5 -44z" />
    <glyph glyph-name="Dcaron" unicode="&#x10e;" horiz-adv-x="661" 
d="M312 728q-24 0 -44 39q-60 119 -83 155l7 5q16 -21 36.5 -41.5t47.5 -45t36 -33.5q9 9 36 34t47 45t37 41l6 -5q-21 -34 -82 -155q-20 -39 -44 -39zM628 340q0 -159 -88.5 -249.5t-222.5 -90.5h-64q-18 0 -51 0.5t-54 0.5q-17 0 -43 -0.5t-39 -0.5h-30v9h3q30 0 42 14.5
t12 49.5v536q0 35 -12 49t-42 14h-3v9h30q13 0 39 -0.5t43 -0.5q21 0 54 0.5t51 0.5h64q134 0 222.5 -91t88.5 -250zM506 340q0 180 -45 255t-161 75h-98v-659h98q116 0 161 75t45 254z" />
    <glyph glyph-name="dcaron" unicode="&#x10f;" horiz-adv-x="588" 
d="M228 -8q-78 0 -133 63t-55 190t55 190t133 63q72 0 143 -58v172q0 33 -11 47t-42 14h-3v8h20q38 0 80 12t51 30h7v-654q0 -33 11 -47t42 -14h3v-8h-25q-14 0 -39.5 1t-42.5 1q-12 0 -28 -1t-23 -1v50q-72 -58 -143 -58zM559 480l-8 2q10 45 15 117t12 95q9 29 38 29
q15 0 26 -9.5t11 -25.5q0 -8 -3 -19q-6 -21 -40.5 -82.5t-50.5 -106.5zM242 5q63 0 129 59v362q-68 59 -129 59q-29 0 -47 -15.5t-30 -70t-12 -154.5t12 -154.5t30 -70t47 -15.5z" />
    <glyph glyph-name="Dcroat" unicode="&#x110;" horiz-adv-x="672" 
d="M638 340q0 -159 -88.5 -249.5t-222.5 -90.5h-63q-18 0 -51 0.5t-55 0.5q-16 0 -41.5 -0.5t-38.5 -0.5h-31v9h2q30 0 42 14.5t12 49.5v268h-78v11h78v257q0 35 -12 49t-42 14h-2v9h31q13 0 38.5 -0.5t41.5 -0.5q21 0 54.5 0.5t51.5 0.5h63q134 0 222.5 -90.5t88.5 -250.5z
M340 341h-128v-330h99q115 0 160.5 75t45.5 254q0 180 -45.5 255t-160.5 75h-99v-318h128v-11z" />
    <glyph glyph-name="dcroat" unicode="&#x111;" horiz-adv-x="558" 
d="M228 -8q-78 0 -133 63t-55 190t55 190t133 63q72 0 143 -58v126h-109v9h109v37q0 33 -11 47t-42 14h-3v8h20q38 0 80 12t51 30h7v-148h66v-9h-66v-497q0 -33 11 -47t42 -14h3v-8h-25q-14 0 -39.5 1t-42.5 1q-12 0 -28 -1t-23 -1v50q-72 -58 -143 -58zM242 5q63 0 129 59
v362q-68 59 -129 59q-29 0 -47 -15.5t-30 -70t-12 -154.5t12 -154.5t30 -70t47 -15.5z" />
    <glyph glyph-name="Emacron" unicode="&#x112;" horiz-adv-x="626" 
d="M422 796h-248v22h248v-22zM508 -32l-7 2q2 30 -38 30h-222q-15 0 -45 0.5t-48 0.5q-17 0 -43 -0.5t-39 -0.5h-30v9h3q30 0 42 14.5t12 49.5v536q0 35 -12 49t-42 14h-3v9h30q13 0 39 -0.5t43 -0.5q18 0 53 0.5t51 0.5h202q21 0 30.5 7.5t8.5 22.5l7 2l84 -239l-7 -3
q-97 135 -127 166q-20 20 -40 26.5t-52 6.5h-156v-319h108q55 0 75.5 33.5t28.5 103.5h9v-288h-9q-8 70 -28.5 105t-75.5 35h-108v-329h164q34 0 53.5 6.5t41.5 30.5q46 49 133 181l7 -3z" />
    <glyph glyph-name="emacron" unicode="&#x113;" horiz-adv-x="490" 
d="M383 607h-248v22h248v-22zM253 -8q-85 0 -151.5 69t-66.5 178q0 118 69 188.5t158 70.5q79 0 134.5 -50.5t53.5 -134.5h-303q-1 -9 -1 -31q0 -109 42 -176.5t112 -67.5q104 0 144 124l8 -2q-24 -80 -74.5 -124t-124.5 -44zM352 323q-1 166 -95 166q-46 0 -75.5 -42
t-34.5 -124h205z" />
    <glyph glyph-name="Ebreve" unicode="&#x114;" horiz-adv-x="626" 
d="M299 752q-86 0 -136 133l7 3q38 -72 129 -72t128 72l7 -3q-48 -133 -135 -133zM508 -32l-7 2q2 30 -38 30h-222q-15 0 -45 0.5t-48 0.5q-17 0 -43 -0.5t-39 -0.5h-30v9h3q30 0 42 14.5t12 49.5v536q0 35 -12 49t-42 14h-3v9h30q13 0 39 -0.5t43 -0.5q18 0 53 0.5t51 0.5
h202q21 0 30.5 7.5t8.5 22.5l7 2l84 -239l-7 -3q-97 135 -127 166q-20 20 -40 26.5t-52 6.5h-156v-319h108q55 0 75.5 33.5t28.5 103.5h9v-288h-9q-8 70 -28.5 105t-75.5 35h-108v-329h164q34 0 53.5 6.5t41.5 30.5q46 49 133 181l7 -3z" />
    <glyph glyph-name="ebreve" unicode="&#x115;" horiz-adv-x="490" 
d="M259 563q-86 0 -136 133l7 3q38 -72 129 -72t128 72l7 -3q-48 -133 -135 -133zM253 -8q-85 0 -151.5 69t-66.5 178q0 118 69 188.5t158 70.5q79 0 134.5 -50.5t53.5 -134.5h-303q-1 -9 -1 -31q0 -109 42 -176.5t112 -67.5q104 0 144 124l8 -2q-24 -80 -74.5 -124
t-124.5 -44zM352 323q-1 166 -95 166q-46 0 -75.5 -42t-34.5 -124h205z" />
    <glyph glyph-name="Edotaccent" unicode="&#x116;" horiz-adv-x="626" 
d="M299 750q-23 0 -39 15t-16 39t16 39t39 15t39.5 -15.5t16.5 -38.5t-16.5 -38.5t-39.5 -15.5zM508 -32l-7 2q2 30 -38 30h-222q-15 0 -45 0.5t-48 0.5q-17 0 -43 -0.5t-39 -0.5h-30v9h3q30 0 42 14.5t12 49.5v536q0 35 -12 49t-42 14h-3v9h30q13 0 39 -0.5t43 -0.5
q18 0 53 0.5t51 0.5h202q21 0 30.5 7.5t8.5 22.5l7 2l84 -239l-7 -3q-97 135 -127 166q-20 20 -40 26.5t-52 6.5h-156v-319h108q55 0 75.5 33.5t28.5 103.5h9v-288h-9q-8 70 -28.5 105t-75.5 35h-108v-329h164q34 0 53.5 6.5t41.5 30.5q46 49 133 181l7 -3z" />
    <glyph glyph-name="edotaccent" unicode="&#x117;" horiz-adv-x="490" 
d="M259 571q-23 0 -39 15t-16 39t16 39t39 15t39.5 -15.5t16.5 -38.5t-16.5 -38.5t-39.5 -15.5zM253 -8q-85 0 -151.5 69t-66.5 178q0 118 69 188.5t158 70.5q79 0 134.5 -50.5t53.5 -134.5h-303q-1 -9 -1 -31q0 -109 42 -176.5t112 -67.5q104 0 144 124l8 -2
q-24 -80 -74.5 -124t-124.5 -44zM352 323q-1 166 -95 166q-46 0 -75.5 -42t-34.5 -124h205z" />
    <glyph glyph-name="Eogonek" unicode="&#x118;" horiz-adv-x="626" 
d="M508 -32l-7 2q2 30 -38 30h-39q-82 -39 -82 -94q0 -27 17 -43.5t44 -16.5q39 0 73 36l6 -5q-20 -25 -52.5 -41.5t-67.5 -16.5q-42 0 -66.5 19.5t-24.5 48.5q0 55 136 113h-166q-15 0 -45 0.5t-48 0.5q-17 0 -43 -0.5t-39 -0.5h-30v9h3q30 0 42 14.5t12 49.5v536
q0 35 -12 49t-42 14h-3v9h30q13 0 39 -0.5t43 -0.5q18 0 53 0.5t51 0.5h202q21 0 30.5 7.5t8.5 22.5l7 2l84 -239l-7 -3q-97 135 -127 166q-20 20 -40 26.5t-52 6.5h-156v-319h108q55 0 75.5 33.5t28.5 103.5h9v-288h-9q-8 70 -28.5 105t-75.5 35h-108v-329h164
q34 0 53.5 6.5t41.5 30.5q46 49 133 181l7 -3z" />
    <glyph glyph-name="eogonek" unicode="&#x119;" horiz-adv-x="490" 
d="M253 -8q-85 0 -151.5 69t-66.5 178q0 118 69 188.5t158 70.5q79 0 134.5 -50.5t53.5 -134.5h-303q-1 -9 -1 -31q0 -109 42 -176.5t112 -67.5q104 0 144 124l8 -2q-34 -117 -125 -157q-87 -40 -87 -97q0 -27 17 -43.5t44 -16.5q41 0 73 36l6 -5q-19 -25 -51.5 -41.5
t-68.5 -16.5q-42 0 -66 19.5t-24 48.5q0 18 13 35t38.5 33t39.5 23t39 19q-20 -5 -47 -5zM352 323q-1 166 -95 166q-46 0 -75.5 -42t-34.5 -124h205z" />
    <glyph glyph-name="Ecaron" unicode="&#x11a;" horiz-adv-x="626" 
d="M299 727q-24 0 -44 39q-60 119 -83 155l7 5q16 -21 36.5 -41.5t47.5 -45t36 -33.5q9 9 36 34t47 45t37 41l6 -5q-21 -34 -82 -155q-20 -39 -44 -39zM508 -32l-7 2q2 30 -38 30h-222q-15 0 -45 0.5t-48 0.5q-17 0 -43 -0.5t-39 -0.5h-30v9h3q30 0 42 14.5t12 49.5v536
q0 35 -12 49t-42 14h-3v9h30q13 0 39 -0.5t43 -0.5q18 0 53 0.5t51 0.5h202q21 0 30.5 7.5t8.5 22.5l7 2l84 -239l-7 -3q-97 135 -127 166q-20 20 -40 26.5t-52 6.5h-156v-319h108q55 0 75.5 33.5t28.5 103.5h9v-288h-9q-8 70 -28.5 105t-75.5 35h-108v-329h164
q34 0 53.5 6.5t41.5 30.5q46 49 133 181l7 -3z" />
    <glyph glyph-name="ecaron" unicode="&#x11b;" horiz-adv-x="490" 
d="M259 538q-24 0 -44 39q-60 119 -83 155l7 5q16 -21 36.5 -41.5t47.5 -45t36 -33.5q9 9 36 34t47 45t37 41l6 -5q-21 -34 -82 -155q-20 -39 -44 -39zM253 -8q-85 0 -151.5 69t-66.5 178q0 118 69 188.5t158 70.5q79 0 134.5 -50.5t53.5 -134.5h-303q-1 -9 -1 -31
q0 -109 42 -176.5t112 -67.5q104 0 144 124l8 -2q-24 -80 -74.5 -124t-124.5 -44zM352 323q-1 166 -95 166q-46 0 -75.5 -42t-34.5 -124h205z" />
    <glyph glyph-name="Gcircumflex" unicode="&#x11c;" horiz-adv-x="674" 
d="M478 732l-6 -5q-17 21 -37 41t-47 45t-36 34q-9 -9 -36 -33.5t-47.5 -45t-36.5 -41.5l-7 5q23 36 83 155q20 39 44 39t44 -39q61 -121 82 -155zM600 229v-239h-7q-7 45 -95 68q-68 -66 -172 -66q-122 0 -207.5 96t-85.5 245q0 94 31 167t80 112.5t100.5 59t101.5 19.5
q41 0 88 -9.5t56 -9.5q37 0 37 31l7 2l80 -246l-7 -3q-70 125 -130 175t-131 50q-85 0 -138.5 -79.5t-53.5 -253.5q0 -167 52 -253t149 -86q40 0 77.5 18t59.5 40v162q0 35 -12.5 49t-42.5 14h-2v9h29q13 0 39.5 -1.5t42.5 -1.5t42.5 1.5t39.5 1.5h30v-9h-3q-30 0 -42.5 -14
t-12.5 -49z" />
    <glyph glyph-name="gcircumflex" unicode="&#x11d;" horiz-adv-x="521" 
d="M382 542l-6 -5q-17 21 -37 41t-47 45t-36 34q-9 -9 -36 -33.5t-47.5 -45t-36.5 -41.5l-7 5q23 36 83 155q20 39 44 39t44 -39q61 -121 82 -155zM248 -234q-102 0 -168.5 31t-66.5 74q0 66 146 103q-117 15 -117 81q0 62 121 107q-50 20 -80 61.5t-30 97.5q0 78 56 127.5
t141 49.5q60 0 106 -27q53 80 110 80q21 0 33.5 -10.5t12.5 -26.5q0 -15 -11 -25.5t-26 -10.5q-14 0 -34 10t-33 10q-23 0 -45 -32q83 -47 83 -144q0 -78 -55.5 -127t-140.5 -49q-40 0 -75 12q-34 -12 -51 -24t-17 -29q0 -31 91 -42l125 -15q177 -22 177 -133
q0 -72 -73 -110.5t-179 -38.5zM250 155q94 0 94 167t-94 167t-94 -167t94 -167zM251 -225q88 0 134.5 25.5t46.5 69.5q0 66 -134 84l-121 16q-93 -26 -93 -97q0 -42 43 -70t124 -28z" />
    <glyph glyph-name="Gbreve" unicode="&#x11e;" horiz-adv-x="674" 
d="M352 753q-86 0 -136 133l7 3q38 -72 129 -72t128 72l7 -3q-48 -133 -135 -133zM600 229v-239h-7q-7 45 -95 68q-68 -66 -172 -66q-122 0 -207.5 96t-85.5 245q0 94 31 167t80 112.5t100.5 59t101.5 19.5q41 0 88 -9.5t56 -9.5q37 0 37 31l7 2l80 -246l-7 -3
q-70 125 -130 175t-131 50q-85 0 -138.5 -79.5t-53.5 -253.5q0 -167 52 -253t149 -86q40 0 77.5 18t59.5 40v162q0 35 -12.5 49t-42.5 14h-2v9h29q13 0 39.5 -1.5t42.5 -1.5t42.5 1.5t39.5 1.5h30v-9h-3q-30 0 -42.5 -14t-12.5 -49z" />
    <glyph glyph-name="gbreve" unicode="&#x11f;" horiz-adv-x="521" 
d="M256 563q-86 0 -136 133l7 3q38 -72 129 -72t128 72l7 -3q-48 -133 -135 -133zM248 -234q-102 0 -168.5 31t-66.5 74q0 66 146 103q-117 15 -117 81q0 62 121 107q-50 20 -80 61.5t-30 97.5q0 78 56 127.5t141 49.5q60 0 106 -27q53 80 110 80q21 0 33.5 -10.5
t12.5 -26.5q0 -15 -11 -25.5t-26 -10.5q-14 0 -34 10t-33 10q-23 0 -45 -32q83 -47 83 -144q0 -78 -55.5 -127t-140.5 -49q-40 0 -75 12q-34 -12 -51 -24t-17 -29q0 -31 91 -42l125 -15q177 -22 177 -133q0 -72 -73 -110.5t-179 -38.5zM250 155q94 0 94 167t-94 167
t-94 -167t94 -167zM251 -225q88 0 134.5 25.5t46.5 69.5q0 66 -134 84l-121 16q-93 -26 -93 -97q0 -42 43 -70t124 -28z" />
    <glyph glyph-name="Gdotaccent" unicode="&#x120;" horiz-adv-x="674" 
d="M352 751q-23 0 -39 15t-16 39t16 39t39 15t39.5 -15.5t16.5 -38.5t-16.5 -38.5t-39.5 -15.5zM600 229v-239h-7q-7 45 -95 68q-68 -66 -172 -66q-122 0 -207.5 96t-85.5 245q0 94 31 167t80 112.5t100.5 59t101.5 19.5q41 0 88 -9.5t56 -9.5q37 0 37 31l7 2l80 -246l-7 -3
q-70 125 -130 175t-131 50q-85 0 -138.5 -79.5t-53.5 -253.5q0 -167 52 -253t149 -86q40 0 77.5 18t59.5 40v162q0 35 -12.5 49t-42.5 14h-2v9h29q13 0 39.5 -1.5t42.5 -1.5t42.5 1.5t39.5 1.5h30v-9h-3q-30 0 -42.5 -14t-12.5 -49z" />
    <glyph glyph-name="gdotaccent" unicode="&#x121;" horiz-adv-x="521" 
d="M256 571q-23 0 -39 15t-16 39t16 39t39 15t39.5 -15.5t16.5 -38.5t-16.5 -38.5t-39.5 -15.5zM248 -234q-102 0 -168.5 31t-66.5 74q0 66 146 103q-117 15 -117 81q0 62 121 107q-50 20 -80 61.5t-30 97.5q0 78 56 127.5t141 49.5q60 0 106 -27q53 80 110 80
q21 0 33.5 -10.5t12.5 -26.5q0 -15 -11 -25.5t-26 -10.5q-14 0 -34 10t-33 10q-23 0 -45 -32q83 -47 83 -144q0 -78 -55.5 -127t-140.5 -49q-40 0 -75 12q-34 -12 -51 -24t-17 -29q0 -31 91 -42l125 -15q177 -22 177 -133q0 -72 -73 -110.5t-179 -38.5zM250 155q94 0 94 167
t-94 167t-94 -167t94 -167zM251 -225q88 0 134.5 25.5t46.5 69.5q0 66 -134 84l-121 16q-93 -26 -93 -97q0 -42 43 -70t124 -28z" />
    <glyph glyph-name="uni0122" unicode="&#x122;" horiz-adv-x="674" 
d="M600 229v-239h-7q-7 45 -95 68q-68 -66 -172 -66q-122 0 -207.5 96t-85.5 245q0 94 31 167t80 112.5t100.5 59t101.5 19.5q41 0 88 -9.5t56 -9.5q37 0 37 31l7 2l80 -246l-7 -3q-70 125 -130 175t-131 50q-85 0 -138.5 -79.5t-53.5 -253.5q0 -167 52 -253t149 -86
q40 0 77.5 18t59.5 40v162q0 35 -12.5 49t-42.5 14h-2v9h29q13 0 39.5 -1.5t42.5 -1.5t42.5 1.5t39.5 1.5h30v-9h-3q-30 0 -42.5 -14t-12.5 -49zM328 -162q-22 0 -36 14.5t-14 35.5t15 36t38 15q24 0 41.5 -18.5t17.5 -46.5q0 -52 -28 -84t-64 -39l-2 7q32 7 56 34.5
t25 67.5q0 6 -1 11q-12 -33 -48 -33z" />
    <glyph glyph-name="uni0123" unicode="&#x123;" horiz-adv-x="521" 
d="M261 666q22 0 36 -14.5t14 -35.5t-15 -36t-38 -15q-24 0 -41.5 18.5t-17.5 46.5q0 52 28 83.5t64 39.5l1 -7q-32 -7 -55.5 -34.5t-24.5 -67.5v-11q14 33 49 33zM248 -234q-102 0 -168.5 31t-66.5 74q0 66 146 103q-117 15 -117 81q0 62 121 107q-50 20 -80 61.5t-30 97.5
q0 78 56 127.5t141 49.5q60 0 106 -27q53 80 110 80q21 0 33.5 -10.5t12.5 -26.5q0 -15 -11 -25.5t-26 -10.5q-14 0 -34 10t-33 10q-23 0 -45 -32q83 -47 83 -144q0 -78 -55.5 -127t-140.5 -49q-40 0 -75 12q-34 -12 -51 -24t-17 -29q0 -31 91 -42l125 -15q177 -22 177 -133
q0 -72 -73 -110.5t-179 -38.5zM250 155q94 0 94 167t-94 167t-94 -167t94 -167zM251 -225q88 0 134.5 25.5t46.5 69.5q0 66 -134 84l-121 16q-93 -26 -93 -97q0 -42 43 -70t124 -28z" />
    <glyph glyph-name="Hcircumflex" unicode="&#x124;" horiz-adv-x="725" 
d="M488 731l-6 -5q-17 21 -37 41t-47 45t-36 34q-9 -9 -36 -33.5t-47.5 -45t-36.5 -41.5l-7 5q23 36 83 155q20 39 44 39t44 -39q61 -121 82 -155zM631 73q0 -35 12.5 -49.5t42.5 -14.5h2v-9h-29q-13 0 -39.5 1.5t-42.5 1.5t-42.5 -1.5t-39.5 -1.5h-29v9h2q30 0 42.5 14.5
t12.5 49.5v268h-321v-268q0 -35 12 -49.5t42 -14.5h3v-9h-30q-12 0 -38.5 1.5t-42.5 1.5q-17 0 -43 -1.5t-39 -1.5h-30v9h3q30 0 42 14.5t12 49.5v536q0 35 -12 49t-42 14h-3v9h30q13 0 39 -1.5t43 -1.5q16 0 42.5 1.5t38.5 1.5h30v-9h-3q-30 0 -42 -14t-12 -49v-257h321
v257q0 34 -12.5 48.5t-42.5 14.5h-2v9h29q13 0 39.5 -1.5t42.5 -1.5t42.5 1.5t39.5 1.5h29v-9h-2q-30 0 -42.5 -14.5t-12.5 -48.5v-536z" />
    <glyph glyph-name="hcircumflex" unicode="&#x125;" horiz-adv-x="556" 
d="M250 725l-6 -5q-17 21 -37 41t-47 45t-36 34q-9 -9 -36 -33.5t-47.5 -45t-36.5 -41.5l-7 5q23 36 83 155q20 39 44 39t44 -39q61 -121 82 -155zM478 424v-354q0 -34 11 -48t42 -14h3v-8h-25q-14 0 -39.5 1.5t-42.5 1.5t-42.5 -1.5t-39.5 -1.5h-25v8h3q31 0 42 14t11 48
v354q0 44 -35 44q-16 0 -72 -20l-86 -33v-345q0 -34 11 -48t42 -14h3v-8h-25q-14 0 -39.5 1.5t-42.5 1.5t-42.5 -1.5t-39.5 -1.5h-25v8h3q31 0 42 14t11 48v542q0 33 -11 47t-42 14h-3v8h20q38 0 80 12t51 30h7v-298l110 42q79 31 119 31q66 0 66 -74z" />
    <glyph glyph-name="Hbar" unicode="&#x126;" horiz-adv-x="744" 
d="M699 0h-30q-13 0 -39.5 1.5t-42.5 1.5t-42.5 -1.5t-39.5 -1.5h-29v9h2q30 0 42.5 14.5t12.5 49.5v236h-321v-236q0 -35 12.5 -49.5t42.5 -14.5h2v-9h-29q-13 0 -39.5 1.5t-42.5 1.5t-42.5 -1.5t-39.5 -1.5h-29v9h2q30 0 42 14.5t12 49.5v399h-78v11h78v126q0 35 -12 49
t-42 14h-2v9h29q13 0 39.5 -1.5t42.5 -1.5t42.5 1.5t39.5 1.5h29v-9h-2q-30 0 -42.5 -14.5t-12.5 -48.5v-126h321v126q0 34 -12.5 48.5t-42.5 14.5h-2v9h29q13 0 39.5 -1.5t42.5 -1.5t42.5 1.5t39.5 1.5h30v-9h-3q-30 0 -42 -14t-12 -49v-126h77v-11h-77v-399
q0 -35 12 -49.5t42 -14.5h3v-9zM533 320v152h-321v-152h321z" />
    <glyph glyph-name="hbar" unicode="&#x127;" horiz-adv-x="557" 
d="M478 424v-354q0 -34 11 -48t42 -14h3v-8h-25q-14 0 -39.5 1.5t-42.5 1.5t-42.5 -1.5t-39.5 -1.5h-25v8h3q31 0 42 14t11 48v354q0 44 -35 44q-16 0 -72 -20l-86 -33v-345q0 -34 11 -48t42 -14h3v-8h-25q-14 0 -39.5 1.5t-42.5 1.5t-42.5 -1.5t-39.5 -1.5h-25v8h3
q31 0 42 14t11 48v496h-66v9h66v37q0 33 -11 47t-42 14h-3v8h20q38 0 80 12t51 30h7v-148h105v-9h-105v-141l110 42q79 31 119 31q66 0 66 -74z" />
    <glyph glyph-name="Itilde" unicode="&#x128;" horiz-adv-x="295" 
d="M186 770q-22 0 -57 21.5t-60 21.5q-30 0 -64 -56l-7 4q2 3 11 18.5t12.5 21.5t13 19.5t16 19.5t16.5 14t20.5 11t21.5 3q22 0 57 -22t61 -22q28 0 63 56l7 -4q-1 -1 -11 -18t-13 -22t-12.5 -19t-16 -19t-16.5 -13.5t-20.5 -11.5t-21.5 -3zM202 73q0 -35 12 -49.5
t42 -14.5h3v-9h-30q-12 0 -38.5 1.5t-43.5 1.5q-16 0 -42 -1.5t-39 -1.5h-30v9h3q30 0 42 14.5t12 49.5v536q0 35 -12 49t-42 14h-3v9h30q13 0 39 -1.5t42 -1.5q17 0 43.5 1.5t38.5 1.5h30v-9h-3q-30 0 -42 -14t-12 -49v-536z" />
    <glyph glyph-name="itilde" unicode="&#x129;" horiz-adv-x="270" 
d="M175 581q-22 0 -57 21.5t-60 21.5q-30 0 -64 -56l-7 4q2 3 11 18.5t12.5 21.5t13 19.5t16 19.5t16.5 14t20.5 11t21.5 3q22 0 57 -22t61 -22q28 0 63 56l7 -4q-1 -1 -11 -18t-13 -22t-12.5 -19t-16 -19t-16.5 -13.5t-20.5 -11.5t-21.5 -3zM245 0h-25q-14 0 -39.5 1.5
t-42.5 1.5t-42.5 -1.5t-38.5 -1.5h-25v8h2q32 0 42.5 14t10.5 48v320q0 33 -10.5 47t-42.5 14h-2v8h20q38 0 79.5 12t51.5 30h7v-431q0 -34 10.5 -48t41.5 -14h3v-8z" />
    <glyph glyph-name="Imacron" unicode="&#x12a;" horiz-adv-x="295" 
d="M271 796h-248v22h248v-22zM202 73q0 -35 12 -49.5t42 -14.5h3v-9h-30q-12 0 -38.5 1.5t-43.5 1.5q-16 0 -42 -1.5t-39 -1.5h-30v9h3q30 0 42 14.5t12 49.5v536q0 35 -12 49t-42 14h-3v9h30q13 0 39 -1.5t42 -1.5q17 0 43.5 1.5t38.5 1.5h30v-9h-3q-30 0 -42 -14t-12 -49
v-536z" />
    <glyph glyph-name="imacron" unicode="&#x12b;" horiz-adv-x="270" 
d="M261 607h-248v22h248v-22zM245 0h-25q-14 0 -39.5 1.5t-42.5 1.5t-42.5 -1.5t-38.5 -1.5h-25v8h2q32 0 42.5 14t10.5 48v320q0 33 -10.5 47t-42.5 14h-2v8h20q38 0 79.5 12t51.5 30h7v-431q0 -34 10.5 -48t41.5 -14h3v-8z" />
    <glyph glyph-name="Ibreve" unicode="&#x12c;" horiz-adv-x="295" 
d="M148 752q-86 0 -136 133l7 3q38 -72 129 -72t128 72l7 -3q-48 -133 -135 -133zM202 73q0 -35 12 -49.5t42 -14.5h3v-9h-30q-12 0 -38.5 1.5t-43.5 1.5q-16 0 -42 -1.5t-39 -1.5h-30v9h3q30 0 42 14.5t12 49.5v536q0 35 -12 49t-42 14h-3v9h30q13 0 39 -1.5t42 -1.5
q17 0 43.5 1.5t38.5 1.5h30v-9h-3q-30 0 -42 -14t-12 -49v-536z" />
    <glyph glyph-name="ibreve" unicode="&#x12d;" horiz-adv-x="270" 
d="M137 563q-86 0 -136 133l7 3q38 -72 129 -72t128 72l7 -3q-48 -133 -135 -133zM245 0h-25q-14 0 -39.5 1.5t-42.5 1.5t-42.5 -1.5t-38.5 -1.5h-25v8h2q32 0 42.5 14t10.5 48v320q0 33 -10.5 47t-42.5 14h-2v8h20q38 0 79.5 12t51.5 30h7v-431q0 -34 10.5 -48t41.5 -14h3
v-8z" />
    <glyph glyph-name="Iogonek" unicode="&#x12e;" horiz-adv-x="295" 
d="M202 73q0 -35 12 -49.5t42 -14.5h3v-9h-30q-17 0 -51 2q-78 -40 -78 -96q0 -27 17.5 -43.5t44.5 -16.5q39 0 73 36l6 -5q-20 -25 -52.5 -41.5t-68.5 -16.5q-41 0 -65.5 19.5t-24.5 48.5q0 57 134 116h-17q-16 0 -42 -1.5t-39 -1.5h-30v9h3q30 0 42 14.5t12 49.5v536
q0 35 -12 49t-42 14h-3v9h30q13 0 39 -1.5t42 -1.5q17 0 43.5 1.5t38.5 1.5h30v-9h-3q-30 0 -42 -14t-12 -49v-536z" />
    <glyph glyph-name="iogonek" unicode="&#x12f;" horiz-adv-x="270" 
d="M137 569q-26 0 -44 17t-18 43t18 43t44 17q25 0 43.5 -17t18.5 -43t-18.5 -43t-43.5 -17zM245 0h-25q-14 0 -40 2q-83 -38 -83 -96q0 -27 17.5 -43.5t44.5 -16.5q39 0 73 36l6 -5q-20 -25 -52.5 -41.5t-68.5 -16.5q-41 0 -65.5 19.5t-24.5 48.5q0 55 137 116h-26
q-17 0 -42.5 -1.5t-38.5 -1.5h-25v8h2q32 0 42.5 14t10.5 48v320q0 33 -10.5 47t-42.5 14h-2v8h20q38 0 79.5 12t51.5 30h7v-431q0 -34 10.5 -48t41.5 -14h3v-8z" />
    <glyph glyph-name="Idotaccent" unicode="&#x130;" horiz-adv-x="295" 
d="M147 750q-23 0 -39 15t-16 39t16 39t39 15t39.5 -15.5t16.5 -38.5t-16.5 -38.5t-39.5 -15.5zM202 73q0 -35 12 -49.5t42 -14.5h3v-9h-30q-12 0 -38.5 1.5t-43.5 1.5q-16 0 -42 -1.5t-39 -1.5h-30v9h3q30 0 42 14.5t12 49.5v536q0 35 -12 49t-42 14h-3v9h30q13 0 39 -1.5
t42 -1.5q17 0 43.5 1.5t38.5 1.5h30v-9h-3q-30 0 -42 -14t-12 -49v-536z" />
    <glyph glyph-name="dotlessi" unicode="&#x131;" horiz-adv-x="270" 
d="M245 0h-25q-14 0 -39.5 1.5t-42.5 1.5t-42.5 -1.5t-38.5 -1.5h-25v8h2q32 0 42.5 14t10.5 48v320q0 33 -10.5 47t-42.5 14h-2v8h20q38 0 79.5 12t51.5 30h7v-431q0 -34 10.5 -48t41.5 -14h3v-8z" />
    <glyph glyph-name="IJ" unicode="&#x132;" horiz-adv-x="611" 
d="M202 73q0 -35 12 -49.5t42 -14.5h3v-9h-30q-12 0 -38.5 1.5t-43.5 1.5q-16 0 -42 -1.5t-39 -1.5h-30v9h3q30 0 42 14.5t12 49.5v536q0 35 -12 49t-42 14h-3v9h30q13 0 39 -1.5t42 -1.5q17 0 43.5 1.5t38.5 1.5h30v-9h-3q-30 0 -42 -14t-12 -49v-536zM523 199
q0 -78 -23 -141t-60 -100.5t-79.5 -57t-86.5 -19.5q-22 0 -35.5 11t-13.5 30q0 18 11.5 29.5t30.5 11.5t52.5 -21t48.5 -21q46 0 46 88v600q0 35 -12 49t-42 14h-2v9h29q13 0 39.5 -1.5t42.5 -1.5t42.5 1.5t39.5 1.5h29v-9h-2q-30 0 -42.5 -14.5t-12.5 -48.5v-410z" />
    <glyph glyph-name="ij" unicode="&#x133;" horiz-adv-x="528" 
d="M137 569q-26 0 -44 17t-18 43t18 43t44 17q25 0 43.5 -17t18.5 -43t-18.5 -43t-43.5 -17zM404 569q-26 0 -43.5 16.5t-17.5 43.5t17.5 43.5t43.5 16.5t44 -17t18 -43t-18 -43t-44 -17zM245 0h-25q-14 0 -39.5 1.5t-42.5 1.5t-42.5 -1.5t-38.5 -1.5h-25v8h2q32 0 42.5 14
t10.5 48v320q0 33 -10.5 47t-42.5 14h-2v8h20q38 0 79.5 12t51.5 30h7v-431q0 -34 10.5 -48t41.5 -14h3v-8zM232 -235q-22 0 -35.5 10t-13.5 26t11 26t28 10q20 0 49 -15.5t40 -15.5q22 0 33 14t11 48v522q0 33 -11 47t-42 14h-3v8h20q38 0 80 12t51 30h7v-456
q0 -102 -63 -185q-72 -95 -162 -95z" />
    <glyph glyph-name="Jcircumflex" unicode="&#x134;" horiz-adv-x="315" 
d="M301 731l-6 -5q-17 21 -37 41t-47 45t-36 34q-9 -9 -36 -33.5t-47.5 -45t-36.5 -41.5l-7 5q23 36 83 155q20 39 44 39t44 -39q61 -121 82 -155zM228 199q0 -78 -23 -141t-60 -100.5t-79.5 -57t-86.5 -19.5q-22 0 -35.5 11t-13.5 30q0 18 11.5 29.5t30.5 11.5t52.5 -21
t48.5 -21q46 0 46 88v600q0 35 -12 49t-42 14h-2v9h29q13 0 39.5 -1.5t42.5 -1.5t42.5 1.5t39.5 1.5h29v-9h-2q-30 0 -42.5 -14.5t-12.5 -48.5v-410z" />
    <glyph glyph-name="jcircumflex" unicode="&#x135;" horiz-adv-x="258" 
d="M262 542l-6 -5q-17 21 -37 41t-47 45t-36 34q-9 -9 -36 -33.5t-47.5 -45t-36.5 -41.5l-7 5q23 36 83 155q20 39 44 39t44 -39q61 -121 82 -155zM-37 -235q-22 0 -35.5 10t-13.5 26t11 26t28 10q20 0 49 -15.5t40 -15.5q22 0 33 14t11 48v522q0 33 -11 47t-42 14h-3v8h20
q38 0 80 12t51 30h7v-456q0 -102 -63 -185q-72 -95 -162 -95z" />
    <glyph glyph-name="uni0136" unicode="&#x136;" horiz-adv-x="682" 
d="M685 0h-45q-9 0 -37.5 1.5t-45.5 1.5q-16 0 -44.5 -1.5t-37.5 -1.5h-41v9h10q39 0 39 29q0 15 -11 32l-159 285l-111 -131v-151q0 -35 12 -49.5t42 -14.5h3v-9h-30q-12 0 -38.5 1.5t-42.5 1.5q-17 0 -43 -1.5t-39 -1.5h-30v9h3q30 0 42 14.5t12 49.5v536q0 35 -12 49
t-42 14h-3v9h30q13 0 39 -1.5t43 -1.5q16 0 42.5 1.5t38.5 1.5h30v-9h-3q-30 0 -42 -14t-12 -49v-368l105 124l-27 48q2 0 34 -0.5t34 0.5l124 147q36 43 36 71q0 21 -14.5 31t-48.5 10v9h22q14 0 42 -1.5t41 -1.5q16 0 44 1.5t39 1.5h22v-9q-75 0 -174 -118l-119 -141
q9 0 22 0.5t18 0.5l194 -345q32 -60 89 -60v-9zM345 -162q-22 0 -36 14.5t-14 35.5t15 36t38 15q24 0 41.5 -18.5t17.5 -46.5q0 -52 -28 -84t-64 -39l-2 7q32 7 56 34.5t25 67.5q0 6 -1 11q-12 -33 -48 -33z" />
    <glyph glyph-name="uni0137" unicode="&#x137;" horiz-adv-x="553" 
d="M376 379l-60 -63q3 0 16 0.5t21 0.5l128 -253q16 -31 31.5 -43.5t43.5 -12.5h2v-8h-24q-10 0 -36 1.5t-44 1.5t-44 -1.5t-36 -1.5h-31v8h4q38 0 38 21q0 7 -8 25l-110 212l-84 -88v-109q0 -33 11 -47t42 -14h3v-8h-25q-14 0 -39.5 1.5t-42.5 1.5t-42.5 -1.5t-39.5 -1.5
h-25v8h3q31 0 42 14t11 47v543q0 33 -11 47t-42 14h-3v8h20q38 0 80 12t51 30h7v-531l79 83l-21 42q12 0 30 -1t32 0l65 67q37 39 37 64q0 35 -49 35h-4v8h15q11 0 37 -1.5t43 -1.5t41.5 1.5t36.5 1.5h18v-8h-2q-64 0 -165 -103zM279 -162q-22 0 -36 14.5t-14 35.5t15 36
t38 15q24 0 41.5 -18.5t17.5 -46.5q0 -52 -28 -84t-64 -39l-2 7q32 7 56 34.5t25 67.5q0 6 -1 11q-12 -33 -48 -33z" />
    <glyph glyph-name="kgreenlandic" unicode="&#x138;" horiz-adv-x="559" 
d="M564 0h-24q-10 0 -36.5 1.5t-44.5 1.5t-43.5 -1.5t-35.5 -1.5h-31v8h3q39 0 39 20q0 11 -8 26l-110 212l-84 -88v-109q0 -33 10.5 -47t42.5 -14h2v-8h-25q-13 0 -38.5 1.5t-42.5 1.5t-42.5 -1.5t-38.5 -1.5h-25v8h2q32 0 42.5 14t10.5 47v323q0 33 -10.5 46.5t-42.5 13.5
h-2v9h20q37 0 78.5 12t51.5 29h7v-310l79 83l-21 42q12 0 30 -1t32 0l65 67q37 39 37 64q0 35 -49 35h-4v8h15q11 0 36.5 -1.5t42.5 -1.5q18 0 43 1.5t36 1.5h18v-8h-2q-64 0 -165 -103l-60 -63q3 0 16 0.5t21 0.5l128 -253q16 -31 31.5 -43.5t42.5 -12.5h3v-8z" />
    <glyph glyph-name="Lacute" unicode="&#x139;" horiz-adv-x="574" 
d="M95 728l-7 4q22 39 45 97t36 78q14 22 33 22q16 0 27 -11t11 -26q0 -14 -9 -26q-15 -19 -61.5 -60t-74.5 -78zM570 241l-96 -273l-7 2q2 30 -37 30h-201q-12 0 -38.5 0.5t-42.5 0.5q-17 0 -43 -0.5t-39 -0.5h-30v9h3q30 0 42 14.5t12 49.5v536q0 35 -12 49t-42 14h-3v9
h30q13 0 39 -1.5t43 -1.5q16 0 42.5 1.5t38.5 1.5h30v-9h-3q-30 0 -42 -14t-12 -49v-598h133q31 0 50.5 7t41.5 30q29 31 136 196z" />
    <glyph glyph-name="lacute" unicode="&#x13a;" horiz-adv-x="264" 
d="M77 756l-7 4q22 39 45 97t36 78q14 22 33 22q16 0 27 -11t11 -26q0 -14 -9 -26q-15 -19 -61.5 -60t-74.5 -78zM183 69q0 -33 11 -47t42 -14h3v-8h-25q-14 0 -39.5 1.5t-42.5 1.5t-42.5 -1.5t-39.5 -1.5h-25v8h3q31 0 42 14t11 47v543q0 33 -11 47t-42 14h-3v8h20
q38 0 80 12t51 30h7v-654z" />
    <glyph glyph-name="uni013B" unicode="&#x13b;" horiz-adv-x="574" 
d="M570 241l-96 -273l-7 2q2 30 -37 30h-201q-12 0 -38.5 0.5t-42.5 0.5q-17 0 -43 -0.5t-39 -0.5h-30v9h3q30 0 42 14.5t12 49.5v536q0 35 -12 49t-42 14h-3v9h30q13 0 39 -1.5t43 -1.5q16 0 42.5 1.5t38.5 1.5h30v-9h-3q-30 0 -42 -14t-12 -49v-598h133q31 0 50.5 7
t41.5 30q29 31 136 196zM277 -162q-22 0 -36 14.5t-14 35.5t15 36t38 15q24 0 41.5 -18.5t17.5 -46.5q0 -52 -28 -84t-64 -39l-2 7q32 7 56 34.5t25 67.5q0 6 -1 11q-12 -33 -48 -33z" />
    <glyph glyph-name="uni013C" unicode="&#x13c;" horiz-adv-x="264" 
d="M183 69q0 -33 11 -47t42 -14h3v-8h-25q-14 0 -39.5 1.5t-42.5 1.5t-42.5 -1.5t-39.5 -1.5h-25v8h3q31 0 42 14t11 47v543q0 33 -11 47t-42 14h-3v8h20q38 0 80 12t51 30h7v-654zM126 -162q-22 0 -36 14.5t-14 35.5t15 36t38 15q24 0 41.5 -18.5t17.5 -46.5q0 -52 -28 -84
t-64 -39l-2 7q32 7 56 34.5t25 67.5q0 6 -1 11q-12 -33 -48 -33z" />
    <glyph glyph-name="Lcaron" unicode="&#x13d;" horiz-adv-x="575" 
d="M412 448l-8 2q10 45 15 117t12 95q9 29 38 29q15 0 26 -9.5t11 -25.5q0 -8 -3 -19q-6 -21 -40.5 -82.5t-50.5 -106.5zM570 241l-96 -273l-7 2q2 30 -37 30h-201q-12 0 -38.5 0.5t-42.5 0.5q-17 0 -43 -0.5t-39 -0.5h-30v9h3q30 0 42 14.5t12 49.5v536q0 35 -12 49t-42 14
h-3v9h30q13 0 39 -1.5t43 -1.5q16 0 42.5 1.5t38.5 1.5h30v-9h-3q-30 0 -42 -14t-12 -49v-598h133q31 0 50.5 7t41.5 30q29 31 136 196z" />
    <glyph glyph-name="lcaron" unicode="&#x13e;" horiz-adv-x="301" 
d="M183 69q0 -33 11 -47t42 -14h3v-8h-25q-14 0 -39.5 1.5t-42.5 1.5t-42.5 -1.5t-39.5 -1.5h-25v8h3q31 0 42 14t11 47v543q0 33 -11 47t-42 14h-3v8h20q38 0 80 12t51 30h7v-654zM272 480l-8 2q10 45 15 117t12 95q9 29 38 29q15 0 26 -9.5t11 -25.5q0 -8 -3 -19
q-6 -21 -40.5 -82.5t-50.5 -106.5z" />
    <glyph glyph-name="Ldot" unicode="&#x13f;" horiz-adv-x="574" 
d="M570 241l-96 -273l-7 2q2 30 -37 30h-201q-12 0 -38.5 0.5t-42.5 0.5q-17 0 -43 -0.5t-39 -0.5h-30v9h3q30 0 42 14.5t12 49.5v536q0 35 -12 49t-42 14h-3v9h30q13 0 39 -1.5t43 -1.5q16 0 42.5 1.5t38.5 1.5h30v-9h-3q-30 0 -42 -14t-12 -49v-598h133q31 0 50.5 7
t41.5 30q29 31 136 196zM396 303q-23 0 -39 15t-16 39t16 39t39 15t39.5 -15.5t16.5 -38.5t-16.5 -38.5t-39.5 -15.5z" />
    <glyph glyph-name="ldot" unicode="&#x140;" horiz-adv-x="409" 
d="M183 69q0 -33 11 -47t42 -14h3v-8h-25q-14 0 -39.5 1.5t-42.5 1.5t-42.5 -1.5t-39.5 -1.5h-25v8h3q31 0 42 14t11 47v543q0 33 -11 47t-42 14h-3v8h20q38 0 80 12t51 30h7v-654zM335 221q-23 0 -39 15t-16 39t16 39t39 15t39.5 -15.5t16.5 -38.5t-16.5 -38.5t-39.5 -15.5
z" />
    <glyph glyph-name="Lslash" unicode="&#x141;" horiz-adv-x="587" 
d="M584 241l-96 -273l-7 2q2 30 -38 30h-200q-13 0 -39 0.5t-42 0.5q-17 0 -43 -0.5t-39 -0.5h-30v9h3q30 0 42 14.5t12 49.5v208l-76 -39l-6 9l82 42v316q0 35 -12 49t-42 14h-3v9h30q13 0 39 -1.5t43 -1.5q16 0 42 1.5t39 1.5h30v-9h-3q-30 0 -42 -14t-12 -49v-259l123 65
l5 -10l-128 -67v-327h133q31 0 50.5 7t41.5 30q29 31 136 196z" />
    <glyph glyph-name="lslash" unicode="&#x142;" horiz-adv-x="290" 
d="M278 385l-83 -43v-273q0 -33 11 -47t42 -14h3v-8h-25q-14 0 -39.5 1.5t-42.5 1.5t-42.5 -1.5t-39.5 -1.5h-25v8h3q31 0 42 14t11 47v221l-77 -40l-5 10l82 42v310q0 33 -11 47t-42 14h-3v8h20q38 0 80 12t52 30h6v-369l79 40z" />
    <glyph glyph-name="Nacute" unicode="&#x143;" horiz-adv-x="700" 
d="M316 728l-7 4q22 39 45 97t36 78q14 22 33 22q16 0 27 -11t11 -26q0 -14 -9 -26q-15 -19 -61.5 -60t-74.5 -78zM655 0q-16 0 -37.5 0.5t-26.5 0.5q-10 0 -32 -0.5t-34 -0.5l-406 597v-459q0 -53 23.5 -90.5t70.5 -38.5h2v-9h-20q-9 0 -36.5 1.5t-44.5 1.5t-45 -1.5
t-37 -1.5h-19v9h2q47 0 70 38t23 91v472q-23 37 -37 49.5t-40 12.5h-4v9h21q15 0 37 -0.5t36 -0.5q17 0 38.5 0.5t33.5 0.5l391 -571v433q0 53 -23.5 90.5t-69.5 38.5h-2v9h19q9 0 37 -1.5t44 -1.5q17 0 45 1.5t37 1.5h19v-9h-2q-46 0 -69.5 -38t-23.5 -91v-449z" />
    <glyph glyph-name="nacute" unicode="&#x144;" horiz-adv-x="562" 
d="M232 538l-7 4q22 39 45 97t36 78q14 22 33 22q16 0 27 -11t11 -26q0 -14 -9 -26q-15 -19 -61.5 -60t-74.5 -78zM540 0h-25q-14 0 -39.5 1.5t-42.5 1.5t-42.5 -1.5t-38.5 -1.5h-25v8h2q32 0 42.5 14t10.5 48v354q0 44 -34 44q-16 0 -72 -20l-86 -33v-345q0 -34 10.5 -48
t41.5 -14h3v-8h-25q-14 0 -39.5 1.5t-42.5 1.5t-42.5 -1.5t-38.5 -1.5h-25v8h2q32 0 42.5 14t10.5 48v320q0 33 -10.5 47t-42.5 14h-2v8h20q38 0 79.5 12t51.5 30h7v-76l110 42q79 31 118 31q67 0 67 -74v-354q0 -34 10.5 -48t41.5 -14h3v-8z" />
    <glyph glyph-name="uni0145" unicode="&#x145;" horiz-adv-x="700" 
d="M655 0q-16 0 -37.5 0.5t-26.5 0.5q-10 0 -32 -0.5t-34 -0.5l-406 597v-459q0 -53 23.5 -90.5t70.5 -38.5h2v-9h-20q-9 0 -36.5 1.5t-44.5 1.5t-45 -1.5t-37 -1.5h-19v9h2q47 0 70 38t23 91v472q-23 37 -37 49.5t-40 12.5h-4v9h21q15 0 37 -0.5t36 -0.5q17 0 38.5 0.5
t33.5 0.5l391 -571v433q0 53 -23.5 90.5t-69.5 38.5h-2v9h19q9 0 37 -1.5t44 -1.5q17 0 45 1.5t37 1.5h19v-9h-2q-46 0 -69.5 -38t-23.5 -91v-449zM347 -162q-22 0 -36 14.5t-14 35.5t15 36t38 15q24 0 41.5 -18.5t17.5 -46.5q0 -52 -28 -84t-64 -39l-2 7q32 7 56 34.5
t25 67.5q0 6 -1 11q-12 -33 -48 -33z" />
    <glyph glyph-name="uni0146" unicode="&#x146;" horiz-adv-x="562" 
d="M540 0h-25q-14 0 -39.5 1.5t-42.5 1.5t-42.5 -1.5t-38.5 -1.5h-25v8h2q32 0 42.5 14t10.5 48v354q0 44 -34 44q-16 0 -72 -20l-86 -33v-345q0 -34 10.5 -48t41.5 -14h3v-8h-25q-14 0 -39.5 1.5t-42.5 1.5t-42.5 -1.5t-38.5 -1.5h-25v8h2q32 0 42.5 14t10.5 48v320
q0 33 -10.5 47t-42.5 14h-2v8h20q38 0 79.5 12t51.5 30h7v-76l110 42q79 31 118 31q67 0 67 -74v-354q0 -34 10.5 -48t41.5 -14h3v-8zM282 -162q-22 0 -36 14.5t-14 35.5t15 36t38 15q24 0 41.5 -18.5t17.5 -46.5q0 -52 -28 -84t-64 -39l-2 7q32 7 56 34.5t25 67.5
q0 6 -1 11q-12 -33 -48 -33z" />
    <glyph glyph-name="Ncaron" unicode="&#x147;" horiz-adv-x="700" 
d="M373 728q-24 0 -44 39q-60 119 -83 155l7 5q16 -21 36.5 -41.5t47.5 -45t36 -33.5q9 9 36 34t47 45t37 41l6 -5q-21 -34 -82 -155q-20 -39 -44 -39zM655 0q-16 0 -37.5 0.5t-26.5 0.5q-10 0 -32 -0.5t-34 -0.5l-406 597v-459q0 -53 23.5 -90.5t70.5 -38.5h2v-9h-20
q-9 0 -36.5 1.5t-44.5 1.5t-45 -1.5t-37 -1.5h-19v9h2q47 0 70 38t23 91v472q-23 37 -37 49.5t-40 12.5h-4v9h21q15 0 37 -0.5t36 -0.5q17 0 38.5 0.5t33.5 0.5l391 -571v433q0 53 -23.5 90.5t-69.5 38.5h-2v9h19q9 0 37 -1.5t44 -1.5q17 0 45 1.5t37 1.5h19v-9h-2
q-46 0 -69.5 -38t-23.5 -91v-449z" />
    <glyph glyph-name="ncaron" unicode="&#x148;" horiz-adv-x="562" 
d="M289 538q-24 0 -44 39q-60 119 -83 155l7 5q16 -21 36.5 -41.5t47.5 -45t36 -33.5q9 9 36 34t47 45t37 41l6 -5q-21 -34 -82 -155q-20 -39 -44 -39zM540 0h-25q-14 0 -39.5 1.5t-42.5 1.5t-42.5 -1.5t-38.5 -1.5h-25v8h2q32 0 42.5 14t10.5 48v354q0 44 -34 44
q-16 0 -72 -20l-86 -33v-345q0 -34 10.5 -48t41.5 -14h3v-8h-25q-14 0 -39.5 1.5t-42.5 1.5t-42.5 -1.5t-38.5 -1.5h-25v8h2q32 0 42.5 14t10.5 48v320q0 33 -10.5 47t-42.5 14h-2v8h20q38 0 79.5 12t51.5 30h7v-76l110 42q79 31 118 31q67 0 67 -74v-354q0 -34 10.5 -48
t41.5 -14h3v-8z" />
    <glyph glyph-name="napostrophe" unicode="&#x149;" horiz-adv-x="686" 
d="M58 572q-25 0 -41 16t-16 41t17 42.5t45 17.5q27 0 46.5 -22t19.5 -55q0 -59 -32 -97t-73 -47l-2 7q37 8 65.5 42.5t28.5 79.5q0 5 -1 11q-16 -36 -57 -36zM663 0h-25q-14 0 -39.5 1.5t-42.5 1.5t-42.5 -1.5t-38.5 -1.5h-25v8h2q32 0 42.5 14t10.5 48v354q0 44 -34 44
q-16 0 -72 -20l-86 -33v-345q0 -34 10.5 -48t41.5 -14h3v-8h-25q-14 0 -39.5 1.5t-42.5 1.5t-42.5 -1.5t-38.5 -1.5h-25v8h2q32 0 42.5 14t10.5 48v320q0 33 -10.5 47t-42.5 14h-2v8h20q38 0 79.5 12t51.5 30h7v-76l110 42q79 31 118 31q67 0 67 -74v-354q0 -34 10.5 -48
t41.5 -14h3v-8z" />
    <glyph glyph-name="Eng" unicode="&#x14a;" horiz-adv-x="691" 
d="M355 -235q-22 0 -36.5 11t-14.5 29t12.5 29.5t31.5 11.5t52 -20.5t48 -20.5q35 0 77 50.5t55 145.5l-55 -1l-406 597v-459q0 -53 23.5 -90.5t70.5 -38.5h2v-9h-20q-9 0 -36.5 1.5t-44.5 1.5t-45 -1.5t-37 -1.5h-19v9h2q47 0 70 38t23 91v472q-23 37 -37 49.5t-40 12.5h-4
v9h21q15 0 37 -0.5t36 -0.5q17 0 38.5 0.5t33.5 0.5l391 -571v433q0 53 -23.5 90.5t-69.5 38.5h-2v9h19q9 0 37 -1.5t44 -1.5q17 0 45 1.5t37 1.5h19v-9h-2q-46 0 -69.5 -38t-23.5 -91v-449l60 -94q-11 0 -31 0.5t-33 0.5q-16 -119 -80.5 -177.5t-155.5 -58.5z" />
    <glyph glyph-name="eng" unicode="&#x14b;" horiz-adv-x="555" 
d="M485 424v-379q0 -101 -67 -189q-69 -91 -159 -91q-21 0 -35 10t-14 26t11 26t28 10q20 0 49.5 -15.5t39.5 -15.5q23 0 33.5 14t10.5 49v555q0 44 -34 44q-16 0 -72 -20l-86 -33v-345q0 -34 10.5 -48t41.5 -14h3v-8h-25q-14 0 -39.5 1.5t-42.5 1.5t-42.5 -1.5t-38.5 -1.5
h-25v8h2q32 0 42.5 14t10.5 48v320q0 33 -10.5 47t-42.5 14h-2v8h20q38 0 79.5 12t51.5 30h7v-76l110 42q79 31 118 31q67 0 67 -74z" />
    <glyph glyph-name="Omacron" unicode="&#x14c;" horiz-adv-x="684" 
d="M465 796h-248v22h248v-22zM342 -10q-130 0 -219.5 99t-89.5 252t89.5 251.5t219.5 98.5t219.5 -98.5t89.5 -251.5t-89.5 -252t-219.5 -99zM342 0q187 0 187 341q0 340 -187 340t-187 -340q0 -341 187 -341z" />
    <glyph glyph-name="omacron" unicode="&#x14d;" horiz-adv-x="526" 
d="M386 607h-248v22h248v-22zM263 -8q-93 0 -160.5 72.5t-67.5 180.5t67.5 180.5t160.5 72.5t160.5 -72.5t67.5 -180.5t-67.5 -180.5t-160.5 -72.5zM263 1q58 0 86 51.5t28 192.5t-28 192.5t-86 51.5t-86 -51.5t-28 -192.5t28 -192.5t86 -51.5z" />
    <glyph glyph-name="Obreve" unicode="&#x14e;" horiz-adv-x="684" 
d="M342 752q-86 0 -136 133l7 3q38 -72 129 -72t128 72l7 -3q-48 -133 -135 -133zM342 -10q-130 0 -219.5 99t-89.5 252t89.5 251.5t219.5 98.5t219.5 -98.5t89.5 -251.5t-89.5 -252t-219.5 -99zM342 0q187 0 187 341q0 340 -187 340t-187 -340q0 -341 187 -341z" />
    <glyph glyph-name="obreve" unicode="&#x14f;" horiz-adv-x="526" 
d="M263 563q-86 0 -136 133l7 3q38 -72 129 -72t128 72l7 -3q-48 -133 -135 -133zM263 -8q-93 0 -160.5 72.5t-67.5 180.5t67.5 180.5t160.5 72.5t160.5 -72.5t67.5 -180.5t-67.5 -180.5t-160.5 -72.5zM263 1q58 0 86 51.5t28 192.5t-28 192.5t-86 51.5t-86 -51.5
t-28 -192.5t28 -192.5t86 -51.5z" />
    <glyph glyph-name="Ohungarumlaut" unicode="&#x150;" horiz-adv-x="684" 
d="M265 737l-7 4q20 37 39 92.5t30 75.5q11 19 31 19q15 0 25.5 -9.5t10.5 -23.5q0 -13 -8 -24q-13 -18 -55 -58.5t-66 -75.5zM392 737l-6 4q19 36 38 91.5t31 76.5q11 19 31 19q15 0 25 -9.5t10 -23.5q0 -13 -8 -24q-13 -18 -55 -58.5t-66 -75.5zM342 -10q-130 0 -219.5 99
t-89.5 252t89.5 251.5t219.5 98.5t219.5 -98.5t89.5 -251.5t-89.5 -252t-219.5 -99zM342 0q187 0 187 341q0 340 -187 340t-187 -340q0 -341 187 -341z" />
    <glyph glyph-name="ohungarumlaut" unicode="&#x151;" horiz-adv-x="526" 
d="M186 548l-7 4q20 37 39 92.5t30 75.5q11 19 31 19q15 0 25.5 -9.5t10.5 -23.5q0 -13 -8 -24q-13 -18 -55 -58.5t-66 -75.5zM313 548l-6 4q19 36 38 91.5t31 76.5q11 19 31 19q15 0 25 -9.5t10 -23.5q0 -13 -8 -24q-13 -18 -55 -58.5t-66 -75.5zM263 -8q-93 0 -160.5 72.5
t-67.5 180.5t67.5 180.5t160.5 72.5t160.5 -72.5t67.5 -180.5t-67.5 -180.5t-160.5 -72.5zM263 1q58 0 86 51.5t28 192.5t-28 192.5t-86 51.5t-86 -51.5t-28 -192.5t28 -192.5t86 -51.5z" />
    <glyph glyph-name="OE" unicode="&#x152;" horiz-adv-x="991" 
d="M874 -32l-7 2q2 14 -7.5 22t-30.5 8h-227q-12 0 -39 0.5t-50 0.5q-16 0 -40.5 -0.5t-36.5 -0.5h-91q-134 0 -222.5 90.5t-88.5 249.5q0 160 88.5 250.5t222.5 90.5h74q15 0 45.5 -0.5t48.5 -0.5q19 0 46.5 0.5t42.5 0.5h218q21 0 30.5 7.5t8.5 22.5l7 2l84 -239l-7 -3
q-93 130 -127 166q-32 33 -93 33h-155v-319h108q55 0 75.5 33.5t28.5 103.5h9v-288h-9q-8 70 -28.5 105t-75.5 35h-108v-329h163q34 0 53.5 6.5t42.5 30.5q51 54 133 181l7 -3zM459 11v659h-98q-115 0 -160.5 -75t-45.5 -255q0 -179 45.5 -254t160.5 -75h98z" />
    <glyph glyph-name="oe" unicode="&#x153;" horiz-adv-x="830" 
d="M595 -8q-103 0 -164 94q-61 -94 -168 -94q-93 0 -160.5 72.5t-67.5 180.5t67.5 180.5t160.5 72.5q108 0 171 -98q29 48 74 73t96 25q79 0 134.5 -50.5t53.5 -134.5h-303q-1 -9 -1 -31q0 -109 42 -176.5t112 -67.5q104 0 144 124l8 -2q-24 -80 -74.5 -124t-124.5 -44z
M263 1q58 0 86 51.5t28 192.5t-28 192.5t-86 51.5t-86 -51.5t-28 -192.5t28 -192.5t86 -51.5zM694 323q-1 166 -95 166q-46 0 -75.5 -42t-34.5 -124h205z" />
    <glyph glyph-name="Racute" unicode="&#x154;" horiz-adv-x="657" 
d="M258 727l-7 4q22 39 45 97t36 78q14 22 33 22q16 0 27 -11t11 -26q0 -14 -9 -26q-15 -19 -61.5 -60t-74.5 -78zM657 0q-29 0 -56 1.5t-43 1.5q-12 0 -35 -1.5t-37 -1.5l-166 323h-118v-250q0 -35 12 -49.5t42 -14.5h3v-9h-30q-12 0 -38.5 1.5t-42.5 1.5q-17 0 -43 -1.5
t-39 -1.5h-30v9h3q30 0 42 14.5t12 49.5v536q0 35 -12 49t-42 14h-3v9h30q13 0 39 -0.5t43 -0.5q18 0 48 0.5t45 0.5h102q108 0 172 -47t64 -130q0 -78 -62.5 -129.5t-172.5 -51.5h-10q20 -32 45 -43.5t90 -11.5l87 -171q28 -55 47.5 -71t53.5 -17v-9zM463 503
q0 84 -28.5 125.5t-99.5 41.5h-133v-336h133q70 0 99 41t29 128z" />
    <glyph glyph-name="racute" unicode="&#x155;" horiz-adv-x="382" 
d="M143 538l-7 4q22 39 45 97t36 78q14 22 33 22q16 0 27 -11t11 -26q0 -14 -9 -26q-15 -19 -61.5 -60t-74.5 -78zM269 0h-40q-15 0 -43.5 1.5t-47.5 1.5q-17 0 -42.5 -1.5t-39.5 -1.5h-25v8h3q31 0 42 14t11 48v320q0 33 -11 47t-42 14h-3v8h20q38 0 80 12t51 30h7v-122
q37 59 67 86q33 33 74 33q23 0 36.5 -11t13.5 -28q0 -41 -48 -41q-13 0 -36.5 8.5t-34.5 8.5q-30 0 -72 -72v-293q0 -62 63 -62h17v-8z" />
    <glyph glyph-name="uni0156" unicode="&#x156;" horiz-adv-x="657" 
d="M657 0q-29 0 -56 1.5t-43 1.5q-12 0 -35 -1.5t-37 -1.5l-166 323h-118v-250q0 -35 12 -49.5t42 -14.5h3v-9h-30q-12 0 -38.5 1.5t-42.5 1.5q-17 0 -43 -1.5t-39 -1.5h-30v9h3q30 0 42 14.5t12 49.5v536q0 35 -12 49t-42 14h-3v9h30q13 0 39 -0.5t43 -0.5q18 0 48 0.5
t45 0.5h102q108 0 172 -47t64 -130q0 -78 -62.5 -129.5t-172.5 -51.5h-10q20 -32 45 -43.5t90 -11.5l87 -171q28 -55 47.5 -71t53.5 -17v-9zM463 503q0 84 -28.5 125.5t-99.5 41.5h-133v-336h133q70 0 99 41t29 128zM331 -162q-22 0 -36 14.5t-14 35.5t15 36t38 15
q24 0 41.5 -18.5t17.5 -46.5q0 -52 -28 -84t-64 -39l-2 7q32 7 56 34.5t25 67.5q0 6 -1 11q-12 -33 -48 -33z" />
    <glyph glyph-name="uni0157" unicode="&#x157;" horiz-adv-x="382" 
d="M269 0h-40q-15 0 -43.5 1.5t-47.5 1.5q-17 0 -42.5 -1.5t-39.5 -1.5h-25v8h3q31 0 42 14t11 48v320q0 33 -11 47t-42 14h-3v8h20q38 0 80 12t51 30h7v-122q37 59 67 86q33 33 74 33q23 0 36.5 -11t13.5 -28q0 -41 -48 -41q-13 0 -36.5 8.5t-34.5 8.5q-30 0 -72 -72v-293
q0 -62 63 -62h17v-8zM134 -162q-22 0 -36 14.5t-14 35.5t15 36t38 15q24 0 41.5 -18.5t17.5 -46.5q0 -52 -28 -84t-64 -39l-2 7q32 7 56 34.5t25 67.5q0 6 -1 11q-12 -33 -48 -33z" />
    <glyph glyph-name="Rcaron" unicode="&#x158;" horiz-adv-x="657" 
d="M315 727q-24 0 -44 39q-60 119 -83 155l7 5q16 -21 36.5 -41.5t47.5 -45t36 -33.5q9 9 36 34t47 45t37 41l6 -5q-21 -34 -82 -155q-20 -39 -44 -39zM657 0q-29 0 -56 1.5t-43 1.5q-12 0 -35 -1.5t-37 -1.5l-166 323h-118v-250q0 -35 12 -49.5t42 -14.5h3v-9h-30
q-12 0 -38.5 1.5t-42.5 1.5q-17 0 -43 -1.5t-39 -1.5h-30v9h3q30 0 42 14.5t12 49.5v536q0 35 -12 49t-42 14h-3v9h30q13 0 39 -0.5t43 -0.5q18 0 48 0.5t45 0.5h102q108 0 172 -47t64 -130q0 -78 -62.5 -129.5t-172.5 -51.5h-10q20 -32 45 -43.5t90 -11.5l87 -171
q28 -55 47.5 -71t53.5 -17v-9zM463 503q0 84 -28.5 125.5t-99.5 41.5h-133v-336h133q70 0 99 41t29 128z" />
    <glyph glyph-name="rcaron" unicode="&#x159;" horiz-adv-x="382" 
d="M199 538q-24 0 -44 39q-60 119 -83 155l7 5q16 -21 36.5 -41.5t47.5 -45t36 -33.5q9 9 36 34t47 45t37 41l6 -5q-21 -34 -82 -155q-20 -39 -44 -39zM269 0h-40q-15 0 -43.5 1.5t-47.5 1.5q-17 0 -42.5 -1.5t-39.5 -1.5h-25v8h3q31 0 42 14t11 48v320q0 33 -11 47t-42 14
h-3v8h20q38 0 80 12t51 30h7v-122q37 59 67 86q33 33 74 33q23 0 36.5 -11t13.5 -28q0 -41 -48 -41q-13 0 -36.5 8.5t-34.5 8.5q-30 0 -72 -72v-293q0 -62 63 -62h17v-8z" />
    <glyph glyph-name="Sacute" unicode="&#x15a;" horiz-adv-x="573" 
d="M214 727l-7 4q22 39 45 97t36 78q14 22 33 22q16 0 27 -11t11 -26q0 -14 -9 -26q-15 -19 -61.5 -60t-74.5 -78zM536 196q0 -95 -65 -150.5t-149 -55.5q-43 0 -108 15.5t-73 15.5q-17 0 -25.5 -7.5t-7.5 -22.5l-7 -2l-71 244l7 3q40 -75 80 -125.5t78 -73t66.5 -30
t60.5 -7.5q61 0 101 37t40 90q0 102 -154 160l-86 32q-165 62 -165 194q0 81 57 129.5t142 48.5q31 0 78.5 -9.5t61.5 -9.5q17 0 26 7.5t8 23.5l7 2l76 -222l-7 -3q-65 113 -124 157t-126 44q-63 0 -97.5 -31t-34.5 -79q0 -49 34 -82.5t111 -61.5l89 -33q177 -67 177 -198z
" />
    <glyph glyph-name="sacute" unicode="&#x15b;" horiz-adv-x="456" 
d="M159 538l-7 4q22 39 45 97t36 78q14 22 33 22q16 0 27 -11t11 -26q0 -14 -9 -26q-15 -19 -61.5 -60t-74.5 -78zM246 -8q-31 0 -74 10.5t-57 10.5q-11 0 -18 -6t-6 -17l-7 -1l-48 184l7 2q80 -174 204 -174q50 0 77.5 25.5t27.5 63.5q0 35 -29 60.5t-89 48.5l-55 21
q-118 45 -118 147q0 59 41.5 95t106.5 36q24 0 60 -8.5t50 -8.5q12 0 19.5 6t6.5 18l7 1l47 -172l-7 -2q-73 157 -183 157q-42 0 -65 -21t-23 -50q0 -32 25.5 -54.5t84.5 -46.5l52 -21q68 -28 100 -61.5t32 -87.5q0 -72 -49.5 -113.5t-119.5 -41.5z" />
    <glyph glyph-name="Scircumflex" unicode="&#x15c;" horiz-adv-x="573" 
d="M397 731l-6 -5q-17 21 -37 41t-47 45t-36 34q-9 -9 -36 -33.5t-47.5 -45t-36.5 -41.5l-7 5q23 36 83 155q20 39 44 39t44 -39q61 -121 82 -155zM536 196q0 -95 -65 -150.5t-149 -55.5q-43 0 -108 15.5t-73 15.5q-17 0 -25.5 -7.5t-7.5 -22.5l-7 -2l-71 244l7 3
q40 -75 80 -125.5t78 -73t66.5 -30t60.5 -7.5q61 0 101 37t40 90q0 102 -154 160l-86 32q-165 62 -165 194q0 81 57 129.5t142 48.5q31 0 78.5 -9.5t61.5 -9.5q17 0 26 7.5t8 23.5l7 2l76 -222l-7 -3q-65 113 -124 157t-126 44q-63 0 -97.5 -31t-34.5 -79q0 -49 34 -82.5
t111 -61.5l89 -33q177 -67 177 -198z" />
    <glyph glyph-name="scircumflex" unicode="&#x15d;" horiz-adv-x="456" 
d="M342 542l-6 -5q-17 21 -37 41t-47 45t-36 34q-9 -9 -36 -33.5t-47.5 -45t-36.5 -41.5l-7 5q23 36 83 155q20 39 44 39t44 -39q61 -121 82 -155zM246 -8q-31 0 -74 10.5t-57 10.5q-11 0 -18 -6t-6 -17l-7 -1l-48 184l7 2q80 -174 204 -174q50 0 77.5 25.5t27.5 63.5
q0 35 -29 60.5t-89 48.5l-55 21q-118 45 -118 147q0 59 41.5 95t106.5 36q24 0 60 -8.5t50 -8.5q12 0 19.5 6t6.5 18l7 1l47 -172l-7 -2q-73 157 -183 157q-42 0 -65 -21t-23 -50q0 -32 25.5 -54.5t84.5 -46.5l52 -21q68 -28 100 -61.5t32 -87.5q0 -72 -49.5 -113.5
t-119.5 -41.5z" />
    <glyph glyph-name="Scedilla" unicode="&#x15e;" horiz-adv-x="573" 
d="M377 -118q0 -50 -60.5 -87.5t-134.5 -44.5l-1 8q63 9 101.5 38.5t38.5 63.5q0 38 -51 38q-31 0 -55 -11l-4 5l86 99q-38 3 -92 16.5t-64 13.5q-17 0 -25.5 -7.5t-7.5 -22.5l-7 -2l-71 244l7 3q40 -75 80 -125.5t78 -73t66.5 -30t60.5 -7.5q61 0 101 37t40 90
q0 102 -154 160l-86 32q-165 62 -165 194q0 81 57 129.5t142 48.5q31 0 78.5 -9.5t61.5 -9.5q17 0 26 7.5t8 23.5l7 2l76 -222l-7 -3q-65 113 -124 157t-126 44q-63 0 -97.5 -31t-34.5 -79q0 -49 34 -82.5t111 -61.5l89 -33q177 -67 177 -198q0 -95 -65 -150.5t-149 -55.5
h-15l-30 -48q12 2 23 2q34 0 55.5 -17t21.5 -45z" />
    <glyph glyph-name="scedilla" unicode="&#x15f;" horiz-adv-x="456" 
d="M317 -118q0 -50 -60.5 -87.5t-134.5 -44.5l-1 8q63 9 101.5 38.5t38.5 63.5q0 38 -51 38q-31 0 -55 -11l-4 5l87 100q-28 1 -68 11t-55 10q-11 0 -18 -6t-6 -17l-7 -1l-48 184l7 3q80 -175 204 -175q50 0 77.5 25.5t27.5 63.5q0 35 -29 60.5t-89 48.5l-55 21
q-118 45 -118 147q0 59 41.5 95t106.5 36q24 0 60 -8.5t50 -8.5q12 0 19.5 6t6.5 18l7 1l47 -172l-7 -2q-73 157 -183 157q-42 0 -65 -21t-23 -50q0 -32 25.5 -54.5t84.5 -46.5l52 -21q68 -28 100 -61.5t32 -87.5q0 -71 -49 -112.5t-119 -42.5l-30 -50q12 2 23 2
q34 0 55.5 -17t21.5 -45z" />
    <glyph glyph-name="Scaron" unicode="&#x160;" horiz-adv-x="573" 
d="M271 727q-24 0 -44 39q-60 119 -83 155l7 5q16 -21 36.5 -41.5t47.5 -45t36 -33.5q9 9 36 34t47 45t37 41l6 -5q-21 -34 -82 -155q-20 -39 -44 -39zM536 196q0 -95 -65 -150.5t-149 -55.5q-43 0 -108 15.5t-73 15.5q-17 0 -25.5 -7.5t-7.5 -22.5l-7 -2l-71 244l7 3
q40 -75 80 -125.5t78 -73t66.5 -30t60.5 -7.5q61 0 101 37t40 90q0 102 -154 160l-86 32q-165 62 -165 194q0 81 57 129.5t142 48.5q31 0 78.5 -9.5t61.5 -9.5q17 0 26 7.5t8 23.5l7 2l76 -222l-7 -3q-65 113 -124 157t-126 44q-63 0 -97.5 -31t-34.5 -79q0 -49 34 -82.5
t111 -61.5l89 -33q177 -67 177 -198z" />
    <glyph glyph-name="scaron" unicode="&#x161;" horiz-adv-x="456" 
d="M221 538q-24 0 -44 39q-60 119 -83 155l7 5q16 -21 36.5 -41.5t47.5 -45t36 -33.5q9 9 36 34t47 45t37 41l6 -5q-21 -34 -82 -155q-20 -39 -44 -39zM246 -8q-31 0 -74 10.5t-57 10.5q-11 0 -18 -6t-6 -17l-7 -1l-48 184l7 2q80 -174 204 -174q50 0 77.5 25.5t27.5 63.5
q0 35 -29 60.5t-89 48.5l-55 21q-118 45 -118 147q0 59 41.5 95t106.5 36q24 0 60 -8.5t50 -8.5q12 0 19.5 6t6.5 18l7 1l47 -172l-7 -2q-73 157 -183 157q-42 0 -65 -21t-23 -50q0 -32 25.5 -54.5t84.5 -46.5l52 -21q68 -28 100 -61.5t32 -87.5q0 -72 -49.5 -113.5
t-119.5 -41.5z" />
    <glyph glyph-name="uni0162" unicode="&#x162;" horiz-adv-x="657" 
d="M407 -118q0 -50 -60.5 -87.5t-135.5 -44.5l-1 8q64 9 102 38.5t38 63.5q0 38 -51 38q-31 0 -55 -11l-3 5l94 111h-6q-16 0 -42.5 -1.5t-39.5 -1.5h-30v9h3q30 0 42 14.5t12 49.5v597h-72q-25 0 -38 -5.5t-30 -26.5q-39 -51 -119 -199l-7 3l69 270l7 -1q0 -30 41 -30h105
q13 0 45.5 -0.5t53.5 -0.5q20 0 53 0.5t45 0.5h106q41 0 41 30l7 1l69 -270l-7 -3q-82 150 -120 199q-16 21 -29 26.5t-39 5.5h-72v-597q0 -35 12 -49.5t43 -14.5h2v-9h-30q-12 0 -35.5 1.5t-29.5 1.5l-39 -61q12 2 23 2q34 0 56 -17t22 -45z" />
    <glyph glyph-name="uni0163" unicode="&#x163;" horiz-adv-x="302" 
d="M239 -118q0 -50 -60.5 -87.5t-135.5 -44.5l-1 8q64 9 102 38.5t38 63.5q0 38 -51 38q-30 0 -54 -11l-4 5l88 101q-82 9 -82 106v381h-69v10h69v76q46 0 70 20.5t24 55.5v3h8v-155h102v-10h-102v-394q0 -58 40 -58q17 0 33.5 15t25.5 38l7 -2q-12 -36 -41 -61.5t-71 -25.5
h-7l-30 -50q14 2 23 2q34 0 56 -17t22 -45z" />
    <glyph glyph-name="Tcaron" unicode="&#x164;" horiz-adv-x="657" 
d="M328 727q-24 0 -44 39q-60 119 -83 155l7 5q16 -21 36.5 -41.5t47.5 -45t36 -33.5q9 9 36 34t47 45t37 41l6 -5q-21 -34 -82 -155q-20 -39 -44 -39zM440 9v-9h-30q-12 0 -38.5 1.5t-42.5 1.5t-42.5 -1.5t-39.5 -1.5h-30v9h3q30 0 42 14.5t12 49.5v597h-72q-25 0 -38 -5.5
t-30 -26.5q-39 -51 -119 -199l-7 3l69 270l7 -1q0 -30 41 -30h105q13 0 45.5 -0.5t53.5 -0.5q20 0 53 0.5t45 0.5h106q41 0 41 30l7 1l69 -270l-7 -3q-82 150 -120 199q-16 21 -29 26.5t-39 5.5h-72v-597q0 -35 12 -49.5t43 -14.5h2z" />
    <glyph glyph-name="tcaron" unicode="&#x165;" horiz-adv-x="298" 
d="M234 540l-8 2q10 45 15 117t12 95q9 29 38 29q15 0 26 -9.5t11 -25.5q0 -8 -3 -19q-6 -21 -40.5 -82.5t-50.5 -106.5zM174 -8q-42 0 -69 24.5t-27 82.5v381h-69v10h69v76q46 0 70 20.5t24 55.5v3h8v-155h102v-10h-102v-394q0 -58 40 -58q17 0 33.5 15t25.5 38l7 -2
q-12 -36 -41 -61.5t-71 -25.5z" />
    <glyph glyph-name="Tbar" unicode="&#x166;" horiz-adv-x="657" 
d="M440 0h-30q-12 0 -38.5 1.5t-42.5 1.5t-42.5 -1.5t-39.5 -1.5h-30v9h3q30 0 42 14.5t12 49.5v268h-123v11h123v318h-72q-25 0 -38 -5.5t-30 -26.5q-39 -51 -119 -199l-7 3l69 270l7 -1q0 -30 41 -30h105q13 0 45.5 -0.5t53.5 -0.5q20 0 53 0.5t45 0.5h106q41 0 41 30l7 1
l69 -270l-7 -3q-82 150 -120 199q-16 21 -29 26.5t-39 5.5h-72v-318h123v-11h-123v-268q0 -35 12 -49.5t43 -14.5h2v-9z" />
    <glyph glyph-name="tbar" unicode="&#x167;" horiz-adv-x="306" 
d="M289 79q-12 -36 -41 -61.5t-70 -25.5q-97 0 -97 107v234h-68v10h68v137h-68v10h68v76q47 0 70.5 20.5t23.5 55.5v3h8v-155h103v-10h-103v-137h85v-10h-85v-247q0 -58 41 -58q16 0 32.5 15t25.5 38z" />
    <glyph glyph-name="Utilde" unicode="&#x168;" horiz-adv-x="637" 
d="M379 770q-22 0 -57 21.5t-60 21.5q-30 0 -64 -56l-7 4q2 3 11 18.5t12.5 21.5t13 19.5t16 19.5t16.5 14t20.5 11t21.5 3q22 0 57 -22t61 -22q28 0 63 56l7 -4q-1 -1 -11 -18t-13 -22t-12.5 -19t-16 -19t-16.5 -13.5t-20.5 -11.5t-21.5 -3zM553 214q0 -100 -58.5 -161
t-167.5 -61q-247 0 -247 224v393q0 34 -12.5 48.5t-42.5 14.5h-2v9h30q12 0 38.5 -1.5t42.5 -1.5t42.5 1.5t39.5 1.5h30v-9h-3q-30 0 -42 -14t-12 -49v-366q0 -120 41.5 -175.5t128.5 -55.5q82 0 132.5 55.5t50.5 146.5v329q0 53 -23.5 90.5t-69.5 38.5h-2v9h19q9 0 37 -1.5
t44 -1.5q17 0 45 1.5t37 1.5h19v-9h-2q-46 0 -69.5 -38t-23.5 -91v-329z" />
    <glyph glyph-name="utilde" unicode="&#x169;" horiz-adv-x="551" 
d="M312 581q-22 0 -57 21.5t-60 21.5q-30 0 -64 -56l-7 4q2 3 11 18.5t12.5 21.5t13 19.5t16 19.5t16.5 14t20.5 11t21.5 3q22 0 57 -22t61 -22q28 0 63 56l7 -4q-1 -1 -11 -18t-13 -22t-12.5 -19t-16 -19t-16.5 -13.5t-20.5 -11.5t-21.5 -3zM526 0h-25q-14 0 -39.5 1
t-42.5 1q-12 0 -28 -1t-23 -1v64l-105 -41q-80 -31 -119 -31q-66 0 -66 74v324q0 33 -11 47t-42 14h-3v8h20q38 0 80 12t52 30h6v-435q0 -44 35 -44q22 0 72 20l81 32v316q0 33 -11 47t-42 14h-3v8h20q38 0 80 12t52 30h6v-431q0 -34 11 -48t42 -14h3v-8z" />
    <glyph glyph-name="Umacron" unicode="&#x16a;" horiz-adv-x="637" 
d="M464 796h-248v22h248v-22zM553 214q0 -100 -58.5 -161t-167.5 -61q-247 0 -247 224v393q0 34 -12.5 48.5t-42.5 14.5h-2v9h30q12 0 38.5 -1.5t42.5 -1.5t42.5 1.5t39.5 1.5h30v-9h-3q-30 0 -42 -14t-12 -49v-366q0 -120 41.5 -175.5t128.5 -55.5q82 0 132.5 55.5
t50.5 146.5v329q0 53 -23.5 90.5t-69.5 38.5h-2v9h19q9 0 37 -1.5t44 -1.5q17 0 45 1.5t37 1.5h19v-9h-2q-46 0 -69.5 -38t-23.5 -91v-329z" />
    <glyph glyph-name="umacron" unicode="&#x16b;" horiz-adv-x="551" 
d="M397 607h-248v22h248v-22zM526 0h-25q-14 0 -39.5 1t-42.5 1q-12 0 -28 -1t-23 -1v64l-105 -41q-80 -31 -119 -31q-66 0 -66 74v324q0 33 -11 47t-42 14h-3v8h20q38 0 80 12t52 30h6v-435q0 -44 35 -44q22 0 72 20l81 32v316q0 33 -11 47t-42 14h-3v8h20q38 0 80 12
t52 30h6v-431q0 -34 11 -48t42 -14h3v-8z" />
    <glyph glyph-name="Ubreve" unicode="&#x16c;" horiz-adv-x="637" 
d="M341 752q-86 0 -136 133l7 3q38 -72 129 -72t128 72l7 -3q-48 -133 -135 -133zM553 214q0 -100 -58.5 -161t-167.5 -61q-247 0 -247 224v393q0 34 -12.5 48.5t-42.5 14.5h-2v9h30q12 0 38.5 -1.5t42.5 -1.5t42.5 1.5t39.5 1.5h30v-9h-3q-30 0 -42 -14t-12 -49v-366
q0 -120 41.5 -175.5t128.5 -55.5q82 0 132.5 55.5t50.5 146.5v329q0 53 -23.5 90.5t-69.5 38.5h-2v9h19q9 0 37 -1.5t44 -1.5q17 0 45 1.5t37 1.5h19v-9h-2q-46 0 -69.5 -38t-23.5 -91v-329z" />
    <glyph glyph-name="ubreve" unicode="&#x16d;" horiz-adv-x="551" 
d="M274 563q-86 0 -136 133l7 3q38 -72 129 -72t128 72l7 -3q-48 -133 -135 -133zM526 0h-25q-14 0 -39.5 1t-42.5 1q-12 0 -28 -1t-23 -1v64l-105 -41q-80 -31 -119 -31q-66 0 -66 74v324q0 33 -11 47t-42 14h-3v8h20q38 0 80 12t52 30h6v-435q0 -44 35 -44q22 0 72 20
l81 32v316q0 33 -11 47t-42 14h-3v8h20q38 0 80 12t52 30h6v-431q0 -34 11 -48t42 -14h3v-8z" />
    <glyph glyph-name="Uring" unicode="&#x16e;" horiz-adv-x="637" 
d="M426 828q0 -36 -24.5 -61.5t-60.5 -25.5t-61 25.5t-25 61.5t25 61.5t61 25.5t60.5 -25.5t24.5 -61.5zM415 828q0 31 -21.5 53.5t-52.5 22.5q-32 0 -53.5 -22.5t-21.5 -53.5t21.5 -53.5t53.5 -22.5q31 0 52.5 22.5t21.5 53.5zM553 214q0 -100 -58.5 -161t-167.5 -61
q-247 0 -247 224v393q0 34 -12.5 48.5t-42.5 14.5h-2v9h30q12 0 38.5 -1.5t42.5 -1.5t42.5 1.5t39.5 1.5h30v-9h-3q-30 0 -42 -14t-12 -49v-366q0 -120 41.5 -175.5t128.5 -55.5q82 0 132.5 55.5t50.5 146.5v329q0 53 -23.5 90.5t-69.5 38.5h-2v9h19q9 0 37 -1.5t44 -1.5
q17 0 45 1.5t37 1.5h19v-9h-2q-46 0 -69.5 -38t-23.5 -91v-329z" />
    <glyph glyph-name="uring" unicode="&#x16f;" horiz-adv-x="551" 
d="M359 639q0 -36 -24.5 -61.5t-60.5 -25.5t-61 25.5t-25 61.5t25 61.5t61 25.5t60.5 -25.5t24.5 -61.5zM348 639q0 31 -21.5 53.5t-52.5 22.5q-32 0 -53.5 -22.5t-21.5 -53.5t21.5 -53.5t53.5 -22.5q31 0 52.5 22.5t21.5 53.5zM526 0h-25q-14 0 -39.5 1t-42.5 1
q-12 0 -28 -1t-23 -1v64l-105 -41q-80 -31 -119 -31q-66 0 -66 74v324q0 33 -11 47t-42 14h-3v8h20q38 0 80 12t52 30h6v-435q0 -44 35 -44q22 0 72 20l81 32v316q0 33 -11 47t-42 14h-3v8h20q38 0 80 12t52 30h6v-431q0 -34 11 -48t42 -14h3v-8z" />
    <glyph glyph-name="Uhungarumlaut" unicode="&#x170;" horiz-adv-x="637" 
d="M265 737l-7 4q20 37 39 92.5t30 75.5q11 19 31 19q15 0 25.5 -9.5t10.5 -23.5q0 -13 -8 -24q-13 -18 -55 -58.5t-66 -75.5zM392 737l-6 4q19 36 38 91.5t31 76.5q11 19 31 19q15 0 25 -9.5t10 -23.5q0 -13 -8 -24q-13 -18 -55 -58.5t-66 -75.5zM553 214
q0 -100 -58.5 -161t-167.5 -61q-247 0 -247 224v393q0 34 -12.5 48.5t-42.5 14.5h-2v9h30q12 0 38.5 -1.5t42.5 -1.5t42.5 1.5t39.5 1.5h30v-9h-3q-30 0 -42 -14t-12 -49v-366q0 -120 41.5 -175.5t128.5 -55.5q82 0 132.5 55.5t50.5 146.5v329q0 53 -23.5 90.5t-69.5 38.5
h-2v9h19q9 0 37 -1.5t44 -1.5q17 0 45 1.5t37 1.5h19v-9h-2q-46 0 -69.5 -38t-23.5 -91v-329z" />
    <glyph glyph-name="uhungarumlaut" unicode="&#x171;" horiz-adv-x="551" 
d="M198 548l-7 4q20 37 39 92.5t30 75.5q11 19 31 19q15 0 25.5 -9.5t10.5 -23.5q0 -13 -8 -24q-13 -18 -55 -58.5t-66 -75.5zM325 548l-6 4q19 36 38 91.5t31 76.5q11 19 31 19q15 0 25 -9.5t10 -23.5q0 -13 -8 -24q-13 -18 -55 -58.5t-66 -75.5zM526 0h-25q-14 0 -39.5 1
t-42.5 1q-12 0 -28 -1t-23 -1v64l-105 -41q-80 -31 -119 -31q-66 0 -66 74v324q0 33 -11 47t-42 14h-3v8h20q38 0 80 12t52 30h6v-435q0 -44 35 -44q22 0 72 20l81 32v316q0 33 -11 47t-42 14h-3v8h20q38 0 80 12t52 30h6v-431q0 -34 11 -48t42 -14h3v-8z" />
    <glyph glyph-name="Uogonek" unicode="&#x172;" horiz-adv-x="637" 
d="M553 214q0 -87 -43.5 -143t-126.5 -77q-30 -8 -55.5 -32.5t-25.5 -55.5q0 -27 17.5 -43.5t44.5 -16.5q39 0 73 36l6 -5q-20 -25 -52.5 -41.5t-68.5 -16.5q-41 0 -65.5 19.5t-24.5 48.5q0 32 40.5 61t85.5 45q-5 0 -16 -0.5t-15 -0.5q-247 0 -247 224v393q0 34 -12.5 48.5
t-42.5 14.5h-2v9h30q12 0 38.5 -1.5t42.5 -1.5t42.5 1.5t39.5 1.5h30v-9h-3q-30 0 -42 -14t-12 -49v-366q0 -120 41.5 -175.5t128.5 -55.5q82 0 132.5 55.5t50.5 146.5v329q0 53 -23.5 90.5t-69.5 38.5h-2v9h19q9 0 37 -1.5t44 -1.5q17 0 45 1.5t37 1.5h19v-9h-2
q-46 0 -69.5 -38t-23.5 -91v-329z" />
    <glyph glyph-name="uogonek" unicode="&#x173;" horiz-adv-x="551" 
d="M526 0h-25q-8 0 -21 0.5t-20 0.5q-81 -38 -81 -95q0 -27 17.5 -43.5t44.5 -16.5q39 0 73 36l6 -5q-20 -25 -52.5 -41.5t-68.5 -16.5q-41 0 -65.5 19.5t-24.5 48.5q0 52 136 115h-26q-12 0 -28 -1t-23 -1v64l-105 -41q-80 -31 -119 -31q-66 0 -66 74v324q0 33 -11 47
t-42 14h-3v8h20q38 0 80 12t52 30h6v-435q0 -44 35 -44q22 0 72 20l81 32v316q0 33 -11 47t-42 14h-3v8h20q38 0 80 12t52 30h6v-431q0 -34 11 -48t42 -14h3v-8z" />
    <glyph glyph-name="Wcircumflex" unicode="&#x174;" horiz-adv-x="992" 
d="M621 731l-6 -5q-17 21 -37 41t-47 45t-36 34q-9 -9 -36 -33.5t-47.5 -45t-36.5 -41.5l-7 5q23 36 83 155q20 39 44 39t44 -39q61 -121 82 -155zM781 0q-11 0 -29 0.5t-28 0.5q-11 0 -28.5 -0.5t-29.5 -0.5l-168 504l-134 -405l34 -99q-11 0 -30 0.5t-29 0.5t-27 -0.5
t-29 -0.5l-220 607q-23 65 -71 65v9h32q9 0 37.5 -1.5t44.5 -1.5q17 0 46.5 1.5t38.5 1.5h32v-9q-23 0 -36 -9.5t-13 -25.5q0 -18 7 -36l176 -486l135 407l-28 85q-20 65 -72 65v9h32q10 0 39.5 -1.5t45.5 -1.5q17 0 45 1.5t37 1.5h32v-9q-50 0 -50 -35q0 -15 8 -36
l162 -483l130 413q16 51 16 71q0 32 -19.5 51t-56.5 19v9h13q13 0 45 -1.5t46 -1.5q10 0 40 1.5t41 1.5h19v-9q-42 -1 -77.5 -39t-55.5 -105l-135 -428z" />
    <glyph glyph-name="wcircumflex" unicode="&#x175;" horiz-adv-x="768" 
d="M518 542l-6 -5q-17 21 -37 41t-47 45t-36 34q-9 -9 -36 -33.5t-47.5 -45t-36.5 -41.5l-7 5q23 36 83 155q20 39 44 39t44 -39q61 -121 82 -155zM610 0q-11 0 -28.5 0.5t-26.5 0.5q-8 0 -25.5 -0.5t-27.5 -0.5l-122 347l-88 -258l31 -89q-11 0 -28.5 0.5t-25.5 0.5
q-9 0 -26.5 -0.5t-27.5 -0.5l-156 426q-11 31 -25.5 43.5t-39.5 12.5v8h29q10 0 35 -1.5t43 -1.5t42.5 1.5t34.5 1.5h29v-8q-45 0 -45 -28q0 -6 4 -20l120 -331l88 259l-22 64q-11 31 -25.5 43.5t-39.5 12.5v8h28q10 0 35 -1.5t43 -1.5t43 1.5t35 1.5h29v-8q-45 0 -45 -27
q0 -13 4 -21l114 -331l94 270q10 30 10 51q0 58 -70 58v8h10q14 0 39.5 -1.5t40.5 -1.5q16 0 41.5 1.5t36.5 1.5h15v-8q-74 -1 -114 -115l-97 -278z" />
    <glyph glyph-name="Ycircumflex" unicode="&#x176;" horiz-adv-x="614" 
d="M456 731l-6 -5q-17 21 -37 41t-47 45t-36 34q-9 -9 -36 -33.5t-47.5 -45t-36.5 -41.5l-7 5q23 36 83 155q20 39 44 39t44 -39q61 -121 82 -155zM370 73q0 -35 12 -49.5t42 -14.5h3v-9h-30q-13 0 -39.5 1.5t-42.5 1.5t-42.5 -1.5t-38.5 -1.5h-30v9h2q30 0 42.5 14.5
t12.5 49.5v236l-196 311q-33 52 -78 52v9h39q9 0 36 -1.5t44 -1.5t45.5 1.5t37.5 1.5h41v-9q-43 0 -43 -28q0 -15 11 -34l166 -260l112 185q32 55 32 83q0 54 -66 54h-1v9h13q13 0 46 -1.5t47 -1.5q10 0 40.5 1.5t41.5 1.5h17v-9h-1q-45 -1 -83 -38.5t-78 -105.5l-114 -190
v-265z" />
    <glyph glyph-name="ycircumflex" unicode="&#x177;" horiz-adv-x="484" 
d="M383 542l-6 -5q-17 21 -37 41t-47 45t-36 34q-9 -9 -36 -33.5t-47.5 -45t-36.5 -41.5l-7 5q23 36 83 155q20 39 44 39t44 -39q61 -121 82 -155zM323 0q-10 0 -27.5 0.5t-25.5 0.5h-14l-22 -53q-42 -101 -78.5 -142t-103.5 -41q-24 0 -39 10t-15 26t10.5 25.5t27.5 9.5
q18 0 46.5 -13t40.5 -13q24 0 46.5 31.5t55.5 109.5l21 50l-31 -1l-156 426q-11 31 -25.5 43.5t-39.5 12.5v8h29q10 0 35 -1.5t43 -1.5t42.5 1.5t34.5 1.5h29v-8q-45 0 -45 -28q0 -6 4 -20l119 -331l97 271q10 24 10 50q0 58 -70 58v8h10q14 0 39.5 -1.5t40.5 -1.5
q16 0 41.5 1.5t36.5 1.5h15v-8q-74 -1 -114 -113l-100 -281z" />
    <glyph glyph-name="Ydieresis" unicode="&#x178;" horiz-adv-x="614" 
d="M287 806q0 -22 -15.5 -36.5t-37.5 -14.5t-37.5 14.5t-15.5 36.5t15.5 37t37.5 15t37.5 -15t15.5 -37zM480 806q0 -22 -15.5 -36.5t-37.5 -14.5t-37.5 14.5t-15.5 36.5t15.5 37t37.5 15q21 0 37 -15t16 -37zM370 73q0 -35 12 -49.5t42 -14.5h3v-9h-30q-13 0 -39.5 1.5
t-42.5 1.5t-42.5 -1.5t-38.5 -1.5h-30v9h2q30 0 42.5 14.5t12.5 49.5v236l-196 311q-33 52 -78 52v9h39q9 0 36 -1.5t44 -1.5t45.5 1.5t37.5 1.5h41v-9q-43 0 -43 -28q0 -15 11 -34l166 -260l112 185q32 55 32 83q0 54 -66 54h-1v9h13q13 0 46 -1.5t47 -1.5q10 0 40.5 1.5
t41.5 1.5h17v-9h-1q-45 -1 -83 -38.5t-78 -105.5l-114 -190v-265z" />
    <glyph glyph-name="Zacute" unicode="&#x179;" horiz-adv-x="592" 
d="M274 727l-7 4q22 39 45 97t36 78q14 22 33 22q16 0 27 -11t11 -26q0 -14 -9 -26q-15 -19 -61.5 -60t-74.5 -78zM577 226l-93 -258l-7 2q2 30 -37 30h-421v4l418 666h-168q-59 0 -92 -34q-39 -41 -129 -170l-7 3l86 244l7 -2q-2 -15 8 -22.5t31 -7.5h391v-4l-416 -666h196
q34 0 52.5 6.5t40.5 30.5q49 54 133 181z" />
    <glyph glyph-name="zacute" unicode="&#x17a;" horiz-adv-x="462" 
d="M204 538l-7 4q22 39 45 97t36 78q14 22 33 22q16 0 27 -11t11 -26q0 -14 -9 -26q-15 -19 -61.5 -60t-74.5 -78zM375 -24l-7 1q0 14 -9 18.5t-30 4.5h-303v4l287 477h-100q-32 0 -49 -6.5t-35 -27.5q-48 -52 -91 -120l-6 3l66 184l7 -1q0 -23 37 -23h288v-4l-289 -477h117
q36 0 55 9.5t44 38.5q29 33 80 112l6 -3z" />
    <glyph glyph-name="Zdotaccent" unicode="&#x17b;" horiz-adv-x="593" 
d="M331 750q-23 0 -39 15t-16 39t16 39t39 15t39.5 -15.5t16.5 -38.5t-16.5 -38.5t-39.5 -15.5zM577 226l-93 -258l-7 2q2 30 -37 30h-421v4l418 666h-168q-59 0 -92 -34q-39 -41 -129 -170l-7 3l86 244l7 -2q-2 -15 8 -22.5t31 -7.5h391v-4l-416 -666h196q34 0 52.5 6.5
t40.5 30.5q49 54 133 181z" />
    <glyph glyph-name="zdotaccent" unicode="&#x17c;" horiz-adv-x="462" 
d="M261 571q-23 0 -39 15t-16 39t16 39t39 15t39.5 -15.5t16.5 -38.5t-16.5 -38.5t-39.5 -15.5zM375 -24l-7 1q0 14 -9 18.5t-30 4.5h-303v4l287 477h-100q-32 0 -49 -6.5t-35 -27.5q-48 -52 -91 -120l-6 3l66 184l7 -1q0 -23 37 -23h288v-4l-289 -477h117q36 0 55 9.5
t44 38.5q29 33 80 112l6 -3z" />
    <glyph glyph-name="Zcaron" unicode="&#x17d;" horiz-adv-x="593" 
d="M331 727q-24 0 -44 39q-60 119 -83 155l7 5q16 -21 36.5 -41.5t47.5 -45t36 -33.5q9 9 36 34t47 45t37 41l6 -5q-21 -34 -82 -155q-20 -39 -44 -39zM577 226l-93 -258l-7 2q2 30 -37 30h-421v4l418 666h-168q-59 0 -92 -34q-39 -41 -129 -170l-7 3l86 244l7 -2
q-2 -15 8 -22.5t31 -7.5h391v-4l-416 -666h196q34 0 52.5 6.5t40.5 30.5q49 54 133 181z" />
    <glyph glyph-name="zcaron" unicode="&#x17e;" horiz-adv-x="462" 
d="M261 538q-24 0 -44 39q-60 119 -83 155l7 5q16 -21 36.5 -41.5t47.5 -45t36 -33.5q9 9 36 34t47 45t37 41l6 -5q-21 -34 -82 -155q-20 -39 -44 -39zM375 -24l-7 1q0 14 -9 18.5t-30 4.5h-303v4l287 477h-100q-32 0 -49 -6.5t-35 -27.5q-48 -52 -91 -120l-6 3l66 184l7 -1
q0 -23 37 -23h288v-4l-289 -477h117q36 0 55 9.5t44 38.5q29 33 80 112l6 -3z" />
    <glyph glyph-name="florin" unicode="&#x192;" horiz-adv-x="369" 
d="M350 326h-122v-269q0 -109 -67 -191q-38 -47 -91 -74t-100 -27q-22 0 -35 10.5t-13 26.5t10.5 26t29.5 10q14 0 48 -15t55 -15q61 0 61 110v408h-85v10h85v72q0 110 66 191q39 47 91.5 73.5t99.5 26.5q23 0 35.5 -10t12.5 -26t-10.5 -26.5t-28.5 -10.5q-15 0 -49.5 15
t-53.5 15q-61 0 -61 -109v-211h122v-10z" />
    <glyph glyph-name="uni01B5" unicode="&#x1b5;" horiz-adv-x="593" 
d="M577 226l-93 -258l-7 2q2 30 -37 30h-421v4l210 335h-132v11h140l200 320h-168q-33 0 -52.5 -7t-39.5 -27q-39 -41 -129 -170l-7 3l86 244l7 -2q-2 -15 8 -22.5t31 -7.5h391v-4l-204 -327h127v-11h-134l-205 -328h195q34 0 53 7t41 30q49 54 133 181z" />
    <glyph glyph-name="uni01B6" unicode="&#x1b6;" horiz-adv-x="463" 
d="M367 242h-85l-141 -233h117q36 0 55 9.5t44 38.5q41 49 80 112l6 -3l-68 -190l-7 1q0 14 -9 18.5t-30 4.5h-303v4l143 238h-81v10h87l138 229h-100q-32 0 -48.5 -6.5t-35.5 -27.5q-57 -65 -91 -120l-6 3l66 184l7 -1q0 -13 8.5 -18t29.5 -5h287v-4l-142 -234h79v-10z" />
    <glyph glyph-name="Aringacute" unicode="&#x1fa;" horiz-adv-x="659" 
d="M392 828q0 -36 -25 -61.5t-61 -25.5t-60.5 25.5t-24.5 61.5q0 25 11 46q22 42 43.5 97t34.5 76t33 21q16 0 27 -10.5t11 -25.5q0 -16 -9 -26q-14 -19 -57 -54.5t-61 -54.5q23 18 52 18q36 0 61 -25.5t25 -61.5zM381 828q0 31 -21.5 53.5t-53.5 22.5q-31 0 -52.5 -22.5
t-21.5 -53.5t21.5 -53.5t52.5 -22.5q32 0 53.5 22.5t21.5 53.5zM673 0h-32q-10 0 -39 1.5t-44 1.5q-17 0 -47 -1.5t-39 -1.5h-32v9q23 0 36 10t13 26q0 17 -9 36l-43 107h-305l-18 -45q-14 -38 -14 -65q0 -31 20.5 -50t56.5 -19v-9h-13q-13 0 -45.5 1.5t-46.5 1.5
q-10 0 -40.5 -1.5t-41.5 -1.5h-19v9q39 1 72 35t62 108l171 433l-39 96q11 0 31.5 -0.5t30.5 -0.5q11 0 29 0.5t27 0.5l245 -606q14 -35 30.5 -50.5t42.5 -15.5v-9zM282 572l-146 -373h296z" />
    <glyph glyph-name="aringacute" unicode="&#x1fb;" horiz-adv-x="516" 
d="M347 639q0 -36 -25 -61.5t-61 -25.5t-60.5 25.5t-24.5 61.5q0 25 11 46q22 42 43.5 97t34.5 76t33 21q16 0 27 -10.5t11 -25.5t-9 -26q-14 -19 -57 -54.5t-61 -54.5q23 18 52 18q36 0 61 -25.5t25 -61.5zM336 639q0 31 -21.5 53.5t-53.5 22.5q-31 0 -52.5 -22.5
t-21.5 -53.5t21.5 -53.5t52.5 -22.5q32 0 53.5 22.5t21.5 53.5zM410 -8q-66 0 -76 63q-77 -63 -157 -63q-61 0 -96.5 34.5t-35.5 93.5t42 98.5t115 69.5l129 54v84q0 34 -10 48t-36 14q-76 0 -140 -99q-13 -23 -23 -32.5t-25 -9.5t-26 10.5t-11 26.5q0 42 79 78t162 36
q73 0 102 -26t29 -83v-328q0 -36 26 -36t44 41l7 -3q-11 -29 -37 -50t-62 -21zM214 12q53 0 119 53q-2 12 -2 35v231l-93 -38q-51 -21 -68 -58.5t-17 -103.5q0 -119 61 -119z" />
    <glyph glyph-name="AEacute" unicode="&#x1fc;" horiz-adv-x="996" 
d="M562 729l-7 4q22 39 45 97t36 78q14 22 33 22q16 0 27 -11t11 -26q0 -14 -9 -26q-15 -19 -61.5 -60t-74.5 -78zM878 -32l-7 2q2 30 -38 30h-222q-15 0 -44.5 0.5t-48.5 0.5q-17 0 -43 -0.5t-39 -0.5h-32v9h3q30 0 43 14.5t13 49.5v116h-302l-33 -46q-31 -44 -31 -71
q0 -63 67 -63h2v-9h-12q-12 0 -49.5 1.5t-51.5 1.5q-9 0 -43 -1.5t-42 -1.5h-22v9h1q74 2 172 143l320 456q13 18 13 34q0 30 -43 30h-9v9h36q13 0 39 -0.5t43 -0.5q18 0 53 0.5t51 0.5h202q21 0 30.5 7.5t8.5 22.5l7 2l84 -239l-7 -3q-97 135 -127 166q-19 20 -39.5 26.5
t-52.5 6.5h-156v-319h108q55 0 75 33.5t29 103.5h9v-288h-9q-4 35 -9.5 56t-16 42.5t-30 31.5t-48.5 10h-108v-329h164q34 0 53.5 6.5t41.5 30.5q46 49 133 181l7 -3zM463 200v423l-294 -423h294z" />
    <glyph glyph-name="aeacute" unicode="&#x1fd;" horiz-adv-x="779" 
d="M343 538l-7 4q22 39 45 97t36 78q14 22 33 22q16 0 27 -11t11 -26q0 -14 -9 -26q-15 -19 -61.5 -60t-74.5 -78zM542 -8q-49 0 -93 25t-75 70q-84 -95 -184 -95q-61 0 -103 39t-42 115q0 77 62.5 126t166.5 49h59v105q0 34 -10 48t-37 14q-79 0 -138 -99
q-13 -22 -23.5 -32t-25.5 -10t-26 10.5t-11 26.5q0 42 78.5 78t161.5 36q50 0 73.5 -15.5t32.5 -50.5q55 66 141 66q81 0 136 -50.5t54 -134.5h-303q-1 -15 -1 -31q0 -109 41.5 -176.5t111.5 -67.5q106 0 145 124l8 -2q-24 -80 -75 -124t-124 -44zM546 489q-45 0 -74.5 -40
t-35.5 -126h205q-3 166 -95 166zM224 11q70 0 144 83q-35 61 -35 171v47h-51q-72 0 -100.5 -36.5t-28.5 -125.5q0 -139 71 -139z" />
    <glyph glyph-name="Oslashacute" unicode="&#x1fe;" horiz-adv-x="684" 
d="M296 728l-7 4q22 39 45 97t36 78q14 22 33 22q16 0 27 -11t11 -26q0 -14 -9 -26q-15 -19 -61.5 -60t-74.5 -78zM342 -10q-96 0 -173 57l-64 -106l-9 6l65 106q-60 47 -94 121.5t-34 166.5q0 153 89.5 251.5t219.5 98.5q96 0 172 -56l64 104l10 -6l-64 -105
q59 -47 93 -121.5t34 -165.5q0 -153 -89.5 -252t-219.5 -99zM342 681q-187 0 -187 -340q0 -155 38 -235l293 480q-45 95 -144 95zM342 0q187 0 187 341q0 157 -37 232l-294 -479q46 -94 144 -94z" />
    <glyph glyph-name="oslashacute" unicode="&#x1ff;" horiz-adv-x="526" 
d="M206 538l-7 4q22 39 45 97t36 78q14 22 33 22q16 0 27 -11t11 -26q0 -14 -9 -26q-15 -19 -61.5 -60t-74.5 -78zM263 -8q-67 0 -125 40l-51 -82l-7 5l50 83q-95 75 -95 207q0 108 67.5 180.5t160.5 72.5q67 0 124 -40l51 83l9 -5l-52 -84q44 -35 70 -89t26 -118
q0 -108 -67.5 -180.5t-160.5 -72.5zM263 489q-58 0 -86 -51.5t-28 -192.5q0 -100 14 -153l196 320q-24 77 -96 77zM263 1q58 0 86 51.5t28 192.5q0 108 -15 154l-196 -320q24 -78 97 -78z" />
    <glyph glyph-name="uni0218" unicode="&#x218;" horiz-adv-x="573" 
d="M536 196q0 -95 -65 -150.5t-149 -55.5q-43 0 -108 15.5t-73 15.5q-17 0 -25.5 -7.5t-7.5 -22.5l-7 -2l-71 244l7 3q40 -75 80 -125.5t78 -73t66.5 -30t60.5 -7.5q61 0 101 37t40 90q0 102 -154 160l-86 32q-165 62 -165 194q0 81 57 129.5t142 48.5q31 0 78.5 -9.5
t61.5 -9.5q17 0 26 7.5t8 23.5l7 2l76 -222l-7 -3q-65 113 -124 157t-126 44q-63 0 -97.5 -31t-34.5 -79q0 -49 34 -82.5t111 -61.5l89 -33q177 -67 177 -198zM311 -162q-22 0 -36 14.5t-14 35.5t15 36t38 15q24 0 41.5 -18.5t17.5 -46.5q0 -52 -28 -84t-64 -39l-2 7
q32 7 56 34.5t25 67.5q0 6 -1 11q-12 -33 -48 -33z" />
    <glyph glyph-name="uni0219" unicode="&#x219;" horiz-adv-x="456" 
d="M246 -8q-31 0 -74 10.5t-57 10.5q-11 0 -18 -6t-6 -17l-7 -1l-48 184l7 2q80 -174 204 -174q50 0 77.5 25.5t27.5 63.5q0 35 -29 60.5t-89 48.5l-55 21q-118 45 -118 147q0 59 41.5 95t106.5 36q24 0 60 -8.5t50 -8.5q12 0 19.5 6t6.5 18l7 1l47 -172l-7 -2
q-73 157 -183 157q-42 0 -65 -21t-23 -50q0 -32 25.5 -54.5t84.5 -46.5l52 -21q68 -28 100 -61.5t32 -87.5q0 -72 -49.5 -113.5t-119.5 -41.5zM241 -162q-22 0 -36 14.5t-14 35.5t15 36t38 15q24 0 41.5 -18.5t17.5 -46.5q0 -52 -28 -84t-64 -39l-2 7q32 7 56 34.5t25 67.5
q0 6 -1 11q-12 -33 -48 -33z" />
    <glyph glyph-name="uni021A" unicode="&#x21a;" horiz-adv-x="657" 
d="M440 9v-9h-30q-12 0 -38.5 1.5t-42.5 1.5t-42.5 -1.5t-39.5 -1.5h-30v9h3q30 0 42 14.5t12 49.5v597h-72q-25 0 -38 -5.5t-30 -26.5q-39 -51 -119 -199l-7 3l69 270l7 -1q0 -30 41 -30h105q13 0 45.5 -0.5t53.5 -0.5q20 0 53 0.5t45 0.5h106q41 0 41 30l7 1l69 -270
l-7 -3q-82 150 -120 199q-16 21 -29 26.5t-39 5.5h-72v-597q0 -35 12 -49.5t43 -14.5h2zM324 -162q-22 0 -36 14.5t-14 35.5t15 36t38 15q24 0 41.5 -18.5t17.5 -46.5q0 -52 -28 -84t-64 -39l-2 7q32 7 56 34.5t25 67.5q0 6 -1 11q-12 -33 -48 -33z" />
    <glyph glyph-name="uni021B" unicode="&#x21b;" horiz-adv-x="302" 
d="M175 -8q-42 0 -69 24.5t-27 82.5v381h-69v10h69v76q46 0 70 20.5t24 55.5v3h8v-155h102v-10h-102v-394q0 -58 40 -58q17 0 33.5 15t25.5 38l7 -2q-12 -36 -41 -61.5t-71 -25.5zM149 -162q-22 0 -36 14.5t-14 35.5t15 36t38 15q24 0 41.5 -18.5t17.5 -46.5q0 -52 -28 -84
t-64 -39l-2 7q32 7 56 34.5t25 67.5q0 6 -1 11q-12 -33 -48 -33z" />
    <glyph glyph-name="uni0237" unicode="&#x237;" horiz-adv-x="258" 
d="M-37 -235q-22 0 -35.5 10t-13.5 26t11 26t28 10q20 0 49 -15.5t40 -15.5q22 0 33 14t11 48v522q0 33 -11 47t-42 14h-3v8h20q38 0 80 12t51 30h7v-456q0 -102 -63 -185q-72 -95 -162 -95z" />
    <glyph glyph-name="circumflex" unicode="&#x2c6;" horiz-adv-x="356" 
d="M304 542l-6 -5q-17 21 -37 41t-47 45t-36 34q-9 -9 -36 -33.5t-47.5 -45t-36.5 -41.5l-7 5q23 36 83 155q20 39 44 39t44 -39q61 -121 82 -155z" />
    <glyph glyph-name="caron" unicode="&#x2c7;" horiz-adv-x="356" 
d="M178 538q-24 0 -44 39q-60 119 -83 155l7 5q16 -21 36.5 -41.5t47.5 -45t36 -33.5q9 9 36 34t47 45t37 41l6 -5q-21 -34 -82 -155q-20 -39 -44 -39z" />
    <glyph glyph-name="breve" unicode="&#x2d8;" horiz-adv-x="393" 
d="M197 563q-86 0 -136 133l7 3q38 -72 129 -72t128 72l7 -3q-48 -133 -135 -133z" />
    <glyph glyph-name="dotaccent" unicode="&#x2d9;" horiz-adv-x="214" 
d="M107 571q-23 0 -39 15t-16 39t16 39t39 15t39.5 -15.5t16.5 -38.5t-16.5 -38.5t-39.5 -15.5z" />
    <glyph glyph-name="ring" unicode="&#x2da;" horiz-adv-x="274" 
d="M222 639q0 -36 -24.5 -61.5t-60.5 -25.5t-61 25.5t-25 61.5t25 61.5t61 25.5t60.5 -25.5t24.5 -61.5zM211 639q0 31 -21.5 53.5t-52.5 22.5q-32 0 -53.5 -22.5t-21.5 -53.5t21.5 -53.5t53.5 -22.5q31 0 52.5 22.5t21.5 53.5z" />
    <glyph glyph-name="ogonek" unicode="&#x2db;" horiz-adv-x="314" 
d="M192 0h13q-83 -39 -83 -94q0 -27 17 -43.5t44 -16.5q41 0 73 36l6 -5q-47 -58 -120 -58q-42 0 -66 19.5t-24 48.5q0 18 14.5 36t43.5 35t42 23.5t40 18.5z" />
    <glyph glyph-name="tilde" unicode="&#x2dc;" horiz-adv-x="415" 
d="M246 581q-22 0 -57 21.5t-60 21.5q-30 0 -64 -56l-7 4q2 3 11 18.5t12.5 21.5t13 19.5t16 19.5t16.5 14t20.5 11t21.5 3q22 0 57 -22t61 -22q28 0 63 56l7 -4q-1 -1 -11 -18t-13 -22t-12.5 -19t-16 -19t-16.5 -13.5t-20.5 -11.5t-21.5 -3z" />
    <glyph glyph-name="hungarumlaut" unicode="&#x2dd;" horiz-adv-x="366" 
d="M58 548l-7 4q20 37 39 92.5t30 75.5q11 19 31 19q15 0 25.5 -9.5t10.5 -23.5q0 -13 -8 -24q-13 -18 -55 -58.5t-66 -75.5zM185 548l-6 4q19 36 38 91.5t31 76.5q11 19 31 19q15 0 25 -9.5t10 -23.5q0 -13 -8 -24q-13 -18 -55 -58.5t-66 -75.5z" />
    <glyph glyph-name="pi" unicode="&#x3c0;" horiz-adv-x="574" 
d="M541 0h-25q-13 0 -38.5 1.5t-42.5 1.5t-43 -1.5t-39 -1.5h-25v8h2q32 0 42.5 14t10.5 48v410h-192v-410q0 -34 10.5 -48t42.5 -14h2v-8h-25q-13 0 -38.5 1.5t-42.5 1.5t-43 -1.5t-39 -1.5h-25v8h2q32 0 42.5 14t10.5 48v350q0 34 -10.5 48t-42.5 14h-2v8h25q13 0 39 -0.5
t43 -0.5t45.5 0.5t42.5 0.5h118q14 0 43 -0.5t46 -0.5t42.5 0.5t38.5 0.5h25v-8h-2q-32 0 -42.5 -14t-10.5 -48v-350q0 -34 10.5 -48t42.5 -14h2v-8z" />
    <glyph glyph-name="Wgrave" unicode="&#x1e80;" horiz-adv-x="992" 
d="M558 731l-6 -4q-29 37 -75.5 78t-61.5 60q-9 12 -9 26q0 15 11 26t27 11q21 0 34 -21q12 -19 35 -77.5t45 -98.5zM781 0q-11 0 -29 0.5t-28 0.5q-11 0 -28.5 -0.5t-29.5 -0.5l-168 504l-134 -405l34 -99q-11 0 -30 0.5t-29 0.5t-27 -0.5t-29 -0.5l-220 607q-23 65 -71 65
v9h32q9 0 37.5 -1.5t44.5 -1.5q17 0 46.5 1.5t38.5 1.5h32v-9q-23 0 -36 -9.5t-13 -25.5q0 -18 7 -36l176 -486l135 407l-28 85q-20 65 -72 65v9h32q10 0 39.5 -1.5t45.5 -1.5q17 0 45 1.5t37 1.5h32v-9q-50 0 -50 -35q0 -15 8 -36l162 -483l130 413q16 51 16 71
q0 32 -19.5 51t-56.5 19v9h13q13 0 45 -1.5t46 -1.5q10 0 40 1.5t41 1.5h19v-9q-42 -1 -77.5 -39t-55.5 -105l-135 -428z" />
    <glyph glyph-name="wgrave" unicode="&#x1e81;" horiz-adv-x="768" 
d="M455 542l-6 -4q-29 37 -75.5 78t-61.5 60q-9 12 -9 26q0 15 11 26t27 11q21 0 34 -21q12 -19 35 -77.5t45 -98.5zM610 0q-11 0 -28.5 0.5t-26.5 0.5q-8 0 -25.5 -0.5t-27.5 -0.5l-122 347l-88 -258l31 -89q-11 0 -28.5 0.5t-25.5 0.5q-9 0 -26.5 -0.5t-27.5 -0.5
l-156 426q-11 31 -25.5 43.5t-39.5 12.5v8h29q10 0 35 -1.5t43 -1.5t42.5 1.5t34.5 1.5h29v-8q-45 0 -45 -28q0 -6 4 -20l120 -331l88 259l-22 64q-11 31 -25.5 43.5t-39.5 12.5v8h28q10 0 35 -1.5t43 -1.5t43 1.5t35 1.5h29v-8q-45 0 -45 -27q0 -13 4 -21l114 -331l94 270
q10 30 10 51q0 58 -70 58v8h10q14 0 39.5 -1.5t40.5 -1.5q16 0 41.5 1.5t36.5 1.5h15v-8q-74 -1 -114 -115l-97 -278z" />
    <glyph glyph-name="Wacute" unicode="&#x1e82;" horiz-adv-x="992" 
d="M439 727l-7 4q22 39 45 97t36 78q14 22 33 22q16 0 27 -11t11 -26q0 -14 -9 -26q-15 -19 -61.5 -60t-74.5 -78zM781 0q-11 0 -29 0.5t-28 0.5q-11 0 -28.5 -0.5t-29.5 -0.5l-168 504l-134 -405l34 -99q-11 0 -30 0.5t-29 0.5t-27 -0.5t-29 -0.5l-220 607q-23 65 -71 65v9
h32q9 0 37.5 -1.5t44.5 -1.5q17 0 46.5 1.5t38.5 1.5h32v-9q-23 0 -36 -9.5t-13 -25.5q0 -18 7 -36l176 -486l135 407l-28 85q-20 65 -72 65v9h32q10 0 39.5 -1.5t45.5 -1.5q17 0 45 1.5t37 1.5h32v-9q-50 0 -50 -35q0 -15 8 -36l162 -483l130 413q16 51 16 71
q0 32 -19.5 51t-56.5 19v9h13q13 0 45 -1.5t46 -1.5q10 0 40 1.5t41 1.5h19v-9q-42 -1 -77.5 -39t-55.5 -105l-135 -428z" />
    <glyph glyph-name="wacute" unicode="&#x1e83;" horiz-adv-x="768" 
d="M336 538l-7 4q22 39 45 97t36 78q14 22 33 22q16 0 27 -11t11 -26q0 -14 -9 -26q-15 -19 -61.5 -60t-74.5 -78zM610 0q-11 0 -28.5 0.5t-26.5 0.5q-8 0 -25.5 -0.5t-27.5 -0.5l-122 347l-88 -258l31 -89q-11 0 -28.5 0.5t-25.5 0.5q-9 0 -26.5 -0.5t-27.5 -0.5l-156 426
q-11 31 -25.5 43.5t-39.5 12.5v8h29q10 0 35 -1.5t43 -1.5t42.5 1.5t34.5 1.5h29v-8q-45 0 -45 -28q0 -6 4 -20l120 -331l88 259l-22 64q-11 31 -25.5 43.5t-39.5 12.5v8h28q10 0 35 -1.5t43 -1.5t43 1.5t35 1.5h29v-8q-45 0 -45 -27q0 -13 4 -21l114 -331l94 270
q10 30 10 51q0 58 -70 58v8h10q14 0 39.5 -1.5t40.5 -1.5q16 0 41.5 1.5t36.5 1.5h15v-8q-74 -1 -114 -115l-97 -278z" />
    <glyph glyph-name="Wdieresis" unicode="&#x1e84;" horiz-adv-x="992" 
d="M452 806q0 -22 -15.5 -36.5t-37.5 -14.5t-37.5 14.5t-15.5 36.5t15.5 37t37.5 15t37.5 -15t15.5 -37zM645 806q0 -22 -15.5 -36.5t-37.5 -14.5t-37.5 14.5t-15.5 36.5t15.5 37t37.5 15q21 0 37 -15t16 -37zM781 0q-11 0 -29 0.5t-28 0.5q-11 0 -28.5 -0.5t-29.5 -0.5
l-168 504l-134 -405l34 -99q-11 0 -30 0.5t-29 0.5t-27 -0.5t-29 -0.5l-220 607q-23 65 -71 65v9h32q9 0 37.5 -1.5t44.5 -1.5q17 0 46.5 1.5t38.5 1.5h32v-9q-23 0 -36 -9.5t-13 -25.5q0 -18 7 -36l176 -486l135 407l-28 85q-20 65 -72 65v9h32q10 0 39.5 -1.5t45.5 -1.5
q17 0 45 1.5t37 1.5h32v-9q-50 0 -50 -35q0 -15 8 -36l162 -483l130 413q16 51 16 71q0 32 -19.5 51t-56.5 19v9h13q13 0 45 -1.5t46 -1.5q10 0 40 1.5t41 1.5h19v-9q-42 -1 -77.5 -39t-55.5 -105l-135 -428z" />
    <glyph glyph-name="wdieresis" unicode="&#x1e85;" horiz-adv-x="768" 
d="M349 627q0 -22 -15.5 -36.5t-37.5 -14.5t-37.5 14.5t-15.5 36.5t15.5 37t37.5 15t37.5 -15t15.5 -37zM542 627q0 -22 -15.5 -36.5t-37.5 -14.5t-37.5 14.5t-15.5 36.5t15.5 37t37.5 15q21 0 37 -15t16 -37zM610 0q-11 0 -28.5 0.5t-26.5 0.5q-8 0 -25.5 -0.5t-27.5 -0.5
l-122 347l-88 -258l31 -89q-11 0 -28.5 0.5t-25.5 0.5q-9 0 -26.5 -0.5t-27.5 -0.5l-156 426q-11 31 -25.5 43.5t-39.5 12.5v8h29q10 0 35 -1.5t43 -1.5t42.5 1.5t34.5 1.5h29v-8q-45 0 -45 -28q0 -6 4 -20l120 -331l88 259l-22 64q-11 31 -25.5 43.5t-39.5 12.5v8h28
q10 0 35 -1.5t43 -1.5t43 1.5t35 1.5h29v-8q-45 0 -45 -27q0 -13 4 -21l114 -331l94 270q10 30 10 51q0 58 -70 58v8h10q14 0 39.5 -1.5t40.5 -1.5q16 0 41.5 1.5t36.5 1.5h15v-8q-74 -1 -114 -115l-97 -278z" />
    <glyph glyph-name="uni1E8A" unicode="&#x1e8a;" horiz-adv-x="652" 
d="M350 750q-23 0 -39 15t-16 39t16 39t39 15t39.5 -15.5t16.5 -38.5t-16.5 -38.5t-39.5 -15.5zM651 0h-33q-9 0 -41.5 1.5t-49.5 1.5q-16 0 -51.5 -1.5t-44.5 -1.5h-35v9q49 0 49 31q0 19 -15 42l-137 219l-112 -156q-37 -50 -37 -84q0 -52 61 -52h2v-9h-14q-13 0 -45 1.5
t-45 1.5q-10 0 -42 -1.5t-44 -1.5h-17v9h1q43 1 83 38t89 105l113 159l-188 301q-37 60 -86 60v9h35q9 0 42 -1.5t49 -1.5q17 0 51.5 1.5t44.5 1.5h34v-9q-49 0 -49 -31q0 -17 15 -42l128 -206l97 144q37 55 37 83q0 52 -61 52h-1v9h13q13 0 45 -1.5t46 -1.5q10 0 42 1.5
t43 1.5h17v-9h-1q-78 -2 -171 -142l-99 -147l196 -314q37 -60 86 -60v-9z" />
    <glyph glyph-name="uni1E8B" unicode="&#x1e8b;" horiz-adv-x="497" 
d="M248 571q-23 0 -39 15t-16 39t16 39t39 15t39.5 -15.5t16.5 -38.5t-16.5 -38.5t-39.5 -15.5zM496 0h-31q-10 0 -35 1.5t-43 1.5t-42.5 -1.5t-34.5 -1.5h-29v8q41 0 41 23q0 11 -7 22l-99 154l-66 -97q-25 -37 -25 -61q0 -20 12 -30.5t44 -10.5h1v-8h-13q-11 0 -36 1.5
t-40 1.5q-12 0 -38 -1.5t-34 -1.5h-20v8h1q68 0 140 106l68 101l-130 206q-38 61 -75 61v8h31q10 0 35 -1.5t43 -1.5t42.5 1.5t34.5 1.5h29v-8q-41 0 -41 -23q0 -11 7 -22l92 -145l58 88q25 37 25 61q0 21 -12 31t-44 10h-1v8h13q11 0 36 -1.5t40 -1.5q13 0 39 1.5t34 1.5
h19v-8h-1q-70 0 -139 -106l-60 -92l136 -215q38 -61 75 -61v-8z" />
    <glyph glyph-name="Ygrave" unicode="&#x1ef2;" horiz-adv-x="614" 
d="M394 731l-6 -4q-29 37 -75.5 78t-61.5 60q-9 12 -9 26q0 15 11 26t27 11q21 0 34 -21q12 -19 35 -77.5t45 -98.5zM370 73q0 -35 12 -49.5t42 -14.5h3v-9h-30q-13 0 -39.5 1.5t-42.5 1.5t-42.5 -1.5t-38.5 -1.5h-30v9h2q30 0 42.5 14.5t12.5 49.5v236l-196 311
q-33 52 -78 52v9h39q9 0 36 -1.5t44 -1.5t45.5 1.5t37.5 1.5h41v-9q-43 0 -43 -28q0 -15 11 -34l166 -260l112 185q32 55 32 83q0 54 -66 54h-1v9h13q13 0 46 -1.5t47 -1.5q10 0 40.5 1.5t41.5 1.5h17v-9h-1q-45 -1 -83 -38.5t-78 -105.5l-114 -190v-265z" />
    <glyph glyph-name="ygrave" unicode="&#x1ef3;" horiz-adv-x="484" 
d="M320 542l-6 -4q-29 37 -75.5 78t-61.5 60q-9 12 -9 26q0 15 11 26t27 11q21 0 34 -21q12 -19 35 -77.5t45 -98.5zM323 0q-10 0 -27.5 0.5t-25.5 0.5h-14l-22 -53q-42 -101 -78.5 -142t-103.5 -41q-24 0 -39 10t-15 26t10.5 25.5t27.5 9.5q18 0 46.5 -13t40.5 -13
q24 0 46.5 31.5t55.5 109.5l21 50l-31 -1l-156 426q-11 31 -25.5 43.5t-39.5 12.5v8h29q10 0 35 -1.5t43 -1.5t42.5 1.5t34.5 1.5h29v-8q-45 0 -45 -28q0 -6 4 -20l119 -331l97 271q10 24 10 50q0 58 -70 58v8h10q14 0 39.5 -1.5t40.5 -1.5q16 0 41.5 1.5t36.5 1.5h15v-8
q-74 -1 -114 -113l-100 -281z" />
    <glyph glyph-name="endash" unicode="&#x2013;" horiz-adv-x="512" 
d="M467 276h-422v11h422v-11z" />
    <glyph glyph-name="emdash" unicode="&#x2014;" horiz-adv-x="988" 
d="M943 276h-898v11h898v-11z" />
    <glyph glyph-name="quoteleft" unicode="&#x2018;" horiz-adv-x="218" 
d="M116 586q25 0 41 -16.5t16 -41.5q0 -24 -17 -42t-44 -18t-47 22t-20 55q0 60 32 98t73 47l2 -8q-36 -8 -65 -42.5t-29 -79.5q0 -5 1 -10q16 36 57 36z" />
    <glyph glyph-name="quoteright" unicode="&#x2019;" horiz-adv-x="218" 
d="M102 572q-25 0 -41 16t-16 41t17 42.5t45 17.5q27 0 46.5 -22t19.5 -55q0 -59 -32 -97t-73 -47l-2 7q37 8 65.5 42.5t28.5 79.5q0 5 -1 11q-16 -36 -57 -36z" />
    <glyph glyph-name="quotesinglbase" unicode="&#x201a;" horiz-adv-x="218" 
d="M102 -8q-25 0 -41 16t-16 41t17 42.5t45 17.5q27 0 46.5 -22t19.5 -55q0 -59 -32 -97t-73 -47l-2 7q37 8 65.5 42.5t28.5 79.5q0 5 -1 11q-16 -36 -57 -36z" />
    <glyph glyph-name="quotedblleft" unicode="&#x201c;" horiz-adv-x="381" 
d="M116 586q25 0 41 -16.5t16 -41.5q0 -24 -17 -42t-44 -18t-47 22t-20 55q0 60 32 98t73 47l2 -8q-36 -8 -65 -42.5t-29 -79.5q0 -5 1 -10q16 36 57 36zM278 586q25 0 41 -16.5t16 -41.5q0 -24 -17 -42t-44 -18t-47 22t-20 55q0 60 32 98t73 47l2 -8q-36 -8 -65 -42.5
t-29 -79.5q0 -5 1 -10q16 36 57 36z" />
    <glyph glyph-name="quotedblright" unicode="&#x201d;" horiz-adv-x="381" 
d="M102 572q-25 0 -41 16t-16 41t17 42.5t45 17.5q27 0 46.5 -22t19.5 -55q0 -59 -32 -97t-73 -47l-2 7q37 8 65.5 42.5t28.5 79.5q0 5 -1 11q-16 -36 -57 -36zM264 572q-25 0 -41 16t-16 41t17 42.5t45 17.5q27 0 46.5 -22t19.5 -55q0 -59 -32 -97t-73 -47l-2 7
q37 8 65.5 42.5t28.5 79.5q0 5 -1 11q-16 -36 -57 -36z" />
    <glyph glyph-name="quotedblbase" unicode="&#x201e;" horiz-adv-x="381" 
d="M102 -8q-25 0 -41 16t-16 41t17 42.5t45 17.5q27 0 46.5 -22t19.5 -55q0 -59 -32 -97t-73 -47l-2 7q37 8 65.5 42.5t28.5 79.5q0 5 -1 11q-16 -36 -57 -36zM264 -8q-25 0 -41 16t-16 41t17 42.5t45 17.5q27 0 46.5 -22t19.5 -55q0 -59 -32 -97t-73 -47l-2 7
q37 8 65.5 42.5t28.5 79.5q0 5 -1 11q-16 -36 -57 -36z" />
    <glyph glyph-name="dagger" unicode="&#x2020;" horiz-adv-x="441" 
d="M225 -10h-9q0 243 -31 398q8 14 18.5 50t12.5 54q-18 0 -61 -17.5t-62 -17.5q-22 0 -35.5 10.5t-13.5 29.5q0 21 13.5 32t35.5 11q19 0 62 -20t61 -20q-3 46 -22 91.5t-19 63.5q0 22 13 36t32 14q20 0 33 -14t13 -36q0 -18 -19 -63.5t-22 -91.5q18 0 61 20t62 20
q48 0 48 -43q0 -19 -13 -29.5t-35 -10.5q-19 0 -62 17.5t-61 17.5q2 -18 12.5 -54t18.5 -50q-31 -155 -31 -398z" />
    <glyph glyph-name="daggerdbl" unicode="&#x2021;" horiz-adv-x="441" 
d="M225 361h-9q0 36 -26 84q1 3 8.5 20.5t12.5 32t6 24.5q-18 0 -61.5 -17.5t-62.5 -17.5q-22 0 -35.5 10.5t-13.5 29.5q0 21 13.5 32t35.5 11q19 0 62.5 -20t61.5 -20q-3 43 -22.5 76.5t-19.5 48.5q0 22 13 36t32 14q20 0 33 -14t13 -36q0 -15 -19.5 -48.5t-22.5 -76.5
q18 0 61.5 20t62.5 20q48 0 48 -43q0 -19 -13 -29.5t-35 -10.5q-19 0 -62.5 17.5t-61.5 17.5q1 -10 6 -25.5t11.5 -31t8.5 -20.5q0 -1 -6 -12t-9 -18.5t-6.5 -22.5t-3.5 -31zM216 336h9q0 -16 3.5 -31t6.5 -22.5t9 -18.5t6 -12q-1 -5 -7.5 -21t-11.5 -31t-6 -25
q18 0 61 17.5t62 17.5q22 0 35 -10.5t13 -29.5q0 -43 -48 -43q-19 0 -62 20t-61 20q3 -43 22 -76.5t19 -48.5q0 -22 -13 -36t-33 -14q-19 0 -32 14t-13 36q0 15 19 48.5t22 76.5q-18 0 -61 -20t-62 -20q-22 0 -35.5 11t-13.5 32q0 19 13.5 29.5t35.5 10.5q19 0 62 -17.5
t61 -17.5q-1 10 -5.5 24.5t-12.5 33t-8 19.5q26 48 26 84z" />
    <glyph glyph-name="bullet" unicode="&#x2022;" horiz-adv-x="336" 
d="M168 256q-40 0 -67.5 27t-27.5 66q0 40 27.5 67.5t67.5 27.5t67.5 -27t27.5 -68q0 -39 -27.5 -66t-67.5 -27z" />
    <glyph glyph-name="ellipsis" unicode="&#x2026;" horiz-adv-x="700" 
d="M117 -8q-27 0 -46.5 19t-19.5 46q0 26 19.5 45t46.5 19q26 0 45.5 -19t19.5 -45q0 -27 -19.5 -46t-45.5 -19zM350 -8q-27 0 -46 19t-19 46q0 26 19 45t46 19t46 -19t19 -45q0 -27 -19 -46t-46 -19zM583 -8q-27 0 -46 19t-19 46q0 26 19 45t46 19t46 -19t19 -45
q0 -27 -19 -46t-46 -19z" />
    <glyph glyph-name="perthousand" unicode="&#x2030;" horiz-adv-x="1051" 
d="M199 346q-68 0 -109 47.5t-41 123.5q0 75 41 123t109 48q50 0 86 -33q49 -46 103 -46q34 0 80.5 20.5t80.5 58.5l9 -6l-389 -691l-9 5l372 662q-28 -25 -67.5 -42.5t-76.5 -17.5q-42 0 -80 25q26 -44 26 -106q0 -75 -36 -123t-99 -48zM203 356q54 0 87 44.5t33 116.5
q0 71 -33 116t-87 45q-42 0 -55 -37t-13 -124q0 -88 13 -124.5t55 -36.5zM516 -8q-68 0 -109 47.5t-41 123.5q0 75 41 123t109 48q63 0 98.5 -48t35.5 -123t-35.5 -123t-98.5 -48zM875 -8q-68 0 -109 47.5t-41 123.5q0 75 41 123t109 48q63 0 98.5 -48t35.5 -123t-35.5 -123
t-98.5 -48zM519 2q54 0 87 44.5t33 116.5q0 71 -33 116t-87 45q-42 0 -55 -37.5t-13 -123.5q0 -87 13 -124t55 -37zM879 2q54 0 86.5 44.5t32.5 116.5q0 71 -32.5 116t-86.5 45q-42 0 -55.5 -37.5t-13.5 -123.5q0 -87 13.5 -124t55.5 -37z" />
    <glyph glyph-name="guilsinglleft" unicode="&#x2039;" horiz-adv-x="348" 
d="M282 61q-25 26 -83.5 73.5t-102 80t-52.5 38.5q9 6 52.5 38.5t102 80t83.5 73.5l5 -6q-47 -54 -126 -186q79 -132 126 -186z" />
    <glyph glyph-name="guilsinglright" unicode="&#x203a;" horiz-adv-x="348" 
d="M66 61l-6 6q18 21 40 52t36.5 53t32 50.5t18.5 30.5q-1 2 -18.5 30.5t-32 50.5t-36.5 53t-40 52l6 6q25 -26 83.5 -73.5t102 -80t51.5 -38.5q-8 -6 -51.5 -38.5t-102 -80t-83.5 -73.5z" />
    <glyph glyph-name="fraction" unicode="&#x2044;" horiz-adv-x="62" 
d="M287 691l-503 -710l-9 6l503 710z" />
    <glyph glyph-name="uni2070" unicode="&#x2070;" 
d="M277 539q0 -68 -37.5 -109t-91.5 -41t-92 41t-38 109t38 109t92 41t91.5 -41t37.5 -109zM94 539q0 -73 12 -107.5t42 -34.5t41.5 34.5t11.5 107.5t-11.5 107.5t-41.5 34.5t-42 -34.5t-12 -107.5z" />
    <glyph glyph-name="uni2074" unicode="&#x2074;" 
d="M242 397h-20q-7 0 -23 1t-30 1t-30 -1t-23 -1h-36v8h17q21 0 29 10.5t8 37.5v22h-124v6l130 201q5 0 15 -0.5t16 -0.5q5 0 16 0.5t17 0.5v-198h3q17 0 30 17t35 57l5 -1l-18 -82h-55v-22q0 -27 7 -37.5t28 -10.5h3v-8zM134 484v171l-110 -171h110z" />
    <glyph glyph-name="uni2075" unicode="&#x2075;" 
d="M255 489q0 -45 -35 -72.5t-79 -27.5q-49 0 -80.5 20.5t-31.5 47.5q0 12 8 20.5t19 8.5q25 0 32 -30q7 -35 18.5 -47t31.5 -12q23 0 32 20.5t9 71.5q0 48 -8 65t-33 17q-19 0 -41 -10.5t-34 -29.5l-7 2q22 148 23 148h110q34 0 46 27l6 -1l-18 -83h-144l-11 -75
q27 31 76 31t80 -24t31 -67z" />
    <glyph glyph-name="uni2076" unicode="&#x2076;" 
d="M27 522q0 71 59 116t144 54l1 -8q-109 -12 -126 -121q23 25 61 25q42 0 71 -25t29 -68q0 -44 -36 -75t-82 -31q-45 0 -83 33.5t-38 99.5zM102 523q0 -74 11.5 -100t35.5 -26q42 0 42 95q0 48 -9 67t-29 19q-26 0 -49 -26q-2 -16 -2 -29z" />
    <glyph glyph-name="uni2077" unicode="&#x2077;" 
d="M125 389q-16 0 -27.5 10.5t-11.5 28.5q0 17 6 35t13 31.5t22.5 34t24.5 31t29.5 33.5t27.5 31h-115q-22 0 -33 -9t-20 -30l-7 2l26 121l7 -1q-1 -15 5 -20.5t21 -5.5h167v-4q-11 -15 -30 -38.5t-26 -33.5t-17.5 -29t-14.5 -37t-7 -46t-3 -65q0 -18 -10.5 -28.5
t-26.5 -10.5z" />
    <glyph glyph-name="uni2078" unicode="&#x2078;" 
d="M147 389q-48 0 -80.5 20.5t-32.5 52.5q0 52 70 71q-55 25 -55 77q0 37 30 58t71 21q39 0 66 -17t27 -44q0 -40 -55 -57q75 -31 75 -89q0 -42 -34 -67.5t-82 -25.5zM199 628q0 25 -13.5 38.5t-36.5 13.5t-36 -11t-13 -28q0 -30 46 -51l33 -15q20 20 20 53zM148 398
q27 0 42 15t15 39q0 39 -53 61l-38 16q-12 -7 -19.5 -26.5t-7.5 -38.5q0 -66 61 -66z" />
    <glyph glyph-name="uni2079" unicode="&#x2079;" 
d="M266 556q0 -71 -59 -116t-145 -54l-1 9q109 12 127 120q-25 -25 -62 -25q-42 0 -70.5 25t-28.5 68q0 45 35.5 75.5t81.5 30.5t84 -33.5t38 -99.5zM190 555q0 74 -11.5 100t-35.5 26q-42 0 -42 -94q0 -49 9 -67.5t29 -18.5q27 0 50 26q1 8 1 28z" />
    <glyph glyph-name="parenleft.sups" unicode="&#x207d;" horiz-adv-x="185" 
d="M95 539q0 -54 13.5 -105t42.5 -76l-5 -6q-111 87 -111 187t111 187l5 -6q-29 -25 -42.5 -76t-13.5 -105z" />
    <glyph glyph-name="parenright.sups" unicode="&#x207e;" horiz-adv-x="185" 
d="M91 539q0 54 -13.5 105t-42.5 76l5 6q111 -87 111 -187t-111 -187l-5 6q29 25 42.5 76t13.5 105z" />
    <glyph glyph-name="uni2080" unicode="&#x2080;" 
d="M277 142q0 -68 -37.5 -109t-91.5 -41t-92 41t-38 109t38 109t92 41t91.5 -41t37.5 -109zM94 142q0 -73 12 -107.5t42 -34.5t41.5 34.5t11.5 107.5t-11.5 107.5t-41.5 34.5t-42 -34.5t-12 -107.5z" />
    <glyph glyph-name="uni2081" unicode="&#x2081;" 
d="M231 0h-18q-11 0 -28 1t-31 1t-31 -1t-28 -1h-31v8h17q22 0 30 10.5t8 37.5v141q0 25 -16 25q-6 0 -32 -12l-3 7l6 3q34 17 66.5 41.5t42.5 40.5h6v-246q0 -27 7 -37.5t29 -10.5h6v-8z" />
    <glyph glyph-name="uni2082" unicode="&#x2082;" 
d="M248 221q0 -22 -15.5 -45t-30 -36t-48 -38t-43.5 -33l-15 -12h155l-20 -92l-6 1q0 11 -1.5 17.5t-9 11.5t-22.5 5h-158v5l57 59q82 86 82 170q0 50 -29 50q-27 0 -40 -53q-8 -31 -31 -31q-28 0 -28 27q0 24 29.5 44.5t74.5 20.5t72 -18t27 -53z" />
    <glyph glyph-name="uni2083" unicode="&#x2083;" 
d="M262 83q0 -39 -34 -65t-81 -26q-52 0 -83.5 22t-31.5 53q0 11 8 19.5t19 8.5q27 0 32 -31q7 -34 19 -49t34 -15t32 18.5t10 63.5q0 41 -6 56.5t-20 15.5q-6 0 -18 -6l-34 -16l-3 7l38 19q15 8 21 23.5t6 49.5q0 53 -29 53q-27 0 -40 -54q-8 -30 -32 -30q-11 0 -19 7
t-8 20q0 24 29.5 44.5t74.5 20.5q43 0 69.5 -15.5t26.5 -43.5q0 -21 -20.5 -40t-58.5 -32q41 0 70 -21t29 -57z" />
    <glyph glyph-name="uni2084" unicode="&#x2084;" 
d="M242 0h-20q-7 0 -23 1t-30 1t-30 -1t-23 -1h-36v8h17q21 0 29 10.5t8 37.5v22h-124v6l130 201q5 0 15 -0.5t16 -0.5q5 0 16 0.5t17 0.5v-198h3q17 0 30 17t35 57l5 -1l-18 -82h-55v-22q0 -27 7 -37.5t28 -10.5h3v-8zM134 87v171l-110 -171h110z" />
    <glyph glyph-name="uni2085" unicode="&#x2085;" 
d="M255 92q0 -45 -35 -72.5t-79 -27.5q-49 0 -80.5 20.5t-31.5 47.5q0 12 8 20.5t19 8.5q25 0 32 -30q7 -35 18.5 -47t31.5 -12q23 0 32 20.5t9 71.5q0 48 -8 65t-33 17q-19 0 -41 -10.5t-34 -29.5l-7 2q22 148 23 148h110q35 0 47 27l5 -1l-18 -83h-144l-11 -75
q27 31 76 31t80 -24t31 -67z" />
    <glyph glyph-name="uni2086" unicode="&#x2086;" 
d="M27 125q0 71 59 116t144 54l1 -8q-109 -12 -126 -121q23 25 61 25q42 0 71 -25t29 -68q0 -44 -36 -75t-82 -31q-45 0 -83 33.5t-38 99.5zM102 126q0 -74 11.5 -100t35.5 -26q42 0 42 95q0 48 -9 67t-29 19q-26 0 -49 -26q-2 -16 -2 -29z" />
    <glyph glyph-name="uni2087" unicode="&#x2087;" 
d="M125 -8q-16 0 -27.5 10.5t-11.5 28.5q0 17 6 35t13 31.5t22.5 34t24.5 31t29.5 33.5t27.5 31h-115q-22 0 -33 -9t-20 -30l-7 2l26 121l7 -1q-1 -15 5 -20.5t21 -5.5h167v-4q-11 -15 -30 -38.5t-26 -33.5t-17.5 -29t-14.5 -37t-7 -46t-3 -65q0 -18 -10.5 -28.5
t-26.5 -10.5z" />
    <glyph glyph-name="uni2088" unicode="&#x2088;" 
d="M147 -8q-48 0 -80.5 20.5t-32.5 52.5q0 52 70 71q-55 25 -55 77q0 37 30 58t71 21q39 0 66 -17t27 -44q0 -40 -55 -57q75 -31 75 -89q0 -42 -34 -67.5t-82 -25.5zM199 231q0 25 -13.5 38.5t-36.5 13.5t-36 -11t-13 -28q0 -30 46 -51l33 -15q20 20 20 53zM148 1
q27 0 42 15t15 39q0 39 -53 61l-38 16q-12 -7 -19.5 -26.5t-7.5 -38.5q0 -66 61 -66z" />
    <glyph glyph-name="uni2089" unicode="&#x2089;" 
d="M266 159q0 -71 -59 -116t-145 -54l-1 9q109 12 127 120q-25 -25 -62 -25q-42 0 -70.5 25t-28.5 68q0 45 35.5 75.5t81.5 30.5t84 -33.5t38 -99.5zM190 158q0 74 -11.5 100t-35.5 26q-42 0 -42 -94q0 -49 9 -67.5t29 -18.5q27 0 50 26q1 8 1 28z" />
    <glyph glyph-name="Euro" unicode="&#x20ac;" horiz-adv-x="646" 
d="M111 340q0 15 2 53h-94v11h95q16 129 92 208t184 79q75 0 140 -40t65 -93q0 -19 -11.5 -30.5t-28.5 -11.5q-30 0 -44 33q-3 9 -9.5 27.5t-9.5 27.5q-16 42 -40 59.5t-62 17.5q-45 0 -75.5 -20t-46.5 -60t-22.5 -86t-8.5 -111h231v-11h-231v-106h231v-11h-231
q2 -65 8.5 -110.5t22.5 -85.5t46.5 -60t75.5 -20q40 0 65 18t40 62l17 51q14 33 44 33q17 0 28 -11.5t11 -30.5q0 -53 -65 -92.5t-140 -39.5q-109 0 -184.5 79t-91.5 207h-95v11h94q-2 34 -2 53z" />
    <glyph glyph-name="trademark" unicode="&#x2122;" horiz-adv-x="798" 
d="M260 394h-13q-5 0 -24 1t-28 1q-7 0 -26 -1t-25 -1h-12v7h4q18 0 24 7.5t6 23.5v241h-24q-18 0 -33 -15q-12 -13 -53 -82l-5 3l33 117l5 -1q2 -14 20 -14h43q4 0 19 -0.5t24 -0.5t24.5 0.5t20.5 0.5h42q20 0 20 14l5 1l34 -117l-6 -3q-41 69 -53 82q-14 15 -32 15h-25
v-241q0 -16 6.5 -23.5t24.5 -7.5h4v-7zM734 394h-18q-7 0 -23 1t-23 1q-8 0 -24 -1t-23 -1h-17v7h3q18 0 24.5 7.5t6.5 23.5v223l-87 -214l20 -47q-6 0 -16.5 0.5t-14.5 0.5l-32 -1l-105 251v-196q0 -48 47 -48h1v-7h-8q-5 0 -21 1t-24 1t-24 -1t-21 -1h-6v7h2q44 0 44 48
v186q0 38 -37 39h-3v7q14 0 33.5 -0.5t23.5 -0.5q7 0 21 0.5t19 0.5l95 -229l93 229l32 -1q7 0 22 0.5t22 0.5h18v-7h-4q-31 0 -31 -31v-211q0 -16 6.5 -23.5t24.5 -7.5h4v-7z" />
    <glyph glyph-name="uni2126" unicode="&#x2126;" horiz-adv-x="745" 
d="M686 391q0 -101 -74 -186t-178 -113v-81h48q36 0 55 8t43 35q33 37 126 170l7 -4l-84 -251l-6 2q0 29 -39 29h-162v99q69 33 103.5 115.5t34.5 176.5q0 290 -187 290q-53 0 -91 -23.5t-58.5 -65.5t-29.5 -91t-9 -110q0 -94 34.5 -176.5t103.5 -115.5v-99h-162
q-39 0 -39 -29l-6 -2l-84 251l7 4q93 -133 126 -170q24 -27 43.5 -35t55.5 -8h47v81q-103 28 -177.5 113.5t-74.5 185.5q0 130 90.5 215t223.5 85t223 -84.5t90 -215.5z" />
    <glyph glyph-name="uni2153" unicode="&#x2153;" horiz-adv-x="393" 
d="M276 397h-18q-10 0 -28 1t-31 1t-31 -1t-28 -1h-31v8h17q22 0 30 10.5t8 37.5v141q0 25 -16 25q-6 0 -32 -12l-3 7l6 3q33 16 66 41t43 41h6v-246q0 -27 7 -37.5t29 -10.5h6v-8zM45 346h302v-10h-302v10zM314 83q0 -39 -34 -65t-81 -26q-52 0 -83.5 22t-31.5 53
q0 11 8 19.5t19 8.5q27 0 32 -31q7 -34 19 -49t34 -15t32 18.5t10 63.5q0 41 -6 56.5t-20 15.5q-6 0 -18 -6l-34 -16l-3 7l38 19q15 8 21 23.5t6 49.5q0 53 -29 53q-27 0 -40 -54q-8 -30 -32 -30q-11 0 -19 7t-8 20q0 24 29.5 44.5t74.5 20.5q43 0 69.5 -15.5t26.5 -43.5
q0 -21 -20.5 -40t-58.5 -32q41 0 70 -21t29 -57z" />
    <glyph glyph-name="uni2154" unicode="&#x2154;" horiz-adv-x="393" 
d="M302 618q0 -22 -15.5 -45t-30 -36t-48 -38t-43.5 -33l-15 -12h155l-20 -92l-6 1q0 11 -1.5 17.5t-9 11.5t-22.5 5h-158v5l57 59q82 86 82 170q0 50 -29 50q-27 0 -40 -53q-8 -31 -31 -31q-28 0 -28 27q0 24 29.5 44.5t74.5 20.5t72 -18t27 -53zM45 346h302v-10h-302v10z
M314 83q0 -39 -34 -65t-81 -26q-52 0 -83.5 22t-31.5 53q0 11 8 19.5t19 8.5q27 0 32 -31q7 -34 19 -49t34 -15t32 18.5t10 63.5q0 41 -6 56.5t-20 15.5q-6 0 -18 -6l-34 -16l-3 7l38 19q15 8 21 23.5t6 49.5q0 53 -29 53q-27 0 -40 -54q-8 -30 -32 -30q-11 0 -19 7t-8 20
q0 24 29.5 44.5t74.5 20.5q43 0 69.5 -15.5t26.5 -43.5q0 -21 -20.5 -40t-58.5 -32q41 0 70 -21t29 -57z" />
    <glyph glyph-name="uni2155" unicode="&#x2155;" horiz-adv-x="393" 
d="M276 397h-18q-10 0 -28 1t-31 1t-31 -1t-28 -1h-31v8h17q22 0 30 10.5t8 37.5v141q0 25 -16 25q-6 0 -32 -12l-3 7l6 3q33 16 66 41t43 41h6v-246q0 -27 7 -37.5t29 -10.5h6v-8zM45 346h302v-10h-302v10zM297 92q0 -45 -35 -72.5t-79 -27.5q-49 0 -80.5 20.5t-31.5 47.5
q0 12 8 20.5t19 8.5q25 0 32 -30q7 -35 18.5 -47t31.5 -12q23 0 32 20.5t9 71.5q0 48 -8 65t-33 17q-19 0 -41 -10.5t-34 -29.5l-7 2q22 148 23 148h110q35 0 47 27l5 -1l-18 -83h-144l-11 -75q27 31 76 31t80 -24t31 -67z" />
    <glyph glyph-name="uni2156" unicode="&#x2156;" horiz-adv-x="393" 
d="M302 618q0 -22 -15.5 -45t-30 -36t-48 -38t-43.5 -33l-15 -12h155l-20 -92l-6 1q0 11 -1.5 17.5t-9 11.5t-22.5 5h-158v5l57 59q82 86 82 170q0 50 -29 50q-27 0 -40 -53q-8 -31 -31 -31q-28 0 -28 27q0 24 29.5 44.5t74.5 20.5t72 -18t27 -53zM45 346h302v-10h-302v10z
M297 92q0 -45 -35 -72.5t-79 -27.5q-49 0 -80.5 20.5t-31.5 47.5q0 12 8 20.5t19 8.5q25 0 32 -30q7 -35 18.5 -47t31.5 -12q23 0 32 20.5t9 71.5q0 48 -8 65t-33 17q-19 0 -41 -10.5t-34 -29.5l-7 2q22 148 23 148h110q35 0 47 27l5 -1l-18 -83h-144l-11 -75q27 31 76 31
t80 -24t31 -67z" />
    <glyph glyph-name="uni2157" unicode="&#x2157;" horiz-adv-x="393" 
d="M314 480q0 -39 -34 -65t-81 -26q-52 0 -83.5 22t-31.5 53q0 11 8 19.5t19 8.5q27 0 32 -31q7 -34 19 -49t34 -15t32 18.5t10 63.5q0 41 -6 56.5t-20 15.5q-6 0 -18 -6l-34 -16l-3 7l38 19q27 13 27 73q0 53 -29 53q-27 0 -40 -54q-8 -30 -32 -30q-11 0 -19 7t-8 20
q0 24 29.5 44.5t74.5 20.5q43 0 69.5 -15.5t26.5 -43.5q0 -21 -20.5 -40t-58.5 -32q41 0 70 -21t29 -57zM45 346h302v-10h-302v10zM297 92q0 -45 -35 -72.5t-79 -27.5q-49 0 -80.5 20.5t-31.5 47.5q0 12 8 20.5t19 8.5q25 0 32 -30q7 -35 18.5 -47t31.5 -12q23 0 32 20.5
t9 71.5q0 48 -8 65t-33 17q-19 0 -41 -10.5t-34 -29.5l-7 2q22 148 23 148h110q35 0 47 27l5 -1l-18 -83h-144l-11 -75q27 31 76 31t80 -24t31 -67z" />
    <glyph glyph-name="uni2158" unicode="&#x2158;" horiz-adv-x="393" 
d="M293 397h-20q-7 0 -23 1t-30 1t-30 -1t-23 -1h-36v8h17q21 0 29 10.5t8 37.5v22h-124v6l130 201q5 0 15 -0.5t16 -0.5t17 0.5t16 0.5v-198h3q17 0 30 17t35 57l5 -1l-18 -82h-55v-22q0 -27 7 -37.5t28 -10.5h3v-8zM185 484v171l-110 -171h110zM45 346h302v-10h-302v10z
M297 92q0 -45 -35 -72.5t-79 -27.5q-49 0 -80.5 20.5t-31.5 47.5q0 12 8 20.5t19 8.5q25 0 32 -30q7 -35 18.5 -47t31.5 -12q23 0 32 20.5t9 71.5q0 48 -8 65t-33 17q-19 0 -41 -10.5t-34 -29.5l-7 2q22 148 23 148h110q35 0 47 27l5 -1l-18 -83h-144l-11 -75q27 31 76 31
t80 -24t31 -67z" />
    <glyph glyph-name="uni2159" unicode="&#x2159;" horiz-adv-x="393" 
d="M276 397h-18q-10 0 -28 1t-31 1t-31 -1t-28 -1h-31v8h17q22 0 30 10.5t8 37.5v141q0 25 -16 25q-6 0 -32 -12l-3 7l6 3q33 16 66 41t43 41h6v-246q0 -27 7 -37.5t29 -10.5h6v-8zM45 346h302v-10h-302v10zM80 125q0 71 59 116t144 54l1 -8q-109 -12 -126 -121q23 25 61 25
q42 0 71 -25t29 -68q0 -44 -36 -75t-82 -31q-45 0 -83 33.5t-38 99.5zM155 126q0 -74 11.5 -100t35.5 -26q42 0 42 95q0 48 -9 67t-29 19q-26 0 -49 -26q-2 -16 -2 -29z" />
    <glyph glyph-name="uni215A" unicode="&#x215a;" horiz-adv-x="393" 
d="M310 489q0 -45 -35 -72.5t-79 -27.5q-49 0 -80.5 20.5t-31.5 47.5q0 12 8 20.5t19 8.5q25 0 32 -30q7 -35 18.5 -47t31.5 -12q23 0 32 20.5t9 71.5q0 48 -8 65t-33 17q-19 0 -41 -10.5t-34 -29.5l-7 2q22 148 23 148h110q35 0 47 27l5 -1l-18 -83h-144l-11 -75
q27 31 76 31t80 -24t31 -67zM45 346h302v-10h-302v10zM80 125q0 71 59 116t144 54l1 -8q-109 -12 -126 -121q23 25 61 25q42 0 71 -25t29 -68q0 -44 -36 -75t-82 -31q-45 0 -83 33.5t-38 99.5zM155 126q0 -74 11.5 -100t35.5 -26q42 0 42 95q0 48 -9 67t-29 19
q-26 0 -49 -26q-2 -16 -2 -29z" />
    <glyph glyph-name="uni215B" unicode="&#x215b;" horiz-adv-x="393" 
d="M276 397h-18q-10 0 -28 1t-31 1t-31 -1t-28 -1h-31v8h17q22 0 30 10.5t8 37.5v141q0 25 -16 25q-6 0 -32 -12l-3 7l6 3q33 16 66 41t43 41h6v-246q0 -27 7 -37.5t29 -10.5h6v-8zM45 346h302v-10h-302v10zM194 -8q-48 0 -80.5 20.5t-32.5 52.5q0 52 70 71q-55 25 -55 77
q0 37 30 58t71 21q39 0 66 -17t27 -44q0 -40 -55 -57q75 -31 75 -89q0 -42 -34 -67.5t-82 -25.5zM246 231q0 25 -13.5 38.5t-36.5 13.5t-36 -11t-13 -28q0 -30 46 -51l33 -15q20 20 20 53zM195 1q27 0 42 15t15 39q0 39 -53 61l-38 16q-12 -7 -19.5 -26.5t-7.5 -38.5
q0 -66 61 -66z" />
    <glyph glyph-name="uni215C" unicode="&#x215c;" horiz-adv-x="393" 
d="M314 480q0 -39 -34 -65t-81 -26q-52 0 -83.5 22t-31.5 53q0 11 8 19.5t19 8.5q27 0 32 -31q7 -34 19 -49t34 -15t32 18.5t10 63.5q0 41 -6 56.5t-20 15.5q-6 0 -18 -6l-34 -16l-3 7l38 19q27 13 27 73q0 53 -29 53q-27 0 -40 -54q-8 -30 -32 -30q-11 0 -19 7t-8 20
q0 24 29.5 44.5t74.5 20.5q43 0 69.5 -15.5t26.5 -43.5q0 -21 -20.5 -40t-58.5 -32q41 0 70 -21t29 -57zM45 346h302v-10h-302v10zM194 -8q-48 0 -80.5 20.5t-32.5 52.5q0 52 70 71q-55 25 -55 77q0 37 30 58t71 21q39 0 66 -17t27 -44q0 -40 -55 -57q75 -31 75 -89
q0 -42 -34 -67.5t-82 -25.5zM246 231q0 25 -13.5 38.5t-36.5 13.5t-36 -11t-13 -28q0 -30 46 -51l33 -15q20 20 20 53zM195 1q27 0 42 15t15 39q0 39 -53 61l-38 16q-12 -7 -19.5 -26.5t-7.5 -38.5q0 -66 61 -66z" />
    <glyph glyph-name="uni215D" unicode="&#x215d;" horiz-adv-x="393" 
d="M310 489q0 -45 -35 -72.5t-79 -27.5q-49 0 -80.5 20.5t-31.5 47.5q0 12 8 20.5t19 8.5q25 0 32 -30q7 -35 18.5 -47t31.5 -12q23 0 32 20.5t9 71.5q0 48 -8 65t-33 17q-19 0 -41 -10.5t-34 -29.5l-7 2q22 148 23 148h110q35 0 47 27l5 -1l-18 -83h-144l-11 -75
q27 31 76 31t80 -24t31 -67zM45 346h302v-10h-302v10zM194 -8q-48 0 -80.5 20.5t-32.5 52.5q0 52 70 71q-55 25 -55 77q0 37 30 58t71 21q39 0 66 -17t27 -44q0 -40 -55 -57q75 -31 75 -89q0 -42 -34 -67.5t-82 -25.5zM246 231q0 25 -13.5 38.5t-36.5 13.5t-36 -11t-13 -28
q0 -30 46 -51l33 -15q20 20 20 53zM195 1q27 0 42 15t15 39q0 39 -53 61l-38 16q-12 -7 -19.5 -26.5t-7.5 -38.5q0 -66 61 -66z" />
    <glyph glyph-name="uni215E" unicode="&#x215e;" horiz-adv-x="393" 
d="M191 389q-16 0 -27.5 10.5t-11.5 28.5q0 17 6 35t13 31.5t22.5 34t24.5 31t29.5 33.5t27.5 31h-115q-22 0 -33 -9t-20 -30l-7 2l26 121l7 -1q-1 -15 5 -20.5t21 -5.5h167v-4q-11 -15 -30 -38.5t-26 -33.5t-17.5 -29t-14.5 -37t-7 -46t-3 -65q0 -18 -10.5 -28.5
t-26.5 -10.5zM45 346h302v-10h-302v10zM194 -8q-48 0 -80.5 20.5t-32.5 52.5q0 52 70 71q-55 25 -55 77q0 37 30 58t71 21q39 0 66 -17t27 -44q0 -40 -55 -57q75 -31 75 -89q0 -42 -34 -67.5t-82 -25.5zM246 231q0 25 -13.5 38.5t-36.5 13.5t-36 -11t-13 -28q0 -30 46 -51
l33 -15q20 20 20 53zM195 1q27 0 42 15t15 39q0 39 -53 61l-38 16q-12 -7 -19.5 -26.5t-7.5 -38.5q0 -66 61 -66z" />
    <glyph glyph-name="partialdiff" unicode="&#x2202;" horiz-adv-x="526" 
d="M263 -8q-88 0 -158 68.5t-70 184.5q0 114 62.5 183.5t152.5 69.5q56 0 100 -33q-60 188 -253 221l2 8q167 -21 279.5 -132t112.5 -268q0 -85 -22.5 -147.5t-58.5 -94t-72.5 -46t-74.5 -14.5zM263 1q58 0 86 59t28 215q0 95 -22 174q-39 37 -90 37q-27 0 -46.5 -9.5
t-36 -34.5t-25 -74t-8.5 -123q0 -134 28.5 -189t85.5 -55z" />
    <glyph glyph-name="uni2206" unicode="&#x2206;" horiz-adv-x="629" 
d="M605 4v-4h-581v4l229 583l-38 94q11 0 30 -0.5t30 -0.5t28.5 0.5t27.5 0.5zM259 574l-220 -563h446z" />
    <glyph glyph-name="product" unicode="&#x220f;" horiz-adv-x="725" 
d="M688 0h-29q-13 0 -39.5 1.5t-42.5 1.5t-42.5 -1.5t-39.5 -1.5h-29v9h2q30 0 42.5 14.5t12.5 49.5v597h-321v-597q0 -35 12 -49.5t42 -14.5h3v-9h-30q-12 0 -38.5 1.5t-42.5 1.5q-17 0 -43 -1.5t-39 -1.5h-30v9h3q30 0 42 14.5t12 49.5v536q0 35 -12 49t-42 14h-3v9h28
q12 0 38 -0.5t42 -0.5t41.5 0.5t39.5 0.5h275q11 0 38 -0.5t43 -0.5q17 0 41 0.5t38 0.5h28v-9h-2q-30 0 -42.5 -14.5t-12.5 -48.5v-536q0 -35 12.5 -49.5t42.5 -14.5h2v-9z" />
    <glyph glyph-name="summation" unicode="&#x2211;" horiz-adv-x="613" 
d="M535 -68l-7 1q1 39 -13.5 53t-54.5 14h-425v4l260 287l-188 322q-14 24 -21.5 33.5t-21.5 17.5t-35 8h-3v9h33q14 0 38 -1t41 -1q20 0 50 1t47 1h211q39 0 39 30l7 2l84 -239l-7 -3q-92 129 -122 161q-34 38 -92 38h-155l180 -306l-241 -265h432z" />
    <glyph glyph-name="minus" unicode="&#x2212;" horiz-adv-x="494" 
d="M47 317v11h400v-11h-400z" />
    <glyph glyph-name="radical" unicode="&#x221a;" horiz-adv-x="517" 
d="M475 750l-263 -750h-9l-157 444l10 3l151 -429l258 735z" />
    <glyph glyph-name="infinity" unicode="&#x221e;" horiz-adv-x="756" 
d="M47 325q0 55 37.5 98t94.5 43q19 0 38.5 -6t33 -12.5t33.5 -23.5t29.5 -26t32.5 -33t32 -33q9 9 32 32.5t32.5 33t29.5 26t33.5 23.5t32.5 13t39 6q57 0 94.5 -43t37.5 -98t-37.5 -98t-94.5 -43q-17 0 -32 3t-31.5 12t-26.5 14.5t-28.5 22.5t-25 23.5l-28.5 28.5t-27 28
q-6 -6 -32 -32.5t-33 -33t-28.5 -24.5t-34.5 -24t-32.5 -12t-38.5 -6q-57 0 -94.5 43t-37.5 98zM58 325q0 -51 34.5 -90.5t86.5 -39.5q21 0 40 5.5t41.5 22.5t33 26t39.5 38l37 37q-9 9 -37 38t-39.5 38.5t-33 26t-40.5 22.5t-41 6q-52 0 -86.5 -39.5t-34.5 -90.5zM577 455
q-19 0 -37 -6t-31 -12.5t-32 -22.5t-28.5 -25.5t-31.5 -32.5t-31 -32q7 -7 36.5 -37t39.5 -38.5t32.5 -25.5t41.5 -22.5t41 -5.5q52 0 86.5 39.5t34.5 90.5t-34.5 90.5t-86.5 39.5z" />
    <glyph glyph-name="integral" unicode="&#x222b;" horiz-adv-x="369" 
d="M228 547v-490q0 -109 -67 -191q-38 -47 -91 -74t-100 -27q-22 0 -35 10.5t-13 26.5t10.5 26t29.5 10q14 0 48 -15t55 -15q61 0 61 110v490q0 110 66 191q39 47 91.5 73.5t99.5 26.5q23 0 35.5 -10t12.5 -26t-10.5 -26.5t-28.5 -10.5q-15 0 -49.5 15t-53.5 15
q-61 0 -61 -109z" />
    <glyph glyph-name="approxequal" unicode="&#x2248;" horiz-adv-x="538" 
d="M382 385q62 0 99 59l9 -6q-14 -25 -43 -44.5t-65 -19.5q-42 0 -114.5 31.5t-112.5 31.5q-62 0 -99 -59l-9 6q14 25 43 44.5t65 19.5q43 0 115.5 -31.5t111.5 -31.5zM382 209q62 0 99 59l9 -6q-14 -25 -43 -44.5t-65 -19.5q-42 0 -114.5 31.5t-112.5 31.5q-62 0 -99 -59
l-9 6q14 25 43 44.5t65 19.5q43 0 115.5 -31.5t111.5 -31.5z" />
    <glyph glyph-name="notequal" unicode="&#x2260;" horiz-adv-x="494" 
d="M447 228h-247l-61 -109l-10 6l58 103h-140v11h146l94 169h-240v11h245l57 102l10 -6l-53 -96h141v-11h-147l-94 -169h241v-11z" />
    <glyph glyph-name="lessequal" unicode="&#x2264;" horiz-adv-x="534" 
d="M83 379l373 122l4 -11l-360 -117l360 -117l-4 -11l-373 122v12zM47 109v11h440v-11h-440z" />
    <glyph glyph-name="greaterequal" unicode="&#x2265;" horiz-adv-x="534" 
d="M77 501l374 -122v-12l-374 -122l-3 11l359 117l-359 117zM487 120v-11h-440v11h440z" />
    <glyph glyph-name="lozenge" unicode="&#x25ca;" horiz-adv-x="536" 
d="M490 324l-218 -405h-8l-218 405l218 405h8zM477 324l-209 390l-209 -390l209 -390z" />
    <glyph glyph-name="uniF6C3" unicode="&#xf6c3;" horiz-adv-x="0" 
d="M-116 -162q-22 0 -36 14.5t-14 35.5t15 36t38 15q24 0 41.5 -18.5t17.5 -46.5q0 -52 -28 -84t-64 -39l-2 7q32 7 56 34.5t25 67.5q0 6 -1 11q-12 -33 -48 -33z" />
    <glyph glyph-name="uniF8FF" unicode="&#xf8ff;" horiz-adv-x="1231" 
d="M655 345q-7 0 -40 1.5t-40 1.5q-55 0 -85 -24t-53 -76q-53 -121 -163 -121q-13 0 -42.5 2t-40.5 2q-59 0 -95 -31t-36 -78q0 -16 1 -22h-10q-1 7 -1 22q0 52 39.5 85.5t102.5 33.5q12 0 42.5 -2t40.5 -2q104 0 153 115q22 51 55 78t92 27q7 0 40 -1.5t40 -1.5q55 0 85 24
t53 76q53 121 163 121q13 0 42.5 -2t40.5 -2q59 0 95 31t36 78q0 16 -1 22h10q1 -7 1 -22q0 -52 -39.5 -85.5t-102.5 -33.5q-12 0 -42.5 2t-40.5 2q-104 0 -153 -115q-22 -51 -55 -78t-92 -27z" />
    <glyph glyph-name="uni00A40301" horiz-adv-x="318" 
d="M132 729l-7 4q22 39 45 97t36 78q14 22 33 22q16 0 27 -11t11 -26q0 -14 -9 -26q-15 -19 -61.5 -60t-74.5 -78zM228 199q0 -78 -23 -141t-60 -100.5t-79.5 -57t-86.5 -19.5q-22 0 -35.5 11t-13.5 30q0 18 11.5 29.5t30.5 11.5t52.5 -21t48.5 -21q46 0 46 88v600
q0 35 -12 49t-42 14h-2v9h29q13 0 39.5 -1.5t42.5 -1.5t42.5 1.5t39.5 1.5h29v-9h-2q-30 0 -42.5 -14.5t-12.5 -48.5v-410z" />
    <glyph glyph-name="uni006A0301" horiz-adv-x="257" 
d="M78 538l-7 4q22 39 45 97t36 78q14 22 33 22q16 0 27 -11t11 -26q0 -14 -9 -26q-15 -19 -61.5 -60t-74.5 -78zM-37 -235q-22 0 -35.5 10t-13.5 26t11 26t28 10q20 0 49 -15.5t40 -15.5q22 0 33 14t11 48v522q0 33 -11 47t-42 14h-3v8h20q38 0 80 12t51 30h7v-456
q0 -102 -63 -185q-72 -95 -162 -95z" />
    <glyph glyph-name="i.trk" horiz-adv-x="270" 
d="M137 569q-26 0 -44 17t-18 43t18 43t44 17q25 0 43.5 -17t18.5 -43t-18.5 -43t-43.5 -17zM245 0h-25q-14 0 -39.5 1.5t-42.5 1.5t-42.5 -1.5t-38.5 -1.5h-25v8h2q32 0 42.5 14t10.5 48v320q0 33 -10.5 47t-42.5 14h-2v8h20q38 0 79.5 12t51.5 30h7v-431q0 -34 10.5 -48
t41.5 -14h3v-8z" />
    <glyph glyph-name="zero.osf" horiz-adv-x="544" 
d="M272 -8q-93 0 -160.5 75.5t-67.5 187.5t67.5 187.5t160.5 75.5t160.5 -75.5t67.5 -187.5t-67.5 -187.5t-160.5 -75.5zM272 1q38 0 61.5 19t38 76.5t14.5 158.5t-14.5 158.5t-38 76.5t-61.5 19t-61.5 -19t-38 -76.5t-14.5 -158.5t14.5 -158.5t38 -76.5t61.5 -19z" />
    <glyph glyph-name="one.osf" horiz-adv-x="293" 
d="M198 441v-372q0 -33 10.5 -47t42.5 -14h2v-8h-25q-13 0 -38.5 1.5t-42.5 1.5t-43 -1.5t-39 -1.5h-25v8h2q32 0 42.5 14t10.5 47v372q0 33 -10.5 47t-42.5 14h-2v8h25q13 0 39 -1.5t43 -1.5t42.5 1.5t38.5 1.5h25v-8h-2q-32 0 -42.5 -14t-10.5 -47z" />
    <glyph glyph-name="two.osf" horiz-adv-x="471" 
d="M421 391q0 -32 -13.5 -61t-42 -55.5t-54.5 -46.5t-70 -50t-69 -50l-44 -37h296l-32 -159l-7 1q1 39 -13 53t-53 14h-296v5l134 123q76 69 114 131t38 137q0 112 -75 112q-42 0 -65 -29t-40 -89q-11 -41 -44 -41q-16 0 -27 10.5t-11 27.5q0 45 58.5 87.5t132.5 42.5
q73 0 128 -35.5t55 -90.5z" />
    <glyph glyph-name="three.osf" horiz-adv-x="454" 
d="M416 129q0 -66 -61.5 -130t-148 -104.5t-167.5 -48.5l-1 8q126 20 196 106t70 181q0 98 -64 98q-21 0 -47 -13l-55 -27l-4 9l65 33q47 24 66.5 51.5t19.5 93.5q0 59 -16.5 90.5t-60.5 31.5q-40 0 -63.5 -29.5t-39.5 -85.5q-13 -44 -47 -44q-16 0 -26 10.5t-10 29.5
q0 43 58.5 85.5t132.5 42.5q72 0 127 -35t55 -87q0 -80 -159 -145q41 3 79.5 -5.5t69.5 -38.5t31 -77z" />
    <glyph glyph-name="four.osf" horiz-adv-x="519" 
d="M361 35v-105q0 -33 11 -47.5t42 -14.5h3v-8h-26q-13 0 -38.5 2t-42.5 2t-42.5 -2t-39.5 -2h-43v8h16q33 0 45.5 15t12.5 47v105h-264v6l273 470q8 0 23.5 -1t22.5 -1q6 0 21 1t26 1v-466h5q43 0 86 64q13 19 51 86l7 -2l-33 -158h-116zM259 45v429l-250 -429h250z" />
    <glyph glyph-name="five.osf" horiz-adv-x="459" 
d="M416 142q0 -106 -112.5 -190.5t-263.5 -105.5l-1 9q74 13 127.5 44t82 73t41.5 85t13 89q0 126 -83 126q-43 0 -90 -28t-71 -74l-9 3l47 338h222q39 0 57 8.5t30 33.5l7 -2l-30 -131h-289l-31 -225q28 39 74.5 63.5t95.5 24.5q83 0 133 -38t50 -103z" />
    <glyph glyph-name="six.osf" horiz-adv-x="534" 
d="M274 -9q-39 0 -76.5 15t-73 46.5t-57.5 90t-22 135.5q0 145 114.5 255.5t273.5 128.5l1 -8q-235 -38 -272 -295q24 27 62.5 44.5t76.5 17.5q33 0 66 -11t63 -33.5t48.5 -64t18.5 -96.5q0 -98 -70.5 -161.5t-152.5 -63.5zM274 0q109 0 109 210q0 109 -25 154.5t-72 45.5
q-30 0 -65 -17.5t-60 -47.5q-3 -60 -3 -69q0 -108 14.5 -170.5t38.5 -84t63 -21.5z" />
    <glyph glyph-name="seven.osf" horiz-adv-x="450" 
d="M242 -86q0 -28 -16.5 -45t-41.5 -17q-26 0 -43 16.5t-17 44.5q0 57 19 117.5t61 130t71 110.5t86 117q16 22 24 32h-248q-44 0 -66.5 -15t-39.5 -56l-7 2l43 201l7 -1q2 -24 16 -32t41 -8h324v-4q-104 -150 -127 -189q-65 -114 -79 -256q-7 -64 -7 -148z" />
    <glyph glyph-name="eight.osf" horiz-adv-x="526" 
d="M264 -10q-100 0 -163 47t-63 125q0 54 39.5 99.5t105.5 69.5q-51 25 -83 66t-32 92q0 75 58 123.5t136 48.5q75 0 130.5 -37.5t55.5 -100.5q0 -94 -110 -143q75 -34 113 -78.5t38 -113.5q0 -89 -65.5 -143.5t-159.5 -54.5zM377 526q0 59 -29.5 92.5t-85.5 33.5
q-53 0 -86.5 -29.5t-33.5 -75.5q0 -86 98 -127l86 -36q22 21 36.5 61t14.5 81zM265 -1q64 0 102 38.5t38 99.5q0 103 -116 150l-95 39q-32 -20 -52 -65.5t-20 -90.5q0 -73 35.5 -122t107.5 -49z" />
    <glyph glyph-name="nine.osf" horiz-adv-x="533" 
d="M260 518q38 0 76 -15t73.5 -46.5t57.5 -90t22 -135.5q0 -145 -114.5 -255.5t-273.5 -129.5l-1 9q235 38 272 295q-24 -27 -62.5 -44.5t-76.5 -17.5q-33 0 -66 11t-63 33.5t-48.5 64t-18.5 96.5q0 98 70 161.5t153 63.5zM260 509q-109 0 -109 -211q0 -108 25 -153.5
t72 -45.5q30 0 65 17.5t60 47.5q3 60 3 68q0 109 -14.5 171t-38.5 84t-63 22z" />
    <glyph glyph-name="zero.osf_01" horiz-adv-x="596" 
d="M35 255q0 109 77 186t186 77t186 -77t77 -186t-77 -186t-186 -77t-186 77t-77 186zM48 255q0 -104 73 -177.5t177 -73.5t177 73.5t73 177.5t-73 177.5t-177 73.5t-177 -73.5t-73 -177.5z" />
    <glyph glyph-name="exclamdown.case" horiz-adv-x="264" 
d="M127 688q27 0 46 -19t19 -46q0 -26 -19 -45t-46 -19t-46 19t-19 45q0 27 19 46t46 19zM122 448h10v-32q0 -60 27 -184.5t27 -171.5q0 -32 -16 -50t-43 -18q-25 0 -41.5 18.5t-16.5 49.5q0 47 26.5 171.5t26.5 184.5v32z" />
    <glyph glyph-name="questiondown.case" horiz-adv-x="364" 
d="M212 689q27 0 46.5 -19t19.5 -46q0 -26 -19.5 -45t-46.5 -19t-46 19t-19 45q0 27 19 46t46 19zM207 449h10v-200q-66 -13 -103 -55.5t-37 -85.5q0 -29 18 -47t48 -18q32 0 74.5 26t60.5 26q20 0 32.5 -13t12.5 -33q0 -56 -84 -56q-86 0 -143 52.5t-57 128.5
q0 62 44 110.5t124 73.5v91z" />
    <glyph glyph-name="slash.case" horiz-adv-x="353" 
d="M331 773l-300 -893l-10 4l300 893z" />
    <glyph glyph-name="backslash.case" horiz-adv-x="353" 
d="M321 -120l-300 893l10 4l300 -893z" />
    <glyph glyph-name="parenleft.case" horiz-adv-x="317" 
d="M155 328q0 -341 154 -444l-4 -7q-116 68 -181.5 190.5t-65.5 260.5t65.5 261t181.5 191l4 -7q-154 -104 -154 -445z" />
    <glyph glyph-name="parenright.case" horiz-adv-x="317" 
d="M162 328q0 341 -154 445l4 7q116 -68 181.5 -191t65.5 -261t-65.5 -260.5t-181.5 -190.5l-4 7q154 103 154 444z" />
    <glyph glyph-name="braceleft.case" horiz-adv-x="325" 
d="M198 -9q0 -48 20 -68.5t82 -36.5l-2 -8q-95 23 -139.5 54.5t-44.5 102.5q0 33 5 94.5t5 77.5q0 57 -16 85t-66 30v10q50 2 66 30t16 85q0 16 -5 77.5t-5 94.5q0 71 44.5 102.5t139.5 54.5l2 -8q-62 -16 -82 -36.5t-20 -68.5q0 -21 5 -100t5 -102q0 -60 -29 -93.5
t-108 -40.5q79 -7 108 -40.5t29 -93.5q0 -23 -5 -102t-5 -100z" />
    <glyph glyph-name="braceright.case" horiz-adv-x="325" 
d="M127 -9q0 21 -4.5 100t-4.5 102q0 60 28.5 93.5t107.5 40.5q-79 7 -107.5 40.5t-28.5 93.5q0 23 4.5 102t4.5 100q0 48 -20 68.5t-81 36.5l2 8q95 -23 139 -54.5t44 -102.5q0 -33 -5 -94.5t-5 -77.5q0 -57 16 -85t66 -30v-10q-50 -2 -66 -30t-16 -85q0 -16 5 -77.5
t5 -94.5q0 -71 -44 -102.5t-139 -54.5l-2 8q61 16 81 36.5t20 68.5z" />
    <glyph glyph-name="bracketleft.case" horiz-adv-x="305" 
d="M89 -122v901q80 -4 187 -4v-9q-30 0 -70 -1t-68.5 -1.5t-31.5 -0.5q78 -192 78 -435q0 -242 -78 -434q3 0 31.5 -1t68.5 -1.5t70 -0.5v-9q-107 0 -187 -4z" />
    <glyph glyph-name="bracketright.case" horiz-adv-x="305" 
d="M216 779v-901q-60 3 -187 3v10q30 0 69.5 0.5t68.5 1.5t31 1q-77 197 -77 434q0 238 77 435q-2 0 -31 0.5t-68.5 1.5t-69.5 1v10q127 0 187 3z" />
    <glyph glyph-name="hyphen.case" horiz-adv-x="310" 
d="M249 309h-188v55h188v-55z" />
    <glyph glyph-name="uni00AD.case" horiz-adv-x="310" 
d="M249 319h-188v55h188v-55z" />
    <glyph glyph-name="endash.case" horiz-adv-x="512" 
d="M467 331h-422v11h422v-11z" />
    <glyph glyph-name="emdash.case" horiz-adv-x="988" 
d="M943 331h-898v11h898v-11z" />
    <glyph glyph-name="guillemotleft.case" horiz-adv-x="527" 
d="M287 132l-5 -6q-25 26 -83.5 73.5t-102 80t-52.5 38.5q9 6 52.5 38.5t102 80t83.5 73.5l5 -6q-38 -44 -126 -186q88 -142 126 -186zM467 132l-6 -6q-25 26 -83.5 73.5t-102 80t-51.5 38.5q8 6 51.5 38.5t102 80t83.5 73.5l6 -6q-54 -62 -127 -186q73 -124 127 -186z" />
    <glyph glyph-name="guillemotright.case" horiz-adv-x="527" 
d="M66 126l-6 6q61 70 127 186q-66 116 -127 186l6 6q25 -26 83.5 -73.5t102 -80t51.5 -38.5q-8 -6 -51.5 -38.5t-102 -80t-83.5 -73.5zM245 126l-6 6q61 70 127 186q-77 128 -127 186l6 6q25 -26 83.5 -73.5t102 -80t51.5 -38.5q-8 -6 -51.5 -38.5t-102 -80t-83.5 -73.5z
" />
    <glyph glyph-name="guilsinglleft.case" horiz-adv-x="348" 
d="M282 126q-25 26 -83.5 73.5t-102 80t-52.5 38.5q9 6 52.5 38.5t102 80t83.5 73.5l5 -6q-47 -54 -126 -186q79 -132 126 -186z" />
    <glyph glyph-name="guilsinglright.case" horiz-adv-x="348" 
d="M66 126l-6 6q18 21 40 52t36.5 53t32 50.5t18.5 30.5q-1 2 -18.5 30.5t-32 50.5t-36.5 53t-40 52l6 6q25 -26 83.5 -73.5t102 -80t51.5 -38.5q-8 -6 -51.5 -38.5t-102 -80t-83.5 -73.5z" />
    <glyph glyph-name="parenleft.subs" horiz-adv-x="185" 
d="M95 142q0 -54 13.5 -105t42.5 -76l-5 -6q-111 87 -111 187t111 187l5 -6q-29 -25 -42.5 -76t-13.5 -105z" />
    <glyph glyph-name="parenright.subs" horiz-adv-x="185" 
d="M91 142q0 54 -13.5 105t-42.5 76l5 6q111 -87 111 -187t-111 -187l-5 6q29 25 42.5 76t13.5 105z" />
    <glyph glyph-name="cent.osf" horiz-adv-x="512" 
d="M264 -8q-49 0 -92 23l-53 -159l-10 4l53 161q-50 31 -80.5 87t-30.5 130q0 119 68.5 189.5t160.5 70.5q22 0 39 -4l46 137l10 -4l-45 -136q53 -14 89.5 -53t36.5 -80q0 -18 -11 -30t-28 -12t-28 10.5t-11 27.5q0 3 0.5 13.5t0.5 21.5q0 71 -53 92l-124 -375
q41 -68 109 -68q49 0 86 31.5t56 92.5l8 -2q-24 -80 -74.5 -124t-122.5 -44zM162 285q0 -103 33 -167l121 367q-18 4 -31 4q-56 0 -89.5 -53t-33.5 -151z" />
    <glyph glyph-name="dollar.osf" horiz-adv-x="522" 
d="M270 -72h-11v67q-84 3 -149.5 40t-65.5 93q0 18 11.5 30t27.5 12q33 0 44 -37q13 -40 16 -48q16 -40 43 -59.5t73 -21.5v278l-57 18q-136 42 -136 171q0 77 54 126.5t139 49.5v69h11v-69q69 -2 127 -39t58 -87q0 -17 -11.5 -28t-26.5 -11q-31 0 -42 35q-3 7 -7 21.5
t-6 21.5q-14 40 -35.5 58t-56.5 20v-243l57 -17q148 -44 148 -180q0 -95 -61.5 -149t-140.5 -54h-3v-67zM118 524q0 -45 27.5 -72t89.5 -47l24 -8v241q-68 0 -104.5 -33t-36.5 -81zM412 137q0 56 -30 87.5t-93 49.5l-19 6v-276h2q65 0 102.5 38.5t37.5 94.5z" />
    <glyph glyph-name="Euro.osf" horiz-adv-x="624" 
d="M109 324q0 16 2 54h-90v10h91q15 123 87 198t175 75q71 0 133 -37.5t62 -88.5q0 -18 -10.5 -29t-27.5 -11q-27 0 -40 31q-5 11 -19 52q-15 40 -38 57t-60 17q-43 0 -72 -19t-44.5 -57.5t-21.5 -82t-8 -105.5h220v-10h-220v-105h220v-11h-220q2 -62 8 -105.5t21.5 -81.5
t44.5 -57t72 -19q38 0 61.5 17.5t38.5 58.5q1 3 7 21.5t10 27.5q13 31 40 31q17 0 27.5 -11t10.5 -28q0 -51 -61.5 -88.5t-133.5 -37.5q-103 0 -175 75t-87 197h-91v11h90q-2 34 -2 51z" />
    <glyph glyph-name="sterling.osf" horiz-adv-x="573" 
d="M419 -9q-27 0 -60.5 13.5t-51 24t-56.5 36.5q-55 -75 -139 -75q-34 0 -59 19.5t-25 52.5q0 35 29.5 57t75.5 22q38 0 103 -20q2 9 2 25q-3 64 -52 158h-112v10h106q-20 38 -30 61t-19 55.5t-9 62.5q0 74 59 121t133 47q71 0 130.5 -37t59.5 -89q0 -18 -10.5 -29
t-26.5 -11q-20 0 -30 12t-18 43q-14 56 -38.5 79t-64.5 23q-43 0 -66 -28t-23 -73q0 -28 5.5 -61t11.5 -54.5t18.5 -62.5t17.5 -59h158v-10h-155q14 -56 14 -96q0 -53 -19 -97q114 -36 157 -36q73 0 73 74q0 44 -26 82l7 5q38 -54 38 -120q0 -57 -29.5 -91t-78.5 -34zM112 0
q41 0 72 21t45 59q-72 45 -118 45q-30 0 -51.5 -17t-21.5 -46t21.5 -45.5t52.5 -16.5z" />
    <glyph glyph-name="yen.osf" horiz-adv-x="585" 
d="M406 0h-31q-12 0 -38 1.5t-42 1.5q-15 0 -41 -1.5t-38 -1.5h-31v9h2q30 0 42.5 13.5t12.5 46.5v84h-135v11h135v84h-135v10h135v44l-174 291q-29 49 -74 49v9h37q9 0 35 -1.5t42 -1.5t43.5 1.5t36.5 1.5h39v-9q-42 0 -42 -26q0 -15 11 -32l146 -243l94 171q31 55 31 81
q0 49 -62 49h-1v9h12q12 0 43.5 -1.5t44.5 -1.5q9 0 38.5 1.5t39.5 1.5h16v-9h-1q-78 -1 -153 -137l-96 -175v-72h135v-10h-135v-84h135v-11h-135v-84q0 -33 12.5 -46.5t43.5 -13.5h2v-9z" />
    <glyph glyph-name="plus.osf" horiz-adv-x="540" 
d="M275 33h-11v214h-214v11h214v215h11v-215h215v-11h-215v-214z" />
    <glyph glyph-name="minus.osf" horiz-adv-x="500" 
d="M50 247v11h400v-11h-400z" />
    <glyph glyph-name="multiply.osf" horiz-adv-x="441" 
d="M390 415l-162 -162l163 -162l-8 -8l-163 162l-162 -162l-8 8l162 162l-162 162l8 8l162 -162l162 162z" />
    <glyph glyph-name="divide.osf" horiz-adv-x="540" 
d="M264 354q-26 0 -44.5 17.5t-18.5 43.5q0 27 18.5 45t44.5 18t44.5 -18t18.5 -45q0 -26 -18.5 -43.5t-44.5 -17.5zM50 247v11h440v-11h-440zM264 27q-26 0 -44.5 18t-18.5 44t18.5 44t44.5 18t44.5 -18t18.5 -44t-18.5 -44t-44.5 -18z" />
    <glyph glyph-name="equal.osf" horiz-adv-x="500" 
d="M50 338v11h400v-11h-400zM50 158v11h400v-11h-400z" />
    <glyph glyph-name="notequal.osf" horiz-adv-x="500" 
d="M450 158h-247l-61 -109l-10 6l58 103h-140v11h146l94 169h-240v11h245l57 102l10 -6l-53 -96h141v-11h-147l-94 -169h241v-11z" />
    <glyph glyph-name="greater.osf" horiz-adv-x="480" 
d="M55 433l375 -174v-12l-375 -174l-5 10l368 170l-368 170z" />
    <glyph glyph-name="less.osf" horiz-adv-x="480" 
d="M50 259l375 174l5 -10l-368 -170l368 -170l-5 -10l-375 174v12z" />
    <glyph glyph-name="greaterequal.osf" horiz-adv-x="540" 
d="M80 431l374 -122v-12l-374 -122l-3 11l359 117l-359 117zM490 50v-11h-440v11h440z" />
    <glyph glyph-name="lessequal.osf" horiz-adv-x="540" 
d="M86 309l373 122l4 -11l-360 -117l360 -117l-4 -11l-373 122v12zM50 39v11h440v-11h-440z" />
    <glyph glyph-name="plusminus.osf" horiz-adv-x="500" 
d="M50 300v11h194v164h11v-164h195v-11h-195v-168h-11v168h-194zM50 40v11h400v-11h-400z" />
    <glyph glyph-name="approxequal.osf" horiz-adv-x="543" 
d="M385 315q62 0 99 59l9 -6q-14 -25 -43 -44.5t-65 -19.5q-42 0 -114.5 31.5t-112.5 31.5q-62 0 -99 -59l-9 6q14 25 43 44.5t65 19.5q43 0 115.5 -31.5t111.5 -31.5zM385 139q62 0 99 59l9 -6q-14 -25 -43 -44.5t-65 -19.5q-42 0 -114.5 31.5t-112.5 31.5q-62 0 -99 -59
l-9 6q14 25 43 44.5t65 19.5q43 0 115.5 -31.5t111.5 -31.5z" />
    <glyph glyph-name="asciitilde.osf" horiz-adv-x="543" 
d="M385 211q-42 0 -114.5 31.5t-112.5 31.5q-62 0 -99 -59l-9 6q14 25 43 44.5t65 19.5q43 0 115.5 -31.5t111.5 -31.5q61 0 99 58l9 -5q-14 -25 -43 -44.5t-65 -19.5z" />
    <glyph glyph-name="logicalnot.osf" horiz-adv-x="517" 
d="M467 38h-11v212h-406v11h417v-223z" />
    <glyph glyph-name="asciicircum.osf" horiz-adv-x="454" 
d="M404 322l-10 -5l-167 373l-167 -373l-10 5l172 383h9z" />
    </font>
</defs>
</svg>
