<svg id="Vector_Smart_Object" data-name="Vector Smart Object" xmlns="http://www.w3.org/2000/svg" width="16.454" height="16.454" viewBox="0 0 16.454 16.454">
  <g id="Group_5" data-name="Group 5" transform="translate(0 0)">
    <path id="Path_41" data-name="Path 41" d="M75.121,42.812a2.842,2.842,0,0,0-2.742-2.742H61.409a2.842,2.842,0,0,0-2.742,2.742V53.782a2.842,2.842,0,0,0,2.742,2.742h5.485V50.308H64.882V47.566h2.011V46.5A3.375,3.375,0,0,1,69.979,43H72.2v2.742H69.979a.671.671,0,0,0-.526.736v1.093H72.2v2.742H69.453v6.216h2.925a2.842,2.842,0,0,0,2.742-2.742Zm0,0" transform="translate(-58.667 -40.07)" fill="#575757"/>
  </g>
</svg>
