<svg xmlns="http://www.w3.org/2000/svg" width="19.227" height="19.227" viewBox="0 0 19.227 19.227">
  <g id="Group_5" data-name="Group 5" transform="translate(0)">
    <path id="Path_41" data-name="Path 41" d="M77.894,43.274a3.321,3.321,0,0,0-3.2-3.2H61.871a3.321,3.321,0,0,0-3.2,3.2V56.093a3.321,3.321,0,0,0,3.2,3.2H68.28V52.034H65.93v-3.2h2.35V47.581a3.943,3.943,0,0,1,3.605-4.092h2.59v3.2h-2.59a.784.784,0,0,0-.614.86v1.277h3.2v3.2h-3.2V59.3h3.418a3.321,3.321,0,0,0,3.2-3.2Zm0,0" transform="translate(-58.667 -40.07)" fill="#c9c9c9"/>
  </g>
</svg>
