<svg id="atg_logo_" xmlns="http://www.w3.org/2000/svg" width="110" height="107.684" viewBox="0 0 110 107.684">
  <path id="Path_1" data-name="Path 1" d="M-88.218,52.228a27.131,27.131,0,0,0-5.7,3.206c-3.211,2.616-5.144,4.292-5.144,9.154V89.9c.02,3.667.6,7.22,2.878,10.279,1.642,2.206,3.115,3.139,5.795,4.625.329.145.788.466,1.295.767a.172.172,0,0,1-.087.32H-100.57a11.778,11.778,0,0,1-11.778-11.778V92.944c.023-18.113.04-35.973,0-54.086A12.9,12.9,0,0,1-105.3,26.83a13.85,13.85,0,0,1,5.332-1.307c.694-.069.949.165.953.875V49.856a2.371,2.371,0,0,0,2.372,2.372Z" transform="translate(160.446 -25.512)" fill="#fff"/>
  <path id="Path_2" data-name="Path 2" d="M-74.243,43.9a6.864,6.864,0,0,0-6.863,6.865v52.978a14.131,14.131,0,0,1-6.679,12.288c-1.164.768-2.407,1.418-3.614,2.123,4.479.071,8.932.532,13.34-.369a12.554,12.554,0,0,0,7.382-3.994c2.586-3.03,3.276-6.7,3.285-10.519.027-12.8.018-36.68.014-52.514A6.861,6.861,0,0,0-74.243,43.9Z" transform="translate(177.374 -10.652)" fill="#fff"/>
  <path id="Path_3" data-name="Path 3" d="M-83.716,55.24c-.009-4.07,1.022-7.724,3.891-10.715a21.436,21.436,0,0,1,6.4-4.225H-84.441a13.58,13.58,0,0,0-8.127,2.721c-2.665,2.117-4.9,4.746-4.9,8.3V82.33h0A11.614,11.614,0,0,0-85.857,93.944h.8c1.343.009,1.345.04,1.343-1.3Z" transform="translate(172.469 -13.562)" fill="#fff"/>
  <path id="Path_4" data-name="Path 4" d="M-105.849,51.449c0-3.555-2.237-6.185-4.9-8.3a13.692,13.692,0,0,0-8.127-2.844H-129.9a21.773,21.773,0,0,1,6.4,4.35,14.7,14.7,0,0,1,3.945,10.713c-.031,12.467-.038,24.807-.054,37.275,0,1.342,0,1.311,1.343,1.3,5.829-.04,12.411-4.513,12.411-11.613Z" transform="translate(146.266 -13.56)" fill="#fff"/>
  <path id="Path_5" data-name="Path 5" d="M-126.594,51.424A12.357,12.357,0,0,0-138.95,63.78V73.81h0A11.146,11.146,0,0,0-127.8,84.956h12.9a21.808,21.808,0,0,1-6.4-4.35c-2.869-2.991-3.9-6.645-3.891-10.715.031-12.44-.016-4.734,0-17.084a1.382,1.382,0,0,0-1.4-1.383Z" transform="translate(138.95 -4.573)" fill="#fff"/>
  <ellipse id="Ellipse_1" data-name="Ellipse 1" cx="6.874" cy="6.874" rx="6.874" ry="6.874" transform="translate(74.999 86.121)" fill="#b38321"/>
  <g id="Group_1" data-name="Group 1" transform="translate(5.097 88.281)">
    <path id="Path_6" data-name="Path 6" d="M-129.231,77.054c0,2.667-2.931,2.49-4.385,2.49V83.7h-1.39v-7.95a1.249,1.249,0,0,0-1.125-1.239V74.45h2.515C-132.162,74.45-129.231,74.412-129.231,77.054Zm-1.49,0a1.964,1.964,0,0,0-1.909-2.161h-.985V79.05h.985A1.7,1.7,0,0,0-130.721,77.054Z" transform="translate(136.131 -74.248)" fill="#fff"/>
    <path id="Path_7" data-name="Path 7" d="M-123.272,83.7h-1.568l-2.945-4.171c-.38.013-.732.013-1.036.013V83.7h-1.39v-7.95a1.249,1.249,0,0,0-1.125-1.239V74.45h2.515c1.454,0,4.384-.038,4.384,2.591a2.28,2.28,0,0,1-1.92,2.376Zm-3.1-5.182a1.3,1.3,0,0,0,.228-.354,2.162,2.162,0,0,0,.165-.481,3.586,3.586,0,0,0,.051-.644,1.949,1.949,0,0,0-1.9-2.148h-1V79.05h1a3.243,3.243,0,0,0,.494-.038,1.859,1.859,0,0,0,.682-.239A1.739,1.739,0,0,0-126.369,78.52Z" transform="translate(140.006 -74.248)" fill="#fff"/>
    <path id="Path_8" data-name="Path 8" d="M-116.975,79.14c0,3.35-2,4.815-4.462,4.815s-4.461-1.465-4.461-4.815c0-3.235,2-4.8,4.461-4.8S-116.975,75.88-116.975,79.14Zm-1.517,0c0-2.969-1.314-4.385-2.945-4.385s-2.944,1.441-2.944,4.385c0,3.059,1.327,4.386,2.944,4.386S-118.492,82.2-118.492,79.14Z" transform="translate(144.4 -74.338)" fill="#fff"/>
    <path id="Path_9" data-name="Path 9" d="M-116.6,82.362c0,.96-.747,1.5-2.087,1.5a1.95,1.95,0,0,1-1.439-.72l.466-.342a1.029,1.029,0,0,0,1.011.519c.81,0,.785-.96.785-.96V75.739c0-.544-.342-1.011-1.112-1.226V74.45h2.376Z" transform="translate(149.066 -74.248)" fill="#fff"/>
    <path id="Path_10" data-name="Path 10" d="M-109.826,83.221V83.7h-5.826V75.739c0-.544-.354-1.011-1.125-1.226V74.45h6.95v.481h-4.435V78.6h3.7v.568h-3.7v4.057Z" transform="translate(151.771 -74.248)" fill="#fff"/>
    <path id="Path_11" data-name="Path 11" d="M-103.307,82.076A4.119,4.119,0,0,1-107.074,84c-2.817,0-4.461-2.148-4.461-4.815s1.644-4.815,4.461-4.815a4.17,4.17,0,0,1,3.779,1.935l-.3.315c-2.895-3.475-6.344-1.175-6.344,2.566,0,3.439,3.437,6.053,6.319,2.591Z" transform="translate(156.007 -74.315)" fill="#fff"/>
    <path id="Path_12" data-name="Path 12" d="M-98.478,75.018h-3.059V83.7h-1.39V75.018H-106V74.45h7.52Z" transform="translate(160.481 -74.248)" fill="#fff"/>
  </g>
</svg>
