<svg id="Vector_Smart_Object" data-name="Vector Smart Object" xmlns="http://www.w3.org/2000/svg" width="16.454" height="16.454" viewBox="0 0 16.454 16.454">
  <g id="Group_6" data-name="Group 6" transform="translate(0 0)">
    <path id="Path_42" data-name="Path 42" d="M40.542,18.729H33.169a4.546,4.546,0,0,0-4.541,4.541v7.372a4.546,4.546,0,0,0,4.541,4.541h7.373a4.546,4.546,0,0,0,4.541-4.541V23.269a4.546,4.546,0,0,0-4.541-4.541Zm3.081,11.913a3.084,3.084,0,0,1-3.081,3.081H33.169a3.084,3.084,0,0,1-3.081-3.081V23.269a3.084,3.084,0,0,1,3.081-3.081h7.373a3.084,3.084,0,0,1,3.081,3.081Zm0,0" transform="translate(-28.628 -18.729)" fill="#575757"/>
    <path id="Path_43" data-name="Path 43" d="M35.534,21.394a4.24,4.24,0,1,0,4.24,4.239,4.244,4.244,0,0,0-4.24-4.239Zm0,7.019a2.78,2.78,0,1,1,2.78-2.78,2.783,2.783,0,0,1-2.78,2.78Zm0,0" transform="translate(-27.307 -17.407)" fill="#575757"/>
    <path id="Path_44" data-name="Path 44" d="M37.437,20.567a1.07,1.07,0,1,0,.757.313,1.074,1.074,0,0,0-.757-.313Zm0,0" transform="translate(-24.792 -17.817)" fill="#575757"/>
  </g>
</svg>
