<svg id="Vector_Smart_Object" data-name="Vector Smart Object" xmlns="http://www.w3.org/2000/svg" width="19.227" height="19.228" viewBox="0 0 19.227 19.228">
  <g id="Group_6" data-name="Group 6" transform="translate(0 0)">
    <path id="Path_42" data-name="Path 42" d="M42.55,18.729H33.934a5.312,5.312,0,0,0-5.306,5.306V32.65a5.312,5.312,0,0,0,5.306,5.306H42.55a5.312,5.312,0,0,0,5.306-5.306V24.035a5.312,5.312,0,0,0-5.306-5.306Zm3.6,13.921a3.6,3.6,0,0,1-3.6,3.6H33.934a3.6,3.6,0,0,1-3.6-3.6V24.035a3.6,3.6,0,0,1,3.6-3.6H42.55a3.6,3.6,0,0,1,3.6,3.6Zm0,0" transform="translate(-28.628 -18.729)" fill="#c9c9c9"/>
    <path id="Path_43" data-name="Path 43" d="M36.249,21.394A4.954,4.954,0,1,0,41.2,26.348a4.96,4.96,0,0,0-4.955-4.954Zm0,8.2A3.248,3.248,0,1,1,39.5,26.348,3.252,3.252,0,0,1,36.249,29.6Zm0,0" transform="translate(-26.635 -16.735)" fill="#c9c9c9"/>
    <path id="Path_44" data-name="Path 44" d="M37.617,20.567a1.25,1.25,0,1,0,.885.366,1.255,1.255,0,0,0-.885-.366Zm0,0" transform="translate(-22.841 -17.354)" fill="#c9c9c9"/>
  </g>
</svg>
