<svg xmlns="http://www.w3.org/2000/svg" width="108.985" height="22.499" viewBox="0 0 108.985 22.499">
  <g id="Group_125" data-name="Group 125" transform="translate(-1502.015 -4915)">
    <g id="Group_124" data-name="Group 124" transform="translate(156 534)">
      <g id="Group_120" data-name="Group 120" transform="translate(4 -24.09)">
        <path id="Path_159" data-name="Path 159" d="M40.583,52.095c2.918,0,4.787,1.048,5.666,3.116a.314.314,0,0,1-.17.481l-.425.169a.345.345,0,0,1-.481-.141c-.68-1.671-1.954-2.521-4.56-2.521-2.832,0-4.249.991-4.249,2.946.141,1.643.594,2.323,1.982,2.69a6.751,6.751,0,0,0,1.218.256c.311.028.85.085,1.558.169a9.564,9.564,0,0,1,3.767.906A3.162,3.162,0,0,1,46.5,63.283c0,2.606-1.869,4.136-5.637,4.136q-4.631,0-6.033-3.569a.317.317,0,0,1,.2-.453l.481-.142c.2-.085.34,0,.425.2.708,1.926,2.323,2.89,4.9,2.89,2.975,0,4.476-.992,4.476-3,0-2.153-1.388-2.691-4.447-3-.765-.085-1.36-.142-1.757-.2a8.575,8.575,0,0,1-1.473-.369,3.08,3.08,0,0,1-1.332-.679,3.886,3.886,0,0,1-1.132-2.918C35.174,53.568,37.043,52.095,40.583,52.095Z" transform="translate(1307.214 4358.531)" fill="#fff"/>
        <path id="Path_160" data-name="Path 160" d="M54.891,52.681c.227,0,.34.114.34.312v13.85a.3.3,0,0,1-.34.34h-.566c-.2,0-.312-.113-.312-.34V52.993a.284.284,0,0,1,.312-.312Z" transform="translate(1301.912 4358.369)" fill="#fff"/>
        <path id="Path_161" data-name="Path 161" d="M66.524,52.095c.2,0,.311.113.311.34v.453c0,.227-.113.34-.311.34h-.907a11.751,11.751,0,0,0-4.277.737.982.982,0,0,0-.6.934V66.681c0,.227-.113.34-.311.34h-.566a.3.3,0,0,1-.34-.34V54.559c0-.878.2-1.19,1.077-1.557a13.683,13.683,0,0,1,5.042-.907Z" transform="translate(1300.391 4358.531)" fill="#fff"/>
        <path id="Path_162" data-name="Path 162" d="M101.059,44.449,99.9,51a13.432,13.432,0,0,0-5.013-1.019c-3.626,0-5.438,1.84-5.438,5.551v4.136c0,3.767,1.954,5.637,5.863,5.637a12.644,12.644,0,0,0,4.674-.821c.907-.369,1.132-.652,1.132-1.558V44.449ZM99.9,62.589c0,.6-.085.708-.68.963A11.289,11.289,0,0,1,95.4,64.2c-3.173,0-4.758-1.529-4.758-4.561V55.564c0-2.974,1.473-4.447,4.419-4.447A11.22,11.22,0,0,1,99.9,52.194Z" transform="translate(1292.133 4360.641)" fill="#d8d81a"/>
        <path id="Path_163" data-name="Path 163" d="M70.1,57.646c0-3.711,1.813-5.551,5.438-5.551a13.439,13.439,0,0,1,5.014,1.019v-.257a.3.3,0,0,1,.34-.34h.538a.3.3,0,0,1,.34.34V65.039c0,.906-.227,1.19-1.133,1.558a12.638,12.638,0,0,1-4.674.821c-3.908,0-5.863-1.869-5.863-5.637ZM80.549,54.3a11.225,11.225,0,0,0-4.844-1.077c-2.946,0-4.419,1.473-4.419,4.447v4.078c0,3.032,1.586,4.561,4.759,4.561a11.289,11.289,0,0,0,3.824-.652c.594-.255.68-.368.68-.963Z" transform="translate(1297.474 4358.531)" fill="#fff"/>
        <path id="Path_164" data-name="Path 164" d="M111.1,52.681c.227,0,.34.114.34.312v13.85a.3.3,0,0,1-.34.34h-.567c-.2,0-.311-.113-.311-.34V52.993a.284.284,0,0,1,.311-.312Z" transform="translate(1286.401 4358.369)" fill="#fff"/>
        <path id="Path_165" data-name="Path 165" d="M121.281,52.095c2.917,0,4.787,1.048,5.665,3.116a.314.314,0,0,1-.17.481l-.424.169a.346.346,0,0,1-.482-.141c-.679-1.671-1.954-2.521-4.56-2.521-2.832,0-4.248.991-4.248,2.946.141,1.643.594,2.323,1.982,2.69a6.739,6.739,0,0,0,1.218.256c.311.028.849.085,1.557.169a9.565,9.565,0,0,1,3.768.906,3.163,3.163,0,0,1,1.614,3.116c0,2.606-1.869,4.136-5.637,4.136q-4.631,0-6.033-3.569a.317.317,0,0,1,.2-.453l.481-.142c.2-.085.34,0,.424.2.708,1.926,2.323,2.89,4.9,2.89,2.974,0,4.475-.992,4.475-3,0-2.153-1.387-2.691-4.447-3-.765-.085-1.359-.142-1.756-.2a8.543,8.543,0,0,1-1.473-.369A3.071,3.071,0,0,1,117,59.091a3.886,3.886,0,0,1-1.133-2.918C115.871,53.568,117.741,52.095,121.281,52.095Z" transform="translate(1284.945 4358.531)" fill="#fff"/>
        <path id="Path_166" data-name="Path 166" d="M136.763,52.681c.227,0,.34.114.34.312v13.85a.3.3,0,0,1-.34.34H136.2c-.2,0-.311-.113-.311-.34V52.993a.283.283,0,0,1,.311-.312Z" transform="translate(1279.319 4358.369)" fill="#fff"/>
        <path id="Path_167" data-name="Path 167" d="M123.512,73.886c.227,0,.34.113.34.311v.534a.3.3,0,0,1-.34.34h-.566c-.2,0-.311-.114-.311-.34V74.2a.283.283,0,0,1,.311-.311Z" transform="translate(1282.977 4352.517)" fill="#fff"/>
        <g id="Group_80" data-name="Group 80" transform="translate(1420.547 4410.953)">
          <path id="Path_168" data-name="Path 168" d="M144.528,52.64a1.211,1.211,0,0,1,1.378,1.254v.865a1.21,1.21,0,0,1-1.378,1.254h-.97c-.043,0-.062-.019-.062-.062V52.7c0-.043.019-.062.062-.062Zm1.159,1.254c0-.665-.413-1.05-1.155-1.05h-.817v2.965h.817c.737,0,1.155-.384,1.155-1.05Z" transform="translate(-143.329 -52.573)" fill="#fff"/>
          <path id="Path_169" data-name="Path 169" d="M148.334,52.7c0-.043.019-.062.061-.062h.1c.038,0,.057.02.057.062v3.249c0,.043-.019.062-.057.062h-.1c-.043,0-.061-.019-.061-.062Z" transform="translate(-144.664 -52.573)" fill="#fff"/>
          <path id="Path_170" data-name="Path 170" d="M152.663,54.287c.042,0,.062.024.062.067v.556a1.284,1.284,0,0,1-2.557-.033v-1.16c0-.736.447-1.169,1.279-1.169a1.114,1.114,0,0,1,1.249.827.066.066,0,0,1-.043.08l-.085.029a.056.056,0,0,1-.081-.038.918.918,0,0,0-1.04-.694c-.7,0-1.06.352-1.06.96v1.164a.929.929,0,0,0,1.064.974c.679,0,1.06-.356,1.06-.941V54.5h-1.017c-.043,0-.062-.02-.062-.062v-.085c0-.043.019-.062.062-.062Z" transform="translate(-145.17 -52.548)" fill="#fff"/>
          <path id="Path_171" data-name="Path 171" d="M155.175,52.7c0-.043.019-.062.062-.062h.1c.038,0,.057.02.057.062v3.249c0,.043-.019.062-.057.062h-.1c-.043,0-.062-.019-.062-.062Z" transform="translate(-146.551 -52.573)" fill="#fff"/>
          <path id="Path_172" data-name="Path 172" d="M159.036,52.64a.054.054,0,0,1,.062.062v.085c0,.038-.02.057-.062.057h-1.031v3.108c0,.043-.019.062-.056.062h-.1c-.043,0-.062-.019-.062-.062V52.844h-1.031c-.043,0-.062-.019-.062-.057V52.7c0-.043.019-.062.062-.062Z" transform="translate(-146.971 -52.573)" fill="#fff"/>
          <path id="Path_173" data-name="Path 173" d="M163.163,55.948c.014.038,0,.056-.047.056h-.086c-.062,0-.1-.019-.1-.052L162.5,54.9h-1.578l-.418,1.05c-.014.033-.047.052-.109.052h-.08c-.043,0-.057-.019-.043-.056l1.316-3.284a.081.081,0,0,1,.08-.057h.095a.077.077,0,0,1,.081.057Zm-1.4-2.918c-.009-.028-.023-.095-.047-.2H161.7a.658.658,0,0,1-.038.2l-.675,1.687h1.449Z" transform="translate(-147.957 -52.564)" fill="#fff"/>
          <path id="Path_174" data-name="Path 174" d="M165.609,52.64c.038,0,.056.02.056.062v3.107h1.73a.05.05,0,0,1,.057.057v.085c0,.043-.019.062-.057.062H165.51c-.043,0-.062-.019-.062-.062V52.7c0-.043.019-.062.062-.062Z" transform="translate(-149.386 -52.573)" fill="#fff"/>
          <path id="Path_175" data-name="Path 175" d="M145.5,60.3c.043,0,.062.02.062.062v.085c0,.038-.019.056-.062.056h-1.781v1.359h1.577a.051.051,0,0,1,.057.057v.086c0,.043-.019.061-.057.061h-1.577v1.4h1.848c.043,0,.062.019.062.057v.085a.054.054,0,0,1-.062.062h-2c-.043,0-.062-.02-.062-.062V60.363c0-.043.019-.062.062-.062Z" transform="translate(-143.329 -54.688)" fill="#fff"/>
          <path id="Path_176" data-name="Path 176" d="M150.179,63.6c.033.048.028.072-.024.072h-.124a.133.133,0,0,1-.114-.052l-1.1-1.492-1.093,1.492a.133.133,0,0,1-.114.052h-.118c-.048,0-.057-.024-.029-.072l1.222-1.639-1.188-1.606c-.024-.038-.014-.057.033-.057h.124a.123.123,0,0,1,.109.052l1.064,1.435,1.06-1.435a.125.125,0,0,1,.109-.052h.124c.038,0,.052.034.028.057l-1.183,1.6Z" transform="translate(-144.418 -54.688)" fill="#fff"/>
          <path id="Path_177" data-name="Path 177" d="M153.755,60.3a1.032,1.032,0,1,1,0,2.063h-1.122v1.249c0,.043-.019.062-.057.062h-.1c-.043,0-.062-.02-.062-.062V60.363c0-.043.019-.062.062-.062Zm-.019,1.859a.827.827,0,1,0,0-1.654h-1.1V62.16Z" transform="translate(-145.79 -54.688)" fill="#fff"/>
          <path id="Path_178" data-name="Path 178" d="M159.069,60.3c.043,0,.062.02.062.062v.085c0,.038-.019.056-.062.056h-1.781v1.359h1.577a.051.051,0,0,1,.057.057v.086c0,.043-.019.061-.057.061h-1.577v1.4h1.848c.043,0,.062.019.062.057v.085a.054.054,0,0,1-.062.062h-2c-.043,0-.062-.02-.062-.062V60.363c0-.043.019-.062.062-.062Z" transform="translate(-147.074 -54.688)" fill="#fff"/>
          <path id="Path_179" data-name="Path 179" d="M162.832,60.3a.876.876,0,0,1,.964.951.852.852,0,0,1-.836.917.816.816,0,0,1,.389.39l.532,1.054c.029.043.019.062-.033.062h-.09c-.062,0-.105-.02-.119-.052l-.494-.979a.712.712,0,0,0-.737-.452h-.783v1.421c0,.043-.02.062-.057.062h-.1c-.043,0-.062-.02-.062-.062V60.363c0-.043.019-.062.062-.062Zm-.024.2h-1.183v1.483h1.183a.742.742,0,1,0,0-1.483Z" transform="translate(-148.271 -54.688)" fill="#fff"/>
          <path id="Path_180" data-name="Path 180" d="M166.2,60.363c0-.043.019-.062.062-.062h.1c.038,0,.057.02.057.062v3.249c0,.043-.02.062-.057.062h-.1c-.043,0-.062-.02-.062-.062Z" transform="translate(-149.595 -54.688)" fill="#fff"/>
          <path id="Path_181" data-name="Path 181" d="M170.176,60.3a.054.054,0,0,1,.062.062v.085c0,.038-.02.056-.062.056h-1.782v1.359h1.578a.051.051,0,0,1,.057.057v.086c0,.043-.019.061-.057.061h-1.578v1.4h1.848c.043,0,.062.019.062.057v.085a.054.054,0,0,1-.062.062h-2c-.043,0-.062-.02-.062-.062V60.363c0-.043.019-.062.062-.062Z" transform="translate(-150.139 -54.688)" fill="#fff"/>
          <path id="Path_182" data-name="Path 182" d="M174.946,60.3c.038,0,.057.02.057.062v3.249c0,.043-.02.062-.057.062h-.1a.077.077,0,0,1-.067-.038l-1.686-2.4a3.432,3.432,0,0,1-.209-.337,2.966,2.966,0,0,0-.176-.281H172.7c0,.053,0,.167.014.347s.014.329.014.438v2.213c0,.043-.019.062-.057.062h-.095c-.043,0-.062-.02-.062-.062V60.363c0-.043.019-.062.062-.062h.095a.072.072,0,0,1,.067.034l1.639,2.342c.062.091.143.214.243.371s.161.261.195.309h.009c0-.062,0-.19-.014-.384s-.02-.352-.02-.471V60.358c0-.038.02-.057.062-.057Z" transform="translate(-151.336 -54.688)" fill="#fff"/>
          <path id="Path_183" data-name="Path 183" d="M177.488,61.379c0-.736.447-1.169,1.279-1.169a1.114,1.114,0,0,1,1.25.826.066.066,0,0,1-.043.081l-.086.028a.062.062,0,0,1-.08-.038.919.919,0,0,0-1.04-.694c-.689,0-1.06.352-1.06.96v1.173a1.092,1.092,0,0,0,2.11.248.058.058,0,0,1,.081-.038l.09.033a.053.053,0,0,1,.038.076,1.315,1.315,0,0,1-2.538-.323Z" transform="translate(-152.709 -54.662)" fill="#fff"/>
          <path id="Path_184" data-name="Path 184" d="M184.385,60.3a.054.054,0,0,1,.062.062v.085c0,.038-.02.056-.062.056H182.6v1.359h1.578a.051.051,0,0,1,.057.057v.086c0,.043-.02.061-.057.061H182.6v1.4h1.848c.043,0,.061.019.061.057v.085c0,.043-.019.062-.061.062h-2.006c-.043,0-.062-.02-.062-.062V60.363c0-.043.019-.062.062-.062Z" transform="translate(-154.06 -54.688)" fill="#fff"/>
          <path id="Path_185" data-name="Path 185" d="M144.525,67.871a1.22,1.22,0,0,1,1.245.736c.023.038.014.067-.029.081l-.095.043a.054.054,0,0,1-.076-.029,1.026,1.026,0,0,0-1.045-.622c-.613,0-.969.266-.969.722a.579.579,0,0,0,.466.594,2.393,2.393,0,0,0,.6.114,2.644,2.644,0,0,1,.66.133.861.861,0,0,1,.281.152.816.816,0,0,1,.242.613c0,.623-.437.969-1.254.969a1.22,1.22,0,0,1-1.279-.832c-.014-.043,0-.071.033-.085l.091-.034c.033-.014.061,0,.08.038a1.073,1.073,0,0,0,1.074.7c.689,0,1.035-.251,1.035-.75a.559.559,0,0,0-.437-.585,2.976,2.976,0,0,0-.575-.109,4.148,4.148,0,0,1-.58-.1.822.822,0,0,1-.266-.1.753.753,0,0,1-.395-.7C143.333,68.232,143.78,67.871,144.525,67.871Z" transform="translate(-143.265 -56.777)" fill="#fff"/>
          <path id="Path_186" data-name="Path 186" d="M150.013,67.963c.043,0,.062.019.062.062v.085c0,.038-.02.057-.062.057h-1.031v3.107c0,.043-.019.062-.057.062h-.1c-.043,0-.061-.019-.061-.062V68.167h-1.031c-.043,0-.062-.019-.062-.057v-.085c0-.043.019-.062.062-.062Z" transform="translate(-144.481 -56.802)" fill="#fff"/>
          <path id="Path_187" data-name="Path 187" d="M152.391,70.2a1.034,1.034,0,0,0,2.067,0V68.025c0-.043.019-.062.057-.062h.1c.038,0,.057.019.057.062V70.2a1.253,1.253,0,0,1-2.5,0V68.025c0-.043.019-.062.062-.062h.1c.038,0,.057.019.057.062Z" transform="translate(-145.723 -56.802)" fill="#fff"/>
          <path id="Path_188" data-name="Path 188" d="M158.3,67.963a1.21,1.21,0,0,1,1.378,1.254v.865a1.21,1.21,0,0,1-1.378,1.254h-.969c-.043,0-.062-.019-.062-.062V68.025c0-.043.019-.062.062-.062Zm1.159,1.254c0-.665-.413-1.05-1.155-1.05h-.817v2.965h.817c.737,0,1.155-.384,1.155-1.05Z" transform="translate(-147.128 -56.802)" fill="#fff"/>
          <path id="Path_189" data-name="Path 189" d="M162.1,68.025c0-.043.019-.062.062-.062h.1c.038,0,.056.019.056.062v3.249c0,.043-.019.062-.056.062h-.1c-.043,0-.062-.019-.062-.062Z" transform="translate(-148.463 -56.802)" fill="#fff"/>
          <path id="Path_190" data-name="Path 190" d="M163.936,69.045a1.283,1.283,0,0,1,2.557,0V70.2a1.283,1.283,0,0,1-2.557,0Zm2.338,0a.921.921,0,0,0-1.055-.969c-.689,0-1.064.356-1.064.969V70.2c0,.613.376.969,1.064.969a.921.921,0,0,0,1.055-.969Z" transform="translate(-148.969 -56.777)" fill="#fff"/>
        </g>
      </g>
    </g>
  </g>
</svg>
