<svg id="Vector_Smart_Object" data-name="Vector Smart Object" xmlns="http://www.w3.org/2000/svg" width="24.471" height="17.479" viewBox="0 0 24.471 17.479">
  <path id="Path_46" data-name="Path 46" d="M23.431,4.412c-.664-1.227-1.384-1.452-2.851-1.538-1.465-.1-5.15-.146-8.342-.146s-6.884.043-8.348.145-2.186.311-2.855,1.54S0,7.747,0,11.462v.013c0,3.7.352,5.825,1.035,7.038s1.39,1.449,2.854,1.552,5.151.141,8.349.141,6.876-.052,8.343-.14c1.467-.1,2.187-.326,2.851-1.552.69-1.212,1.038-3.339,1.038-7.038v-.013C24.471,7.747,24.122,5.637,23.431,4.412ZM9.177,16.234V6.7l7.647,4.767Z" transform="translate(0 -2.727)" fill="#c9c9c9"/>
</svg>
