<svg id="Vector_Smart_Object" data-name="Vector Smart Object" xmlns="http://www.w3.org/2000/svg" width="20.941" height="14.958" viewBox="0 0 20.941 14.958">
  <path id="Path_46" data-name="Path 46" d="M20.051,4.169c-.568-1.05-1.185-1.243-2.44-1.316s-4.407-.125-7.138-.125-5.891.037-7.144.124S1.459,3.118.886,4.169,0,7.023,0,10.2v.011c0,3.166.3,4.985.886,6.023s1.19,1.24,2.442,1.329,4.408.121,7.145.121,5.885-.045,7.14-.12,1.872-.279,2.44-1.329c.59-1.038.889-2.857.889-6.023V10.2C20.941,7.023,20.643,5.217,20.051,4.169ZM7.853,14.286V6.127L14.4,10.206Z" transform="translate(0 -2.727)" fill="#575757"/>
</svg>
